%TF.GenerationSoftware,KiCad,Pcbnew,5.1.0-rc2-unknown-036be7d~80~ubuntu16.04.1*%
%TF.CreationDate,2022-02-04T13:28:53+02:00*%
%TF.ProjectId,STMP15x-SHIELD_Rev_A,53544d50-3135-4782-9d53-4849454c445f,A*%
%TF.SameCoordinates,Original*%
%TF.FileFunction,Legend,Bot*%
%TF.FilePolarity,Positive*%
%FSLAX46Y46*%
G04 Gerber Fmt 4.6, Leading zero omitted, Abs format (unit mm)*
G04 Created by KiCad (PCBNEW 5.1.0-rc2-unknown-036be7d~80~ubuntu16.04.1) date 2022-02-04 13:28:53*
%MOMM*%
%LPD*%
G04 APERTURE LIST*
%ADD10C,0.222250*%
%ADD11C,0.254000*%
%ADD12C,0.304800*%
%ADD13C,0.400000*%
%ADD14C,0.700000*%
%ADD15C,0.500000*%
%ADD16C,0.100000*%
%ADD17C,0.508000*%
%ADD18C,0.300000*%
%ADD19C,0.127000*%
%ADD20C,0.150000*%
%ADD21C,0.200000*%
%ADD22C,0.370000*%
%ADD23C,1.000000*%
%ADD24C,0.380000*%
%ADD25C,0.420000*%
%ADD26C,0.350000*%
%ADD27C,0.180000*%
G04 APERTURE END LIST*
D10*
X130788833Y-98615500D02*
X131677833Y-98615500D01*
X130788833Y-98107500D01*
X131677833Y-98107500D01*
X130788833Y-97176166D02*
X131212166Y-97472500D01*
X130788833Y-97684166D02*
X131677833Y-97684166D01*
X131677833Y-97345500D01*
X131635500Y-97260833D01*
X131593166Y-97218500D01*
X131508500Y-97176166D01*
X131381500Y-97176166D01*
X131296833Y-97218500D01*
X131254500Y-97260833D01*
X131212166Y-97345500D01*
X131212166Y-97684166D01*
X130831166Y-96837500D02*
X130788833Y-96710500D01*
X130788833Y-96498833D01*
X130831166Y-96414166D01*
X130873500Y-96371833D01*
X130958166Y-96329500D01*
X131042833Y-96329500D01*
X131127500Y-96371833D01*
X131169833Y-96414166D01*
X131212166Y-96498833D01*
X131254500Y-96668166D01*
X131296833Y-96752833D01*
X131339166Y-96795166D01*
X131423833Y-96837500D01*
X131508500Y-96837500D01*
X131593166Y-96795166D01*
X131635500Y-96752833D01*
X131677833Y-96668166D01*
X131677833Y-96456500D01*
X131635500Y-96329500D01*
X131677833Y-96075500D02*
X131677833Y-95567500D01*
X130788833Y-95821500D02*
X131677833Y-95821500D01*
X129032000Y-98022833D02*
X129074333Y-98107500D01*
X129074333Y-98234500D01*
X129032000Y-98361500D01*
X128947333Y-98446166D01*
X128862666Y-98488500D01*
X128693333Y-98530833D01*
X128566333Y-98530833D01*
X128397000Y-98488500D01*
X128312333Y-98446166D01*
X128227666Y-98361500D01*
X128185333Y-98234500D01*
X128185333Y-98149833D01*
X128227666Y-98022833D01*
X128270000Y-97980500D01*
X128566333Y-97980500D01*
X128566333Y-98149833D01*
X128185333Y-97599500D02*
X129074333Y-97599500D01*
X128185333Y-97091500D01*
X129074333Y-97091500D01*
X128185333Y-96668166D02*
X129074333Y-96668166D01*
X129074333Y-96456500D01*
X129032000Y-96329500D01*
X128947333Y-96244833D01*
X128862666Y-96202500D01*
X128693333Y-96160166D01*
X128566333Y-96160166D01*
X128397000Y-96202500D01*
X128312333Y-96244833D01*
X128227666Y-96329500D01*
X128185333Y-96456500D01*
X128185333Y-96668166D01*
D11*
X136410095Y-83826047D02*
X136228666Y-83886523D01*
X135926285Y-83886523D01*
X135805333Y-83826047D01*
X135744857Y-83765571D01*
X135684380Y-83644619D01*
X135684380Y-83523666D01*
X135744857Y-83402714D01*
X135805333Y-83342238D01*
X135926285Y-83281761D01*
X136168190Y-83221285D01*
X136289142Y-83160809D01*
X136349619Y-83100333D01*
X136410095Y-82979380D01*
X136410095Y-82858428D01*
X136349619Y-82737476D01*
X136289142Y-82677000D01*
X136168190Y-82616523D01*
X135865809Y-82616523D01*
X135684380Y-82677000D01*
X135321523Y-82616523D02*
X134595809Y-82616523D01*
X134958666Y-83886523D02*
X134958666Y-82616523D01*
X134172476Y-83886523D02*
X134172476Y-82616523D01*
X133749142Y-83523666D01*
X133325809Y-82616523D01*
X133325809Y-83886523D01*
X132721047Y-83886523D02*
X132721047Y-82616523D01*
X132237238Y-82616523D01*
X132116285Y-82677000D01*
X132055809Y-82737476D01*
X131995333Y-82858428D01*
X131995333Y-83039857D01*
X132055809Y-83160809D01*
X132116285Y-83221285D01*
X132237238Y-83281761D01*
X132721047Y-83281761D01*
X130785809Y-83886523D02*
X131511523Y-83886523D01*
X131148666Y-83886523D02*
X131148666Y-82616523D01*
X131269619Y-82797952D01*
X131390571Y-82918904D01*
X131511523Y-82979380D01*
X129636761Y-82616523D02*
X130241523Y-82616523D01*
X130302000Y-83221285D01*
X130241523Y-83160809D01*
X130120571Y-83100333D01*
X129818190Y-83100333D01*
X129697238Y-83160809D01*
X129636761Y-83221285D01*
X129576285Y-83342238D01*
X129576285Y-83644619D01*
X129636761Y-83765571D01*
X129697238Y-83826047D01*
X129818190Y-83886523D01*
X130120571Y-83886523D01*
X130241523Y-83826047D01*
X130302000Y-83765571D01*
X129152952Y-83886523D02*
X128487714Y-83039857D01*
X129152952Y-83039857D02*
X128487714Y-83886523D01*
X128003904Y-83402714D02*
X127036285Y-83402714D01*
X126492000Y-83826047D02*
X126310571Y-83886523D01*
X126008190Y-83886523D01*
X125887238Y-83826047D01*
X125826761Y-83765571D01*
X125766285Y-83644619D01*
X125766285Y-83523666D01*
X125826761Y-83402714D01*
X125887238Y-83342238D01*
X126008190Y-83281761D01*
X126250095Y-83221285D01*
X126371047Y-83160809D01*
X126431523Y-83100333D01*
X126492000Y-82979380D01*
X126492000Y-82858428D01*
X126431523Y-82737476D01*
X126371047Y-82677000D01*
X126250095Y-82616523D01*
X125947714Y-82616523D01*
X125766285Y-82677000D01*
X125222000Y-83886523D02*
X125222000Y-82616523D01*
X125222000Y-83221285D02*
X124496285Y-83221285D01*
X124496285Y-83886523D02*
X124496285Y-82616523D01*
X123891523Y-83886523D02*
X123891523Y-82616523D01*
X123286761Y-83221285D02*
X122863428Y-83221285D01*
X122682000Y-83886523D02*
X123286761Y-83886523D01*
X123286761Y-82616523D01*
X122682000Y-82616523D01*
X121532952Y-83886523D02*
X122137714Y-83886523D01*
X122137714Y-82616523D01*
X121109619Y-83886523D02*
X121109619Y-82616523D01*
X120807238Y-82616523D01*
X120625809Y-82677000D01*
X120504857Y-82797952D01*
X120444380Y-82918904D01*
X120383904Y-83160809D01*
X120383904Y-83342238D01*
X120444380Y-83584142D01*
X120504857Y-83705095D01*
X120625809Y-83826047D01*
X120807238Y-83886523D01*
X121109619Y-83886523D01*
D12*
X135896047Y-85706857D02*
X135654142Y-86553523D01*
X135412238Y-85948761D01*
X135170333Y-86553523D01*
X134928428Y-85706857D01*
X134565571Y-85706857D02*
X134323666Y-86553523D01*
X134081761Y-85948761D01*
X133839857Y-86553523D01*
X133597952Y-85706857D01*
X133235095Y-85706857D02*
X132993190Y-86553523D01*
X132751285Y-85948761D01*
X132509380Y-86553523D01*
X132267476Y-85706857D01*
X131783666Y-86432571D02*
X131723190Y-86493047D01*
X131783666Y-86553523D01*
X131844142Y-86493047D01*
X131783666Y-86432571D01*
X131783666Y-86553523D01*
X130997476Y-86553523D02*
X131118428Y-86493047D01*
X131178904Y-86432571D01*
X131239380Y-86311619D01*
X131239380Y-85948761D01*
X131178904Y-85827809D01*
X131118428Y-85767333D01*
X130997476Y-85706857D01*
X130816047Y-85706857D01*
X130695095Y-85767333D01*
X130634619Y-85827809D01*
X130574142Y-85948761D01*
X130574142Y-86311619D01*
X130634619Y-86432571D01*
X130695095Y-86493047D01*
X130816047Y-86553523D01*
X130997476Y-86553523D01*
X129848428Y-86553523D02*
X129969380Y-86493047D01*
X130029857Y-86372095D01*
X130029857Y-85283523D01*
X129364619Y-86553523D02*
X129364619Y-85706857D01*
X129364619Y-85283523D02*
X129425095Y-85344000D01*
X129364619Y-85404476D01*
X129304142Y-85344000D01*
X129364619Y-85283523D01*
X129364619Y-85404476D01*
X128759857Y-86553523D02*
X128759857Y-85706857D01*
X128759857Y-85827809D02*
X128699380Y-85767333D01*
X128578428Y-85706857D01*
X128397000Y-85706857D01*
X128276047Y-85767333D01*
X128215571Y-85888285D01*
X128215571Y-86553523D01*
X128215571Y-85888285D02*
X128155095Y-85767333D01*
X128034142Y-85706857D01*
X127852714Y-85706857D01*
X127731761Y-85767333D01*
X127671285Y-85888285D01*
X127671285Y-86553523D01*
X126582714Y-86493047D02*
X126703666Y-86553523D01*
X126945571Y-86553523D01*
X127066523Y-86493047D01*
X127127000Y-86372095D01*
X127127000Y-85888285D01*
X127066523Y-85767333D01*
X126945571Y-85706857D01*
X126703666Y-85706857D01*
X126582714Y-85767333D01*
X126522238Y-85888285D01*
X126522238Y-86009238D01*
X127127000Y-86130190D01*
X126098904Y-86553523D02*
X125433666Y-85706857D01*
X126098904Y-85706857D02*
X125433666Y-86553523D01*
X124949857Y-86432571D02*
X124889380Y-86493047D01*
X124949857Y-86553523D01*
X125010333Y-86493047D01*
X124949857Y-86432571D01*
X124949857Y-86553523D01*
X123800809Y-86493047D02*
X123921761Y-86553523D01*
X124163666Y-86553523D01*
X124284619Y-86493047D01*
X124345095Y-86432571D01*
X124405571Y-86311619D01*
X124405571Y-85948761D01*
X124345095Y-85827809D01*
X124284619Y-85767333D01*
X124163666Y-85706857D01*
X123921761Y-85706857D01*
X123800809Y-85767333D01*
X123075095Y-86553523D02*
X123196047Y-86493047D01*
X123256523Y-86432571D01*
X123317000Y-86311619D01*
X123317000Y-85948761D01*
X123256523Y-85827809D01*
X123196047Y-85767333D01*
X123075095Y-85706857D01*
X122893666Y-85706857D01*
X122772714Y-85767333D01*
X122712238Y-85827809D01*
X122651761Y-85948761D01*
X122651761Y-86311619D01*
X122712238Y-86432571D01*
X122772714Y-86493047D01*
X122893666Y-86553523D01*
X123075095Y-86553523D01*
X122107476Y-86553523D02*
X122107476Y-85706857D01*
X122107476Y-85827809D02*
X122047000Y-85767333D01*
X121926047Y-85706857D01*
X121744619Y-85706857D01*
X121623666Y-85767333D01*
X121563190Y-85888285D01*
X121563190Y-86553523D01*
X121563190Y-85888285D02*
X121502714Y-85767333D01*
X121381761Y-85706857D01*
X121200333Y-85706857D01*
X121079380Y-85767333D01*
X121018904Y-85888285D01*
X121018904Y-86553523D01*
D11*
%TO.C,GPIO-3*%
X158115000Y-99060000D02*
X158115000Y-99949000D01*
X158115000Y-96901000D02*
X158115000Y-97790000D01*
X156845000Y-98425000D02*
X156845000Y-99949000D01*
X155575000Y-98425000D02*
X155575000Y-99949000D01*
X154305000Y-98425000D02*
X154305000Y-99949000D01*
X153035000Y-98425000D02*
X153035000Y-99949000D01*
X151765000Y-98425000D02*
X151765000Y-99949000D01*
X150495000Y-98425000D02*
X150495000Y-99949000D01*
X149225000Y-98425000D02*
X149225000Y-99949000D01*
X147955000Y-98425000D02*
X147955000Y-99949000D01*
X156845000Y-96901000D02*
X156845000Y-98425000D01*
X155575000Y-96901000D02*
X155575000Y-98425000D01*
X154305000Y-96901000D02*
X154305000Y-98425000D01*
X153035000Y-96901000D02*
X153035000Y-98425000D01*
X151765000Y-96901000D02*
X151765000Y-98425000D01*
X150495000Y-96901000D02*
X150495000Y-98425000D01*
X149225000Y-96901000D02*
X149225000Y-98425000D01*
X147955000Y-96901000D02*
X147955000Y-98425000D01*
X158623000Y-98425000D02*
X159385000Y-98425000D01*
X156845000Y-98425000D02*
X157480000Y-98425000D01*
X155575000Y-98425000D02*
X156845000Y-98425000D01*
X154305000Y-98425000D02*
X155575000Y-98425000D01*
X153035000Y-98425000D02*
X154305000Y-98425000D01*
X151765000Y-98425000D02*
X153035000Y-98425000D01*
X150495000Y-98425000D02*
X151765000Y-98425000D01*
X149225000Y-98425000D02*
X150495000Y-98425000D01*
X147955000Y-98425000D02*
X149225000Y-98425000D01*
X146685000Y-98425000D02*
X147955000Y-98425000D01*
X159385000Y-98425000D02*
X159385000Y-96901000D01*
X159385000Y-99949000D02*
X159385000Y-98425000D01*
X133985000Y-99949000D02*
X133985000Y-98425000D01*
X133985000Y-98425000D02*
X133985000Y-96901000D01*
X146685000Y-99949000D02*
X146685000Y-98425000D01*
X146685000Y-98425000D02*
X146685000Y-96901000D01*
X133985000Y-98425000D02*
X134620000Y-98425000D01*
X135890000Y-98425000D02*
X136525000Y-98425000D01*
X136525000Y-98425000D02*
X137795000Y-98425000D01*
X137795000Y-98425000D02*
X139065000Y-98425000D01*
X139065000Y-98425000D02*
X140335000Y-98425000D01*
X140335000Y-98425000D02*
X141605000Y-98425000D01*
X141605000Y-98425000D02*
X142875000Y-98425000D01*
X142875000Y-98425000D02*
X144145000Y-98425000D01*
X144145000Y-98425000D02*
X145415000Y-98425000D01*
X145415000Y-98425000D02*
X146685000Y-98425000D01*
X135255000Y-96901000D02*
X135255000Y-97790000D01*
X136525000Y-96901000D02*
X136525000Y-98425000D01*
X137795000Y-96901000D02*
X137795000Y-98425000D01*
X139065000Y-96901000D02*
X139065000Y-98425000D01*
X140335000Y-96901000D02*
X140335000Y-98425000D01*
X141605000Y-96901000D02*
X141605000Y-98425000D01*
X142875000Y-96901000D02*
X142875000Y-98425000D01*
X144145000Y-96901000D02*
X144145000Y-98425000D01*
X135255000Y-99060000D02*
X135255000Y-99949000D01*
X136525000Y-98425000D02*
X136525000Y-99949000D01*
X137795000Y-98425000D02*
X137795000Y-99949000D01*
X139065000Y-98425000D02*
X139065000Y-99949000D01*
X140335000Y-98425000D02*
X140335000Y-99949000D01*
X141605000Y-98425000D02*
X141605000Y-99949000D01*
X142875000Y-98425000D02*
X142875000Y-99949000D01*
X144145000Y-98425000D02*
X144145000Y-99949000D01*
X145415000Y-96901000D02*
X145415000Y-98425000D01*
X145415000Y-98425000D02*
X145415000Y-99949000D01*
D13*
%TO.C,Logo_Olimex_2*%
X157296747Y-84582000D02*
G75*
G03X157296747Y-84582000I-337447J0D01*
G01*
D14*
X156972000Y-83807300D02*
X156464000Y-83299300D01*
X155371800Y-83223100D02*
X154736800Y-83832700D01*
X154762200Y-85788500D02*
X155321000Y-86372700D01*
X153136600Y-86385400D02*
X153593800Y-85928200D01*
X152150800Y-86385400D02*
X153136600Y-86385400D01*
D13*
X152004324Y-86360000D02*
G75*
G03X152004324Y-86360000I-366324J0D01*
G01*
D14*
X151638000Y-83667600D02*
X151638000Y-85267800D01*
D13*
X151998818Y-83134200D02*
G75*
G03X151998818Y-83134200I-373518J0D01*
G01*
X150765759Y-86334600D02*
G75*
G03X150765759Y-86334600I-359659J0D01*
G01*
D14*
X150418800Y-85826600D02*
X150418800Y-83235800D01*
X150418800Y-83235800D02*
X149580600Y-83235800D01*
X149580600Y-83235800D02*
X148971000Y-83743800D01*
X148869400Y-84531200D02*
X148869400Y-83820000D01*
X148793200Y-83743800D02*
X148158200Y-83235800D01*
D13*
X149240318Y-85064600D02*
G75*
G03X149240318Y-85064600I-370918J0D01*
G01*
D14*
X148158200Y-83235800D02*
X147269200Y-83235800D01*
D13*
X147619729Y-86347300D02*
G75*
G03X147619729Y-86347300I-363229J0D01*
G01*
X141756666Y-86436200D02*
G75*
G03X141756666Y-86436200I-329466J0D01*
G01*
D14*
X141757400Y-86080600D02*
X142595600Y-85267800D01*
D15*
X143103600Y-85166200D02*
X142570200Y-85166200D01*
D14*
X144246600Y-86385400D02*
X143103600Y-85267800D01*
X145567400Y-86385400D02*
X144246600Y-86385400D01*
X145999200Y-85953600D02*
X145567400Y-86385400D01*
X145999200Y-83718400D02*
X145999200Y-85953600D01*
X145999200Y-83693000D02*
X145516600Y-83185000D01*
X145468500Y-83210400D02*
X144246600Y-83210400D01*
X144246600Y-83210400D02*
X143154400Y-84277200D01*
D15*
X143129000Y-84391500D02*
X142570200Y-84391500D01*
D14*
X141706600Y-83400900D02*
X142570200Y-84294600D01*
D13*
X141697735Y-83045300D02*
G75*
G03X141697735Y-83045300I-359435J0D01*
G01*
D14*
X144780000Y-84785200D02*
X145999200Y-84785200D01*
D13*
X144631659Y-84785200D02*
G75*
G03X144631659Y-84785200I-359659J0D01*
G01*
D14*
X156400500Y-86398100D02*
X155359100Y-86398100D01*
X156959300Y-85839300D02*
X156959300Y-85077300D01*
X156972000Y-85826600D02*
X156387800Y-86398100D01*
X156972000Y-83858100D02*
X156972000Y-84099400D01*
X154749500Y-83820000D02*
X154749500Y-85750400D01*
X155371800Y-83210400D02*
X156375100Y-83210400D01*
X147256500Y-83223100D02*
X147256500Y-85826600D01*
X153593800Y-85940900D02*
X153593800Y-83210400D01*
D16*
X153593800Y-82867500D02*
X153873200Y-82867500D01*
X153898600Y-82867500D02*
X153898600Y-86017100D01*
X153885900Y-82867500D02*
X153898600Y-82867500D01*
X153873200Y-82867500D02*
X153885900Y-82867500D01*
X153758900Y-82956400D02*
X153822400Y-82943700D01*
X153276300Y-82867500D02*
X153276300Y-85902800D01*
X153581100Y-82867500D02*
X153276300Y-82867500D01*
X153454100Y-82943700D02*
X153339800Y-82943700D01*
X151955500Y-83553300D02*
X151955500Y-85572600D01*
X151320500Y-85572600D02*
X151320500Y-83553300D01*
X151345900Y-85572600D02*
X151320500Y-85572600D01*
X151955500Y-85572600D02*
X151345900Y-85572600D01*
X151815800Y-85509100D02*
X151879300Y-85509100D01*
X151472900Y-85509100D02*
X151384000Y-85509100D01*
X150736300Y-85915500D02*
X150736300Y-82931000D01*
X149491700Y-82918300D02*
X148907500Y-83400900D01*
X150736300Y-82918300D02*
X149491700Y-82918300D01*
X150583900Y-82981800D02*
X150660100Y-82981800D01*
X146926300Y-85940900D02*
X146926300Y-82931000D01*
X148247100Y-82918300D02*
X148869400Y-83413600D01*
X148221700Y-82918300D02*
X148247100Y-82918300D01*
X146926300Y-82918300D02*
X148221700Y-82918300D01*
X146926300Y-82931000D02*
X146926300Y-82918300D01*
X147078700Y-82994500D02*
X146977100Y-82994500D01*
X144132300Y-82880200D02*
X142875000Y-84124800D01*
X144183100Y-82880200D02*
X144132300Y-82880200D01*
X145554700Y-82880200D02*
X144183100Y-82880200D01*
D11*
%TO.C,Sign_RoHS*%
X142112556Y-64286371D02*
G75*
G02X141859000Y-64897000I-865696J1511D01*
G01*
X140666020Y-62791180D02*
G75*
G02X141173200Y-63822580I-991420J-1127920D01*
G01*
X141583340Y-64927046D02*
G75*
G02X141173200Y-63830200I1118940J1043506D01*
G01*
X141860788Y-65025791D02*
G75*
G02X141556740Y-64899540I752J431051D01*
G01*
X141294340Y-65019613D02*
G75*
G02X140792200Y-64223900I709440J1003993D01*
G01*
X140412795Y-62885066D02*
G75*
G02X140766800Y-63875920I-1408755J-1061974D01*
G01*
X140945927Y-65025303D02*
G75*
G02X140746480Y-65001140I-1327J824263D01*
G01*
X140744497Y-65000453D02*
G75*
G02X140164820Y-64726820I205183J1185493D01*
G01*
X140140946Y-64704974D02*
G75*
G02X139827000Y-63947040I757934J757934D01*
G01*
X139827283Y-63947487D02*
G75*
G02X139898120Y-63578740I992857J447D01*
G01*
X139962148Y-62644136D02*
G75*
G02X139898120Y-63578740I-1478808J-368184D01*
G01*
X141264000Y-62665511D02*
G75*
G02X141986000Y-63309500I-601340J-1400909D01*
G01*
X142039794Y-63405321D02*
G75*
G02X142240000Y-64160400I-1323794J-755079D01*
G01*
X142241874Y-64160901D02*
G75*
G02X142156180Y-64604900I-1195674J501D01*
G01*
X142285720Y-65279612D02*
G75*
G02X141993620Y-65158620I0J413092D01*
G01*
X142643134Y-65129954D02*
G75*
G02X142285720Y-65278000I-357414J357414D01*
G01*
X143016258Y-65295710D02*
G75*
G02X142748000Y-64643000I653762J650170D01*
G01*
X143253978Y-65913280D02*
G75*
G02X142748000Y-64688720I1228842J1224560D01*
G01*
X146818379Y-61374186D02*
G75*
G02X145475960Y-61589920I-1812319J6992786D01*
G01*
X143694130Y-62163934D02*
G75*
G02X144957800Y-61663580I2134890J-3545866D01*
G01*
X142627641Y-63241765D02*
G75*
G02X143682720Y-62171580I3831299J-2722035D01*
G01*
X142747155Y-64516069D02*
G75*
G02X142867380Y-63578740I762845J378529D01*
G01*
X143038473Y-63390156D02*
G75*
G02X145592800Y-62120780I3654147J-4148444D01*
G01*
X147929541Y-61309778D02*
G75*
G02X145902680Y-62059820I-2631381J3997218D01*
G01*
X143195549Y-65601559D02*
G75*
G02X142748000Y-64516000I1086611J1083019D01*
G01*
X142621760Y-62864243D02*
G75*
G02X142681960Y-62186820I3049780J70363D01*
G01*
X142828736Y-61583585D02*
G75*
G02X144879060Y-60071000I2144304J-760715D01*
G01*
X148742952Y-59926522D02*
G75*
G02X147027900Y-60266580I-1268012J1900222D01*
G01*
X146716933Y-63850013D02*
G75*
G02X144851120Y-64516000I-1738813J1924813D01*
G01*
X148737464Y-61430447D02*
G75*
G02X146756120Y-63812420I-8344044J4925607D01*
G01*
X143024860Y-64239140D02*
G75*
G02X143743680Y-64241680I358140J-360680D01*
G01*
X144335500Y-64518066D02*
G75*
G02X143797020Y-64295020I0J761526D01*
G01*
X144653000Y-68326000D02*
G75*
G02X143129000Y-66802000I0J1524000D01*
G01*
X157988000Y-66802000D02*
G75*
G02X156464000Y-68326000I-1524000J0D01*
G01*
X156464000Y-65278000D02*
G75*
G02X157988000Y-66802000I0J-1524000D01*
G01*
X143129000Y-66802000D02*
G75*
G02X144653000Y-65278000I1524000J0D01*
G01*
X144653000Y-65278000D02*
X156464000Y-65278000D01*
X156464000Y-68326000D02*
X144653000Y-68326000D01*
X143797020Y-64295020D02*
X143743680Y-64241680D01*
X143024860Y-64241680D02*
X142748000Y-64516000D01*
X149606000Y-59309000D02*
X148739860Y-61424820D01*
X146756120Y-63812420D02*
X146720560Y-63847980D01*
X144851120Y-64516000D02*
X144335500Y-64516000D01*
X149606000Y-59309000D02*
X148744940Y-59928760D01*
X147027900Y-60266580D02*
X144879060Y-60071000D01*
X142829280Y-61587380D02*
X142681960Y-62186820D01*
X142623540Y-62865000D02*
X142623540Y-63246000D01*
X142725140Y-64470280D02*
X142748000Y-64516000D01*
X143383000Y-65786000D02*
X143197580Y-65600580D01*
X148211540Y-60960000D02*
X147929600Y-61307980D01*
X145902680Y-62059820D02*
X145592800Y-62120780D01*
X143037560Y-63390780D02*
X142867380Y-63578740D01*
X142623540Y-63246000D02*
X142626080Y-63243460D01*
X143682720Y-62171580D02*
X143690340Y-62166500D01*
X144957800Y-61663580D02*
X145475960Y-61589920D01*
X146824700Y-61374020D02*
X148211540Y-60960000D01*
X143383000Y-65913000D02*
X142875000Y-65151000D01*
X142748000Y-64688720D02*
X142748000Y-64643000D01*
X143510000Y-65786000D02*
X143019780Y-65295780D01*
X142748000Y-65024000D02*
X142643860Y-65130680D01*
X141993620Y-65158620D02*
X141859000Y-65024000D01*
X141859000Y-65024000D02*
X142156180Y-64604900D01*
X142039340Y-63403480D02*
X141986000Y-63309500D01*
X141264640Y-62664340D02*
X140843000Y-62484000D01*
X140843000Y-62484000D02*
X139827000Y-62103000D01*
X139827000Y-62103000D02*
X139961620Y-62641480D01*
X140141960Y-64703960D02*
X140164820Y-64726820D01*
X140944600Y-65024000D02*
X141300200Y-65024000D01*
X141846300Y-65024000D02*
X141859000Y-65024000D01*
X140766800Y-63832740D02*
X140792200Y-64223900D01*
X149225000Y-59817000D02*
X148211540Y-60454540D01*
D17*
X148211540Y-60454540D02*
X147066000Y-60454540D01*
X147066000Y-60454540D02*
X146050000Y-60325000D01*
X146050000Y-60325000D02*
X144399000Y-60325000D01*
X144399000Y-60325000D02*
X143764000Y-60706000D01*
X143764000Y-60706000D02*
X143256000Y-61214000D01*
X143256000Y-61214000D02*
X143002000Y-61722000D01*
X143002000Y-61722000D02*
X142875000Y-62738000D01*
X142875000Y-62738000D02*
X143383000Y-62103000D01*
X143383000Y-62103000D02*
X144018000Y-61722000D01*
X144018000Y-61722000D02*
X143764000Y-61214000D01*
X143764000Y-61214000D02*
X143383000Y-61722000D01*
X144145000Y-61722000D02*
X144780000Y-61341000D01*
X144780000Y-61341000D02*
X145288000Y-61341000D01*
X145288000Y-61341000D02*
X145415000Y-61341000D01*
X145415000Y-61341000D02*
X146558000Y-61214000D01*
X146558000Y-61214000D02*
X147828000Y-60833000D01*
X147828000Y-60833000D02*
X148336000Y-60706000D01*
X148336000Y-60706000D02*
X143764000Y-60706000D01*
X143764000Y-60706000D02*
X143764000Y-60960000D01*
X143764000Y-61214000D02*
X143764000Y-60960000D01*
X143764000Y-60960000D02*
X148717000Y-60883800D01*
X143637000Y-61341000D02*
X145288000Y-61341000D01*
X149225000Y-59817000D02*
X148717000Y-60706000D01*
X148717000Y-60706000D02*
X148590000Y-61214000D01*
X148590000Y-61214000D02*
X148211540Y-61722000D01*
X148211540Y-61722000D02*
X148211540Y-61341000D01*
X148211540Y-61341000D02*
X148590000Y-60454540D01*
X148082000Y-61849000D02*
X147701000Y-62357000D01*
X147701000Y-62357000D02*
X147447000Y-62738000D01*
X147447000Y-62738000D02*
X146558000Y-63627000D01*
X146558000Y-63627000D02*
X146050000Y-64008000D01*
X146050000Y-64008000D02*
X145161000Y-64262000D01*
X145161000Y-64262000D02*
X144272000Y-64262000D01*
X144272000Y-64262000D02*
X143510000Y-63754000D01*
X143510000Y-63754000D02*
X143129000Y-63881000D01*
X143129000Y-63881000D02*
X142875000Y-64135000D01*
X142875000Y-64135000D02*
X143129000Y-63627000D01*
X143129000Y-63627000D02*
X143637000Y-63119000D01*
X143637000Y-63119000D02*
X144322800Y-62712600D01*
X144322800Y-62712600D02*
X145719800Y-62230000D01*
X145719800Y-62230000D02*
X146329400Y-62230000D01*
X146329400Y-62230000D02*
X147066000Y-61976000D01*
X147066000Y-61976000D02*
X147828000Y-61595000D01*
X147701000Y-61976000D02*
X146939000Y-62611000D01*
X146939000Y-62611000D02*
X146812000Y-62484000D01*
X146812000Y-62484000D02*
X146685000Y-62484000D01*
X146685000Y-62484000D02*
X145542000Y-62611000D01*
X145542000Y-62611000D02*
X144526000Y-62865000D01*
X144526000Y-62865000D02*
X143891000Y-63373000D01*
X143891000Y-63373000D02*
X143764000Y-63500000D01*
X143764000Y-63500000D02*
X143891000Y-63754000D01*
X143891000Y-63754000D02*
X144145000Y-63754000D01*
X144145000Y-63754000D02*
X144526000Y-63881000D01*
X144526000Y-63881000D02*
X145161000Y-63881000D01*
X145161000Y-63881000D02*
X145542000Y-63754000D01*
X145542000Y-63754000D02*
X146050000Y-63627000D01*
X146050000Y-63627000D02*
X146685000Y-63119000D01*
X146685000Y-63119000D02*
X146812000Y-62992000D01*
X146812000Y-62992000D02*
X146685000Y-62865000D01*
X146685000Y-62865000D02*
X146177000Y-62865000D01*
X146177000Y-62865000D02*
X145161000Y-63119000D01*
X145161000Y-63119000D02*
X144907000Y-63119000D01*
X144907000Y-63119000D02*
X144399000Y-63373000D01*
X144399000Y-63373000D02*
X144399000Y-63500000D01*
X144399000Y-63500000D02*
X144526000Y-63627000D01*
X144526000Y-63627000D02*
X144907000Y-63500000D01*
X144907000Y-63500000D02*
X146177000Y-63246000D01*
D11*
X141556740Y-64899540D02*
X141584680Y-64927480D01*
X141173200Y-63830200D02*
X141173200Y-63822580D01*
X142113000Y-64284860D02*
X142113000Y-64262000D01*
X142113000Y-64262000D02*
X142113000Y-64008000D01*
X142113000Y-64008000D02*
X141986000Y-64008000D01*
X141986000Y-64008000D02*
X141859000Y-64008000D01*
X141859000Y-64008000D02*
X141859000Y-64643000D01*
X141986000Y-64008000D02*
X141986000Y-64135000D01*
X141986000Y-64135000D02*
X141986000Y-64516000D01*
X141986000Y-64516000D02*
X141986000Y-64643000D01*
X141986000Y-64643000D02*
X141986000Y-64770000D01*
X141859000Y-64008000D02*
X141478000Y-64008000D01*
X141478000Y-64008000D02*
X141224000Y-64008000D01*
X141224000Y-64008000D02*
X141732000Y-64897000D01*
X141478000Y-64008000D02*
X141478000Y-64516000D01*
X141986000Y-64135000D02*
X141351000Y-64135000D01*
X142113000Y-64262000D02*
X141351000Y-64262000D01*
X142113000Y-64389000D02*
X141351000Y-64389000D01*
X141986000Y-64516000D02*
X141351000Y-64516000D01*
X141986000Y-64643000D02*
X141478000Y-64643000D01*
X141224000Y-63881000D02*
X142113000Y-63881000D01*
X141224000Y-63754000D02*
X142113000Y-63754000D01*
X141224000Y-63627000D02*
X141986000Y-63627000D01*
X141224000Y-63500000D02*
X141986000Y-63500000D01*
X141097000Y-63373000D02*
X141986000Y-63373000D01*
X141097000Y-63246000D02*
X141859000Y-63246000D01*
X140970000Y-63119000D02*
X141732000Y-63119000D01*
X140970000Y-62992000D02*
X141605000Y-62992000D01*
X140843000Y-62865000D02*
X141351000Y-62865000D01*
X140081000Y-62738000D02*
X140208000Y-62738000D01*
X140208000Y-62738000D02*
X140335000Y-62738000D01*
X140335000Y-62738000D02*
X141224000Y-62738000D01*
X140843000Y-62611000D02*
X140081000Y-62611000D01*
X140589000Y-62484000D02*
X139954000Y-62484000D01*
X140462000Y-62357000D02*
X139954000Y-62357000D01*
X140335000Y-62738000D02*
X140335000Y-63246000D01*
X140208000Y-62738000D02*
X140208000Y-63246000D01*
X140589000Y-63246000D02*
X140081000Y-63246000D01*
X140589000Y-63373000D02*
X140081000Y-63373000D01*
X140716000Y-63500000D02*
X140081000Y-63500000D01*
X140716000Y-63627000D02*
X139954000Y-63627000D01*
X140716000Y-63754000D02*
X139954000Y-63754000D01*
X140716000Y-63881000D02*
X139954000Y-63881000D01*
X140716000Y-64008000D02*
X139954000Y-64008000D01*
X140716000Y-64135000D02*
X139954000Y-64135000D01*
X140716000Y-64262000D02*
X139954000Y-64262000D01*
X140792200Y-64389000D02*
X139954000Y-64389000D01*
X140843000Y-64516000D02*
X140081000Y-64516000D01*
X140843000Y-64643000D02*
X140208000Y-64643000D01*
X140970000Y-64770000D02*
X140335000Y-64770000D01*
X141097000Y-64897000D02*
X140589000Y-64897000D01*
%TO.C,Sign_CE*%
X140998000Y-79089000D02*
G75*
G03X140998000Y-75089000I0J2000000D01*
G01*
D18*
X141047980Y-78839000D02*
G75*
G03X141048000Y-75339000I-49980J1750000D01*
G01*
D11*
X140998000Y-78589000D02*
G75*
G03X140998000Y-75589000I0J1500000D01*
G01*
D18*
X144547980Y-78839000D02*
G75*
G03X144548000Y-75339000I-49980J1750000D01*
G01*
D11*
X144498000Y-79089000D02*
G75*
G03X144498000Y-75089000I0J2000000D01*
G01*
X144498000Y-78589000D02*
G75*
G03X144498000Y-75589000I0J1500000D01*
G01*
X144498000Y-75089000D02*
X144498000Y-75589000D01*
X144498000Y-78589000D02*
X144498000Y-79089000D01*
X140998000Y-78589000D02*
X140998000Y-79089000D01*
X140998000Y-75089000D02*
X140998000Y-75589000D01*
X142498000Y-76839000D02*
X141248000Y-76839000D01*
X141248000Y-76839000D02*
X141248000Y-77339000D01*
X141248000Y-77339000D02*
X142498000Y-77339000D01*
X141248000Y-77089000D02*
X142498000Y-77089000D01*
%TO.C,Sign_RecycleBin*%
X120269000Y-74041000D02*
G75*
G02X122555000Y-74041000I1143000J-1143000D01*
G01*
D19*
X120523000Y-77343000D02*
G75*
G03X120523000Y-77343000I-127000J0D01*
G01*
D11*
X121539000Y-73279000D02*
X121539000Y-73406000D01*
X121539000Y-73406000D02*
X121158000Y-73406000D01*
X121158000Y-73406000D02*
X121158000Y-73279000D01*
X121158000Y-73279000D02*
X121539000Y-73279000D01*
X121412000Y-74803000D02*
X120777000Y-74803000D01*
X121539000Y-74676000D02*
X120650000Y-74676000D01*
X120650000Y-74676000D02*
X120650000Y-75057000D01*
X120650000Y-75057000D02*
X121539000Y-75057000D01*
X121539000Y-75057000D02*
X121539000Y-74676000D01*
X120142000Y-74676000D02*
X120142000Y-74295000D01*
X120142000Y-74295000D02*
X120015000Y-74295000D01*
X120015000Y-74295000D02*
X120015000Y-74676000D01*
X120142000Y-74295000D02*
X120142000Y-74422000D01*
X120142000Y-74168000D02*
X120015000Y-74549000D01*
X120142000Y-74295000D02*
X120142000Y-74422000D01*
X120269000Y-74168000D02*
X120269000Y-74676000D01*
X120269000Y-74676000D02*
X119888000Y-74676000D01*
X119888000Y-74676000D02*
X119888000Y-74168000D01*
X122301000Y-74041000D02*
X122301000Y-73533000D01*
X122301000Y-73533000D02*
X122174000Y-73533000D01*
X122174000Y-73533000D02*
X122174000Y-74041000D01*
X120797609Y-77343000D02*
G75*
G03X120797609Y-77343000I-401609J0D01*
G01*
X120396000Y-76835000D02*
X120269000Y-74803000D01*
X122301000Y-77343000D02*
X122301000Y-77724000D01*
X122301000Y-77724000D02*
X121793000Y-77724000D01*
X121793000Y-77724000D02*
X121793000Y-77470000D01*
X122809000Y-74168000D02*
X119888000Y-74168000D01*
X122301000Y-77343000D02*
X122555000Y-74295000D01*
X122301000Y-77343000D02*
X120904000Y-77343000D01*
X123317000Y-77724000D02*
X119253000Y-73787000D01*
X123444000Y-73660000D02*
X119253000Y-77851000D01*
D20*
X123599200Y-79096400D02*
X119179600Y-79096400D01*
X119179600Y-78994800D02*
X123548400Y-78994800D01*
X123599200Y-78791600D02*
X119128800Y-78791600D01*
X123599200Y-78639200D02*
X119179600Y-78639200D01*
X119128800Y-78893200D02*
X123548400Y-78893200D01*
X119128800Y-78740800D02*
X123548400Y-78740800D01*
X123599200Y-78588400D02*
X119128800Y-78588400D01*
X119128800Y-78486800D02*
X123548400Y-78486800D01*
X119078000Y-79198000D02*
X123650000Y-79198000D01*
X123650000Y-79198000D02*
X123650000Y-78436000D01*
X123650000Y-78436000D02*
X119078000Y-78436000D01*
X119078000Y-78436000D02*
X119078000Y-79198000D01*
D21*
%TO.C,Sign_PB-Free*%
X131732020Y-78440280D02*
X134165340Y-76019660D01*
D11*
X134695037Y-77276960D02*
G75*
G03X134695037Y-77276960I-1802237J0D01*
G01*
D22*
%TO.C,Logo_OSHW*%
X122013980Y-64135000D02*
G75*
G02X121643140Y-62270640I746760J1117600D01*
G01*
X121632980Y-62285880D02*
G75*
G02X123558300Y-62087760I1061720J-863600D01*
G01*
X123583700Y-62113160D02*
G75*
G02X123507500Y-63967360I-965200J-889000D01*
G01*
D23*
X121518680Y-64185800D02*
X121185940Y-64917320D01*
X121518680Y-64277240D02*
X120337580Y-65290700D01*
X121404380Y-64140080D02*
X120787160Y-64467740D01*
X121084340Y-63720980D02*
X120474740Y-63827660D01*
X120248680Y-62562740D02*
X120970040Y-62710060D01*
X120489980Y-61869320D02*
X121145300Y-62235080D01*
X121358660Y-61000640D02*
X121777760Y-61587380D01*
X121945400Y-60749180D02*
X122166380Y-61434980D01*
X123210320Y-60733940D02*
X123042680Y-61343540D01*
X123644660Y-60993020D02*
X123469400Y-61351160D01*
X124642880Y-61770260D02*
X124185680Y-62059820D01*
X124818140Y-62250320D02*
X124376180Y-62410340D01*
X125143260Y-63494920D02*
X124437140Y-63367920D01*
X124894340Y-64140080D02*
X124330460Y-63660020D01*
X124228860Y-65039240D02*
X123863100Y-64277240D01*
X119438420Y-62986920D02*
X120906540Y-63073280D01*
X120429020Y-60802520D02*
X121541540Y-61869320D01*
X122694700Y-59745880D02*
X122689620Y-61259720D01*
X124955300Y-60721240D02*
X123893580Y-61828680D01*
X125940820Y-63007240D02*
X124523500Y-62946280D01*
X124904500Y-65211960D02*
X124051060Y-64190880D01*
D20*
X123888500Y-63781940D02*
X123581160Y-64048640D01*
X124218700Y-60868560D02*
X123235720Y-60375800D01*
X122039380Y-64373760D02*
X122161300Y-64089280D01*
X121902220Y-63919100D02*
X122156220Y-64084200D01*
X123403360Y-63916560D02*
X123177300Y-64091820D01*
X123771660Y-63802260D02*
X123512580Y-64140080D01*
X123995180Y-63581280D02*
X123901200Y-63751460D01*
X123995180Y-63581280D02*
X123901200Y-63751460D01*
X124132340Y-62727840D02*
X124000260Y-63550800D01*
X123708160Y-61991240D02*
X124127260Y-62722760D01*
X122836940Y-61561980D02*
X123708160Y-61991240D01*
X122021600Y-61729620D02*
X122836940Y-61569600D01*
X121511060Y-62158880D02*
X122021600Y-61729620D01*
X121277380Y-62831980D02*
X121511060Y-62158880D01*
X121282460Y-63337440D02*
X121282460Y-62819280D01*
X121658380Y-64048640D02*
X121282460Y-63337440D01*
X121836180Y-64170560D02*
X121658380Y-64048640D01*
X125107700Y-60149740D02*
X124223780Y-60871100D01*
X124863860Y-61503560D02*
X125465840Y-60594240D01*
X124868940Y-61498480D02*
X125255020Y-62496700D01*
X126398020Y-62765940D02*
X125282960Y-62519560D01*
X126255780Y-62710060D02*
X126255780Y-63360300D01*
X121879360Y-64112140D02*
X121351040Y-65493900D01*
X121488200Y-65791080D02*
X121874280Y-64810640D01*
X120959880Y-65463420D02*
X121488200Y-65791080D01*
X120276620Y-65796160D02*
X121097040Y-65267840D01*
X121140220Y-65491360D02*
X120263920Y-66111120D01*
X120253760Y-66106040D02*
X119570500Y-65415160D01*
X119857520Y-65331340D02*
X120342660Y-65862200D01*
X119824500Y-63695580D02*
X120205500Y-64676020D01*
X119928640Y-63728600D02*
X118805960Y-63517780D01*
X118790720Y-62539880D02*
X118793260Y-63497460D01*
X118874540Y-63281560D02*
X119981980Y-63505080D01*
X120177560Y-61511180D02*
X119811800Y-62379860D01*
X119562880Y-60629800D02*
X120266460Y-61620400D01*
X120261380Y-59931300D02*
X119567960Y-60622180D01*
X121277380Y-60606940D02*
X120266460Y-59933840D01*
X121963180Y-60220860D02*
X121158000Y-60558680D01*
X122179080Y-59131200D02*
X121953020Y-60302140D01*
X123144280Y-59131200D02*
X122179080Y-59131200D01*
X123154440Y-59138820D02*
X123355100Y-60164980D01*
X124142500Y-60533280D02*
X123238260Y-60154820D01*
X125077220Y-59885580D02*
X124106940Y-60601860D01*
X125763020Y-60601860D02*
X125089920Y-59888120D01*
X125742700Y-60637420D02*
X125148340Y-61490860D01*
X125481080Y-62321440D02*
X125145800Y-61488320D01*
X126550420Y-62519560D02*
X125379480Y-62316360D01*
X126547880Y-62522100D02*
X126547880Y-63507620D01*
X126547880Y-63515240D02*
X125476000Y-63710820D01*
X125785880Y-65422780D02*
X125188980Y-64559180D01*
X125056900Y-66118740D02*
X125778260Y-65425320D01*
X124223780Y-65547240D02*
X125049280Y-66111120D01*
X124211080Y-65557400D02*
X123865640Y-65778380D01*
X123827540Y-65760600D02*
X123177300Y-64091820D01*
D22*
X120261380Y-65951100D02*
X119707660Y-65405000D01*
X120327420Y-64510920D02*
X119707660Y-65397380D01*
X121450100Y-65577720D02*
X122024140Y-64137540D01*
X121112280Y-65392300D02*
X121450100Y-65577720D01*
X120276620Y-65958720D02*
X121112280Y-65392300D01*
X119921020Y-63599060D02*
X120327420Y-64510920D01*
X118907560Y-63428880D02*
X119921020Y-63599060D01*
X118907560Y-62593220D02*
X118907560Y-63428880D01*
X119989600Y-62364620D02*
X118907560Y-62593220D01*
X120329960Y-61427360D02*
X119989600Y-62364620D01*
X119712740Y-60637420D02*
X120329960Y-61427360D01*
X120266460Y-60088780D02*
X119712740Y-60634880D01*
X121170700Y-60721240D02*
X120266460Y-60086800D01*
X122085100Y-60276740D02*
X121183400Y-60726320D01*
X122298460Y-59258200D02*
X122085100Y-60276740D01*
X123065540Y-59237880D02*
X122280680Y-59237880D01*
X123057920Y-59250580D02*
X123263660Y-60264040D01*
X124162820Y-60690760D02*
X123317000Y-60284360D01*
X125051820Y-60048140D02*
X124223780Y-60700920D01*
D24*
X125600460Y-60606940D02*
X125100080Y-60073540D01*
D22*
X125590300Y-60629800D02*
X125034040Y-61480700D01*
X125361700Y-62397640D02*
X125013720Y-61531500D01*
X126410720Y-62613540D02*
X125392180Y-62433200D01*
D24*
X126398020Y-62626240D02*
X126403100Y-63413640D01*
D22*
X126408180Y-63403480D02*
X125458220Y-63621920D01*
X125430280Y-63644780D02*
X125072140Y-64528700D01*
X125605540Y-65405000D02*
X125072140Y-64571880D01*
D24*
X125620780Y-65405000D02*
X125056900Y-65943480D01*
D13*
X125044200Y-65943480D02*
X124264420Y-65412620D01*
D22*
X124254260Y-65394840D02*
X123936760Y-65600580D01*
D25*
X123908820Y-65580260D02*
X123357640Y-64157860D01*
D11*
%TO.C,Sign_Antistatic*%
X155829000Y-77978000D02*
G75*
G02X155956000Y-78105000I0J-127000D01*
G01*
X155702000Y-78041500D02*
G75*
G02X155765500Y-77978000I63500J0D01*
G01*
X155763071Y-78234545D02*
G75*
G02X155702000Y-78168500I2429J63505D01*
G01*
X156146500Y-77851000D02*
G75*
G02X155765500Y-78232000I-381000J0D01*
G01*
X155957048Y-76455575D02*
G75*
G02X156146500Y-76771500I-168688J-315925D01*
G01*
X155954549Y-76454142D02*
G75*
G02X155638500Y-76136500I478971J792622D01*
G01*
X155763935Y-76963845D02*
G75*
G02X155067000Y-76517500I153965J1007685D01*
G01*
X155320068Y-77724674D02*
G75*
G02X155321000Y-78041500I-316568J-159346D01*
G01*
X155320967Y-78041600D02*
G75*
G02X155194000Y-78168500I-190467J63600D01*
G01*
X153992275Y-77280493D02*
G75*
G02X154432000Y-77406500I-825195J-3709947D01*
G01*
X154431915Y-77407965D02*
G75*
G02X155003500Y-78168500I-284395J-808795D01*
G01*
X154369708Y-76963166D02*
G75*
G02X155321000Y-77724000I-285688J-1332334D01*
G01*
X153857461Y-77217576D02*
G75*
G02X153035000Y-76771500I147819J1253796D01*
G01*
X152526301Y-76581474D02*
G75*
G02X153035000Y-76771500I64199J-604046D01*
G01*
X154050915Y-75630114D02*
G75*
G02X153835100Y-75692000I-182795J230214D01*
G01*
X154051721Y-75628678D02*
G75*
G02X155638500Y-76136500I466639J-1274902D01*
G01*
X154432000Y-72136000D02*
X157988000Y-79248000D01*
X157988000Y-79248000D02*
X150876000Y-79248000D01*
X150876000Y-79248000D02*
X152209500Y-76581000D01*
X152209500Y-76581000D02*
X152654000Y-75692000D01*
X152654000Y-75692000D02*
X154432000Y-72136000D01*
X156210000Y-75755500D02*
X150876000Y-79248000D01*
X153835100Y-75692000D02*
X152654000Y-75692000D01*
X152209500Y-76581000D02*
X152527000Y-76581000D01*
X155194000Y-78168500D02*
X155041600Y-78168500D01*
X156146500Y-76771500D02*
X156146500Y-77851000D01*
X155702000Y-78168500D02*
X155702000Y-78041500D01*
X155765500Y-77978000D02*
X155765500Y-76962000D01*
X155765500Y-77978000D02*
X155829000Y-77978000D01*
%TO.C,GPIO-1*%
X151130000Y-52070000D02*
X151130000Y-52959000D01*
X151130000Y-49911000D02*
X151130000Y-50800000D01*
X149860000Y-51435000D02*
X149860000Y-52959000D01*
X148590000Y-51435000D02*
X148590000Y-52959000D01*
X147320000Y-51435000D02*
X147320000Y-52959000D01*
X146050000Y-51435000D02*
X146050000Y-52959000D01*
X144780000Y-51435000D02*
X144780000Y-52959000D01*
X143510000Y-51435000D02*
X143510000Y-52959000D01*
X142240000Y-51435000D02*
X142240000Y-52959000D01*
X140970000Y-51435000D02*
X140970000Y-52959000D01*
X149860000Y-49911000D02*
X149860000Y-51435000D01*
X148590000Y-49911000D02*
X148590000Y-51435000D01*
X147320000Y-49911000D02*
X147320000Y-51435000D01*
X146050000Y-49911000D02*
X146050000Y-51435000D01*
X144780000Y-49911000D02*
X144780000Y-51435000D01*
X143510000Y-49911000D02*
X143510000Y-51435000D01*
X142240000Y-49911000D02*
X142240000Y-51435000D01*
X140970000Y-49911000D02*
X140970000Y-51435000D01*
X151638000Y-51435000D02*
X152400000Y-51435000D01*
X149860000Y-51435000D02*
X150495000Y-51435000D01*
X148590000Y-51435000D02*
X149860000Y-51435000D01*
X147320000Y-51435000D02*
X148590000Y-51435000D01*
X146050000Y-51435000D02*
X147320000Y-51435000D01*
X144780000Y-51435000D02*
X146050000Y-51435000D01*
X143510000Y-51435000D02*
X144780000Y-51435000D01*
X142240000Y-51435000D02*
X143510000Y-51435000D01*
X140970000Y-51435000D02*
X142240000Y-51435000D01*
X139700000Y-51435000D02*
X140970000Y-51435000D01*
X152400000Y-51435000D02*
X152400000Y-49911000D01*
X152400000Y-52959000D02*
X152400000Y-51435000D01*
X127000000Y-52959000D02*
X127000000Y-51435000D01*
X127000000Y-51435000D02*
X127000000Y-49911000D01*
X139700000Y-52959000D02*
X139700000Y-51435000D01*
X139700000Y-51435000D02*
X139700000Y-49911000D01*
X127000000Y-51435000D02*
X127635000Y-51435000D01*
X128905000Y-51435000D02*
X129540000Y-51435000D01*
X129540000Y-51435000D02*
X130810000Y-51435000D01*
X130810000Y-51435000D02*
X132080000Y-51435000D01*
X132080000Y-51435000D02*
X133350000Y-51435000D01*
X133350000Y-51435000D02*
X134620000Y-51435000D01*
X134620000Y-51435000D02*
X135890000Y-51435000D01*
X135890000Y-51435000D02*
X137160000Y-51435000D01*
X137160000Y-51435000D02*
X138430000Y-51435000D01*
X138430000Y-51435000D02*
X139700000Y-51435000D01*
X128270000Y-49911000D02*
X128270000Y-50800000D01*
X129540000Y-49911000D02*
X129540000Y-51435000D01*
X130810000Y-49911000D02*
X130810000Y-51435000D01*
X132080000Y-49911000D02*
X132080000Y-51435000D01*
X133350000Y-49911000D02*
X133350000Y-51435000D01*
X134620000Y-49911000D02*
X134620000Y-51435000D01*
X135890000Y-49911000D02*
X135890000Y-51435000D01*
X137160000Y-49911000D02*
X137160000Y-51435000D01*
X128270000Y-52070000D02*
X128270000Y-52959000D01*
X129540000Y-51435000D02*
X129540000Y-52959000D01*
X130810000Y-51435000D02*
X130810000Y-52959000D01*
X132080000Y-51435000D02*
X132080000Y-52959000D01*
X133350000Y-51435000D02*
X133350000Y-52959000D01*
X134620000Y-51435000D02*
X134620000Y-52959000D01*
X135890000Y-51435000D02*
X135890000Y-52959000D01*
X137160000Y-51435000D02*
X137160000Y-52959000D01*
X138430000Y-49911000D02*
X138430000Y-51435000D01*
X138430000Y-51435000D02*
X138430000Y-52959000D01*
%TO.C,GPIO-2*%
X151130000Y-92710000D02*
X151130000Y-93599000D01*
X151130000Y-90551000D02*
X151130000Y-91440000D01*
X149860000Y-92075000D02*
X149860000Y-93599000D01*
X148590000Y-92075000D02*
X148590000Y-93599000D01*
X147320000Y-92075000D02*
X147320000Y-93599000D01*
X146050000Y-92075000D02*
X146050000Y-93599000D01*
X144780000Y-92075000D02*
X144780000Y-93599000D01*
X143510000Y-92075000D02*
X143510000Y-93599000D01*
X142240000Y-92075000D02*
X142240000Y-93599000D01*
X140970000Y-92075000D02*
X140970000Y-93599000D01*
X149860000Y-90551000D02*
X149860000Y-92075000D01*
X148590000Y-90551000D02*
X148590000Y-92075000D01*
X147320000Y-90551000D02*
X147320000Y-92075000D01*
X146050000Y-90551000D02*
X146050000Y-92075000D01*
X144780000Y-90551000D02*
X144780000Y-92075000D01*
X143510000Y-90551000D02*
X143510000Y-92075000D01*
X142240000Y-90551000D02*
X142240000Y-92075000D01*
X140970000Y-90551000D02*
X140970000Y-92075000D01*
X151638000Y-92075000D02*
X152400000Y-92075000D01*
X149860000Y-92075000D02*
X150495000Y-92075000D01*
X148590000Y-92075000D02*
X149860000Y-92075000D01*
X147320000Y-92075000D02*
X148590000Y-92075000D01*
X146050000Y-92075000D02*
X147320000Y-92075000D01*
X144780000Y-92075000D02*
X146050000Y-92075000D01*
X143510000Y-92075000D02*
X144780000Y-92075000D01*
X142240000Y-92075000D02*
X143510000Y-92075000D01*
X140970000Y-92075000D02*
X142240000Y-92075000D01*
X139700000Y-92075000D02*
X140970000Y-92075000D01*
X152400000Y-92075000D02*
X152400000Y-90551000D01*
X152400000Y-93599000D02*
X152400000Y-92075000D01*
X127000000Y-93599000D02*
X127000000Y-92075000D01*
X127000000Y-92075000D02*
X127000000Y-90551000D01*
X139700000Y-93599000D02*
X139700000Y-92075000D01*
X139700000Y-92075000D02*
X139700000Y-90551000D01*
X127000000Y-92075000D02*
X127635000Y-92075000D01*
X128905000Y-92075000D02*
X129540000Y-92075000D01*
X129540000Y-92075000D02*
X130810000Y-92075000D01*
X130810000Y-92075000D02*
X132080000Y-92075000D01*
X132080000Y-92075000D02*
X133350000Y-92075000D01*
X133350000Y-92075000D02*
X134620000Y-92075000D01*
X134620000Y-92075000D02*
X135890000Y-92075000D01*
X135890000Y-92075000D02*
X137160000Y-92075000D01*
X137160000Y-92075000D02*
X138430000Y-92075000D01*
X138430000Y-92075000D02*
X139700000Y-92075000D01*
X128270000Y-90551000D02*
X128270000Y-91440000D01*
X129540000Y-90551000D02*
X129540000Y-92075000D01*
X130810000Y-90551000D02*
X130810000Y-92075000D01*
X132080000Y-90551000D02*
X132080000Y-92075000D01*
X133350000Y-90551000D02*
X133350000Y-92075000D01*
X134620000Y-90551000D02*
X134620000Y-92075000D01*
X135890000Y-90551000D02*
X135890000Y-92075000D01*
X137160000Y-90551000D02*
X137160000Y-92075000D01*
X128270000Y-92710000D02*
X128270000Y-93599000D01*
X129540000Y-92075000D02*
X129540000Y-93599000D01*
X130810000Y-92075000D02*
X130810000Y-93599000D01*
X132080000Y-92075000D02*
X132080000Y-93599000D01*
X133350000Y-92075000D02*
X133350000Y-93599000D01*
X134620000Y-92075000D02*
X134620000Y-93599000D01*
X135890000Y-92075000D02*
X135890000Y-93599000D01*
X137160000Y-92075000D02*
X137160000Y-93599000D01*
X138430000Y-90551000D02*
X138430000Y-92075000D01*
X138430000Y-92075000D02*
X138430000Y-93599000D01*
%TO.C,GPIO-3*%
X157957761Y-93853000D02*
X158054523Y-93804619D01*
X158199666Y-93804619D01*
X158344809Y-93853000D01*
X158441571Y-93949761D01*
X158489952Y-94046523D01*
X158538333Y-94240047D01*
X158538333Y-94385190D01*
X158489952Y-94578714D01*
X158441571Y-94675476D01*
X158344809Y-94772238D01*
X158199666Y-94820619D01*
X158102904Y-94820619D01*
X157957761Y-94772238D01*
X157909380Y-94723857D01*
X157909380Y-94385190D01*
X158102904Y-94385190D01*
X157473952Y-94820619D02*
X157473952Y-93804619D01*
X157086904Y-93804619D01*
X156990142Y-93853000D01*
X156941761Y-93901380D01*
X156893380Y-93998142D01*
X156893380Y-94143285D01*
X156941761Y-94240047D01*
X156990142Y-94288428D01*
X157086904Y-94336809D01*
X157473952Y-94336809D01*
X156457952Y-94820619D02*
X156457952Y-93804619D01*
X155780619Y-93804619D02*
X155587095Y-93804619D01*
X155490333Y-93853000D01*
X155393571Y-93949761D01*
X155345190Y-94143285D01*
X155345190Y-94481952D01*
X155393571Y-94675476D01*
X155490333Y-94772238D01*
X155587095Y-94820619D01*
X155780619Y-94820619D01*
X155877380Y-94772238D01*
X155974142Y-94675476D01*
X156022523Y-94481952D01*
X156022523Y-94143285D01*
X155974142Y-93949761D01*
X155877380Y-93853000D01*
X155780619Y-93804619D01*
X154909761Y-94433571D02*
X154135666Y-94433571D01*
X153748619Y-93804619D02*
X153119666Y-93804619D01*
X153458333Y-94191666D01*
X153313190Y-94191666D01*
X153216428Y-94240047D01*
X153168047Y-94288428D01*
X153119666Y-94385190D01*
X153119666Y-94627095D01*
X153168047Y-94723857D01*
X153216428Y-94772238D01*
X153313190Y-94820619D01*
X153603476Y-94820619D01*
X153700238Y-94772238D01*
X153748619Y-94723857D01*
D21*
X133064285Y-99639380D02*
X133635714Y-99639380D01*
X133350000Y-99639380D02*
X133350000Y-98639380D01*
X133445238Y-98782238D01*
X133540476Y-98877476D01*
X133635714Y-98925095D01*
X133635714Y-97083619D02*
X133588095Y-97036000D01*
X133492857Y-96988380D01*
X133254761Y-96988380D01*
X133159523Y-97036000D01*
X133111904Y-97083619D01*
X133064285Y-97178857D01*
X133064285Y-97274095D01*
X133111904Y-97416952D01*
X133683333Y-97988380D01*
X133064285Y-97988380D01*
%TO.C,Sign_RoHS*%
D26*
X156021193Y-67487800D02*
X156105860Y-67572466D01*
X156359860Y-67657133D01*
X156529193Y-67657133D01*
X156783193Y-67572466D01*
X156952526Y-67403133D01*
X157037193Y-67233800D01*
X157121860Y-66895133D01*
X157121860Y-66641133D01*
X157037193Y-66302466D01*
X156952526Y-66133133D01*
X156783193Y-65963800D01*
X156529193Y-65879133D01*
X156359860Y-65879133D01*
X156105860Y-65963800D01*
X156021193Y-66048466D01*
X155005193Y-67657133D02*
X155174526Y-67572466D01*
X155259193Y-67487800D01*
X155343860Y-67318466D01*
X155343860Y-66810466D01*
X155259193Y-66641133D01*
X155174526Y-66556466D01*
X155005193Y-66471800D01*
X154751193Y-66471800D01*
X154581860Y-66556466D01*
X154497193Y-66641133D01*
X154412526Y-66810466D01*
X154412526Y-67318466D01*
X154497193Y-67487800D01*
X154581860Y-67572466D01*
X154751193Y-67657133D01*
X155005193Y-67657133D01*
X153650526Y-67657133D02*
X153650526Y-66471800D01*
X153650526Y-66641133D02*
X153565860Y-66556466D01*
X153396526Y-66471800D01*
X153142526Y-66471800D01*
X152973193Y-66556466D01*
X152888526Y-66725800D01*
X152888526Y-67657133D01*
X152888526Y-66725800D02*
X152803860Y-66556466D01*
X152634526Y-66471800D01*
X152380526Y-66471800D01*
X152211193Y-66556466D01*
X152126526Y-66725800D01*
X152126526Y-67657133D01*
X151279860Y-66471800D02*
X151279860Y-68249800D01*
X151279860Y-66556466D02*
X151110526Y-66471800D01*
X150771860Y-66471800D01*
X150602526Y-66556466D01*
X150517860Y-66641133D01*
X150433193Y-66810466D01*
X150433193Y-67318466D01*
X150517860Y-67487800D01*
X150602526Y-67572466D01*
X150771860Y-67657133D01*
X151110526Y-67657133D01*
X151279860Y-67572466D01*
X149417193Y-67657133D02*
X149586526Y-67572466D01*
X149671193Y-67403133D01*
X149671193Y-65879133D01*
X148739860Y-67657133D02*
X148739860Y-66471800D01*
X148739860Y-65879133D02*
X148824526Y-65963800D01*
X148739860Y-66048466D01*
X148655193Y-65963800D01*
X148739860Y-65879133D01*
X148739860Y-66048466D01*
X147131193Y-67657133D02*
X147131193Y-66725800D01*
X147215860Y-66556466D01*
X147385193Y-66471800D01*
X147723860Y-66471800D01*
X147893193Y-66556466D01*
X147131193Y-67572466D02*
X147300526Y-67657133D01*
X147723860Y-67657133D01*
X147893193Y-67572466D01*
X147977860Y-67403133D01*
X147977860Y-67233800D01*
X147893193Y-67064466D01*
X147723860Y-66979800D01*
X147300526Y-66979800D01*
X147131193Y-66895133D01*
X146284526Y-66471800D02*
X146284526Y-67657133D01*
X146284526Y-66641133D02*
X146199860Y-66556466D01*
X146030526Y-66471800D01*
X145776526Y-66471800D01*
X145607193Y-66556466D01*
X145522526Y-66725800D01*
X145522526Y-67657133D01*
X144929860Y-66471800D02*
X144252526Y-66471800D01*
X144675860Y-65879133D02*
X144675860Y-67403133D01*
X144591193Y-67572466D01*
X144421860Y-67657133D01*
X144252526Y-67657133D01*
D15*
X155442634Y-64552081D02*
X156109300Y-63599700D01*
X156585491Y-64552081D02*
X156585491Y-62552081D01*
X155823586Y-62552081D01*
X155633110Y-62647320D01*
X155537872Y-62742558D01*
X155442634Y-62933034D01*
X155442634Y-63218748D01*
X155537872Y-63409224D01*
X155633110Y-63504462D01*
X155823586Y-63599700D01*
X156585491Y-63599700D01*
X154299777Y-64552081D02*
X154490253Y-64456843D01*
X154585491Y-64361605D01*
X154680729Y-64171129D01*
X154680729Y-63599700D01*
X154585491Y-63409224D01*
X154490253Y-63313986D01*
X154299777Y-63218748D01*
X154014062Y-63218748D01*
X153823586Y-63313986D01*
X153728348Y-63409224D01*
X153633110Y-63599700D01*
X153633110Y-64171129D01*
X153728348Y-64361605D01*
X153823586Y-64456843D01*
X154014062Y-64552081D01*
X154299777Y-64552081D01*
X152775967Y-64552081D02*
X152775967Y-62552081D01*
X152775967Y-63504462D02*
X151633110Y-63504462D01*
X151633110Y-64552081D02*
X151633110Y-62552081D01*
X150775967Y-64456843D02*
X150490253Y-64552081D01*
X150014062Y-64552081D01*
X149823586Y-64456843D01*
X149728348Y-64361605D01*
X149633110Y-64171129D01*
X149633110Y-63980653D01*
X149728348Y-63790177D01*
X149823586Y-63694939D01*
X150014062Y-63599700D01*
X150395015Y-63504462D01*
X150585491Y-63409224D01*
X150680729Y-63313986D01*
X150775967Y-63123510D01*
X150775967Y-62933034D01*
X150680729Y-62742558D01*
X150585491Y-62647320D01*
X150395015Y-62552081D01*
X149918824Y-62552081D01*
X149633110Y-62647320D01*
%TO.C,Sign_PB-Free*%
D11*
X134081068Y-78066327D02*
X134081068Y-76366327D01*
X133509640Y-76366327D01*
X133366782Y-76447280D01*
X133295354Y-76528232D01*
X133223925Y-76690137D01*
X133223925Y-76932994D01*
X133295354Y-77094899D01*
X133366782Y-77175851D01*
X133509640Y-77256803D01*
X134081068Y-77256803D01*
X132581068Y-78066327D02*
X132581068Y-76366327D01*
X132581068Y-77013946D02*
X132438211Y-76932994D01*
X132152497Y-76932994D01*
X132009640Y-77013946D01*
X131938211Y-77094899D01*
X131866782Y-77256803D01*
X131866782Y-77742518D01*
X131938211Y-77904422D01*
X132009640Y-77985375D01*
X132152497Y-78066327D01*
X132438211Y-78066327D01*
X132581068Y-77985375D01*
%TO.C,Logo_OSHW*%
X127628298Y-67792379D02*
X127733060Y-67739998D01*
X127785440Y-67687617D01*
X127837821Y-67582855D01*
X127837821Y-67268569D01*
X127785440Y-67163807D01*
X127733060Y-67111426D01*
X127628298Y-67059045D01*
X127471155Y-67059045D01*
X127366393Y-67111426D01*
X127314012Y-67163807D01*
X127261631Y-67268569D01*
X127261631Y-67582855D01*
X127314012Y-67687617D01*
X127366393Y-67739998D01*
X127471155Y-67792379D01*
X127628298Y-67792379D01*
X126790202Y-67059045D02*
X126790202Y-68159045D01*
X126790202Y-67111426D02*
X126685440Y-67059045D01*
X126475917Y-67059045D01*
X126371155Y-67111426D01*
X126318774Y-67163807D01*
X126266393Y-67268569D01*
X126266393Y-67582855D01*
X126318774Y-67687617D01*
X126371155Y-67739998D01*
X126475917Y-67792379D01*
X126685440Y-67792379D01*
X126790202Y-67739998D01*
X125375917Y-67739998D02*
X125480679Y-67792379D01*
X125690202Y-67792379D01*
X125794964Y-67739998D01*
X125847345Y-67635236D01*
X125847345Y-67216188D01*
X125794964Y-67111426D01*
X125690202Y-67059045D01*
X125480679Y-67059045D01*
X125375917Y-67111426D01*
X125323536Y-67216188D01*
X125323536Y-67320950D01*
X125847345Y-67425712D01*
X124852107Y-67059045D02*
X124852107Y-67792379D01*
X124852107Y-67163807D02*
X124799726Y-67111426D01*
X124694964Y-67059045D01*
X124537821Y-67059045D01*
X124433060Y-67111426D01*
X124380679Y-67216188D01*
X124380679Y-67792379D01*
D27*
X123312797Y-67838580D02*
X123312797Y-66838580D01*
X122884225Y-67838580D02*
X122884225Y-67314771D01*
X122931844Y-67219533D01*
X123027082Y-67171914D01*
X123169940Y-67171914D01*
X123265178Y-67219533D01*
X123312797Y-67267152D01*
X121979463Y-67838580D02*
X121979463Y-67314771D01*
X122027082Y-67219533D01*
X122122320Y-67171914D01*
X122312797Y-67171914D01*
X122408035Y-67219533D01*
X121979463Y-67790961D02*
X122074701Y-67838580D01*
X122312797Y-67838580D01*
X122408035Y-67790961D01*
X122455654Y-67695723D01*
X122455654Y-67600485D01*
X122408035Y-67505247D01*
X122312797Y-67457628D01*
X122074701Y-67457628D01*
X121979463Y-67410009D01*
X121503273Y-67838580D02*
X121503273Y-67171914D01*
X121503273Y-67362390D02*
X121455654Y-67267152D01*
X121408035Y-67219533D01*
X121312797Y-67171914D01*
X121217559Y-67171914D01*
X120455654Y-67838580D02*
X120455654Y-66838580D01*
X120455654Y-67790961D02*
X120550892Y-67838580D01*
X120741368Y-67838580D01*
X120836606Y-67790961D01*
X120884225Y-67743342D01*
X120931844Y-67648104D01*
X120931844Y-67362390D01*
X120884225Y-67267152D01*
X120836606Y-67219533D01*
X120741368Y-67171914D01*
X120550892Y-67171914D01*
X120455654Y-67219533D01*
X120074701Y-67171914D02*
X119884225Y-67838580D01*
X119693749Y-67362390D01*
X119503273Y-67838580D01*
X119312797Y-67171914D01*
X118503273Y-67838580D02*
X118503273Y-67314771D01*
X118550892Y-67219533D01*
X118646130Y-67171914D01*
X118836606Y-67171914D01*
X118931844Y-67219533D01*
X118503273Y-67790961D02*
X118598511Y-67838580D01*
X118836606Y-67838580D01*
X118931844Y-67790961D01*
X118979463Y-67695723D01*
X118979463Y-67600485D01*
X118931844Y-67505247D01*
X118836606Y-67457628D01*
X118598511Y-67457628D01*
X118503273Y-67410009D01*
X118027082Y-67838580D02*
X118027082Y-67171914D01*
X118027082Y-67362390D02*
X117979463Y-67267152D01*
X117931844Y-67219533D01*
X117836606Y-67171914D01*
X117741368Y-67171914D01*
X117027082Y-67790961D02*
X117122320Y-67838580D01*
X117312797Y-67838580D01*
X117408035Y-67790961D01*
X117455654Y-67695723D01*
X117455654Y-67314771D01*
X117408035Y-67219533D01*
X117312797Y-67171914D01*
X117122320Y-67171914D01*
X117027082Y-67219533D01*
X116979463Y-67314771D01*
X116979463Y-67410009D01*
X117455654Y-67505247D01*
%TO.C,GPIO-1*%
D11*
X132049761Y-55118000D02*
X132146523Y-55069619D01*
X132291666Y-55069619D01*
X132436809Y-55118000D01*
X132533571Y-55214761D01*
X132581952Y-55311523D01*
X132630333Y-55505047D01*
X132630333Y-55650190D01*
X132581952Y-55843714D01*
X132533571Y-55940476D01*
X132436809Y-56037238D01*
X132291666Y-56085619D01*
X132194904Y-56085619D01*
X132049761Y-56037238D01*
X132001380Y-55988857D01*
X132001380Y-55650190D01*
X132194904Y-55650190D01*
X131565952Y-56085619D02*
X131565952Y-55069619D01*
X131178904Y-55069619D01*
X131082142Y-55118000D01*
X131033761Y-55166380D01*
X130985380Y-55263142D01*
X130985380Y-55408285D01*
X131033761Y-55505047D01*
X131082142Y-55553428D01*
X131178904Y-55601809D01*
X131565952Y-55601809D01*
X130549952Y-56085619D02*
X130549952Y-55069619D01*
X129872619Y-55069619D02*
X129679095Y-55069619D01*
X129582333Y-55118000D01*
X129485571Y-55214761D01*
X129437190Y-55408285D01*
X129437190Y-55746952D01*
X129485571Y-55940476D01*
X129582333Y-56037238D01*
X129679095Y-56085619D01*
X129872619Y-56085619D01*
X129969380Y-56037238D01*
X130066142Y-55940476D01*
X130114523Y-55746952D01*
X130114523Y-55408285D01*
X130066142Y-55214761D01*
X129969380Y-55118000D01*
X129872619Y-55069619D01*
X129001761Y-55698571D02*
X128227666Y-55698571D01*
X127211666Y-56085619D02*
X127792238Y-56085619D01*
X127501952Y-56085619D02*
X127501952Y-55069619D01*
X127598714Y-55214761D01*
X127695476Y-55311523D01*
X127792238Y-55359904D01*
D21*
X126079285Y-52649380D02*
X126650714Y-52649380D01*
X126365000Y-52649380D02*
X126365000Y-51649380D01*
X126460238Y-51792238D01*
X126555476Y-51887476D01*
X126650714Y-51935095D01*
X126650714Y-50093619D02*
X126603095Y-50046000D01*
X126507857Y-49998380D01*
X126269761Y-49998380D01*
X126174523Y-50046000D01*
X126126904Y-50093619D01*
X126079285Y-50188857D01*
X126079285Y-50284095D01*
X126126904Y-50426952D01*
X126698333Y-50998380D01*
X126079285Y-50998380D01*
%TO.C,GPIO-2*%
D11*
X133319761Y-87503000D02*
X133416523Y-87454619D01*
X133561666Y-87454619D01*
X133706809Y-87503000D01*
X133803571Y-87599761D01*
X133851952Y-87696523D01*
X133900333Y-87890047D01*
X133900333Y-88035190D01*
X133851952Y-88228714D01*
X133803571Y-88325476D01*
X133706809Y-88422238D01*
X133561666Y-88470619D01*
X133464904Y-88470619D01*
X133319761Y-88422238D01*
X133271380Y-88373857D01*
X133271380Y-88035190D01*
X133464904Y-88035190D01*
X132835952Y-88470619D02*
X132835952Y-87454619D01*
X132448904Y-87454619D01*
X132352142Y-87503000D01*
X132303761Y-87551380D01*
X132255380Y-87648142D01*
X132255380Y-87793285D01*
X132303761Y-87890047D01*
X132352142Y-87938428D01*
X132448904Y-87986809D01*
X132835952Y-87986809D01*
X131819952Y-88470619D02*
X131819952Y-87454619D01*
X131142619Y-87454619D02*
X130949095Y-87454619D01*
X130852333Y-87503000D01*
X130755571Y-87599761D01*
X130707190Y-87793285D01*
X130707190Y-88131952D01*
X130755571Y-88325476D01*
X130852333Y-88422238D01*
X130949095Y-88470619D01*
X131142619Y-88470619D01*
X131239380Y-88422238D01*
X131336142Y-88325476D01*
X131384523Y-88131952D01*
X131384523Y-87793285D01*
X131336142Y-87599761D01*
X131239380Y-87503000D01*
X131142619Y-87454619D01*
X130271761Y-88083571D02*
X129497666Y-88083571D01*
X129062238Y-87551380D02*
X129013857Y-87503000D01*
X128917095Y-87454619D01*
X128675190Y-87454619D01*
X128578428Y-87503000D01*
X128530047Y-87551380D01*
X128481666Y-87648142D01*
X128481666Y-87744904D01*
X128530047Y-87890047D01*
X129110619Y-88470619D01*
X128481666Y-88470619D01*
D21*
X126079285Y-93289380D02*
X126650714Y-93289380D01*
X126365000Y-93289380D02*
X126365000Y-92289380D01*
X126460238Y-92432238D01*
X126555476Y-92527476D01*
X126650714Y-92575095D01*
X126650714Y-90733619D02*
X126603095Y-90686000D01*
X126507857Y-90638380D01*
X126269761Y-90638380D01*
X126174523Y-90686000D01*
X126126904Y-90733619D01*
X126079285Y-90828857D01*
X126079285Y-90924095D01*
X126126904Y-91066952D01*
X126698333Y-91638380D01*
X126079285Y-91638380D01*
%TD*%
M02*
