%TF.GenerationSoftware,KiCad,Pcbnew,5.1.0-rc2-unknown-036be7d~80~ubuntu16.04.1*%
%TF.CreationDate,2022-02-04T13:28:53+02:00*%
%TF.ProjectId,STMP15x-SHIELD_Rev_A,53544d50-3135-4782-9d53-4849454c445f,A*%
%TF.SameCoordinates,Original*%
%TF.FileFunction,Soldermask,Top*%
%TF.FilePolarity,Negative*%
%FSLAX46Y46*%
G04 Gerber Fmt 4.6, Leading zero omitted, Abs format (unit mm)*
G04 Created by KiCad (PCBNEW 5.1.0-rc2-unknown-036be7d~80~ubuntu16.04.1) date 2022-02-04 13:28:53*
%MOMM*%
%LPD*%
G04 APERTURE LIST*
%ADD10C,0.801600*%
%ADD11C,1.254000*%
%ADD12R,1.371600X1.625600*%
%ADD13C,1.301600*%
%ADD14R,4.351600X1.101600*%
%ADD15C,1.901600*%
%ADD16R,1.901600X1.901600*%
%ADD17R,0.651600X0.601600*%
%ADD18R,0.601600X0.651600*%
%ADD19R,1.117600X0.609600*%
%ADD20R,1.117600X0.863600*%
%ADD21R,1.101600X4.351600*%
%ADD22R,3.201600X1.601600*%
%ADD23C,0.501600*%
%ADD24R,0.901600X1.601600*%
G04 APERTURE END LIST*
D10*
%TO.C,GPIO-3*%
X135255000Y-98425000D03*
X158115000Y-98425000D03*
%TD*%
D11*
%TO.C,FID1*%
X156972000Y-99949000D03*
%TD*%
%TO.C,FID2*%
X130175000Y-49911000D03*
%TD*%
%TO.C,FID3*%
X156972000Y-49911000D03*
%TD*%
D12*
%TO.C,C1*%
X151511000Y-89408000D03*
X153543000Y-89408000D03*
%TD*%
D13*
%TO.C,EXT1*%
X121285000Y-49022000D03*
X121285000Y-94742000D03*
D14*
X118160000Y-47752000D03*
X124410000Y-47752000D03*
X118160000Y-50292000D03*
X124410000Y-50292000D03*
X118160000Y-52832000D03*
X124410000Y-52832000D03*
X118160000Y-55372000D03*
X124410000Y-55372000D03*
X118160000Y-57912000D03*
X124410000Y-57912000D03*
X118160000Y-60452000D03*
X124410000Y-60452000D03*
X118160000Y-62992000D03*
X124410000Y-62992000D03*
X118160000Y-65532000D03*
X124410000Y-65532000D03*
X118160000Y-68072000D03*
X124410000Y-68072000D03*
X118160000Y-70612000D03*
X124410000Y-70612000D03*
X118160000Y-73152000D03*
X124410000Y-73152000D03*
X118160000Y-75692000D03*
X124410000Y-75692000D03*
X118160000Y-78232000D03*
X124410000Y-78232000D03*
X118160000Y-80772000D03*
X124410000Y-80772000D03*
X118160000Y-83312000D03*
X124410000Y-83312000D03*
X118160000Y-85852000D03*
X124410000Y-85852000D03*
X118160000Y-88392000D03*
X124410000Y-88392000D03*
X118160000Y-90932000D03*
X124410000Y-90932000D03*
X118160000Y-93472000D03*
X124410000Y-93472000D03*
X118160000Y-96012000D03*
X124410000Y-96012000D03*
%TD*%
D12*
%TO.C,L1*%
X153416000Y-85344000D03*
X153416000Y-87376000D03*
%TD*%
D15*
%TO.C,NRST1*%
X128651000Y-99822000D03*
D16*
X131191000Y-99822000D03*
%TD*%
D17*
%TO.C,R1*%
X150114000Y-81153000D03*
X150114000Y-82169000D03*
%TD*%
D18*
%TO.C,R2*%
X145923000Y-64897000D03*
X146939000Y-64897000D03*
%TD*%
%TO.C,R3*%
X143383000Y-64897000D03*
X144399000Y-64897000D03*
%TD*%
%TO.C,R4*%
X149479000Y-64897000D03*
X148463000Y-64897000D03*
%TD*%
%TO.C,R5*%
X140843000Y-64897000D03*
X141859000Y-64897000D03*
%TD*%
%TO.C,R6*%
X143383000Y-66548000D03*
X144399000Y-66548000D03*
%TD*%
%TO.C,R7*%
X145923000Y-66548000D03*
X146939000Y-66548000D03*
%TD*%
%TO.C,R8*%
X149479000Y-66548000D03*
X148463000Y-66548000D03*
%TD*%
%TO.C,R9*%
X141859000Y-66548000D03*
X140843000Y-66548000D03*
%TD*%
D19*
%TO.C,RM1*%
X156083000Y-81153000D03*
X156083000Y-81915000D03*
X154559000Y-81153000D03*
X154559000Y-81915000D03*
D20*
X156083000Y-80264000D03*
X154559000Y-80264000D03*
X156083000Y-82804000D03*
X154559000Y-82804000D03*
%TD*%
D13*
%TO.C,UEXT1*%
X148082000Y-57785000D03*
D21*
X139192000Y-60910000D03*
X139192000Y-54660000D03*
X141732000Y-60910000D03*
X141732000Y-54660000D03*
X144272000Y-60910000D03*
X144272000Y-54660000D03*
X146812000Y-60910000D03*
X146812000Y-54660000D03*
X149352000Y-60910000D03*
X149352000Y-54660000D03*
D13*
X140462000Y-57785000D03*
%TD*%
%TO.C,UEXT2*%
X148082000Y-74295000D03*
D21*
X139192000Y-77420000D03*
X139192000Y-71170000D03*
X141732000Y-77420000D03*
X141732000Y-71170000D03*
X144272000Y-77420000D03*
X144272000Y-71170000D03*
X146812000Y-77420000D03*
X146812000Y-71170000D03*
X149352000Y-77420000D03*
X149352000Y-71170000D03*
D13*
X140462000Y-74295000D03*
%TD*%
D10*
%TO.C,GPIO-1*%
X128270000Y-51435000D03*
X151130000Y-51435000D03*
%TD*%
%TO.C,GPIO-2*%
X128270000Y-92075000D03*
X151130000Y-92075000D03*
%TD*%
D22*
%TO.C,MICRO_SD1*%
X147422000Y-86444000D03*
X141362000Y-86444000D03*
D23*
X138732000Y-97414000D03*
X138732000Y-85614000D03*
X150002000Y-85614000D03*
X151092000Y-97414000D03*
D24*
X140422000Y-95694000D03*
X141522000Y-95694000D03*
X142622000Y-95694000D03*
X143722000Y-95694000D03*
X144822000Y-95694000D03*
X145922000Y-95694000D03*
X147022000Y-95694000D03*
X148122000Y-95694000D03*
%TD*%
M02*
