%TF.GenerationSoftware,KiCad,Pcbnew,5.1.0-rc2-unknown-036be7d~80~ubuntu16.04.1*%
%TF.CreationDate,2022-02-04T13:28:53+02:00*%
%TF.ProjectId,STMP15x-SHIELD_Rev_A,53544d50-3135-4782-9d53-4849454c445f,A*%
%TF.SameCoordinates,Original*%
%TF.FileFunction,Legend,Top*%
%TF.FilePolarity,Positive*%
%FSLAX46Y46*%
G04 Gerber Fmt 4.6, Leading zero omitted, Abs format (unit mm)*
G04 Created by KiCad (PCBNEW 5.1.0-rc2-unknown-036be7d~80~ubuntu16.04.1) date 2022-02-04 13:28:53*
%MOMM*%
%LPD*%
G04 APERTURE LIST*
%ADD10C,0.317500*%
%ADD11C,0.444500*%
%ADD12C,0.100000*%
%ADD13C,0.700000*%
%ADD14C,0.400000*%
%ADD15C,0.500000*%
%ADD16C,0.254000*%
%ADD17C,0.127000*%
%ADD18C,0.508000*%
G04 APERTURE END LIST*
D10*
X128336523Y-95649142D02*
X128336523Y-96374857D01*
X128336523Y-96012000D02*
X127066523Y-96012000D01*
X127247952Y-96132952D01*
X127368904Y-96253904D01*
X127429380Y-96374857D01*
X133458857Y-78044523D02*
X132733142Y-78044523D01*
X133096000Y-78044523D02*
X133096000Y-76774523D01*
X132975047Y-76955952D01*
X132854095Y-77076904D01*
X132733142Y-77137380D01*
X133458857Y-61661523D02*
X132733142Y-61661523D01*
X133096000Y-61661523D02*
X133096000Y-60391523D01*
X132975047Y-60572952D01*
X132854095Y-60693904D01*
X132733142Y-60754380D01*
X137407952Y-99930857D02*
X137649857Y-100777523D01*
X137891761Y-100172761D01*
X138133666Y-100777523D01*
X138375571Y-99930857D01*
X138738428Y-99930857D02*
X138980333Y-100777523D01*
X139222238Y-100172761D01*
X139464142Y-100777523D01*
X139706047Y-99930857D01*
X140068904Y-99930857D02*
X140310809Y-100777523D01*
X140552714Y-100172761D01*
X140794619Y-100777523D01*
X141036523Y-99930857D01*
X141520333Y-100656571D02*
X141580809Y-100717047D01*
X141520333Y-100777523D01*
X141459857Y-100717047D01*
X141520333Y-100656571D01*
X141520333Y-100777523D01*
X142306523Y-100777523D02*
X142185571Y-100717047D01*
X142125095Y-100656571D01*
X142064619Y-100535619D01*
X142064619Y-100172761D01*
X142125095Y-100051809D01*
X142185571Y-99991333D01*
X142306523Y-99930857D01*
X142487952Y-99930857D01*
X142608904Y-99991333D01*
X142669380Y-100051809D01*
X142729857Y-100172761D01*
X142729857Y-100535619D01*
X142669380Y-100656571D01*
X142608904Y-100717047D01*
X142487952Y-100777523D01*
X142306523Y-100777523D01*
X143455571Y-100777523D02*
X143334619Y-100717047D01*
X143274142Y-100596095D01*
X143274142Y-99507523D01*
X143939380Y-100777523D02*
X143939380Y-99930857D01*
X143939380Y-99507523D02*
X143878904Y-99568000D01*
X143939380Y-99628476D01*
X143999857Y-99568000D01*
X143939380Y-99507523D01*
X143939380Y-99628476D01*
X144544142Y-100777523D02*
X144544142Y-99930857D01*
X144544142Y-100051809D02*
X144604619Y-99991333D01*
X144725571Y-99930857D01*
X144907000Y-99930857D01*
X145027952Y-99991333D01*
X145088428Y-100112285D01*
X145088428Y-100777523D01*
X145088428Y-100112285D02*
X145148904Y-99991333D01*
X145269857Y-99930857D01*
X145451285Y-99930857D01*
X145572238Y-99991333D01*
X145632714Y-100112285D01*
X145632714Y-100777523D01*
X146721285Y-100717047D02*
X146600333Y-100777523D01*
X146358428Y-100777523D01*
X146237476Y-100717047D01*
X146177000Y-100596095D01*
X146177000Y-100112285D01*
X146237476Y-99991333D01*
X146358428Y-99930857D01*
X146600333Y-99930857D01*
X146721285Y-99991333D01*
X146781761Y-100112285D01*
X146781761Y-100233238D01*
X146177000Y-100354190D01*
X147205095Y-100777523D02*
X147870333Y-99930857D01*
X147205095Y-99930857D02*
X147870333Y-100777523D01*
X148354142Y-100656571D02*
X148414619Y-100717047D01*
X148354142Y-100777523D01*
X148293666Y-100717047D01*
X148354142Y-100656571D01*
X148354142Y-100777523D01*
X149503190Y-100717047D02*
X149382238Y-100777523D01*
X149140333Y-100777523D01*
X149019380Y-100717047D01*
X148958904Y-100656571D01*
X148898428Y-100535619D01*
X148898428Y-100172761D01*
X148958904Y-100051809D01*
X149019380Y-99991333D01*
X149140333Y-99930857D01*
X149382238Y-99930857D01*
X149503190Y-99991333D01*
X150228904Y-100777523D02*
X150107952Y-100717047D01*
X150047476Y-100656571D01*
X149987000Y-100535619D01*
X149987000Y-100172761D01*
X150047476Y-100051809D01*
X150107952Y-99991333D01*
X150228904Y-99930857D01*
X150410333Y-99930857D01*
X150531285Y-99991333D01*
X150591761Y-100051809D01*
X150652238Y-100172761D01*
X150652238Y-100535619D01*
X150591761Y-100656571D01*
X150531285Y-100717047D01*
X150410333Y-100777523D01*
X150228904Y-100777523D01*
X151196523Y-100777523D02*
X151196523Y-99930857D01*
X151196523Y-100051809D02*
X151257000Y-99991333D01*
X151377952Y-99930857D01*
X151559380Y-99930857D01*
X151680333Y-99991333D01*
X151740809Y-100112285D01*
X151740809Y-100777523D01*
X151740809Y-100112285D02*
X151801285Y-99991333D01*
X151922238Y-99930857D01*
X152103666Y-99930857D01*
X152224619Y-99991333D01*
X152285095Y-100112285D01*
X152285095Y-100777523D01*
D11*
X132164666Y-50630666D02*
X132418666Y-50715333D01*
X132842000Y-50715333D01*
X133011333Y-50630666D01*
X133096000Y-50546000D01*
X133180666Y-50376666D01*
X133180666Y-50207333D01*
X133096000Y-50038000D01*
X133011333Y-49953333D01*
X132842000Y-49868666D01*
X132503333Y-49784000D01*
X132334000Y-49699333D01*
X132249333Y-49614666D01*
X132164666Y-49445333D01*
X132164666Y-49276000D01*
X132249333Y-49106666D01*
X132334000Y-49022000D01*
X132503333Y-48937333D01*
X132926666Y-48937333D01*
X133180666Y-49022000D01*
X133688666Y-48937333D02*
X134704666Y-48937333D01*
X134196666Y-50715333D02*
X134196666Y-48937333D01*
X135297333Y-50715333D02*
X135297333Y-48937333D01*
X135890000Y-50207333D01*
X136482666Y-48937333D01*
X136482666Y-50715333D01*
X137329333Y-50715333D02*
X137329333Y-48937333D01*
X138006666Y-48937333D01*
X138176000Y-49022000D01*
X138260666Y-49106666D01*
X138345333Y-49276000D01*
X138345333Y-49530000D01*
X138260666Y-49699333D01*
X138176000Y-49784000D01*
X138006666Y-49868666D01*
X137329333Y-49868666D01*
X140038666Y-50715333D02*
X139022666Y-50715333D01*
X139530666Y-50715333D02*
X139530666Y-48937333D01*
X139361333Y-49191333D01*
X139192000Y-49360666D01*
X139022666Y-49445333D01*
X141647333Y-48937333D02*
X140800666Y-48937333D01*
X140716000Y-49784000D01*
X140800666Y-49699333D01*
X140970000Y-49614666D01*
X141393333Y-49614666D01*
X141562666Y-49699333D01*
X141647333Y-49784000D01*
X141732000Y-49953333D01*
X141732000Y-50376666D01*
X141647333Y-50546000D01*
X141562666Y-50630666D01*
X141393333Y-50715333D01*
X140970000Y-50715333D01*
X140800666Y-50630666D01*
X140716000Y-50546000D01*
X142324666Y-50715333D02*
X143256000Y-49530000D01*
X142324666Y-49530000D02*
X143256000Y-50715333D01*
X143933333Y-50038000D02*
X145288000Y-50038000D01*
X146050000Y-50630666D02*
X146304000Y-50715333D01*
X146727333Y-50715333D01*
X146896666Y-50630666D01*
X146981333Y-50546000D01*
X147066000Y-50376666D01*
X147066000Y-50207333D01*
X146981333Y-50038000D01*
X146896666Y-49953333D01*
X146727333Y-49868666D01*
X146388666Y-49784000D01*
X146219333Y-49699333D01*
X146134666Y-49614666D01*
X146050000Y-49445333D01*
X146050000Y-49276000D01*
X146134666Y-49106666D01*
X146219333Y-49022000D01*
X146388666Y-48937333D01*
X146812000Y-48937333D01*
X147066000Y-49022000D01*
X147828000Y-50715333D02*
X147828000Y-48937333D01*
X147828000Y-49784000D02*
X148844000Y-49784000D01*
X148844000Y-50715333D02*
X148844000Y-48937333D01*
X149690666Y-50715333D02*
X149690666Y-48937333D01*
X150537333Y-49784000D02*
X151130000Y-49784000D01*
X151384000Y-50715333D02*
X150537333Y-50715333D01*
X150537333Y-48937333D01*
X151384000Y-48937333D01*
X152992666Y-50715333D02*
X152146000Y-50715333D01*
X152146000Y-48937333D01*
X153585333Y-50715333D02*
X153585333Y-48937333D01*
X154008666Y-48937333D01*
X154262666Y-49022000D01*
X154432000Y-49191333D01*
X154516666Y-49360666D01*
X154601333Y-49699333D01*
X154601333Y-49953333D01*
X154516666Y-50292000D01*
X154432000Y-50461333D01*
X154262666Y-50630666D01*
X154008666Y-50715333D01*
X153585333Y-50715333D01*
D10*
X129757714Y-88180333D02*
X129697238Y-88119857D01*
X129576285Y-87938428D01*
X129515809Y-87817476D01*
X129455333Y-87636047D01*
X129394857Y-87333666D01*
X129394857Y-87091761D01*
X129455333Y-86789380D01*
X129515809Y-86607952D01*
X129576285Y-86487000D01*
X129697238Y-86305571D01*
X129757714Y-86245095D01*
X130967238Y-87575571D02*
X130906761Y-87636047D01*
X130725333Y-87696523D01*
X130604380Y-87696523D01*
X130422952Y-87636047D01*
X130302000Y-87515095D01*
X130241523Y-87394142D01*
X130181047Y-87152238D01*
X130181047Y-86970809D01*
X130241523Y-86728904D01*
X130302000Y-86607952D01*
X130422952Y-86487000D01*
X130604380Y-86426523D01*
X130725333Y-86426523D01*
X130906761Y-86487000D01*
X130967238Y-86547476D01*
X131390571Y-88180333D02*
X131451047Y-88119857D01*
X131572000Y-87938428D01*
X131632476Y-87817476D01*
X131692952Y-87636047D01*
X131753428Y-87333666D01*
X131753428Y-87091761D01*
X131692952Y-86789380D01*
X131632476Y-86607952D01*
X131572000Y-86487000D01*
X131451047Y-86305571D01*
X131390571Y-86245095D01*
X133265333Y-86547476D02*
X133325809Y-86487000D01*
X133446761Y-86426523D01*
X133749142Y-86426523D01*
X133870095Y-86487000D01*
X133930571Y-86547476D01*
X133991047Y-86668428D01*
X133991047Y-86789380D01*
X133930571Y-86970809D01*
X133204857Y-87696523D01*
X133991047Y-87696523D01*
X134777238Y-86426523D02*
X134898190Y-86426523D01*
X135019142Y-86487000D01*
X135079619Y-86547476D01*
X135140095Y-86668428D01*
X135200571Y-86910333D01*
X135200571Y-87212714D01*
X135140095Y-87454619D01*
X135079619Y-87575571D01*
X135019142Y-87636047D01*
X134898190Y-87696523D01*
X134777238Y-87696523D01*
X134656285Y-87636047D01*
X134595809Y-87575571D01*
X134535333Y-87454619D01*
X134474857Y-87212714D01*
X134474857Y-86910333D01*
X134535333Y-86668428D01*
X134595809Y-86547476D01*
X134656285Y-86487000D01*
X134777238Y-86426523D01*
X135684380Y-86547476D02*
X135744857Y-86487000D01*
X135865809Y-86426523D01*
X136168190Y-86426523D01*
X136289142Y-86487000D01*
X136349619Y-86547476D01*
X136410095Y-86668428D01*
X136410095Y-86789380D01*
X136349619Y-86970809D01*
X135623904Y-87696523D01*
X136410095Y-87696523D01*
X136893904Y-86547476D02*
X136954380Y-86487000D01*
X137075333Y-86426523D01*
X137377714Y-86426523D01*
X137498666Y-86487000D01*
X137559142Y-86547476D01*
X137619619Y-86668428D01*
X137619619Y-86789380D01*
X137559142Y-86970809D01*
X136833428Y-87696523D01*
X137619619Y-87696523D01*
X128820333Y-54041523D02*
X128397000Y-53436761D01*
X128094619Y-54041523D02*
X128094619Y-52771523D01*
X128578428Y-52771523D01*
X128699380Y-52832000D01*
X128759857Y-52892476D01*
X128820333Y-53013428D01*
X128820333Y-53194857D01*
X128759857Y-53315809D01*
X128699380Y-53376285D01*
X128578428Y-53436761D01*
X128094619Y-53436761D01*
X129848428Y-53981047D02*
X129727476Y-54041523D01*
X129485571Y-54041523D01*
X129364619Y-53981047D01*
X129304142Y-53860095D01*
X129304142Y-53376285D01*
X129364619Y-53255333D01*
X129485571Y-53194857D01*
X129727476Y-53194857D01*
X129848428Y-53255333D01*
X129908904Y-53376285D01*
X129908904Y-53497238D01*
X129304142Y-53618190D01*
X130332238Y-53194857D02*
X130634619Y-54041523D01*
X130937000Y-53194857D01*
X131420809Y-53920571D02*
X131481285Y-53981047D01*
X131420809Y-54041523D01*
X131360333Y-53981047D01*
X131420809Y-53920571D01*
X131420809Y-54041523D01*
X131965095Y-53678666D02*
X132569857Y-53678666D01*
X131844142Y-54041523D02*
X132267476Y-52771523D01*
X132690809Y-54041523D01*
D12*
%TO.C,Logo_Olimex_1*%
X142862300Y-80721200D02*
X144233900Y-80721200D01*
X144233900Y-80721200D02*
X144284700Y-80721200D01*
X144284700Y-80721200D02*
X145542000Y-81965800D01*
X141338300Y-80835500D02*
X141439900Y-80835500D01*
X141490700Y-80772000D02*
X141490700Y-80759300D01*
X141490700Y-80759300D02*
X140195300Y-80759300D01*
X140195300Y-80759300D02*
X140169900Y-80759300D01*
X140169900Y-80759300D02*
X139547600Y-81254600D01*
X141490700Y-83781900D02*
X141490700Y-80772000D01*
X137833100Y-80822800D02*
X137756900Y-80822800D01*
X137680700Y-80759300D02*
X138925300Y-80759300D01*
X138925300Y-80759300D02*
X139509500Y-81241900D01*
X137680700Y-83756500D02*
X137680700Y-80772000D01*
X136944100Y-83350100D02*
X137033000Y-83350100D01*
X136601200Y-83350100D02*
X136537700Y-83350100D01*
X136461500Y-83413600D02*
X137071100Y-83413600D01*
X137071100Y-83413600D02*
X137096500Y-83413600D01*
X137096500Y-83413600D02*
X137096500Y-81394300D01*
X136461500Y-81394300D02*
X136461500Y-83413600D01*
X134962900Y-80784700D02*
X135077200Y-80784700D01*
X134835900Y-80708500D02*
X135140700Y-80708500D01*
X135140700Y-80708500D02*
X135140700Y-83743800D01*
X134658100Y-80797400D02*
X134594600Y-80784700D01*
X134543800Y-80708500D02*
X134531100Y-80708500D01*
X134531100Y-80708500D02*
X134518400Y-80708500D01*
X134518400Y-80708500D02*
X134518400Y-83858100D01*
X134823200Y-80708500D02*
X134543800Y-80708500D01*
D13*
X134823200Y-83781900D02*
X134823200Y-81051400D01*
X141160500Y-81064100D02*
X141160500Y-83667600D01*
X133045200Y-81051400D02*
X132041900Y-81051400D01*
X133667500Y-81661000D02*
X133667500Y-83591400D01*
X131445000Y-81699100D02*
X131445000Y-81940400D01*
X131445000Y-83667600D02*
X132029200Y-84239100D01*
X131457700Y-83680300D02*
X131457700Y-82918300D01*
X132016500Y-84239100D02*
X133057900Y-84239100D01*
D14*
X144504659Y-82626200D02*
G75*
G03X144504659Y-82626200I-359659J0D01*
G01*
D13*
X143637000Y-82626200D02*
X142417800Y-82626200D01*
D14*
X147438135Y-80886300D02*
G75*
G03X147438135Y-80886300I-359435J0D01*
G01*
D13*
X146710400Y-81241900D02*
X145846800Y-82135600D01*
D15*
X145288000Y-82232500D02*
X145846800Y-82232500D01*
D13*
X144170400Y-81051400D02*
X145262600Y-82118200D01*
X142948500Y-81051400D02*
X144170400Y-81051400D01*
X142417800Y-81534000D02*
X142900400Y-81026000D01*
X142417800Y-81559400D02*
X142417800Y-83794600D01*
X142417800Y-83794600D02*
X142849600Y-84226400D01*
X142849600Y-84226400D02*
X144170400Y-84226400D01*
X144170400Y-84226400D02*
X145313400Y-83108800D01*
D15*
X145313400Y-83007200D02*
X145846800Y-83007200D01*
D13*
X146659600Y-83921600D02*
X145821400Y-83108800D01*
D14*
X147319266Y-84277200D02*
G75*
G03X147319266Y-84277200I-329466J0D01*
G01*
X141523729Y-84188300D02*
G75*
G03X141523729Y-84188300I-363229J0D01*
G01*
D13*
X140258800Y-81076800D02*
X141147800Y-81076800D01*
D14*
X139918518Y-82905600D02*
G75*
G03X139918518Y-82905600I-370918J0D01*
G01*
D13*
X139623800Y-81584800D02*
X140258800Y-81076800D01*
X139547600Y-82372200D02*
X139547600Y-81661000D01*
X138836400Y-81076800D02*
X139446000Y-81584800D01*
X137998200Y-81076800D02*
X138836400Y-81076800D01*
X137998200Y-83667600D02*
X137998200Y-81076800D01*
D14*
X138370559Y-84175600D02*
G75*
G03X138370559Y-84175600I-359659J0D01*
G01*
X137165218Y-80975200D02*
G75*
G03X137165218Y-80975200I-373518J0D01*
G01*
D13*
X136779000Y-81508600D02*
X136779000Y-83108800D01*
D14*
X137145324Y-84201000D02*
G75*
G03X137145324Y-84201000I-366324J0D01*
G01*
D13*
X136266200Y-84226400D02*
X135280400Y-84226400D01*
X135280400Y-84226400D02*
X134823200Y-83769200D01*
X133654800Y-83629500D02*
X133096000Y-84213700D01*
X133045200Y-81064100D02*
X133680200Y-81673700D01*
X131445000Y-81648300D02*
X131953000Y-81140300D01*
D14*
X131795147Y-82423000D02*
G75*
G03X131795147Y-82423000I-337447J0D01*
G01*
D16*
%TO.C,C1*%
X153035000Y-88392000D02*
X152019000Y-88392000D01*
X153035000Y-90424000D02*
X152019000Y-90424000D01*
%TO.C,EXT1*%
X124585000Y-44182000D02*
X124585000Y-43782000D01*
X124585000Y-99982000D02*
X124585000Y-99582000D01*
X117985000Y-99982000D02*
X117985000Y-99582000D01*
X117985000Y-44182000D02*
X117985000Y-43782000D01*
X118110000Y-99822000D02*
X118110000Y-97282000D01*
X118110000Y-46482000D02*
X118110000Y-43942000D01*
X124460000Y-43942000D02*
X118110000Y-43942000D01*
X118110000Y-99822000D02*
X124460000Y-99822000D01*
X116840000Y-101092000D02*
X116840000Y-99822000D01*
X125730000Y-42672000D02*
X125730000Y-46482000D01*
X125730000Y-42672000D02*
X116840000Y-42672000D01*
X116840000Y-101092000D02*
X125730000Y-101092000D01*
X116840000Y-43942000D02*
X116586000Y-43942000D01*
X116586000Y-43942000D02*
X116586000Y-45212000D01*
X116840000Y-45212000D02*
X116586000Y-45212000D01*
X116840000Y-43942000D02*
X116840000Y-42672000D01*
X116840000Y-46482000D02*
X116840000Y-45212000D01*
X116586000Y-98552000D02*
X116586000Y-99822000D01*
X116586000Y-99822000D02*
X116840000Y-99822000D01*
X116586000Y-98552000D02*
X116840000Y-98552000D01*
X116840000Y-98552000D02*
X116840000Y-97282000D01*
X124460000Y-43942000D02*
X124460000Y-46482000D01*
X124714000Y-46482000D02*
X124714000Y-43688000D01*
X124714000Y-43688000D02*
X117856000Y-43688000D01*
X117856000Y-43688000D02*
X117856000Y-46482000D01*
X117856000Y-97282000D02*
X117856000Y-100076000D01*
X117856000Y-100076000D02*
X124714000Y-100076000D01*
X124714000Y-100076000D02*
X124714000Y-97282000D01*
X125730000Y-101092000D02*
X125730000Y-97282000D01*
X124460000Y-97282000D02*
X124460000Y-99822000D01*
X117856000Y-97282000D02*
X118110000Y-97282000D01*
X124460000Y-97282000D02*
X124714000Y-97282000D01*
X124460000Y-46482000D02*
X124714000Y-46482000D01*
X117856000Y-46482000D02*
X118110000Y-46482000D01*
D17*
%TO.C,L1*%
X152527000Y-85928200D02*
X152527000Y-86766400D01*
X154305000Y-85928200D02*
X154305000Y-86766400D01*
D18*
%TO.C,NRST1*%
X132461000Y-101092000D02*
X127381000Y-101092000D01*
X127381000Y-101092000D02*
X127381000Y-98552000D01*
X127381000Y-98552000D02*
X132461000Y-98552000D01*
X132461000Y-98552000D02*
X132461000Y-101092000D01*
D16*
%TO.C,R1*%
X149669500Y-81661000D02*
X149669500Y-81915000D01*
X149669500Y-81661000D02*
X149669500Y-81407000D01*
X150558500Y-81661000D02*
X150558500Y-81407000D01*
X150558500Y-81661000D02*
X150558500Y-81915000D01*
%TO.C,R2*%
X146431000Y-65341500D02*
X146685000Y-65341500D01*
X146431000Y-65341500D02*
X146177000Y-65341500D01*
X146431000Y-64452500D02*
X146177000Y-64452500D01*
X146431000Y-64452500D02*
X146685000Y-64452500D01*
%TO.C,R3*%
X143891000Y-65341500D02*
X144145000Y-65341500D01*
X143891000Y-65341500D02*
X143637000Y-65341500D01*
X143891000Y-64452500D02*
X143637000Y-64452500D01*
X143891000Y-64452500D02*
X144145000Y-64452500D01*
%TO.C,R4*%
X148971000Y-64452500D02*
X148717000Y-64452500D01*
X148971000Y-64452500D02*
X149225000Y-64452500D01*
X148971000Y-65341500D02*
X149225000Y-65341500D01*
X148971000Y-65341500D02*
X148717000Y-65341500D01*
%TO.C,R5*%
X141351000Y-65341500D02*
X141097000Y-65341500D01*
X141351000Y-65341500D02*
X141605000Y-65341500D01*
X141351000Y-64452500D02*
X141605000Y-64452500D01*
X141351000Y-64452500D02*
X141097000Y-64452500D01*
%TO.C,R6*%
X143891000Y-66992500D02*
X144145000Y-66992500D01*
X143891000Y-66992500D02*
X143637000Y-66992500D01*
X143891000Y-66103500D02*
X143637000Y-66103500D01*
X143891000Y-66103500D02*
X144145000Y-66103500D01*
%TO.C,R7*%
X146431000Y-66992500D02*
X146685000Y-66992500D01*
X146431000Y-66992500D02*
X146177000Y-66992500D01*
X146431000Y-66103500D02*
X146177000Y-66103500D01*
X146431000Y-66103500D02*
X146685000Y-66103500D01*
%TO.C,R8*%
X148971000Y-66103500D02*
X148717000Y-66103500D01*
X148971000Y-66103500D02*
X149225000Y-66103500D01*
X148971000Y-66992500D02*
X149225000Y-66992500D01*
X148971000Y-66992500D02*
X148717000Y-66992500D01*
%TO.C,R9*%
X141351000Y-66103500D02*
X141097000Y-66103500D01*
X141351000Y-66103500D02*
X141605000Y-66103500D01*
X141351000Y-66992500D02*
X141605000Y-66992500D01*
X141351000Y-66992500D02*
X141097000Y-66992500D01*
%TO.C,RM1*%
X156794200Y-79527400D02*
X156794200Y-79743300D01*
X153847800Y-79527400D02*
X156794200Y-79527400D01*
X153847800Y-79717900D02*
X153847800Y-79527400D01*
X156794200Y-83540600D02*
X156794200Y-83324700D01*
X153847800Y-83515200D02*
X153847800Y-83337400D01*
X153847800Y-83527900D02*
X156794200Y-83527900D01*
%TO.C,UEXT1*%
X137922000Y-54610000D02*
X137922000Y-54356000D01*
X137922000Y-61214000D02*
X137922000Y-60960000D01*
X150622000Y-61214000D02*
X150622000Y-60960000D01*
X150622000Y-54610000D02*
X150622000Y-54356000D01*
X137922000Y-62230000D02*
X134112000Y-62230000D01*
X135128000Y-61214000D02*
X137922000Y-61214000D01*
X135128000Y-54356000D02*
X135128000Y-61214000D01*
X137922000Y-54356000D02*
X135128000Y-54356000D01*
X153416000Y-54356000D02*
X150622000Y-54356000D01*
X153416000Y-61214000D02*
X153416000Y-54356000D01*
X150622000Y-61214000D02*
X153416000Y-61214000D01*
X136652000Y-53340000D02*
X137922000Y-53340000D01*
X136652000Y-53086000D02*
X136652000Y-53340000D01*
X135382000Y-53086000D02*
X135382000Y-53340000D01*
X136652000Y-53086000D02*
X135382000Y-53086000D01*
X150622000Y-53340000D02*
X151892000Y-53340000D01*
X153162000Y-53340000D02*
X154432000Y-53340000D01*
X151892000Y-53340000D02*
X151892000Y-53086000D01*
X153162000Y-53086000D02*
X151892000Y-53086000D01*
X153162000Y-53340000D02*
X153162000Y-53086000D01*
X137922000Y-60960000D02*
X135382000Y-60960000D01*
X153162000Y-60960000D02*
X150622000Y-60960000D01*
X134112000Y-53340000D02*
X134112000Y-62230000D01*
X154432000Y-62230000D02*
X154432000Y-53340000D01*
X154432000Y-62230000D02*
X150622000Y-62230000D01*
X134112000Y-53340000D02*
X135382000Y-53340000D01*
X135382000Y-54610000D02*
X135382000Y-60960000D01*
X153162000Y-60960000D02*
X153162000Y-54610000D01*
X150622000Y-54610000D02*
X153162000Y-54610000D01*
X135382000Y-54610000D02*
X137922000Y-54610000D01*
X135636000Y-54483000D02*
X135255000Y-54483000D01*
X135636000Y-61087000D02*
X135255000Y-61087000D01*
X153035000Y-61087000D02*
X153289000Y-61087000D01*
X152908000Y-54483000D02*
X153416000Y-54483000D01*
%TO.C,UEXT2*%
X137922000Y-71120000D02*
X137922000Y-70866000D01*
X137922000Y-77724000D02*
X137922000Y-77470000D01*
X150622000Y-77724000D02*
X150622000Y-77470000D01*
X150622000Y-71120000D02*
X150622000Y-70866000D01*
X137922000Y-78740000D02*
X134112000Y-78740000D01*
X135128000Y-77724000D02*
X137922000Y-77724000D01*
X135128000Y-70866000D02*
X135128000Y-77724000D01*
X137922000Y-70866000D02*
X135128000Y-70866000D01*
X153416000Y-70866000D02*
X150622000Y-70866000D01*
X153416000Y-77724000D02*
X153416000Y-70866000D01*
X150622000Y-77724000D02*
X153416000Y-77724000D01*
X136652000Y-69850000D02*
X137922000Y-69850000D01*
X136652000Y-69596000D02*
X136652000Y-69850000D01*
X135382000Y-69596000D02*
X135382000Y-69850000D01*
X136652000Y-69596000D02*
X135382000Y-69596000D01*
X150622000Y-69850000D02*
X151892000Y-69850000D01*
X153162000Y-69850000D02*
X154432000Y-69850000D01*
X151892000Y-69850000D02*
X151892000Y-69596000D01*
X153162000Y-69596000D02*
X151892000Y-69596000D01*
X153162000Y-69850000D02*
X153162000Y-69596000D01*
X137922000Y-77470000D02*
X135382000Y-77470000D01*
X153162000Y-77470000D02*
X150622000Y-77470000D01*
X134112000Y-69850000D02*
X134112000Y-78740000D01*
X154432000Y-78740000D02*
X154432000Y-69850000D01*
X154432000Y-78740000D02*
X150622000Y-78740000D01*
X134112000Y-69850000D02*
X135382000Y-69850000D01*
X135382000Y-71120000D02*
X135382000Y-77470000D01*
X153162000Y-77470000D02*
X153162000Y-71120000D01*
X150622000Y-71120000D02*
X153162000Y-71120000D01*
X135382000Y-71120000D02*
X137922000Y-71120000D01*
X135636000Y-70993000D02*
X135255000Y-70993000D01*
X135636000Y-77597000D02*
X135255000Y-77597000D01*
X153035000Y-77597000D02*
X153289000Y-77597000D01*
X152908000Y-70993000D02*
X153416000Y-70993000D01*
%TO.C,MICRO_SD1*%
X149999700Y-86045040D02*
X149999700Y-90736420D01*
X139164060Y-85615780D02*
X139633960Y-85615780D01*
X143172180Y-85615780D02*
X145620740Y-85615780D01*
X149270720Y-85615780D02*
X149570440Y-85615780D01*
X151091900Y-96982280D02*
X151091900Y-92463620D01*
X138732260Y-96982280D02*
X138732260Y-86045040D01*
X139174220Y-97411540D02*
X150660100Y-97411540D01*
X149999700Y-90736420D02*
X151091900Y-92443300D01*
%TO.C,C1*%
X155405666Y-89770857D02*
X155357285Y-89819238D01*
X155212142Y-89867619D01*
X155115380Y-89867619D01*
X154970238Y-89819238D01*
X154873476Y-89722476D01*
X154825095Y-89625714D01*
X154776714Y-89432190D01*
X154776714Y-89287047D01*
X154825095Y-89093523D01*
X154873476Y-88996761D01*
X154970238Y-88900000D01*
X155115380Y-88851619D01*
X155212142Y-88851619D01*
X155357285Y-88900000D01*
X155405666Y-88948380D01*
X156373285Y-89867619D02*
X155792714Y-89867619D01*
X156083000Y-89867619D02*
X156083000Y-88851619D01*
X155986238Y-88996761D01*
X155889476Y-89093523D01*
X155792714Y-89141904D01*
%TO.C,EXT1*%
D10*
X128179285Y-94167476D02*
X128179285Y-93744142D01*
X128844523Y-93562714D02*
X128844523Y-94167476D01*
X127574523Y-94167476D01*
X127574523Y-93562714D01*
X127574523Y-93139380D02*
X128844523Y-92292714D01*
X127574523Y-92292714D02*
X128844523Y-93139380D01*
X127574523Y-91990333D02*
X127574523Y-91264619D01*
X128844523Y-91627476D02*
X127574523Y-91627476D01*
X128844523Y-90176047D02*
X128844523Y-90901761D01*
X128844523Y-90538904D02*
X127574523Y-90538904D01*
X127755952Y-90659857D01*
X127876904Y-90780809D01*
X127937380Y-90901761D01*
D16*
X119440476Y-98279857D02*
X119380000Y-98219380D01*
X119319523Y-98098428D01*
X119319523Y-97796047D01*
X119380000Y-97675095D01*
X119440476Y-97614619D01*
X119561428Y-97554142D01*
X119682380Y-97554142D01*
X119863809Y-97614619D01*
X120589523Y-98340333D01*
X120589523Y-97554142D01*
X123129523Y-97554142D02*
X123129523Y-98279857D01*
X123129523Y-97917000D02*
X121859523Y-97917000D01*
X122040952Y-98037952D01*
X122161904Y-98158904D01*
X122222380Y-98279857D01*
%TO.C,L1*%
X156542619Y-86148333D02*
X156542619Y-86632142D01*
X155526619Y-86632142D01*
X156542619Y-85277476D02*
X156542619Y-85858047D01*
X156542619Y-85567761D02*
X155526619Y-85567761D01*
X155671761Y-85664523D01*
X155768523Y-85761285D01*
X155816904Y-85858047D01*
%TO.C,NRST1*%
X129927047Y-97741619D02*
X129927047Y-96725619D01*
X130507619Y-97741619D01*
X130507619Y-96725619D01*
X131572000Y-97741619D02*
X131233333Y-97257809D01*
X130991428Y-97741619D02*
X130991428Y-96725619D01*
X131378476Y-96725619D01*
X131475238Y-96774000D01*
X131523619Y-96822380D01*
X131572000Y-96919142D01*
X131572000Y-97064285D01*
X131523619Y-97161047D01*
X131475238Y-97209428D01*
X131378476Y-97257809D01*
X130991428Y-97257809D01*
X131959047Y-97693238D02*
X132104190Y-97741619D01*
X132346095Y-97741619D01*
X132442857Y-97693238D01*
X132491238Y-97644857D01*
X132539619Y-97548095D01*
X132539619Y-97451333D01*
X132491238Y-97354571D01*
X132442857Y-97306190D01*
X132346095Y-97257809D01*
X132152571Y-97209428D01*
X132055809Y-97161047D01*
X132007428Y-97112666D01*
X131959047Y-97015904D01*
X131959047Y-96919142D01*
X132007428Y-96822380D01*
X132055809Y-96774000D01*
X132152571Y-96725619D01*
X132394476Y-96725619D01*
X132539619Y-96774000D01*
X132829904Y-96725619D02*
X133410476Y-96725619D01*
X133120190Y-97741619D02*
X133120190Y-96725619D01*
X134281333Y-97741619D02*
X133700761Y-97741619D01*
X133991047Y-97741619D02*
X133991047Y-96725619D01*
X133894285Y-96870761D01*
X133797523Y-96967523D01*
X133700761Y-97015904D01*
%TO.C,R1*%
X152351619Y-81830333D02*
X151867809Y-82169000D01*
X152351619Y-82410904D02*
X151335619Y-82410904D01*
X151335619Y-82023857D01*
X151384000Y-81927095D01*
X151432380Y-81878714D01*
X151529142Y-81830333D01*
X151674285Y-81830333D01*
X151771047Y-81878714D01*
X151819428Y-81927095D01*
X151867809Y-82023857D01*
X151867809Y-82410904D01*
X152351619Y-80862714D02*
X152351619Y-81443285D01*
X152351619Y-81153000D02*
X151335619Y-81153000D01*
X151480761Y-81249761D01*
X151577523Y-81346523D01*
X151625904Y-81443285D01*
%TO.C,R2*%
X151214666Y-64975619D02*
X150876000Y-64491809D01*
X150634095Y-64975619D02*
X150634095Y-63959619D01*
X151021142Y-63959619D01*
X151117904Y-64008000D01*
X151166285Y-64056380D01*
X151214666Y-64153142D01*
X151214666Y-64298285D01*
X151166285Y-64395047D01*
X151117904Y-64443428D01*
X151021142Y-64491809D01*
X150634095Y-64491809D01*
X151601714Y-64056380D02*
X151650095Y-64008000D01*
X151746857Y-63959619D01*
X151988761Y-63959619D01*
X152085523Y-64008000D01*
X152133904Y-64056380D01*
X152182285Y-64153142D01*
X152182285Y-64249904D01*
X152133904Y-64395047D01*
X151553333Y-64975619D01*
X152182285Y-64975619D01*
%TO.C,R3*%
X138641666Y-64975619D02*
X138303000Y-64491809D01*
X138061095Y-64975619D02*
X138061095Y-63959619D01*
X138448142Y-63959619D01*
X138544904Y-64008000D01*
X138593285Y-64056380D01*
X138641666Y-64153142D01*
X138641666Y-64298285D01*
X138593285Y-64395047D01*
X138544904Y-64443428D01*
X138448142Y-64491809D01*
X138061095Y-64491809D01*
X138980333Y-63959619D02*
X139609285Y-63959619D01*
X139270619Y-64346666D01*
X139415761Y-64346666D01*
X139512523Y-64395047D01*
X139560904Y-64443428D01*
X139609285Y-64540190D01*
X139609285Y-64782095D01*
X139560904Y-64878857D01*
X139512523Y-64927238D01*
X139415761Y-64975619D01*
X139125476Y-64975619D01*
X139028714Y-64927238D01*
X138980333Y-64878857D01*
%TO.C,R4*%
X154135666Y-64975619D02*
X153797000Y-64491809D01*
X153555095Y-64975619D02*
X153555095Y-63959619D01*
X153942142Y-63959619D01*
X154038904Y-64008000D01*
X154087285Y-64056380D01*
X154135666Y-64153142D01*
X154135666Y-64298285D01*
X154087285Y-64395047D01*
X154038904Y-64443428D01*
X153942142Y-64491809D01*
X153555095Y-64491809D01*
X155006523Y-64298285D02*
X155006523Y-64975619D01*
X154764619Y-63911238D02*
X154522714Y-64636952D01*
X155151666Y-64636952D01*
%TO.C,R5*%
X135720666Y-64975619D02*
X135382000Y-64491809D01*
X135140095Y-64975619D02*
X135140095Y-63959619D01*
X135527142Y-63959619D01*
X135623904Y-64008000D01*
X135672285Y-64056380D01*
X135720666Y-64153142D01*
X135720666Y-64298285D01*
X135672285Y-64395047D01*
X135623904Y-64443428D01*
X135527142Y-64491809D01*
X135140095Y-64491809D01*
X136639904Y-63959619D02*
X136156095Y-63959619D01*
X136107714Y-64443428D01*
X136156095Y-64395047D01*
X136252857Y-64346666D01*
X136494761Y-64346666D01*
X136591523Y-64395047D01*
X136639904Y-64443428D01*
X136688285Y-64540190D01*
X136688285Y-64782095D01*
X136639904Y-64878857D01*
X136591523Y-64927238D01*
X136494761Y-64975619D01*
X136252857Y-64975619D01*
X136156095Y-64927238D01*
X136107714Y-64878857D01*
%TO.C,R6*%
X138641666Y-67007619D02*
X138303000Y-66523809D01*
X138061095Y-67007619D02*
X138061095Y-65991619D01*
X138448142Y-65991619D01*
X138544904Y-66040000D01*
X138593285Y-66088380D01*
X138641666Y-66185142D01*
X138641666Y-66330285D01*
X138593285Y-66427047D01*
X138544904Y-66475428D01*
X138448142Y-66523809D01*
X138061095Y-66523809D01*
X139512523Y-65991619D02*
X139319000Y-65991619D01*
X139222238Y-66040000D01*
X139173857Y-66088380D01*
X139077095Y-66233523D01*
X139028714Y-66427047D01*
X139028714Y-66814095D01*
X139077095Y-66910857D01*
X139125476Y-66959238D01*
X139222238Y-67007619D01*
X139415761Y-67007619D01*
X139512523Y-66959238D01*
X139560904Y-66910857D01*
X139609285Y-66814095D01*
X139609285Y-66572190D01*
X139560904Y-66475428D01*
X139512523Y-66427047D01*
X139415761Y-66378666D01*
X139222238Y-66378666D01*
X139125476Y-66427047D01*
X139077095Y-66475428D01*
X139028714Y-66572190D01*
%TO.C,R7*%
X151214666Y-67007619D02*
X150876000Y-66523809D01*
X150634095Y-67007619D02*
X150634095Y-65991619D01*
X151021142Y-65991619D01*
X151117904Y-66040000D01*
X151166285Y-66088380D01*
X151214666Y-66185142D01*
X151214666Y-66330285D01*
X151166285Y-66427047D01*
X151117904Y-66475428D01*
X151021142Y-66523809D01*
X150634095Y-66523809D01*
X151553333Y-65991619D02*
X152230666Y-65991619D01*
X151795238Y-67007619D01*
%TO.C,R8*%
X154135666Y-67007619D02*
X153797000Y-66523809D01*
X153555095Y-67007619D02*
X153555095Y-65991619D01*
X153942142Y-65991619D01*
X154038904Y-66040000D01*
X154087285Y-66088380D01*
X154135666Y-66185142D01*
X154135666Y-66330285D01*
X154087285Y-66427047D01*
X154038904Y-66475428D01*
X153942142Y-66523809D01*
X153555095Y-66523809D01*
X154716238Y-66427047D02*
X154619476Y-66378666D01*
X154571095Y-66330285D01*
X154522714Y-66233523D01*
X154522714Y-66185142D01*
X154571095Y-66088380D01*
X154619476Y-66040000D01*
X154716238Y-65991619D01*
X154909761Y-65991619D01*
X155006523Y-66040000D01*
X155054904Y-66088380D01*
X155103285Y-66185142D01*
X155103285Y-66233523D01*
X155054904Y-66330285D01*
X155006523Y-66378666D01*
X154909761Y-66427047D01*
X154716238Y-66427047D01*
X154619476Y-66475428D01*
X154571095Y-66523809D01*
X154522714Y-66620571D01*
X154522714Y-66814095D01*
X154571095Y-66910857D01*
X154619476Y-66959238D01*
X154716238Y-67007619D01*
X154909761Y-67007619D01*
X155006523Y-66959238D01*
X155054904Y-66910857D01*
X155103285Y-66814095D01*
X155103285Y-66620571D01*
X155054904Y-66523809D01*
X155006523Y-66475428D01*
X154909761Y-66427047D01*
%TO.C,R9*%
X135720666Y-67007619D02*
X135382000Y-66523809D01*
X135140095Y-67007619D02*
X135140095Y-65991619D01*
X135527142Y-65991619D01*
X135623904Y-66040000D01*
X135672285Y-66088380D01*
X135720666Y-66185142D01*
X135720666Y-66330285D01*
X135672285Y-66427047D01*
X135623904Y-66475428D01*
X135527142Y-66523809D01*
X135140095Y-66523809D01*
X136204476Y-67007619D02*
X136398000Y-67007619D01*
X136494761Y-66959238D01*
X136543142Y-66910857D01*
X136639904Y-66765714D01*
X136688285Y-66572190D01*
X136688285Y-66185142D01*
X136639904Y-66088380D01*
X136591523Y-66040000D01*
X136494761Y-65991619D01*
X136301238Y-65991619D01*
X136204476Y-66040000D01*
X136156095Y-66088380D01*
X136107714Y-66185142D01*
X136107714Y-66427047D01*
X136156095Y-66523809D01*
X136204476Y-66572190D01*
X136301238Y-66620571D01*
X136494761Y-66620571D01*
X136591523Y-66572190D01*
X136639904Y-66523809D01*
X136688285Y-66427047D01*
%TO.C,RM1*%
X158574619Y-82283904D02*
X158090809Y-82622571D01*
X158574619Y-82864476D02*
X157558619Y-82864476D01*
X157558619Y-82477428D01*
X157607000Y-82380666D01*
X157655380Y-82332285D01*
X157752142Y-82283904D01*
X157897285Y-82283904D01*
X157994047Y-82332285D01*
X158042428Y-82380666D01*
X158090809Y-82477428D01*
X158090809Y-82864476D01*
X158574619Y-81848476D02*
X157558619Y-81848476D01*
X158284333Y-81509809D01*
X157558619Y-81171142D01*
X158574619Y-81171142D01*
X158574619Y-80155142D02*
X158574619Y-80735714D01*
X158574619Y-80445428D02*
X157558619Y-80445428D01*
X157703761Y-80542190D01*
X157800523Y-80638952D01*
X157848904Y-80735714D01*
%TO.C,UEXT1*%
D10*
X155260523Y-60415714D02*
X156288619Y-60415714D01*
X156409571Y-60355238D01*
X156470047Y-60294761D01*
X156530523Y-60173809D01*
X156530523Y-59931904D01*
X156470047Y-59810952D01*
X156409571Y-59750476D01*
X156288619Y-59690000D01*
X155260523Y-59690000D01*
X155865285Y-59085238D02*
X155865285Y-58661904D01*
X156530523Y-58480476D02*
X156530523Y-59085238D01*
X155260523Y-59085238D01*
X155260523Y-58480476D01*
X155260523Y-58057142D02*
X156530523Y-57210476D01*
X155260523Y-57210476D02*
X156530523Y-58057142D01*
X155260523Y-56908095D02*
X155260523Y-56182380D01*
X156530523Y-56545238D02*
X155260523Y-56545238D01*
X156530523Y-55093809D02*
X156530523Y-55819523D01*
X156530523Y-55456666D02*
X155260523Y-55456666D01*
X155441952Y-55577619D01*
X155562904Y-55698571D01*
X155623380Y-55819523D01*
D16*
X137649857Y-59629523D02*
X136924142Y-59629523D01*
X137287000Y-59629523D02*
X137287000Y-58359523D01*
X137166047Y-58540952D01*
X137045095Y-58661904D01*
X136924142Y-58722380D01*
X136924142Y-55940476D02*
X136984619Y-55880000D01*
X137105571Y-55819523D01*
X137407952Y-55819523D01*
X137528904Y-55880000D01*
X137589380Y-55940476D01*
X137649857Y-56061428D01*
X137649857Y-56182380D01*
X137589380Y-56363809D01*
X136863666Y-57089523D01*
X137649857Y-57089523D01*
%TO.C,UEXT2*%
D10*
X155260523Y-76925714D02*
X156288619Y-76925714D01*
X156409571Y-76865238D01*
X156470047Y-76804761D01*
X156530523Y-76683809D01*
X156530523Y-76441904D01*
X156470047Y-76320952D01*
X156409571Y-76260476D01*
X156288619Y-76200000D01*
X155260523Y-76200000D01*
X155865285Y-75595238D02*
X155865285Y-75171904D01*
X156530523Y-74990476D02*
X156530523Y-75595238D01*
X155260523Y-75595238D01*
X155260523Y-74990476D01*
X155260523Y-74567142D02*
X156530523Y-73720476D01*
X155260523Y-73720476D02*
X156530523Y-74567142D01*
X155260523Y-73418095D02*
X155260523Y-72692380D01*
X156530523Y-73055238D02*
X155260523Y-73055238D01*
X155381476Y-72329523D02*
X155321000Y-72269047D01*
X155260523Y-72148095D01*
X155260523Y-71845714D01*
X155321000Y-71724761D01*
X155381476Y-71664285D01*
X155502428Y-71603809D01*
X155623380Y-71603809D01*
X155804809Y-71664285D01*
X156530523Y-72390000D01*
X156530523Y-71603809D01*
D16*
X137649857Y-76139523D02*
X136924142Y-76139523D01*
X137287000Y-76139523D02*
X137287000Y-74869523D01*
X137166047Y-75050952D01*
X137045095Y-75171904D01*
X136924142Y-75232380D01*
X136924142Y-72450476D02*
X136984619Y-72390000D01*
X137105571Y-72329523D01*
X137407952Y-72329523D01*
X137528904Y-72390000D01*
X137589380Y-72450476D01*
X137649857Y-72571428D01*
X137649857Y-72692380D01*
X137589380Y-72873809D01*
X136863666Y-73599523D01*
X137649857Y-73599523D01*
%TO.C,MICRO_SD1*%
X129993571Y-95074619D02*
X129993571Y-94058619D01*
X130332238Y-94784333D01*
X130670904Y-94058619D01*
X130670904Y-95074619D01*
X131154714Y-95074619D02*
X131154714Y-94058619D01*
X132219095Y-94977857D02*
X132170714Y-95026238D01*
X132025571Y-95074619D01*
X131928809Y-95074619D01*
X131783666Y-95026238D01*
X131686904Y-94929476D01*
X131638523Y-94832714D01*
X131590142Y-94639190D01*
X131590142Y-94494047D01*
X131638523Y-94300523D01*
X131686904Y-94203761D01*
X131783666Y-94107000D01*
X131928809Y-94058619D01*
X132025571Y-94058619D01*
X132170714Y-94107000D01*
X132219095Y-94155380D01*
X133235095Y-95074619D02*
X132896428Y-94590809D01*
X132654523Y-95074619D02*
X132654523Y-94058619D01*
X133041571Y-94058619D01*
X133138333Y-94107000D01*
X133186714Y-94155380D01*
X133235095Y-94252142D01*
X133235095Y-94397285D01*
X133186714Y-94494047D01*
X133138333Y-94542428D01*
X133041571Y-94590809D01*
X132654523Y-94590809D01*
X133864047Y-94058619D02*
X134057571Y-94058619D01*
X134154333Y-94107000D01*
X134251095Y-94203761D01*
X134299476Y-94397285D01*
X134299476Y-94735952D01*
X134251095Y-94929476D01*
X134154333Y-95026238D01*
X134057571Y-95074619D01*
X133864047Y-95074619D01*
X133767285Y-95026238D01*
X133670523Y-94929476D01*
X133622142Y-94735952D01*
X133622142Y-94397285D01*
X133670523Y-94203761D01*
X133767285Y-94107000D01*
X133864047Y-94058619D01*
X134493000Y-95171380D02*
X135267095Y-95171380D01*
X135460619Y-95026238D02*
X135605761Y-95074619D01*
X135847666Y-95074619D01*
X135944428Y-95026238D01*
X135992809Y-94977857D01*
X136041190Y-94881095D01*
X136041190Y-94784333D01*
X135992809Y-94687571D01*
X135944428Y-94639190D01*
X135847666Y-94590809D01*
X135654142Y-94542428D01*
X135557380Y-94494047D01*
X135509000Y-94445666D01*
X135460619Y-94348904D01*
X135460619Y-94252142D01*
X135509000Y-94155380D01*
X135557380Y-94107000D01*
X135654142Y-94058619D01*
X135896047Y-94058619D01*
X136041190Y-94107000D01*
X136476619Y-95074619D02*
X136476619Y-94058619D01*
X136718523Y-94058619D01*
X136863666Y-94107000D01*
X136960428Y-94203761D01*
X137008809Y-94300523D01*
X137057190Y-94494047D01*
X137057190Y-94639190D01*
X137008809Y-94832714D01*
X136960428Y-94929476D01*
X136863666Y-95026238D01*
X136718523Y-95074619D01*
X136476619Y-95074619D01*
X138024809Y-95074619D02*
X137444238Y-95074619D01*
X137734523Y-95074619D02*
X137734523Y-94058619D01*
X137637761Y-94203761D01*
X137541000Y-94300523D01*
X137444238Y-94348904D01*
%TD*%
M02*
