%TF.GenerationSoftware,KiCad,Pcbnew,5.1.0-rc2-unknown-036be7d~80~ubuntu16.04.1*%
%TF.CreationDate,2022-02-04T13:28:53+02:00*%
%TF.ProjectId,STMP15x-SHIELD_Rev_A,53544d50-3135-4782-9d53-4849454c445f,A*%
%TF.SameCoordinates,Original*%
%TF.FileFunction,Soldermask,Bot*%
%TF.FilePolarity,Negative*%
%FSLAX46Y46*%
G04 Gerber Fmt 4.6, Leading zero omitted, Abs format (unit mm)*
G04 Created by KiCad (PCBNEW 5.1.0-rc2-unknown-036be7d~80~ubuntu16.04.1) date 2022-02-04 13:28:53*
%MOMM*%
%LPD*%
G04 APERTURE LIST*
%ADD10C,0.801600*%
%ADD11R,0.801600X1.901600*%
%ADD12C,1.254000*%
%ADD13C,1.301600*%
%ADD14C,1.901600*%
%ADD15R,1.901600X1.901600*%
G04 APERTURE END LIST*
D10*
%TO.C,GPIO-3*%
X135255000Y-98425000D03*
D11*
X146050000Y-96393000D03*
X146050000Y-100457000D03*
X144780000Y-96393000D03*
X144780000Y-100457000D03*
X143510000Y-96393000D03*
X143510000Y-100457000D03*
X142240000Y-96393000D03*
X142240000Y-100457000D03*
X140970000Y-96393000D03*
X140970000Y-100457000D03*
X139700000Y-96393000D03*
X139700000Y-100457000D03*
X138430000Y-96393000D03*
X138430000Y-100457000D03*
X137160000Y-96393000D03*
X137160000Y-100457000D03*
X135890000Y-96393000D03*
X135890000Y-100457000D03*
X134620000Y-96393000D03*
X134620000Y-100457000D03*
X147320000Y-100457000D03*
X147320000Y-96393000D03*
X148590000Y-100457000D03*
X148590000Y-96393000D03*
X149860000Y-100457000D03*
X149860000Y-96393000D03*
X151130000Y-100457000D03*
X151130000Y-96393000D03*
X152400000Y-100457000D03*
X152400000Y-96393000D03*
X153670000Y-100457000D03*
X153670000Y-96393000D03*
X154940000Y-100457000D03*
X154940000Y-96393000D03*
X156210000Y-100457000D03*
X156210000Y-96393000D03*
X157480000Y-100457000D03*
X157480000Y-96393000D03*
X158750000Y-100457000D03*
X158750000Y-96393000D03*
D10*
X158115000Y-98425000D03*
%TD*%
D12*
%TO.C,FID4*%
X117475000Y-100330000D03*
%TD*%
%TO.C,FID5*%
X117475000Y-43815000D03*
%TD*%
%TO.C,FID6*%
X157861000Y-49784000D03*
%TD*%
D13*
%TO.C,EXT1*%
X121285000Y-49022000D03*
X121285000Y-94742000D03*
%TD*%
D14*
%TO.C,NRST1*%
X128651000Y-99822000D03*
D15*
X131191000Y-99822000D03*
%TD*%
D13*
%TO.C,UEXT1*%
X148082000Y-57785000D03*
X140462000Y-57785000D03*
%TD*%
%TO.C,UEXT2*%
X148082000Y-74295000D03*
X140462000Y-74295000D03*
%TD*%
D10*
%TO.C,GPIO-1*%
X128270000Y-51435000D03*
D11*
X139065000Y-49403000D03*
X139065000Y-53467000D03*
X137795000Y-49403000D03*
X137795000Y-53467000D03*
X136525000Y-49403000D03*
X136525000Y-53467000D03*
X135255000Y-49403000D03*
X135255000Y-53467000D03*
X133985000Y-49403000D03*
X133985000Y-53467000D03*
X132715000Y-49403000D03*
X132715000Y-53467000D03*
X131445000Y-49403000D03*
X131445000Y-53467000D03*
X130175000Y-49403000D03*
X130175000Y-53467000D03*
X128905000Y-49403000D03*
X128905000Y-53467000D03*
X127635000Y-49403000D03*
X127635000Y-53467000D03*
X140335000Y-53467000D03*
X140335000Y-49403000D03*
X141605000Y-53467000D03*
X141605000Y-49403000D03*
X142875000Y-53467000D03*
X142875000Y-49403000D03*
X144145000Y-53467000D03*
X144145000Y-49403000D03*
X145415000Y-53467000D03*
X145415000Y-49403000D03*
X146685000Y-53467000D03*
X146685000Y-49403000D03*
X147955000Y-53467000D03*
X147955000Y-49403000D03*
X149225000Y-53467000D03*
X149225000Y-49403000D03*
X150495000Y-53467000D03*
X150495000Y-49403000D03*
X151765000Y-53467000D03*
X151765000Y-49403000D03*
D10*
X151130000Y-51435000D03*
%TD*%
%TO.C,GPIO-2*%
X128270000Y-92075000D03*
D11*
X139065000Y-90043000D03*
X139065000Y-94107000D03*
X137795000Y-90043000D03*
X137795000Y-94107000D03*
X136525000Y-90043000D03*
X136525000Y-94107000D03*
X135255000Y-90043000D03*
X135255000Y-94107000D03*
X133985000Y-90043000D03*
X133985000Y-94107000D03*
X132715000Y-90043000D03*
X132715000Y-94107000D03*
X131445000Y-90043000D03*
X131445000Y-94107000D03*
X130175000Y-90043000D03*
X130175000Y-94107000D03*
X128905000Y-90043000D03*
X128905000Y-94107000D03*
X127635000Y-90043000D03*
X127635000Y-94107000D03*
X140335000Y-94107000D03*
X140335000Y-90043000D03*
X141605000Y-94107000D03*
X141605000Y-90043000D03*
X142875000Y-94107000D03*
X142875000Y-90043000D03*
X144145000Y-94107000D03*
X144145000Y-90043000D03*
X145415000Y-94107000D03*
X145415000Y-90043000D03*
X146685000Y-94107000D03*
X146685000Y-90043000D03*
X147955000Y-94107000D03*
X147955000Y-90043000D03*
X149225000Y-94107000D03*
X149225000Y-90043000D03*
X150495000Y-94107000D03*
X150495000Y-90043000D03*
X151765000Y-94107000D03*
X151765000Y-90043000D03*
D10*
X151130000Y-92075000D03*
%TD*%
M02*
