%TF.GenerationSoftware,KiCad,Pcbnew,5.1.0-rc2-unknown-036be7d~80~ubuntu16.04.1*%
%TF.CreationDate,2022-02-04T13:28:53+02:00*%
%TF.ProjectId,STMP15x-SHIELD_Rev_A,53544d50-3135-4782-9d53-4849454c445f,A*%
%TF.SameCoordinates,Original*%
%TF.FileFunction,Paste,Top*%
%TF.FilePolarity,Positive*%
%FSLAX46Y46*%
G04 Gerber Fmt 4.6, Leading zero omitted, Abs format (unit mm)*
G04 Created by KiCad (PCBNEW 5.1.0-rc2-unknown-036be7d~80~ubuntu16.04.1) date 2022-02-04 13:28:53*
%MOMM*%
%LPD*%
G04 APERTURE LIST*
%ADD10R,1.270000X1.524000*%
%ADD11R,4.550000X1.700000*%
%ADD12R,0.550000X0.500000*%
%ADD13R,0.500000X0.550000*%
%ADD14R,1.016000X0.508000*%
%ADD15R,1.016000X0.762000*%
%ADD16C,1.700000*%
%ADD17C,0.100000*%
%ADD18R,3.100000X1.500000*%
%ADD19R,0.800000X1.500000*%
G04 APERTURE END LIST*
D10*
%TO.C,C1*%
X151511000Y-89408000D03*
X153543000Y-89408000D03*
%TD*%
D11*
%TO.C,EXT1*%
X124410000Y-96012000D03*
X124410000Y-93472000D03*
X124410000Y-90932000D03*
X124410000Y-88392000D03*
X124410000Y-85852000D03*
X124410000Y-83312000D03*
X124410000Y-80772000D03*
X124410000Y-78232000D03*
X124410000Y-75692000D03*
X124410000Y-73152000D03*
X124410000Y-47752000D03*
X124410000Y-50292000D03*
X124410000Y-52832000D03*
X124410000Y-55372000D03*
X124410000Y-57912000D03*
X124410000Y-60452000D03*
X124410000Y-62992000D03*
X124410000Y-65532000D03*
X124410000Y-68072000D03*
X118160000Y-68072000D03*
X118160000Y-70612000D03*
X118160000Y-96012000D03*
X118160000Y-93472000D03*
X118160000Y-90932000D03*
X118160000Y-88392000D03*
X118160000Y-85852000D03*
X118160000Y-83312000D03*
X118160000Y-80772000D03*
X118160000Y-78232000D03*
X118160000Y-75692000D03*
X118160000Y-73152000D03*
X118160000Y-65532000D03*
X118160000Y-62992000D03*
X118160000Y-60452000D03*
X118160000Y-57912000D03*
X118160000Y-55372000D03*
X118160000Y-52832000D03*
X118160000Y-50292000D03*
X118160000Y-47752000D03*
X124410000Y-70612000D03*
%TD*%
D10*
%TO.C,L1*%
X153416000Y-85344000D03*
X153416000Y-87376000D03*
%TD*%
D12*
%TO.C,R1*%
X150114000Y-81153000D03*
X150114000Y-82169000D03*
%TD*%
D13*
%TO.C,R2*%
X145923000Y-64897000D03*
X146939000Y-64897000D03*
%TD*%
%TO.C,R3*%
X143383000Y-64897000D03*
X144399000Y-64897000D03*
%TD*%
%TO.C,R4*%
X149479000Y-64897000D03*
X148463000Y-64897000D03*
%TD*%
%TO.C,R5*%
X140843000Y-64897000D03*
X141859000Y-64897000D03*
%TD*%
%TO.C,R6*%
X143383000Y-66548000D03*
X144399000Y-66548000D03*
%TD*%
%TO.C,R7*%
X145923000Y-66548000D03*
X146939000Y-66548000D03*
%TD*%
%TO.C,R8*%
X149479000Y-66548000D03*
X148463000Y-66548000D03*
%TD*%
%TO.C,R9*%
X141859000Y-66548000D03*
X140843000Y-66548000D03*
%TD*%
D14*
%TO.C,RM1*%
X156083000Y-81153000D03*
X156083000Y-81915000D03*
X154559000Y-81153000D03*
X154559000Y-81915000D03*
D15*
X156083000Y-80264000D03*
X154559000Y-80264000D03*
X156083000Y-82804000D03*
X154559000Y-82804000D03*
%TD*%
D16*
%TO.C,UEXT1*%
X139192000Y-60910000D03*
D17*
G36*
X138342000Y-63185000D02*
G01*
X138342000Y-58635000D01*
X140042000Y-58635000D01*
X140042000Y-63185000D01*
X138342000Y-63185000D01*
X138342000Y-63185000D01*
G37*
D16*
X141732000Y-60910000D03*
D17*
G36*
X140882000Y-63185000D02*
G01*
X140882000Y-58635000D01*
X142582000Y-58635000D01*
X142582000Y-63185000D01*
X140882000Y-63185000D01*
X140882000Y-63185000D01*
G37*
D16*
X144272000Y-60910000D03*
D17*
G36*
X143422000Y-63185000D02*
G01*
X143422000Y-58635000D01*
X145122000Y-58635000D01*
X145122000Y-63185000D01*
X143422000Y-63185000D01*
X143422000Y-63185000D01*
G37*
D16*
X146812000Y-60910000D03*
D17*
G36*
X145962000Y-63185000D02*
G01*
X145962000Y-58635000D01*
X147662000Y-58635000D01*
X147662000Y-63185000D01*
X145962000Y-63185000D01*
X145962000Y-63185000D01*
G37*
D16*
X149352000Y-60910000D03*
D17*
G36*
X148502000Y-63185000D02*
G01*
X148502000Y-58635000D01*
X150202000Y-58635000D01*
X150202000Y-63185000D01*
X148502000Y-63185000D01*
X148502000Y-63185000D01*
G37*
D16*
X149352000Y-54660000D03*
D17*
G36*
X148502000Y-56935000D02*
G01*
X148502000Y-52385000D01*
X150202000Y-52385000D01*
X150202000Y-56935000D01*
X148502000Y-56935000D01*
X148502000Y-56935000D01*
G37*
D16*
X146812000Y-54660000D03*
D17*
G36*
X145962000Y-56935000D02*
G01*
X145962000Y-52385000D01*
X147662000Y-52385000D01*
X147662000Y-56935000D01*
X145962000Y-56935000D01*
X145962000Y-56935000D01*
G37*
D16*
X139192000Y-54660000D03*
D17*
G36*
X138342000Y-56935000D02*
G01*
X138342000Y-52385000D01*
X140042000Y-52385000D01*
X140042000Y-56935000D01*
X138342000Y-56935000D01*
X138342000Y-56935000D01*
G37*
D16*
X141732000Y-54660000D03*
D17*
G36*
X140882000Y-56935000D02*
G01*
X140882000Y-52385000D01*
X142582000Y-52385000D01*
X142582000Y-56935000D01*
X140882000Y-56935000D01*
X140882000Y-56935000D01*
G37*
D16*
X144272000Y-54660000D03*
D17*
G36*
X143422000Y-56935000D02*
G01*
X143422000Y-52385000D01*
X145122000Y-52385000D01*
X145122000Y-56935000D01*
X143422000Y-56935000D01*
X143422000Y-56935000D01*
G37*
%TD*%
D16*
%TO.C,UEXT2*%
X139192000Y-77420000D03*
D17*
G36*
X138342000Y-79695000D02*
G01*
X138342000Y-75145000D01*
X140042000Y-75145000D01*
X140042000Y-79695000D01*
X138342000Y-79695000D01*
X138342000Y-79695000D01*
G37*
D16*
X141732000Y-77420000D03*
D17*
G36*
X140882000Y-79695000D02*
G01*
X140882000Y-75145000D01*
X142582000Y-75145000D01*
X142582000Y-79695000D01*
X140882000Y-79695000D01*
X140882000Y-79695000D01*
G37*
D16*
X144272000Y-77420000D03*
D17*
G36*
X143422000Y-79695000D02*
G01*
X143422000Y-75145000D01*
X145122000Y-75145000D01*
X145122000Y-79695000D01*
X143422000Y-79695000D01*
X143422000Y-79695000D01*
G37*
D16*
X146812000Y-77420000D03*
D17*
G36*
X145962000Y-79695000D02*
G01*
X145962000Y-75145000D01*
X147662000Y-75145000D01*
X147662000Y-79695000D01*
X145962000Y-79695000D01*
X145962000Y-79695000D01*
G37*
D16*
X149352000Y-77420000D03*
D17*
G36*
X148502000Y-79695000D02*
G01*
X148502000Y-75145000D01*
X150202000Y-75145000D01*
X150202000Y-79695000D01*
X148502000Y-79695000D01*
X148502000Y-79695000D01*
G37*
D16*
X149352000Y-71170000D03*
D17*
G36*
X148502000Y-73445000D02*
G01*
X148502000Y-68895000D01*
X150202000Y-68895000D01*
X150202000Y-73445000D01*
X148502000Y-73445000D01*
X148502000Y-73445000D01*
G37*
D16*
X146812000Y-71170000D03*
D17*
G36*
X145962000Y-73445000D02*
G01*
X145962000Y-68895000D01*
X147662000Y-68895000D01*
X147662000Y-73445000D01*
X145962000Y-73445000D01*
X145962000Y-73445000D01*
G37*
D16*
X139192000Y-71170000D03*
D17*
G36*
X138342000Y-73445000D02*
G01*
X138342000Y-68895000D01*
X140042000Y-68895000D01*
X140042000Y-73445000D01*
X138342000Y-73445000D01*
X138342000Y-73445000D01*
G37*
D16*
X141732000Y-71170000D03*
D17*
G36*
X140882000Y-73445000D02*
G01*
X140882000Y-68895000D01*
X142582000Y-68895000D01*
X142582000Y-73445000D01*
X140882000Y-73445000D01*
X140882000Y-73445000D01*
G37*
D16*
X144272000Y-71170000D03*
D17*
G36*
X143422000Y-73445000D02*
G01*
X143422000Y-68895000D01*
X145122000Y-68895000D01*
X145122000Y-73445000D01*
X143422000Y-73445000D01*
X143422000Y-73445000D01*
G37*
%TD*%
D18*
%TO.C,MICRO_SD1*%
X147422000Y-86444000D03*
X141362000Y-86444000D03*
D19*
X140422000Y-95694000D03*
X141522000Y-95694000D03*
X142622000Y-95694000D03*
X143722000Y-95694000D03*
X144822000Y-95694000D03*
X145922000Y-95694000D03*
X147022000Y-95694000D03*
X148122000Y-95694000D03*
%TD*%
M02*
