%TF.GenerationSoftware,KiCad,Pcbnew,5.1.0-rc2-unknown-036be7d~80~ubuntu16.04.1*%
%TF.CreationDate,2022-02-04T13:28:53+02:00*%
%TF.ProjectId,STMP15x-SHIELD_Rev_A,53544d50-3135-4782-9d53-4849454c445f,A*%
%TF.SameCoordinates,Original*%
%TF.FileFunction,Copper,L2,Bot*%
%TF.FilePolarity,Positive*%
%FSLAX46Y46*%
G04 Gerber Fmt 4.6, Leading zero omitted, Abs format (unit mm)*
G04 Created by KiCad (PCBNEW 5.1.0-rc2-unknown-036be7d~80~ubuntu16.04.1) date 2022-02-04 13:28:53*
%MOMM*%
%LPD*%
G04 APERTURE LIST*
%TA.AperFunction,SMDPad,CuDef*%
%ADD10R,0.700000X1.800000*%
%TD*%
%TA.AperFunction,ConnectorPad*%
%ADD11C,1.000000*%
%TD*%
%TA.AperFunction,ComponentPad*%
%ADD12C,1.800000*%
%TD*%
%TA.AperFunction,ComponentPad*%
%ADD13R,1.800000X1.800000*%
%TD*%
%TA.AperFunction,ViaPad*%
%ADD14C,1.000000*%
%TD*%
%TA.AperFunction,ViaPad*%
%ADD15C,0.700000*%
%TD*%
%TA.AperFunction,Conductor*%
%ADD16C,0.508000*%
%TD*%
%TA.AperFunction,Conductor*%
%ADD17C,1.016000*%
%TD*%
%TA.AperFunction,Conductor*%
%ADD18C,0.762000*%
%TD*%
%TA.AperFunction,Conductor*%
%ADD19C,0.355600*%
%TD*%
%TA.AperFunction,Conductor*%
%ADD20C,0.203200*%
%TD*%
G04 APERTURE END LIST*
D10*
%TO.P,GPIO-3,20*%
%TO.N,/PC3\005CSPI2_MOSI*%
X146050000Y-96393000D03*
%TO.P,GPIO-3,19*%
%TO.N,/PD14\005CNAND-DQ0\005CUART8_CTS*%
X146050000Y-100457000D03*
%TO.P,GPIO-3,18*%
%TO.N,/PB13\005CSPI2_SCK\005CUSART3_CTS\005CUART5_TX\005CCAN2_TX*%
X144780000Y-96393000D03*
%TO.P,GPIO-3,17*%
%TO.N,/PD12\005CNAND-ALE\005CI2C1(4)_SCL\005CUSART3_RTS*%
X144780000Y-100457000D03*
%TO.P,GPIO-3,16*%
%TO.N,/PF11\005CSPI5_MOSI*%
X143510000Y-96393000D03*
%TO.P,GPIO-3,15*%
%TO.N,/PD11\005CNAND-CLE\005CUSART3_CTS*%
X143510000Y-100457000D03*
%TO.P,GPIO-3,14*%
%TO.N,Net-(GPIO-3-Pad14)*%
X142240000Y-96393000D03*
%TO.P,GPIO-3,13*%
%TO.N,/PD6\005CNAND-RB\005CSPI3_MOSI\005CUSART2_RX*%
X142240000Y-100457000D03*
%TO.P,GPIO-3,12*%
%TO.N,Net-(GPIO-3-Pad12)*%
X140970000Y-96393000D03*
%TO.P,GPIO-3,11*%
%TO.N,/PD5\005CNAND-WE\005CUSART2_TX*%
X140970000Y-100457000D03*
%TO.P,GPIO-3,10*%
%TO.N,Net-(GPIO-3-Pad10)*%
X139700000Y-96393000D03*
%TO.P,GPIO-3,9*%
%TO.N,/PD4\005CNAND-RE\005CUSART2_RTS*%
X139700000Y-100457000D03*
%TO.P,GPIO-3,8*%
%TO.N,/PE0\005CUART8_RX\005CSPI3_SCK*%
X138430000Y-96393000D03*
%TO.P,GPIO-3,7*%
%TO.N,/PG9\005CNAND-CE\005CUSART6_RX*%
X138430000Y-100457000D03*
%TO.P,GPIO-3,6*%
%TO.N,Net-(GPIO-3-Pad6)*%
X137160000Y-96393000D03*
%TO.P,GPIO-3,5*%
%TO.N,/NRST*%
X137160000Y-100457000D03*
%TO.P,GPIO-3,4*%
%TO.N,Net-(GPIO-3-Pad4)*%
X135890000Y-96393000D03*
%TO.P,GPIO-3,3*%
%TO.N,+3V3*%
X135890000Y-100457000D03*
%TO.P,GPIO-3,2*%
%TO.N,GND*%
X134620000Y-96393000D03*
%TO.P,GPIO-3,1*%
%TO.N,+5V*%
X134620000Y-100457000D03*
%TO.P,GPIO-3,21*%
%TO.N,/PD15\005CNAND-DQ1\005CUART8_CTS*%
X147320000Y-100457000D03*
%TO.P,GPIO-3,22*%
%TO.N,/PG12\005CSPI6_MISO\005CUSART6_RTS*%
X147320000Y-96393000D03*
%TO.P,GPIO-3,23*%
%TO.N,/PD0\005CNAND-DQ2\005CI2C5(6)_SDA\005CUART4_RX\005CCAN1_RX*%
X148590000Y-100457000D03*
%TO.P,GPIO-3,24*%
%TO.N,/PB5\005CSPDIF_TX\005CSPI1(3)(6)_MOSI\005CUART5_RX\005CCAN2_RX*%
X148590000Y-96393000D03*
%TO.P,GPIO-3,25*%
%TO.N,/PD1\005CNAND-DQ3\005CI2C5(6)_SCL\005CUART4_TX\005CCAN1_TX*%
X149860000Y-100457000D03*
%TO.P,GPIO-3,26*%
%TO.N,Net-(GPIO-3-Pad26)*%
X149860000Y-96393000D03*
%TO.P,GPIO-3,27*%
%TO.N,/PE7\005CNAND-DQ4\005CUART7_RX*%
X151130000Y-100457000D03*
%TO.P,GPIO-3,28*%
%TO.N,Net-(GPIO-3-Pad28)*%
X151130000Y-96393000D03*
%TO.P,GPIO-3,29*%
%TO.N,/PE8\005CNAND-DQ5\005CUART7_TX*%
X152400000Y-100457000D03*
%TO.P,GPIO-3,30*%
%TO.N,Net-(GPIO-3-Pad30)*%
X152400000Y-96393000D03*
%TO.P,GPIO-3,31*%
%TO.N,/PE9\005CNAND-DQ6\005CUART7_RTS*%
X153670000Y-100457000D03*
%TO.P,GPIO-3,32*%
%TO.N,Net-(GPIO-3-Pad32)*%
X153670000Y-96393000D03*
%TO.P,GPIO-3,33*%
%TO.N,/PE10\005CNAND-DQ7\005CUART7_CTS*%
X154940000Y-100457000D03*
%TO.P,GPIO-3,34*%
%TO.N,Net-(GPIO-3-Pad34)*%
X154940000Y-96393000D03*
%TO.P,GPIO-3,35*%
%TO.N,Net-(GPIO-3-Pad35)*%
X156210000Y-100457000D03*
%TO.P,GPIO-3,36*%
%TO.N,Net-(GPIO-3-Pad36)*%
X156210000Y-96393000D03*
%TO.P,GPIO-3,37*%
%TO.N,Net-(GPIO-3-Pad37)*%
X157480000Y-100457000D03*
%TO.P,GPIO-3,38*%
%TO.N,Net-(GPIO-3-Pad38)*%
X157480000Y-96393000D03*
%TO.P,GPIO-3,39*%
%TO.N,Net-(GPIO-3-Pad39)*%
X158750000Y-100457000D03*
%TO.P,GPIO-3,40*%
%TO.N,Net-(GPIO-3-Pad40)*%
X158750000Y-96393000D03*
%TD*%
D11*
%TO.P,FID4,Fid1*%
%TO.N,Net-(FID4-PadFid1)*%
X117475000Y-100330000D03*
%TD*%
%TO.P,FID5,Fid1*%
%TO.N,Net-(FID5-PadFid1)*%
X117475000Y-43815000D03*
%TD*%
%TO.P,FID6,Fid1*%
%TO.N,Net-(FID6-PadFid1)*%
X157861000Y-49784000D03*
%TD*%
D12*
%TO.P,NRST1,2*%
%TO.N,GND*%
X128651000Y-99822000D03*
D13*
%TO.P,NRST1,1*%
%TO.N,/NRST*%
X131191000Y-99822000D03*
%TD*%
D10*
%TO.P,GPIO-1,20*%
%TO.N,/PE1\005CUART8_TX*%
X139065000Y-49403000D03*
%TO.P,GPIO-1,19*%
%TO.N,/PD9\005CUSART3_RX*%
X139065000Y-53467000D03*
%TO.P,GPIO-1,18*%
%TO.N,Net-(GPIO-1-Pad18)*%
X137795000Y-49403000D03*
%TO.P,GPIO-1,17*%
%TO.N,/PD8\005CUSART3_TX*%
X137795000Y-53467000D03*
%TO.P,GPIO-1,16*%
%TO.N,Net-(GPIO-1-Pad16)*%
X136525000Y-49403000D03*
%TO.P,GPIO-1,15*%
%TO.N,/PD7\005CSDMMC3_D3*%
X136525000Y-53467000D03*
%TO.P,GPIO-1,14*%
%TO.N,Net-(GPIO-1-Pad14)*%
X135255000Y-49403000D03*
%TO.P,GPIO-1,13*%
%TO.N,/PF5\005CSDMMC3_D2*%
X135255000Y-53467000D03*
%TO.P,GPIO-1,12*%
%TO.N,/PA5\005CSPI1(6)_SCK*%
X133985000Y-49403000D03*
%TO.P,GPIO-1,11*%
%TO.N,/PF4\005CSDMMC3_D1*%
X133985000Y-53467000D03*
%TO.P,GPIO-1,10*%
%TO.N,/PA4\005CSPI1(3)(6)_NSS*%
X132715000Y-49403000D03*
%TO.P,GPIO-1,9*%
%TO.N,/PF0\005CSDMMC3_D0*%
X132715000Y-53467000D03*
%TO.P,GPIO-1,8*%
%TO.N,Net-(GPIO-1-Pad8)*%
X131445000Y-49403000D03*
%TO.P,GPIO-1,7*%
%TO.N,/PG15\005CSDMMC3_CK*%
X131445000Y-53467000D03*
%TO.P,GPIO-1,6*%
%TO.N,Net-(GPIO-1-Pad6)*%
X130175000Y-49403000D03*
%TO.P,GPIO-1,5*%
%TO.N,/PF1\005CSDMMC3_CMD*%
X130175000Y-53467000D03*
%TO.P,GPIO-1,4*%
%TO.N,GND*%
X128905000Y-49403000D03*
%TO.P,GPIO-1,3*%
%TO.N,+3V3*%
X128905000Y-53467000D03*
%TO.P,GPIO-1,2*%
%TO.N,GND*%
X127635000Y-49403000D03*
%TO.P,GPIO-1,1*%
%TO.N,+5V*%
X127635000Y-53467000D03*
%TO.P,GPIO-1,21*%
%TO.N,/PG8\005CUSART3(6)_RTS\005CSPI6_NSS*%
X140335000Y-53467000D03*
%TO.P,GPIO-1,22*%
%TO.N,Net-(GPIO-1-Pad22)*%
X140335000Y-49403000D03*
%TO.P,GPIO-1,23*%
%TO.N,/PE15\005CUSART2_CTS\005CUART8_CTS*%
X141605000Y-53467000D03*
%TO.P,GPIO-1,24*%
%TO.N,Net-(GPIO-1-Pad24)*%
X141605000Y-49403000D03*
%TO.P,GPIO-1,25*%
%TO.N,/PB10\005CUSART3_TX\005CI2C2_SCL\005CSPI2_SCK*%
X142875000Y-53467000D03*
%TO.P,GPIO-1,26*%
%TO.N,/PZ6\005CI2C2(6)_SCL\005CUSART1_RX*%
X142875000Y-49403000D03*
%TO.P,GPIO-1,27*%
%TO.N,/PB12\005CUSART3_RX\005CUART5_RX\005CSPI2_NSS\005CCAN2_RX*%
X144145000Y-53467000D03*
%TO.P,GPIO-1,28*%
%TO.N,/PZ7\005CI2C2(6)_SDA\005CUSART1_TX*%
X144145000Y-49403000D03*
%TO.P,GPIO-1,29*%
%TO.N,Net-(GPIO-1-Pad29)*%
X145415000Y-53467000D03*
%TO.P,GPIO-1,30*%
%TO.N,/PH5\005CI2C2_SDA\005CSPI5_NSS*%
X145415000Y-49403000D03*
%TO.P,GPIO-1,31*%
%TO.N,/PZ1\005CI2C2(4)(5)(6)_SDA\005CUSART1_RX\005CSPI1(6)_MISO*%
X146685000Y-53467000D03*
%TO.P,GPIO-1,32*%
%TO.N,/PH4\005CI2C2_SCL*%
X146685000Y-49403000D03*
%TO.P,GPIO-1,33*%
%TO.N,/PE11\005CSPI4_NSS*%
X147955000Y-53467000D03*
%TO.P,GPIO-1,34*%
%TO.N,Net-(GPIO-1-Pad34)*%
X147955000Y-49403000D03*
%TO.P,GPIO-1,35*%
%TO.N,/PE12\005CSPI4_SCK*%
X149225000Y-53467000D03*
%TO.P,GPIO-1,36*%
%TO.N,Net-(GPIO-1-Pad36)*%
X149225000Y-49403000D03*
%TO.P,GPIO-1,37*%
%TO.N,/PE14\005CSPI4_MOSI\005CUART8_RTS*%
X150495000Y-53467000D03*
%TO.P,GPIO-1,38*%
%TO.N,/PH6\005CSPI5_SCK*%
X150495000Y-49403000D03*
%TO.P,GPIO-1,39*%
%TO.N,/PE13\005CSPI4_MISO*%
X151765000Y-53467000D03*
%TO.P,GPIO-1,40*%
%TO.N,/PI10\005CUSART3_CTS*%
X151765000Y-49403000D03*
%TD*%
%TO.P,GPIO-2,20*%
%TO.N,/PH12\005CI2C1(4)_SDA*%
X139065000Y-90043000D03*
%TO.P,GPIO-2,19*%
%TO.N,Net-(GPIO-2-Pad19)*%
X139065000Y-94107000D03*
%TO.P,GPIO-2,18*%
%TO.N,/PH11\005CI2C1(4)_SCL*%
X137795000Y-90043000D03*
%TO.P,GPIO-2,17*%
%TO.N,Net-(GPIO-2-Pad17)*%
X137795000Y-94107000D03*
%TO.P,GPIO-2,16*%
%TO.N,Net-(GPIO-2-Pad16)*%
X136525000Y-90043000D03*
%TO.P,GPIO-2,15*%
%TO.N,Net-(GPIO-2-Pad15)*%
X136525000Y-94107000D03*
%TO.P,GPIO-2,14*%
%TO.N,Net-(GPIO-2-Pad14)*%
X135255000Y-90043000D03*
%TO.P,GPIO-2,13*%
%TO.N,/PH7\005CI2C3_SCL\005CSPI5_MISO*%
X135255000Y-94107000D03*
%TO.P,GPIO-2,12*%
%TO.N,/PB7\005CI2C1(4)_SDA\005CUSART1_RX*%
X133985000Y-90043000D03*
%TO.P,GPIO-2,11*%
%TO.N,Net-(GPIO-2-Pad11)*%
X133985000Y-94107000D03*
%TO.P,GPIO-2,10*%
%TO.N,/PH8\005CI2C3_SDA*%
X132715000Y-90043000D03*
%TO.P,GPIO-2,9*%
%TO.N,Net-(GPIO-2-Pad9)*%
X132715000Y-94107000D03*
%TO.P,GPIO-2,8*%
%TO.N,Net-(GPIO-2-Pad8)*%
X131445000Y-90043000D03*
%TO.P,GPIO-2,7*%
%TO.N,Net-(GPIO-2-Pad7)*%
X131445000Y-94107000D03*
%TO.P,GPIO-2,6*%
%TO.N,/PA6\005CSPI1(6)_MISO*%
X130175000Y-90043000D03*
%TO.P,GPIO-2,5*%
%TO.N,Net-(GPIO-2-Pad5)*%
X130175000Y-94107000D03*
%TO.P,GPIO-2,4*%
%TO.N,Net-(GPIO-2-Pad4)*%
X128905000Y-90043000D03*
%TO.P,GPIO-2,3*%
%TO.N,+3V3*%
X128905000Y-94107000D03*
%TO.P,GPIO-2,2*%
%TO.N,GND*%
X127635000Y-90043000D03*
%TO.P,GPIO-2,1*%
%TO.N,+5V*%
X127635000Y-94107000D03*
%TO.P,GPIO-2,21*%
%TO.N,Net-(GPIO-2-Pad21)*%
X140335000Y-94107000D03*
%TO.P,GPIO-2,22*%
%TO.N,Net-(GPIO-2-Pad22)*%
X140335000Y-90043000D03*
%TO.P,GPIO-2,23*%
%TO.N,Net-(GPIO-2-Pad23)*%
X141605000Y-94107000D03*
%TO.P,GPIO-2,24*%
%TO.N,Net-(GPIO-2-Pad24)*%
X141605000Y-90043000D03*
%TO.P,GPIO-2,25*%
%TO.N,Net-(GPIO-2-Pad25)*%
X142875000Y-94107000D03*
%TO.P,GPIO-2,26*%
%TO.N,/PB8\005CI2C1(4)_SCL\005CUART4_RX*%
X142875000Y-90043000D03*
%TO.P,GPIO-2,27*%
%TO.N,/PG7\005CUART8_RTS*%
X144145000Y-94107000D03*
%TO.P,GPIO-2,28*%
%TO.N,Net-(GPIO-2-Pad28)*%
X144145000Y-90043000D03*
%TO.P,GPIO-2,29*%
%TO.N,/PI0\005CSPI2_NSS*%
X145415000Y-94107000D03*
%TO.P,GPIO-2,30*%
%TO.N,Net-(GPIO-2-Pad30)*%
X145415000Y-90043000D03*
%TO.P,GPIO-2,31*%
%TO.N,/PI1\005CSPI2_SCK*%
X146685000Y-94107000D03*
%TO.P,GPIO-2,32*%
%TO.N,Net-(GPIO-2-Pad32)*%
X146685000Y-90043000D03*
%TO.P,GPIO-2,33*%
%TO.N,/PI3\005CSPI2_MOSI*%
X147955000Y-94107000D03*
%TO.P,GPIO-2,34*%
%TO.N,Net-(GPIO-2-Pad34)*%
X147955000Y-90043000D03*
%TO.P,GPIO-2,35*%
%TO.N,/PI2\005CSPI2_MISO*%
X149225000Y-94107000D03*
%TO.P,GPIO-2,36*%
%TO.N,Net-(GPIO-2-Pad36)*%
X149225000Y-90043000D03*
%TO.P,GPIO-2,37*%
%TO.N,Net-(GPIO-2-Pad37)*%
X150495000Y-94107000D03*
%TO.P,GPIO-2,38*%
%TO.N,Net-(GPIO-2-Pad38)*%
X150495000Y-90043000D03*
%TO.P,GPIO-2,39*%
%TO.N,Net-(GPIO-2-Pad39)*%
X151765000Y-94107000D03*
%TO.P,GPIO-2,40*%
%TO.N,Net-(GPIO-2-Pad40)*%
X151765000Y-90043000D03*
%TD*%
D14*
%TO.N,+5V*%
X126492000Y-97155000D03*
X124968000Y-97155000D03*
%TO.N,GND*%
X117729000Y-97536000D03*
X129794000Y-63246000D03*
X133731000Y-96012000D03*
X133731000Y-84201000D03*
X158242000Y-65405000D03*
X118618000Y-84582000D03*
X117348000Y-84582000D03*
X151765000Y-88011000D03*
X133731000Y-85598000D03*
X118999000Y-97536000D03*
X140716000Y-87757000D03*
X141986000Y-87757000D03*
X136144000Y-68453000D03*
X130810000Y-64262000D03*
D15*
X125984000Y-59182000D03*
D14*
X136271000Y-56896000D03*
X136271000Y-60198000D03*
X151130000Y-70485000D03*
X151511000Y-60579000D03*
X154813000Y-60579000D03*
X139192000Y-68199000D03*
X140462000Y-68199000D03*
D15*
X145542000Y-58039000D03*
X148082000Y-61976000D03*
X148082000Y-70104000D03*
D14*
X156845000Y-75946000D03*
X136144000Y-69850000D03*
X143256000Y-80518000D03*
X143256000Y-83312000D03*
D15*
X144653000Y-74295000D03*
D14*
X146939000Y-88138000D03*
X127889000Y-88519000D03*
X131064000Y-84582000D03*
X129667000Y-84582000D03*
D15*
X147447000Y-91821000D03*
X138938000Y-91694000D03*
X123063000Y-56642000D03*
X120777000Y-56642000D03*
D14*
X124841000Y-43815000D03*
X120142000Y-43815000D03*
D15*
X123571000Y-54102000D03*
D14*
X120269000Y-100203000D03*
X124841000Y-100203000D03*
X137541000Y-75819000D03*
X137160000Y-55372000D03*
X158242000Y-52578000D03*
X154940000Y-53467000D03*
X158242000Y-59690000D03*
X156845000Y-69342000D03*
X158369000Y-73025000D03*
%TO.N,+3V3*%
X128905000Y-95885000D03*
X151257000Y-84709000D03*
X124841000Y-94615000D03*
X126238000Y-94615000D03*
X129413000Y-60960000D03*
X144272000Y-81915000D03*
D15*
X148209000Y-83185000D03*
%TO.N,/PH11\005CI2C1(4)_SCL*%
X129540000Y-92202000D03*
%TO.N,/PD14\005CNAND-DQ0\005CUART8_CTS*%
X146050000Y-99060000D03*
X119761000Y-89916000D03*
X122047000Y-89662000D03*
%TO.N,/PH12\005CI2C1(4)_SDA*%
X130048000Y-86360000D03*
%TO.N,/PD15\005CNAND-DQ1\005CUART8_CTS*%
X147320000Y-98552000D03*
%TO.N,/PB7\005CI2C1(4)_SDA\005CUSART1_RX*%
X128270000Y-85852000D03*
%TO.N,/PD0\005CNAND-DQ2\005CI2C5(6)_SDA\005CUART4_RX\005CCAN1_RX*%
X148336000Y-99060000D03*
%TO.N,/PB8\005CI2C1(4)_SCL\005CUART4_RX*%
X127127000Y-83312000D03*
%TO.N,/PD1\005CNAND-DQ3\005CI2C5(6)_SCL\005CUART4_TX\005CCAN1_TX*%
X149860000Y-99060000D03*
X155829000Y-86233000D03*
X130810000Y-82042000D03*
%TO.N,/PB10\005CUSART3_TX\005CI2C2_SCL\005CSPI2_SCK*%
X130048000Y-77089000D03*
X137795000Y-60198000D03*
X134112000Y-71755000D03*
%TO.N,/PE7\005CNAND-DQ4\005CUART7_RX*%
X151130000Y-99060000D03*
X155194000Y-85344000D03*
X129921000Y-81280000D03*
%TO.N,/PB12\005CUSART3_RX\005CUART5_RX\005CSPI2_NSS\005CCAN2_RX*%
X129159000Y-76200000D03*
X137795000Y-61341000D03*
X134874000Y-73279000D03*
%TO.N,/PE8\005CNAND-DQ5\005CUART7_TX*%
X152400000Y-99060000D03*
X151384000Y-77851000D03*
X127889000Y-80010000D03*
%TO.N,/PB13\005CSPI2_SCK\005CUSART3_CTS\005CUART5_TX\005CCAN2_TX*%
X144780000Y-97917000D03*
X155092400Y-88087200D03*
X127127000Y-75692000D03*
%TO.N,/PE9\005CNAND-DQ6\005CUART7_RTS*%
X153670000Y-99060000D03*
X151384000Y-76708000D03*
X128524000Y-78994000D03*
%TO.N,/PC3\005CSPI2_MOSI*%
X146050000Y-97917000D03*
X155321000Y-87122000D03*
X127127000Y-73152000D03*
%TO.N,/PE10\005CNAND-DQ7\005CUART7_CTS*%
X154940000Y-99060000D03*
X151384000Y-75565000D03*
X127889000Y-77470000D03*
%TO.N,/PG12\005CSPI6_MISO\005CUSART6_RTS*%
X155829000Y-98425000D03*
X131191000Y-68580000D03*
X151384000Y-73279000D03*
%TO.N,/PD5\005CNAND-WE\005CUSART2_TX*%
X140970000Y-99060000D03*
X127889000Y-71628000D03*
X131572000Y-72898000D03*
%TO.N,/PA4\005CSPI1(3)(6)_NSS*%
X121793000Y-70612000D03*
%TO.N,/PD6\005CNAND-RB\005CSPI3_MOSI\005CUSART2_RX*%
X142240000Y-99060000D03*
X131699000Y-71755000D03*
X127762000Y-70358000D03*
%TO.N,/PA5\005CSPI1(6)_SCK*%
X121793000Y-68072000D03*
%TO.N,/PD4\005CNAND-RE\005CUSART2_RTS*%
X139573000Y-99060000D03*
X131699000Y-70485000D03*
X127762000Y-69088000D03*
%TO.N,/PA6\005CSPI1(6)_MISO*%
X127127000Y-65532000D03*
%TO.N,/PD12\005CNAND-ALE\005CI2C1(4)_SCL\005CUSART3_RTS*%
X144780000Y-99060000D03*
%TO.N,/PB5\005CSPDIF_TX\005CSPI1(3)(6)_MOSI\005CUART5_RX\005CCAN2_RX*%
X157099000Y-97917000D03*
X151384000Y-72009000D03*
X130175000Y-66929000D03*
%TO.N,/PD11\005CNAND-CLE\005CUSART3_CTS*%
X143510000Y-99060000D03*
X127762000Y-66548000D03*
X133096000Y-72517000D03*
%TO.N,/PH5\005CI2C2_SDA\005CSPI5_NSS*%
X145415000Y-50927000D03*
%TO.N,/PG9\005CNAND-CE\005CUSART6_RX*%
X137287000Y-98831400D03*
%TO.N,/PH6\005CSPI5_SCK*%
X148590000Y-50927000D03*
%TO.N,/PE15\005CUSART2_CTS\005CUART8_CTS*%
X135001000Y-51181000D03*
%TO.N,/PH7\005CI2C3_SCL\005CSPI5_MISO*%
X134874000Y-92456000D03*
%TO.N,/PG7\005CUART8_RTS*%
X139827000Y-92456000D03*
X128397000Y-73279000D03*
X121285000Y-72644000D03*
X119761000Y-53848000D03*
X133731000Y-73533000D03*
%TO.N,/PF11\005CSPI5_MOSI*%
X143510000Y-97917000D03*
X121793000Y-74422000D03*
X128397000Y-74422000D03*
X121666000Y-50419000D03*
X135763000Y-77851000D03*
%TO.N,/PI10\005CUSART3_CTS*%
X152654000Y-49657000D03*
%TO.N,/PH8\005CI2C3_SDA*%
X121920000Y-46736000D03*
X121285000Y-86106000D03*
X127381000Y-86741000D03*
%TO.N,/PG8\005CUSART3(6)_RTS\005CSPI6_NSS*%
X130175000Y-51943000D03*
%TO.N,/PE13\005CSPI4_MISO*%
X147955000Y-60071000D03*
%TO.N,/PE14\005CSPI4_MOSI\005CUART8_RTS*%
X146685000Y-57277000D03*
%TO.N,/PE12\005CSPI4_SCK*%
X150622000Y-56007000D03*
%TO.N,/PE11\005CSPI4_NSS*%
X148209000Y-54864000D03*
%TO.N,/PH4\005CI2C2_SCL*%
X145415000Y-61087000D03*
%TO.N,/PZ1\005CI2C2(4)(5)(6)_SDA\005CUSART1_RX\005CSPI1(6)_MISO*%
X145288000Y-55372000D03*
%TO.N,/PZ7\005CI2C2(6)_SDA\005CUSART1_TX*%
X150876000Y-67183000D03*
X152146000Y-58674000D03*
X145923000Y-67310000D03*
%TO.N,/PZ6\005CI2C2(6)_SCL\005CUSART1_RX*%
X143129000Y-51308000D03*
X143637000Y-68199000D03*
X151003000Y-69088000D03*
%TO.N,/PF1\005CSDMMC3_CMD*%
X152781000Y-94234000D03*
X150876000Y-81788000D03*
%TO.N,/PG15\005CSDMMC3_CK*%
X153263600Y-92532200D03*
%TO.N,/PF0\005CSDMMC3_D0*%
X153416000Y-80264000D03*
%TO.N,/PF4\005CSDMMC3_D1*%
X154432000Y-79375000D03*
%TO.N,/PF5\005CSDMMC3_D2*%
X153035000Y-81280000D03*
%TO.N,/PD7\005CSDMMC3_D3*%
X153898600Y-94234000D03*
X153416000Y-82296000D03*
%TO.N,/PD8\005CUSART3_TX*%
X141732000Y-58293000D03*
%TO.N,/PD9\005CUSART3_RX*%
X142621000Y-57277000D03*
%TO.N,/PE1\005CUART8_TX*%
X141732000Y-51308000D03*
X142621000Y-67437000D03*
X150241000Y-68199000D03*
%TO.N,/PI2\005CSPI2_MISO*%
X146812000Y-80137000D03*
%TO.N,/PI3\005CSPI2_MOSI*%
X145542000Y-80518000D03*
%TO.N,/PI1\005CSPI2_SCK*%
X142240000Y-91567000D03*
%TO.N,/PI0\005CSPI2_NSS*%
X141097000Y-92075000D03*
%TO.N,/NRST*%
X130302000Y-95885000D03*
%TO.N,/PE0\005CUART8_RX\005CSPI3_SCK*%
X136652000Y-97942400D03*
X141859000Y-73914000D03*
X132715000Y-78613000D03*
%TD*%
D16*
%TO.N,+5V*%
X127635000Y-55118000D02*
X127635000Y-53467000D01*
D17*
X124968000Y-97155000D02*
X126492000Y-97155000D01*
D16*
X127635000Y-94107000D02*
X127635000Y-95377000D01*
D17*
X127635000Y-97155000D02*
X126492000Y-97155000D01*
X127635000Y-95377000D02*
X127635000Y-97155000D01*
D18*
X132334000Y-98044000D02*
X134366000Y-100076000D01*
X128651000Y-98044000D02*
X132334000Y-98044000D01*
X127762000Y-97155000D02*
X128651000Y-98044000D01*
X127635000Y-97155000D02*
X127762000Y-97155000D01*
D16*
X134620000Y-100457000D02*
X134366000Y-100203000D01*
X134366000Y-100203000D02*
X134366000Y-100076000D01*
D17*
X127635000Y-60579000D02*
X127635000Y-55118000D01*
X123444000Y-64770000D02*
X127635000Y-60579000D01*
X123444000Y-95631000D02*
X123444000Y-64770000D01*
X124968000Y-97155000D02*
X123444000Y-95631000D01*
%TO.N,GND*%
X123698000Y-45212000D02*
X124333000Y-45847000D01*
X124333000Y-45847000D02*
X124333000Y-48641000D01*
X117729000Y-97536000D02*
X116840000Y-96647000D01*
X116840000Y-96647000D02*
X116840000Y-47625000D01*
X116840000Y-47625000D02*
X119253000Y-45212000D01*
X119253000Y-45212000D02*
X123698000Y-45212000D01*
X134239000Y-96012000D02*
X133731000Y-96012000D01*
D16*
X134620000Y-96393000D02*
X134239000Y-96012000D01*
X128905000Y-50038000D02*
X128905000Y-49403000D01*
X127635000Y-50038000D02*
X128905000Y-50038000D01*
X127635000Y-49403000D02*
X127635000Y-50038000D01*
X127635000Y-49403000D02*
X127635000Y-49784000D01*
X127635000Y-49784000D02*
X127254000Y-49784000D01*
D17*
X125476000Y-49784000D02*
X124333000Y-48641000D01*
X127254000Y-49784000D02*
X125476000Y-49784000D01*
X135763000Y-86233000D02*
X133731000Y-84201000D01*
X140716000Y-87757000D02*
X139192000Y-86233000D01*
X151511000Y-88265000D02*
X151765000Y-88011000D01*
X139192000Y-86233000D02*
X135763000Y-86233000D01*
X145161000Y-88265000D02*
X151511000Y-88265000D01*
X143891000Y-86995000D02*
X145161000Y-88265000D01*
X140716000Y-87757000D02*
X141478000Y-86995000D01*
X141478000Y-86995000D02*
X143891000Y-86995000D01*
X136271000Y-60198000D02*
X136271000Y-56896000D01*
D16*
X153162000Y-62230000D02*
X154813000Y-60579000D01*
X137160000Y-62230000D02*
X153162000Y-62230000D01*
X136271000Y-61341000D02*
X137160000Y-62230000D01*
X136271000Y-60198000D02*
X136271000Y-61341000D01*
D17*
X142621000Y-70485000D02*
X151130000Y-70485000D01*
X140335000Y-68199000D02*
X142621000Y-70485000D01*
X139192000Y-68199000D02*
X140335000Y-68199000D01*
X139192000Y-68326000D02*
X139192000Y-68199000D01*
X137668000Y-69850000D02*
X139192000Y-68326000D01*
X136144000Y-69850000D02*
X137668000Y-69850000D01*
X136144000Y-69850000D02*
X136144000Y-69596000D01*
X136144000Y-69596000D02*
X129794000Y-63246000D01*
X131064000Y-84582000D02*
X131445000Y-84201000D01*
X131445000Y-84201000D02*
X133731000Y-84201000D01*
X129667000Y-84582000D02*
X131064000Y-84582000D01*
D16*
X127731520Y-88676480D02*
X127889000Y-88519000D01*
X127731520Y-89946480D02*
X127731520Y-88676480D01*
X127635000Y-90043000D02*
X127731520Y-89946480D01*
%TO.N,+3V3*%
X128905000Y-55118000D02*
X128905000Y-53467000D01*
D17*
X124841000Y-94615000D02*
X126238000Y-94615000D01*
D18*
X128905000Y-94107000D02*
X128905000Y-95885000D01*
X129540000Y-96901000D02*
X132334000Y-96901000D01*
X128905000Y-96266000D02*
X129540000Y-96901000D01*
X128905000Y-95885000D02*
X128905000Y-96266000D01*
D19*
X132461000Y-96901000D02*
X132334000Y-96901000D01*
X135890000Y-100457000D02*
X135890000Y-99669600D01*
X135890000Y-99669600D02*
X135382000Y-99161600D01*
X135382000Y-99161600D02*
X134721600Y-99161600D01*
X134721600Y-99161600D02*
X132461000Y-96901000D01*
D17*
X124841000Y-65532000D02*
X124841000Y-94615000D01*
X129413000Y-60960000D02*
X124841000Y-65532000D01*
X129413000Y-60960000D02*
X129032000Y-61341000D01*
X129032000Y-61341000D02*
X128905000Y-61341000D01*
X128905000Y-61341000D02*
X128905000Y-55118000D01*
X149733000Y-84709000D02*
X151257000Y-84709000D01*
X146939000Y-81915000D02*
X149733000Y-84709000D01*
X144272000Y-81915000D02*
X146939000Y-81915000D01*
D16*
%TO.N,/PH11\005CI2C1(4)_SCL*%
X137795000Y-90043000D02*
X137795000Y-91186000D01*
D20*
X137414000Y-91567000D02*
X137795000Y-91186000D01*
X130175000Y-91567000D02*
X137414000Y-91567000D01*
X129540000Y-92202000D02*
X130175000Y-91567000D01*
D16*
%TO.N,/PD14\005CNAND-DQ0\005CUART8_CTS*%
X146050000Y-100457000D02*
X146050000Y-99060000D01*
D20*
X121920000Y-89789000D02*
X122047000Y-89662000D01*
X119888000Y-89789000D02*
X121920000Y-89789000D01*
X119761000Y-89916000D02*
X119888000Y-89789000D01*
D16*
%TO.N,/PH12\005CI2C1(4)_SDA*%
X139065000Y-90043000D02*
X139065000Y-88900000D01*
D20*
X138684000Y-88519000D02*
X139065000Y-88900000D01*
X134874000Y-88519000D02*
X138684000Y-88519000D01*
X130048000Y-86360000D02*
X132080000Y-86360000D01*
X132080000Y-86360000D02*
X133350000Y-87630000D01*
X133350000Y-87630000D02*
X133985000Y-87630000D01*
X133985000Y-87630000D02*
X134874000Y-88519000D01*
D16*
%TO.N,/PD15\005CNAND-DQ1\005CUART8_CTS*%
X147320000Y-98552000D02*
X147320000Y-100457000D01*
D20*
%TO.N,/PB7\005CI2C1(4)_SDA\005CUSART1_RX*%
X128270000Y-85852000D02*
X129667000Y-87249000D01*
X129667000Y-87249000D02*
X132080000Y-87249000D01*
X132080000Y-87249000D02*
X133223000Y-88392000D01*
X133477000Y-88392000D02*
X133985000Y-88900000D01*
X133223000Y-88392000D02*
X133477000Y-88392000D01*
D16*
X133985000Y-90043000D02*
X133985000Y-88900000D01*
%TO.N,/PD0\005CNAND-DQ2\005CI2C5(6)_SDA\005CUART4_RX\005CCAN1_RX*%
X148590000Y-99314000D02*
X148590000Y-100457000D01*
X148336000Y-99060000D02*
X148590000Y-99314000D01*
%TO.N,/PB8\005CI2C1(4)_SCL\005CUART4_RX*%
X142875000Y-89154000D02*
X142621000Y-88900000D01*
X142875000Y-90043000D02*
X142875000Y-89154000D01*
D20*
X127127000Y-83439000D02*
X127127000Y-83312000D01*
X129286000Y-85598000D02*
X127127000Y-83439000D01*
X132207000Y-85598000D02*
X129286000Y-85598000D01*
X133477000Y-86868000D02*
X132207000Y-85598000D01*
X134239000Y-86868000D02*
X133477000Y-86868000D01*
X135255000Y-87884000D02*
X134239000Y-86868000D01*
X142621000Y-88900000D02*
X142367000Y-88646000D01*
X139065000Y-87884000D02*
X135255000Y-87884000D01*
X142367000Y-88646000D02*
X139827000Y-88646000D01*
X139827000Y-88646000D02*
X139065000Y-87884000D01*
D16*
%TO.N,/PD1\005CNAND-DQ3\005CI2C5(6)_SCL\005CUART4_TX\005CCAN1_TX*%
X149860000Y-100457000D02*
X149860000Y-99060000D01*
D20*
X139700000Y-82296000D02*
X142494000Y-85090000D01*
X130810000Y-82042000D02*
X131064000Y-82296000D01*
X131064000Y-82296000D02*
X139700000Y-82296000D01*
X142494000Y-85090000D02*
X145034000Y-85090000D01*
X145034000Y-85090000D02*
X146050000Y-86106000D01*
X146050000Y-86106000D02*
X155702000Y-86106000D01*
X155702000Y-86106000D02*
X155829000Y-86233000D01*
D16*
%TO.N,/PB10\005CUSART3_TX\005CI2C2_SCL\005CSPI2_SCK*%
X142875000Y-53467000D02*
X142875000Y-54610000D01*
D20*
X141478000Y-60198000D02*
X143510000Y-58166000D01*
X137795000Y-60198000D02*
X141478000Y-60198000D01*
X143510000Y-55245000D02*
X142875000Y-54610000D01*
X143510000Y-58166000D02*
X143510000Y-55245000D01*
X131191000Y-75311000D02*
X130048000Y-76454000D01*
X134366000Y-75311000D02*
X131191000Y-75311000D01*
X135763000Y-73914000D02*
X134366000Y-75311000D01*
X130048000Y-76454000D02*
X130048000Y-77089000D01*
X134112000Y-71755000D02*
X134213600Y-71856600D01*
X134213600Y-71856600D02*
X134594600Y-71856600D01*
X134594600Y-71856600D02*
X135763000Y-73025000D01*
X135763000Y-73025000D02*
X135763000Y-73914000D01*
D16*
%TO.N,/PE7\005CNAND-DQ4\005CUART7_RX*%
X151130000Y-100457000D02*
X151130000Y-99060000D01*
D20*
X152400000Y-85344000D02*
X155194000Y-85344000D01*
X152146000Y-85598000D02*
X152400000Y-85344000D01*
X146304000Y-85598000D02*
X152146000Y-85598000D01*
X145288000Y-84582000D02*
X146304000Y-85598000D01*
X142875000Y-84582000D02*
X145288000Y-84582000D01*
X140081000Y-81788000D02*
X142875000Y-84582000D01*
X129921000Y-81280000D02*
X131572000Y-81280000D01*
X131572000Y-81280000D02*
X132080000Y-81788000D01*
X132080000Y-81788000D02*
X140081000Y-81788000D01*
D16*
%TO.N,/PB12\005CUSART3_RX\005CUART5_RX\005CSPI2_NSS\005CCAN2_RX*%
X144145000Y-53467000D02*
X144145000Y-54610000D01*
D20*
X144145000Y-58547000D02*
X144145000Y-54610000D01*
X138176000Y-60960000D02*
X141732000Y-60960000D01*
X141732000Y-60960000D02*
X144145000Y-58547000D01*
X137795000Y-61341000D02*
X138176000Y-60960000D01*
X130810000Y-74549000D02*
X129159000Y-76200000D01*
X133858000Y-74549000D02*
X130810000Y-74549000D01*
X134874000Y-73533000D02*
X133858000Y-74549000D01*
X134874000Y-73279000D02*
X134874000Y-73533000D01*
D16*
%TO.N,/PE8\005CNAND-DQ5\005CUART7_TX*%
X152400000Y-100457000D02*
X152400000Y-99060000D01*
D20*
X130683000Y-80010000D02*
X127889000Y-80010000D01*
X151384000Y-77851000D02*
X150368000Y-78867000D01*
X150368000Y-78867000D02*
X142240000Y-78867000D01*
X142240000Y-78867000D02*
X140716000Y-80391000D01*
X131064000Y-80391000D02*
X130683000Y-80010000D01*
X140716000Y-80391000D02*
X131064000Y-80391000D01*
D16*
%TO.N,/PB13\005CSPI2_SCK\005CUSART3_CTS\005CUART5_TX\005CCAN2_TX*%
X144780000Y-96393000D02*
X144780000Y-97917000D01*
D20*
X154127200Y-87122000D02*
X155092400Y-88087200D01*
X141732000Y-86106000D02*
X144526000Y-86106000D01*
X145542000Y-87122000D02*
X154127200Y-87122000D01*
X138938000Y-83312000D02*
X141732000Y-86106000D01*
X144526000Y-86106000D02*
X145542000Y-87122000D01*
X127127000Y-75692000D02*
X126492000Y-76327000D01*
X126492000Y-76327000D02*
X126492000Y-80899000D01*
X128016000Y-81915000D02*
X127508000Y-81915000D01*
X129413000Y-83312000D02*
X128016000Y-81915000D01*
X129413000Y-83312000D02*
X138938000Y-83312000D01*
X126492000Y-80899000D02*
X127508000Y-81915000D01*
D16*
%TO.N,/PE9\005CNAND-DQ6\005CUART7_RTS*%
X153670000Y-100457000D02*
X153670000Y-99060000D01*
D20*
X131572000Y-79883000D02*
X130810000Y-79121000D01*
X140335000Y-79883000D02*
X131572000Y-79883000D01*
X128651000Y-79121000D02*
X128524000Y-78994000D01*
X151384000Y-76708000D02*
X151257000Y-76708000D01*
X149733000Y-78232000D02*
X141986000Y-78232000D01*
X130810000Y-79121000D02*
X128651000Y-79121000D01*
X151257000Y-76708000D02*
X149733000Y-78232000D01*
X141986000Y-78232000D02*
X140335000Y-79883000D01*
D16*
%TO.N,/PC3\005CSPI2_MOSI*%
X146050000Y-96393000D02*
X146050000Y-97917000D01*
D20*
X127889000Y-75184000D02*
X127127000Y-74422000D01*
X144780000Y-85598000D02*
X142113000Y-85598000D01*
X145796000Y-86614000D02*
X144780000Y-85598000D01*
X154813000Y-86614000D02*
X145796000Y-86614000D01*
X155321000Y-87122000D02*
X154813000Y-86614000D01*
X142113000Y-85598000D02*
X139319000Y-82804000D01*
X127000000Y-80518000D02*
X127000000Y-77089000D01*
X127889000Y-76200000D02*
X127889000Y-75184000D01*
X127127000Y-74422000D02*
X127127000Y-73152000D01*
X127000000Y-77089000D02*
X127889000Y-76200000D01*
X128333500Y-81216500D02*
X127698500Y-81216500D01*
X129921000Y-82804000D02*
X128333500Y-81216500D01*
X139319000Y-82804000D02*
X129921000Y-82804000D01*
X127698500Y-81216500D02*
X127000000Y-80518000D01*
D16*
%TO.N,/PE10\005CNAND-DQ7\005CUART7_CTS*%
X154940000Y-100457000D02*
X154940000Y-99060000D01*
D20*
X128016000Y-77597000D02*
X127889000Y-77470000D01*
X129286000Y-78486000D02*
X128397000Y-77597000D01*
X128397000Y-77597000D02*
X128016000Y-77597000D01*
X151384000Y-75565000D02*
X149352000Y-77597000D01*
X131191000Y-78486000D02*
X129286000Y-78486000D01*
X149352000Y-77597000D02*
X141732000Y-77597000D01*
X141732000Y-77597000D02*
X139954000Y-79375000D01*
X132080000Y-79375000D02*
X131191000Y-78486000D01*
X139954000Y-79375000D02*
X132080000Y-79375000D01*
D16*
%TO.N,/PG12\005CSPI6_MISO\005CUSART6_RTS*%
X147320000Y-97282000D02*
X147701000Y-97663000D01*
X147320000Y-96393000D02*
X147320000Y-97282000D01*
D20*
X155702000Y-98298000D02*
X155829000Y-98425000D01*
X148336000Y-98298000D02*
X155702000Y-98298000D01*
X147701000Y-97663000D02*
X148336000Y-98298000D01*
X132207000Y-68580000D02*
X131191000Y-68580000D01*
X135509000Y-71882000D02*
X132207000Y-68580000D01*
X149987000Y-71882000D02*
X135509000Y-71882000D01*
X151384000Y-73279000D02*
X149987000Y-71882000D01*
%TO.N,/PD5\005CNAND-WE\005CUSART2_TX*%
X129159000Y-72898000D02*
X127889000Y-71628000D01*
X131572000Y-72898000D02*
X129159000Y-72898000D01*
D16*
X140970000Y-100457000D02*
X140970000Y-99060000D01*
%TO.N,/PA4\005CSPI1(3)(6)_NSS*%
X132715000Y-49403000D02*
X132715000Y-50419000D01*
D20*
X120904000Y-63373000D02*
X120904000Y-69723000D01*
X124333000Y-59944000D02*
X120904000Y-63373000D01*
X120904000Y-69723000D02*
X121793000Y-70612000D01*
X132461000Y-50673000D02*
X127127000Y-50673000D01*
X132715000Y-50419000D02*
X132461000Y-50673000D01*
X124333000Y-53467000D02*
X124333000Y-59944000D01*
X127127000Y-50673000D02*
X124333000Y-53467000D01*
D16*
%TO.N,/PD6\005CNAND-RB\005CSPI3_MOSI\005CUSART2_RX*%
X142240000Y-100457000D02*
X142240000Y-99060000D01*
D20*
X127762000Y-70358000D02*
X129159000Y-71755000D01*
X129159000Y-71755000D02*
X131699000Y-71755000D01*
D16*
%TO.N,/PA5\005CSPI1(6)_SCK*%
X133985000Y-49403000D02*
X133985000Y-50419000D01*
D20*
X121793000Y-63500000D02*
X121793000Y-68072000D01*
X125095000Y-53848000D02*
X125095000Y-60198000D01*
X125095000Y-60198000D02*
X121793000Y-63500000D01*
X126746000Y-52197000D02*
X125095000Y-53848000D01*
X133985000Y-50419000D02*
X133223000Y-51181000D01*
X133223000Y-51181000D02*
X129794000Y-51181000D01*
X129794000Y-51181000D02*
X128778000Y-52197000D01*
X128778000Y-52197000D02*
X126746000Y-52197000D01*
D16*
%TO.N,/PD4\005CNAND-RE\005CUSART2_RTS*%
X139700000Y-99187000D02*
X139573000Y-99060000D01*
X139700000Y-100457000D02*
X139700000Y-99187000D01*
D20*
X129159000Y-70485000D02*
X131699000Y-70485000D01*
X127762000Y-69088000D02*
X129159000Y-70485000D01*
D16*
%TO.N,/PA6\005CSPI1(6)_MISO*%
X130175000Y-90043000D02*
X130175000Y-88900000D01*
D20*
X128270000Y-87630000D02*
X129159000Y-88519000D01*
X129159000Y-88519000D02*
X129794000Y-88519000D01*
X125857000Y-86741000D02*
X126746000Y-87630000D01*
X127127000Y-65532000D02*
X126746000Y-65913000D01*
X125857000Y-72771000D02*
X125857000Y-86741000D01*
X129794000Y-88519000D02*
X130175000Y-88900000D01*
X126746000Y-65913000D02*
X126746000Y-71882000D01*
X126746000Y-87630000D02*
X128270000Y-87630000D01*
X126746000Y-71882000D02*
X125857000Y-72771000D01*
D16*
%TO.N,/PD12\005CNAND-ALE\005CI2C1(4)_SCL\005CUSART3_RTS*%
X144780000Y-100457000D02*
X144780000Y-99060000D01*
D20*
%TO.N,/PB5\005CSPDIF_TX\005CSPI1(3)(6)_MOSI\005CUART5_RX\005CCAN2_RX*%
X149174200Y-97739200D02*
X156921200Y-97739200D01*
X156921200Y-97739200D02*
X157099000Y-97917000D01*
D16*
X148590000Y-97155000D02*
X148844000Y-97409000D01*
X148590000Y-96393000D02*
X148590000Y-97155000D01*
D20*
X148844000Y-97409000D02*
X149174200Y-97739200D01*
X150749000Y-71374000D02*
X151384000Y-72009000D01*
X136017000Y-71374000D02*
X150749000Y-71374000D01*
X131572000Y-66929000D02*
X136017000Y-71374000D01*
X130175000Y-66929000D02*
X131572000Y-66929000D01*
D16*
%TO.N,/PD11\005CNAND-CLE\005CUSART3_CTS*%
X143510000Y-100457000D02*
X143510000Y-99060000D01*
D20*
X127762000Y-67818000D02*
X127762000Y-66548000D01*
X133096000Y-72517000D02*
X133096000Y-70612000D01*
X133096000Y-70612000D02*
X131953000Y-69469000D01*
X131953000Y-69469000D02*
X129413000Y-69469000D01*
X129413000Y-69469000D02*
X127762000Y-67818000D01*
D16*
%TO.N,/PH5\005CI2C2_SDA\005CSPI5_NSS*%
X145415000Y-49403000D02*
X145415000Y-50927000D01*
D20*
%TO.N,/PG9\005CNAND-CE\005CUSART6_RX*%
X137820400Y-98831400D02*
X138430000Y-99441000D01*
X137287000Y-98831400D02*
X137820400Y-98831400D01*
D16*
X138430000Y-100457000D02*
X138430000Y-99441000D01*
D20*
%TO.N,/PH6\005CSPI5_SCK*%
X148590000Y-50927000D02*
X149606000Y-50927000D01*
D16*
X150495000Y-50038000D02*
X150114000Y-50419000D01*
X150495000Y-49403000D02*
X150495000Y-50038000D01*
D20*
X149606000Y-50927000D02*
X150114000Y-50419000D01*
D16*
%TO.N,/PE15\005CUSART2_CTS\005CUART8_CTS*%
X141605000Y-53467000D02*
X141605000Y-52451000D01*
D20*
X140589000Y-51435000D02*
X141605000Y-52451000D01*
X135128000Y-51181000D02*
X135382000Y-51435000D01*
X135001000Y-51181000D02*
X135128000Y-51181000D01*
X135382000Y-51435000D02*
X140589000Y-51435000D01*
D16*
%TO.N,/PH7\005CI2C3_SCL\005CSPI5_MISO*%
X135255000Y-92837000D02*
X135255000Y-94107000D01*
X134874000Y-92456000D02*
X135255000Y-92837000D01*
D20*
%TO.N,/PG7\005CUART8_RTS*%
X119380000Y-70739000D02*
X121285000Y-72644000D01*
X119380000Y-54229000D02*
X119380000Y-70739000D01*
X119761000Y-53848000D02*
X119380000Y-54229000D01*
D16*
X144145000Y-94107000D02*
X144145000Y-93091000D01*
D20*
X143814800Y-92760800D02*
X144145000Y-93091000D01*
X140131800Y-92760800D02*
X143814800Y-92760800D01*
X139827000Y-92456000D02*
X140131800Y-92760800D01*
X133731000Y-73533000D02*
X133477000Y-73787000D01*
X133477000Y-73787000D02*
X128905000Y-73787000D01*
X128905000Y-73787000D02*
X128397000Y-73279000D01*
%TO.N,/PF11\005CSPI5_MOSI*%
X122174000Y-74041000D02*
X121793000Y-74422000D01*
X122174000Y-72263000D02*
X122174000Y-74041000D01*
X121666000Y-50419000D02*
X121666000Y-61595000D01*
X120142000Y-70231000D02*
X122174000Y-72263000D01*
X121666000Y-61595000D02*
X120142000Y-63119000D01*
X120142000Y-63119000D02*
X120142000Y-70231000D01*
D16*
X143510000Y-96393000D02*
X143510000Y-97917000D01*
D20*
X128397000Y-76708000D02*
X128397000Y-74422000D01*
X129540000Y-77851000D02*
X128397000Y-76708000D01*
X135763000Y-77851000D02*
X129540000Y-77851000D01*
D16*
%TO.N,/PI10\005CUSART3_CTS*%
X152019000Y-49657000D02*
X152654000Y-49657000D01*
X151765000Y-49403000D02*
X152019000Y-49657000D01*
D20*
%TO.N,/PH8\005CI2C3_SDA*%
X118618000Y-48895000D02*
X120777000Y-46736000D01*
X121285000Y-86106000D02*
X120777000Y-85598000D01*
X120777000Y-85598000D02*
X120777000Y-73660000D01*
X120777000Y-73660000D02*
X118618000Y-71501000D01*
X120777000Y-46736000D02*
X121920000Y-46736000D01*
X118618000Y-71501000D02*
X118618000Y-48895000D01*
D16*
X132715000Y-90043000D02*
X132715000Y-88900000D01*
D20*
X131699000Y-87884000D02*
X132715000Y-88900000D01*
X129413000Y-87884000D02*
X131699000Y-87884000D01*
X128270000Y-86741000D02*
X129413000Y-87884000D01*
X127381000Y-86741000D02*
X128270000Y-86741000D01*
D16*
%TO.N,/PG8\005CUSART3(6)_RTS\005CSPI6_NSS*%
X140335000Y-53467000D02*
X140335000Y-52451000D01*
D20*
X139954000Y-52070000D02*
X140335000Y-52451000D01*
X130175000Y-51943000D02*
X130302000Y-52070000D01*
X130302000Y-52070000D02*
X139954000Y-52070000D01*
D16*
%TO.N,/PE13\005CSPI4_MISO*%
X151765000Y-53467000D02*
X151765000Y-54610000D01*
D20*
X152146000Y-54991000D02*
X151765000Y-54610000D01*
X152146000Y-57023000D02*
X152146000Y-54991000D01*
X149098000Y-60071000D02*
X152146000Y-57023000D01*
X147955000Y-60071000D02*
X149098000Y-60071000D01*
D16*
%TO.N,/PE14\005CSPI4_MOSI\005CUART8_RTS*%
X150495000Y-53467000D02*
X150495000Y-54610000D01*
D20*
X151511000Y-55626000D02*
X150495000Y-54610000D01*
X146685000Y-57277000D02*
X147193000Y-56769000D01*
X147193000Y-56769000D02*
X151257000Y-56769000D01*
X151257000Y-56769000D02*
X151511000Y-56515000D01*
X151511000Y-56515000D02*
X151511000Y-55626000D01*
D16*
%TO.N,/PE12\005CSPI4_SCK*%
X149225000Y-53467000D02*
X149225000Y-54610000D01*
D20*
X150622000Y-56007000D02*
X149225000Y-54610000D01*
D16*
%TO.N,/PE11\005CSPI4_NSS*%
X148209000Y-54864000D02*
X147955000Y-54610000D01*
X147955000Y-54610000D02*
X147955000Y-53467000D01*
%TO.N,/PH4\005CI2C2_SCL*%
X146685000Y-49403000D02*
X146685000Y-50546000D01*
D20*
X149834600Y-51587400D02*
X147726400Y-51587400D01*
X150749000Y-50673000D02*
X149834600Y-51587400D01*
X153543000Y-52070000D02*
X152146000Y-50673000D01*
X147726400Y-51587400D02*
X146685000Y-50546000D01*
X153543000Y-58420000D02*
X153543000Y-52070000D01*
X145415000Y-61087000D02*
X149225000Y-61087000D01*
X149225000Y-61087000D02*
X150749000Y-59563000D01*
X152146000Y-50673000D02*
X150749000Y-50673000D01*
X150749000Y-59563000D02*
X152400000Y-59563000D01*
X152400000Y-59563000D02*
X153543000Y-58420000D01*
%TO.N,/PZ1\005CI2C2(4)(5)(6)_SDA\005CUSART1_RX\005CSPI1(6)_MISO*%
X145923000Y-55372000D02*
X145288000Y-55372000D01*
X146685000Y-54610000D02*
X145923000Y-55372000D01*
D16*
X146685000Y-53467000D02*
X146685000Y-54610000D01*
%TO.N,/PZ7\005CI2C2(6)_SDA\005CUSART1_TX*%
X144145000Y-49403000D02*
X144145000Y-50546000D01*
D20*
X144145000Y-51054000D02*
X144145000Y-50546000D01*
X145288000Y-52197000D02*
X144145000Y-51054000D01*
X152527000Y-52197000D02*
X145288000Y-52197000D01*
X152781000Y-58039000D02*
X152781000Y-52451000D01*
X152781000Y-52451000D02*
X152527000Y-52197000D01*
X152146000Y-58674000D02*
X152781000Y-58039000D01*
X150749000Y-67310000D02*
X150876000Y-67183000D01*
X145923000Y-67310000D02*
X150749000Y-67310000D01*
D16*
%TO.N,/PZ6\005CI2C2(6)_SCL\005CUSART1_RX*%
X143129000Y-51308000D02*
X142875000Y-51054000D01*
X142875000Y-51054000D02*
X142875000Y-49403000D01*
D20*
X144526000Y-69088000D02*
X143637000Y-68199000D01*
X151003000Y-69088000D02*
X144526000Y-69088000D01*
D16*
%TO.N,/PF1\005CSDMMC3_CMD*%
X130175000Y-53467000D02*
X130175000Y-54483000D01*
D20*
X135255000Y-66040000D02*
X131191000Y-61976000D01*
X131191000Y-55499000D02*
X130175000Y-54483000D01*
X151384000Y-66040000D02*
X135255000Y-66040000D01*
X152527000Y-67183000D02*
X151384000Y-66040000D01*
X150876000Y-81788000D02*
X151384000Y-81280000D01*
X151384000Y-81280000D02*
X151384000Y-79121000D01*
X151384000Y-79121000D02*
X152527000Y-77978000D01*
X131191000Y-61976000D02*
X131191000Y-55499000D01*
X152527000Y-77978000D02*
X152527000Y-67183000D01*
X152781000Y-93218000D02*
X152781000Y-94234000D01*
X152908000Y-83566000D02*
X155956000Y-83566000D01*
X151892000Y-82804000D02*
X152146000Y-82804000D01*
X152146000Y-82804000D02*
X152908000Y-83566000D01*
X150876000Y-81788000D02*
X151892000Y-82804000D01*
X155956000Y-83566000D02*
X157607000Y-85217000D01*
X157607000Y-85217000D02*
X157607000Y-88646000D01*
X157607000Y-88646000D02*
X154398625Y-91854375D01*
X152400000Y-92837000D02*
X152781000Y-93218000D01*
X152941375Y-91854375D02*
X152400000Y-92395750D01*
X154398625Y-91854375D02*
X152941375Y-91854375D01*
X152400000Y-92395750D02*
X152400000Y-92837000D01*
D16*
%TO.N,/PG15\005CSDMMC3_CK*%
X131445000Y-53467000D02*
X131445000Y-54483000D01*
D20*
X135509000Y-65405000D02*
X131953000Y-61849000D01*
X151765000Y-65405000D02*
X135509000Y-65405000D01*
X153162000Y-66802000D02*
X151765000Y-65405000D01*
X153466800Y-92329000D02*
X154813000Y-92329000D01*
X131953000Y-61849000D02*
X131953000Y-54991000D01*
X158115000Y-89027000D02*
X158115000Y-85090000D01*
X154813000Y-92329000D02*
X158115000Y-89027000D01*
X153263600Y-92532200D02*
X153466800Y-92329000D01*
X158115000Y-85090000D02*
X156083000Y-83058000D01*
X156083000Y-83058000D02*
X153162000Y-83058000D01*
X153162000Y-83058000D02*
X152146000Y-82042000D01*
X152146000Y-79375000D02*
X153162000Y-78359000D01*
X152146000Y-82042000D02*
X152146000Y-79375000D01*
X131953000Y-54991000D02*
X131445000Y-54483000D01*
X153162000Y-78359000D02*
X153162000Y-66802000D01*
D16*
%TO.N,/PF0\005CSDMMC3_D0*%
X132715000Y-53467000D02*
X132715000Y-54483000D01*
D20*
X153797000Y-78740000D02*
X153416000Y-79121000D01*
X153797000Y-66548000D02*
X153797000Y-78740000D01*
X132715000Y-54483000D02*
X132715000Y-61722000D01*
X132715000Y-61722000D02*
X135763000Y-64770000D01*
X135763000Y-64770000D02*
X152019000Y-64770000D01*
X153416000Y-79121000D02*
X153416000Y-80264000D01*
X152019000Y-64770000D02*
X153797000Y-66548000D01*
D16*
%TO.N,/PF4\005CSDMMC3_D1*%
X133985000Y-53467000D02*
X133985000Y-54483000D01*
D20*
X154432000Y-66294000D02*
X154432000Y-79375000D01*
X152273000Y-64135000D02*
X154432000Y-66294000D01*
X133985000Y-54483000D02*
X133477000Y-54991000D01*
X133477000Y-54991000D02*
X133477000Y-61595000D01*
X133477000Y-61595000D02*
X136017000Y-64135000D01*
X136017000Y-64135000D02*
X152273000Y-64135000D01*
D16*
%TO.N,/PF5\005CSDMMC3_D2*%
X135255000Y-53467000D02*
X135255000Y-54483000D01*
D20*
X153670000Y-81280000D02*
X153035000Y-81280000D01*
X155194000Y-66167000D02*
X155194000Y-79756000D01*
X155194000Y-79756000D02*
X153670000Y-81280000D01*
X152527000Y-63500000D02*
X155194000Y-66167000D01*
X135255000Y-54483000D02*
X134239000Y-55499000D01*
X134239000Y-55499000D02*
X134239000Y-61468000D01*
X134239000Y-61468000D02*
X136271000Y-63500000D01*
X136271000Y-63500000D02*
X152527000Y-63500000D01*
D16*
%TO.N,/PD7\005CSDMMC3_D3*%
X136525000Y-53467000D02*
X136525000Y-54483000D01*
D20*
X135001000Y-56007000D02*
X136525000Y-54483000D01*
X135001000Y-61341000D02*
X135001000Y-56007000D01*
X136525000Y-62865000D02*
X135001000Y-61341000D01*
X153416000Y-82296000D02*
X155829000Y-79883000D01*
X155829000Y-79883000D02*
X155829000Y-65913000D01*
X155829000Y-65913000D02*
X152781000Y-62865000D01*
X152781000Y-62865000D02*
X136525000Y-62865000D01*
X153670000Y-82550000D02*
X153416000Y-82296000D01*
X156210000Y-82550000D02*
X153670000Y-82550000D01*
X153898600Y-94234000D02*
X153898600Y-94132400D01*
X153898600Y-94132400D02*
X158623000Y-89408000D01*
X158623000Y-89408000D02*
X158623000Y-84963000D01*
X158623000Y-84963000D02*
X156210000Y-82550000D01*
D16*
%TO.N,/PD8\005CUSART3_TX*%
X137795000Y-53467000D02*
X137795000Y-54483000D01*
D20*
X138938000Y-55626000D02*
X137795000Y-54483000D01*
X141732000Y-58293000D02*
X141732000Y-56388000D01*
X141732000Y-56388000D02*
X140970000Y-55626000D01*
X140970000Y-55626000D02*
X138938000Y-55626000D01*
D16*
%TO.N,/PD9\005CUSART3_RX*%
X139065000Y-53467000D02*
X139065000Y-54483000D01*
D20*
X139573000Y-54991000D02*
X139065000Y-54483000D01*
X141478000Y-54991000D02*
X139573000Y-54991000D01*
X142621000Y-56134000D02*
X141478000Y-54991000D01*
X142621000Y-57277000D02*
X142621000Y-56134000D01*
D16*
%TO.N,/PE1\005CUART8_TX*%
X139065000Y-49403000D02*
X139065000Y-50419000D01*
D20*
X139446000Y-50800000D02*
X139065000Y-50419000D01*
X141224000Y-50800000D02*
X139446000Y-50800000D01*
X141732000Y-51308000D02*
X141224000Y-50800000D01*
X142748000Y-67310000D02*
X142621000Y-67437000D01*
X144145000Y-67310000D02*
X142748000Y-67310000D01*
X145034000Y-68199000D02*
X144145000Y-67310000D01*
X150241000Y-68199000D02*
X145034000Y-68199000D01*
%TO.N,/PI2\005CSPI2_MISO*%
X151345900Y-92837000D02*
X149606000Y-92837000D01*
X150749000Y-83312000D02*
X151892000Y-83312000D01*
X147574000Y-80137000D02*
X150749000Y-83312000D01*
X146812000Y-80137000D02*
X147574000Y-80137000D01*
X153949400Y-91414600D02*
X152768300Y-91414600D01*
X152654000Y-84074000D02*
X155702000Y-84074000D01*
X151892000Y-83312000D02*
X152654000Y-84074000D01*
X155702000Y-84074000D02*
X157099000Y-85471000D01*
X152768300Y-91414600D02*
X151345900Y-92837000D01*
X157099000Y-85471000D02*
X157099000Y-88265000D01*
X157099000Y-88265000D02*
X153949400Y-91414600D01*
D16*
X149225000Y-93218000D02*
X149606000Y-92837000D01*
X149225000Y-94107000D02*
X149225000Y-93218000D01*
D20*
%TO.N,/PI3\005CSPI2_MOSI*%
X152717500Y-90868500D02*
X152273000Y-91313000D01*
X147447000Y-80899000D02*
X150368000Y-83820000D01*
X151638000Y-83820000D02*
X152400000Y-84582000D01*
X155575000Y-84582000D02*
X156591000Y-85598000D01*
X150368000Y-83820000D02*
X151638000Y-83820000D01*
X156591000Y-85598000D02*
X156591000Y-87884000D01*
X145923000Y-80899000D02*
X147447000Y-80899000D01*
X153606500Y-90868500D02*
X152717500Y-90868500D01*
X145542000Y-80518000D02*
X145923000Y-80899000D01*
X152400000Y-84582000D02*
X155575000Y-84582000D01*
X156591000Y-87884000D02*
X153606500Y-90868500D01*
D16*
X147955000Y-94107000D02*
X147955000Y-92964000D01*
D20*
X149796500Y-92138500D02*
X150622000Y-91313000D01*
X148780500Y-92138500D02*
X147955000Y-92964000D01*
X148780500Y-92138500D02*
X149796500Y-92138500D01*
X152273000Y-91313000D02*
X150622000Y-91313000D01*
%TO.N,/PI1\005CSPI2_SCK*%
X145288000Y-91567000D02*
X146685000Y-92964000D01*
X142240000Y-91567000D02*
X145288000Y-91567000D01*
D16*
X146685000Y-94107000D02*
X146685000Y-92964000D01*
%TO.N,/PI0\005CSPI2_NSS*%
X145415000Y-94107000D02*
X145415000Y-92964000D01*
D20*
X144729200Y-92278200D02*
X145415000Y-92964000D01*
X141300200Y-92278200D02*
X144729200Y-92278200D01*
X141097000Y-92075000D02*
X141300200Y-92278200D01*
%TO.N,/NRST*%
X132334000Y-95885000D02*
X130302000Y-95885000D01*
X135509000Y-97663000D02*
X134112000Y-97663000D01*
X136017000Y-98679000D02*
X136017000Y-98171000D01*
X134112000Y-97663000D02*
X132334000Y-95885000D01*
X136017000Y-98171000D02*
X135509000Y-97663000D01*
D16*
X137160000Y-99822000D02*
X136906000Y-99568000D01*
X137160000Y-100457000D02*
X137160000Y-99822000D01*
D20*
X136906000Y-99568000D02*
X136017000Y-98679000D01*
%TO.N,/PE0\005CUART8_RX\005CSPI3_SCK*%
X138023600Y-97942400D02*
X138430000Y-97536000D01*
X136652000Y-97942400D02*
X138023600Y-97942400D01*
D16*
X138430000Y-96393000D02*
X138430000Y-97536000D01*
D20*
X137922000Y-78613000D02*
X141859000Y-74676000D01*
X141859000Y-74676000D02*
X141859000Y-73914000D01*
X132715000Y-78613000D02*
X137922000Y-78613000D01*
%TD*%
%TO.N,GND*%
G36*
X126568200Y-48111790D02*
G01*
X126566111Y-48133000D01*
X126574448Y-48217648D01*
X126599139Y-48299042D01*
X126639234Y-48374056D01*
X126679376Y-48422969D01*
X126675400Y-48442960D01*
X126675400Y-48971200D01*
X126827800Y-49123600D01*
X127460000Y-49123600D01*
X127460000Y-49103600D01*
X127810000Y-49103600D01*
X127810000Y-49123600D01*
X127914400Y-49123600D01*
X127914400Y-49657000D01*
X127916352Y-49676821D01*
X127918044Y-49682400D01*
X127810000Y-49682400D01*
X127810000Y-49702400D01*
X127460000Y-49702400D01*
X127460000Y-49682400D01*
X126827800Y-49682400D01*
X126675400Y-49834800D01*
X126675400Y-50363040D01*
X126698827Y-50480813D01*
X126712189Y-50513074D01*
X124059746Y-53165518D01*
X124044242Y-53178242D01*
X123993456Y-53240125D01*
X123955720Y-53310725D01*
X123955719Y-53310726D01*
X123941544Y-53357457D01*
X123932481Y-53387333D01*
X123926600Y-53447041D01*
X123926600Y-53447047D01*
X123924635Y-53467000D01*
X123926600Y-53486953D01*
X123926601Y-59775663D01*
X122070772Y-61631492D01*
X122072400Y-61614960D01*
X122072400Y-61614954D01*
X122074365Y-61595001D01*
X122072400Y-61575048D01*
X122072400Y-50934973D01*
X122083410Y-50927616D01*
X122174616Y-50836410D01*
X122246276Y-50729164D01*
X122295636Y-50609998D01*
X122320800Y-50483492D01*
X122320800Y-50354508D01*
X122295636Y-50228002D01*
X122246276Y-50108836D01*
X122174616Y-50001590D01*
X122083410Y-49910384D01*
X121976164Y-49838724D01*
X121856998Y-49789364D01*
X121786224Y-49775286D01*
X121861776Y-49724804D01*
X121987804Y-49598776D01*
X122086823Y-49450584D01*
X122155029Y-49285920D01*
X122189800Y-49111115D01*
X122189800Y-48932885D01*
X122155029Y-48758080D01*
X122086823Y-48593416D01*
X121987804Y-48445224D01*
X121861776Y-48319196D01*
X121713584Y-48220177D01*
X121548920Y-48151971D01*
X121374115Y-48117200D01*
X121195885Y-48117200D01*
X121021080Y-48151971D01*
X120856416Y-48220177D01*
X120708224Y-48319196D01*
X120582196Y-48445224D01*
X120483177Y-48593416D01*
X120414971Y-48758080D01*
X120380200Y-48932885D01*
X120380200Y-49111115D01*
X120414971Y-49285920D01*
X120483177Y-49450584D01*
X120582196Y-49598776D01*
X120708224Y-49724804D01*
X120856416Y-49823823D01*
X121021080Y-49892029D01*
X121195885Y-49926800D01*
X121232174Y-49926800D01*
X121157384Y-50001590D01*
X121085724Y-50108836D01*
X121036364Y-50228002D01*
X121011200Y-50354508D01*
X121011200Y-50483492D01*
X121036364Y-50609998D01*
X121085724Y-50729164D01*
X121157384Y-50836410D01*
X121248590Y-50927616D01*
X121259600Y-50934973D01*
X121259601Y-61426663D01*
X119868746Y-62817518D01*
X119853242Y-62830242D01*
X119802456Y-62892125D01*
X119786400Y-62922164D01*
X119786400Y-54502800D01*
X119825492Y-54502800D01*
X119951998Y-54477636D01*
X120071164Y-54428276D01*
X120178410Y-54356616D01*
X120269616Y-54265410D01*
X120341276Y-54158164D01*
X120390636Y-54038998D01*
X120415800Y-53912492D01*
X120415800Y-53783508D01*
X120390636Y-53657002D01*
X120341276Y-53537836D01*
X120269616Y-53430590D01*
X120178410Y-53339384D01*
X120071164Y-53267724D01*
X119951998Y-53218364D01*
X119825492Y-53193200D01*
X119696508Y-53193200D01*
X119570002Y-53218364D01*
X119450836Y-53267724D01*
X119343590Y-53339384D01*
X119252384Y-53430590D01*
X119180724Y-53537836D01*
X119131364Y-53657002D01*
X119106200Y-53783508D01*
X119106200Y-53912492D01*
X119108784Y-53925480D01*
X119106746Y-53927518D01*
X119091242Y-53940242D01*
X119040456Y-54002125D01*
X119032124Y-54017714D01*
X119024400Y-54032165D01*
X119024400Y-49063336D01*
X120945336Y-47142400D01*
X121404027Y-47142400D01*
X121411384Y-47153410D01*
X121502590Y-47244616D01*
X121609836Y-47316276D01*
X121729002Y-47365636D01*
X121855508Y-47390800D01*
X121984492Y-47390800D01*
X122110998Y-47365636D01*
X122230164Y-47316276D01*
X122337410Y-47244616D01*
X122428616Y-47153410D01*
X122500276Y-47046164D01*
X122549636Y-46926998D01*
X122574800Y-46800492D01*
X122574800Y-46671508D01*
X122549636Y-46545002D01*
X122500276Y-46425836D01*
X122428616Y-46318590D01*
X122337410Y-46227384D01*
X122230164Y-46155724D01*
X122110998Y-46106364D01*
X121984492Y-46081200D01*
X121855508Y-46081200D01*
X121729002Y-46106364D01*
X121609836Y-46155724D01*
X121502590Y-46227384D01*
X121411384Y-46318590D01*
X121404027Y-46329600D01*
X120796952Y-46329600D01*
X120776999Y-46327635D01*
X120757046Y-46329600D01*
X120757040Y-46329600D01*
X120705335Y-46334693D01*
X120697331Y-46335481D01*
X120620725Y-46358719D01*
X120550124Y-46396456D01*
X120488242Y-46447242D01*
X120475518Y-46462746D01*
X118344741Y-48593523D01*
X118329243Y-48606242D01*
X118316524Y-48621740D01*
X118316518Y-48621746D01*
X118295549Y-48647298D01*
X118278457Y-48668124D01*
X118275245Y-48674134D01*
X118240719Y-48738726D01*
X118217481Y-48815332D01*
X118209635Y-48895000D01*
X118211601Y-48914963D01*
X118211600Y-71481047D01*
X118209635Y-71501000D01*
X118211600Y-71520953D01*
X118211600Y-71520959D01*
X118214296Y-71548332D01*
X118217481Y-71580668D01*
X118240067Y-71655123D01*
X118240719Y-71657274D01*
X118278456Y-71727875D01*
X118329242Y-71789758D01*
X118344746Y-71802482D01*
X120370601Y-73828337D01*
X120370600Y-85578047D01*
X120368635Y-85598000D01*
X120370600Y-85617953D01*
X120370600Y-85617959D01*
X120372058Y-85632758D01*
X120376481Y-85677668D01*
X120379794Y-85688590D01*
X120399719Y-85754274D01*
X120437456Y-85824875D01*
X120488242Y-85886758D01*
X120503745Y-85899481D01*
X120632784Y-86028520D01*
X120630200Y-86041508D01*
X120630200Y-86170492D01*
X120655364Y-86296998D01*
X120704724Y-86416164D01*
X120776384Y-86523410D01*
X120867590Y-86614616D01*
X120974836Y-86686276D01*
X121094002Y-86735636D01*
X121220508Y-86760800D01*
X121349492Y-86760800D01*
X121475998Y-86735636D01*
X121595164Y-86686276D01*
X121702410Y-86614616D01*
X121793616Y-86523410D01*
X121865276Y-86416164D01*
X121914636Y-86296998D01*
X121939800Y-86170492D01*
X121939800Y-86041508D01*
X121914636Y-85915002D01*
X121865276Y-85795836D01*
X121793616Y-85688590D01*
X121702410Y-85597384D01*
X121595164Y-85525724D01*
X121475998Y-85476364D01*
X121349492Y-85451200D01*
X121220508Y-85451200D01*
X121207520Y-85453784D01*
X121183400Y-85429664D01*
X121183400Y-74661369D01*
X121212724Y-74732164D01*
X121284384Y-74839410D01*
X121375590Y-74930616D01*
X121482836Y-75002276D01*
X121602002Y-75051636D01*
X121728508Y-75076800D01*
X121857492Y-75076800D01*
X121983998Y-75051636D01*
X122103164Y-75002276D01*
X122210410Y-74930616D01*
X122301616Y-74839410D01*
X122373276Y-74732164D01*
X122422636Y-74612998D01*
X122447800Y-74486492D01*
X122447800Y-74357508D01*
X122445216Y-74344520D01*
X122447254Y-74342482D01*
X122462758Y-74329758D01*
X122513544Y-74267876D01*
X122551281Y-74197275D01*
X122574519Y-74120668D01*
X122580400Y-74060960D01*
X122580400Y-74060954D01*
X122582365Y-74041001D01*
X122580400Y-74021048D01*
X122580400Y-72282953D01*
X122582365Y-72263000D01*
X122580400Y-72243047D01*
X122580400Y-72243040D01*
X122574519Y-72183332D01*
X122566860Y-72158081D01*
X122551281Y-72106725D01*
X122544770Y-72094544D01*
X122513544Y-72036124D01*
X122490778Y-72008384D01*
X122475482Y-71989745D01*
X122475477Y-71989740D01*
X122462758Y-71974242D01*
X122447261Y-71961524D01*
X121752537Y-71266800D01*
X121857492Y-71266800D01*
X121983998Y-71241636D01*
X122103164Y-71192276D01*
X122210410Y-71120616D01*
X122301616Y-71029410D01*
X122373276Y-70922164D01*
X122422636Y-70802998D01*
X122447800Y-70676492D01*
X122447800Y-70547508D01*
X122422636Y-70421002D01*
X122373276Y-70301836D01*
X122301616Y-70194590D01*
X122210410Y-70103384D01*
X122103164Y-70031724D01*
X121983998Y-69982364D01*
X121857492Y-69957200D01*
X121728508Y-69957200D01*
X121715520Y-69959783D01*
X121310400Y-69554664D01*
X121310400Y-68515426D01*
X121375590Y-68580616D01*
X121482836Y-68652276D01*
X121602002Y-68701636D01*
X121728508Y-68726800D01*
X121857492Y-68726800D01*
X121983998Y-68701636D01*
X122103164Y-68652276D01*
X122210410Y-68580616D01*
X122301616Y-68489410D01*
X122373276Y-68382164D01*
X122422636Y-68262998D01*
X122447800Y-68136492D01*
X122447800Y-68007508D01*
X122422636Y-67881002D01*
X122373276Y-67761836D01*
X122301616Y-67654590D01*
X122210410Y-67563384D01*
X122199400Y-67556027D01*
X122199400Y-63668336D01*
X125368254Y-60499482D01*
X125383758Y-60486758D01*
X125434544Y-60424876D01*
X125472281Y-60354275D01*
X125495519Y-60277668D01*
X125501400Y-60217960D01*
X125501400Y-60217954D01*
X125503365Y-60198001D01*
X125501400Y-60178048D01*
X125501400Y-54016336D01*
X126914337Y-52603400D01*
X126978726Y-52603400D01*
X126978726Y-54367000D01*
X126984611Y-54426751D01*
X127002040Y-54484206D01*
X127030342Y-54537157D01*
X127045278Y-54555356D01*
X126955913Y-54664248D01*
X126880439Y-54805450D01*
X126833962Y-54958663D01*
X126822201Y-55078077D01*
X126822200Y-60242327D01*
X122897495Y-64167033D01*
X122866484Y-64192483D01*
X122841034Y-64223494D01*
X122764912Y-64316249D01*
X122689438Y-64457451D01*
X122663377Y-64543365D01*
X122642962Y-64610663D01*
X122642660Y-64613726D01*
X122627268Y-64770000D01*
X122631201Y-64809930D01*
X122631200Y-89361310D01*
X122627276Y-89351836D01*
X122555616Y-89244590D01*
X122464410Y-89153384D01*
X122357164Y-89081724D01*
X122237998Y-89032364D01*
X122111492Y-89007200D01*
X121982508Y-89007200D01*
X121856002Y-89032364D01*
X121736836Y-89081724D01*
X121629590Y-89153384D01*
X121538384Y-89244590D01*
X121466724Y-89351836D01*
X121453981Y-89382600D01*
X120141318Y-89382600D01*
X120071164Y-89335724D01*
X119951998Y-89286364D01*
X119825492Y-89261200D01*
X119696508Y-89261200D01*
X119570002Y-89286364D01*
X119450836Y-89335724D01*
X119343590Y-89407384D01*
X119252384Y-89498590D01*
X119180724Y-89605836D01*
X119131364Y-89725002D01*
X119106200Y-89851508D01*
X119106200Y-89980492D01*
X119131364Y-90106998D01*
X119180724Y-90226164D01*
X119252384Y-90333410D01*
X119343590Y-90424616D01*
X119450836Y-90496276D01*
X119570002Y-90545636D01*
X119696508Y-90570800D01*
X119825492Y-90570800D01*
X119951998Y-90545636D01*
X120071164Y-90496276D01*
X120178410Y-90424616D01*
X120269616Y-90333410D01*
X120341276Y-90226164D01*
X120354019Y-90195400D01*
X121666682Y-90195400D01*
X121736836Y-90242276D01*
X121856002Y-90291636D01*
X121982508Y-90316800D01*
X122111492Y-90316800D01*
X122237998Y-90291636D01*
X122357164Y-90242276D01*
X122464410Y-90170616D01*
X122555616Y-90079410D01*
X122627276Y-89972164D01*
X122631200Y-89962690D01*
X122631200Y-95591080D01*
X122627268Y-95631000D01*
X122631200Y-95670920D01*
X122631200Y-95670922D01*
X122642961Y-95790336D01*
X122689438Y-95943549D01*
X122764912Y-96084751D01*
X122866483Y-96208517D01*
X122897500Y-96233972D01*
X124365028Y-97701500D01*
X124390483Y-97732517D01*
X124455805Y-97786125D01*
X124514247Y-97834088D01*
X124589721Y-97874429D01*
X124655450Y-97909562D01*
X124808663Y-97956039D01*
X124928077Y-97967800D01*
X124928079Y-97967800D01*
X124967999Y-97971732D01*
X125007920Y-97967800D01*
X127595077Y-97967800D01*
X127606009Y-97968877D01*
X128062921Y-98425789D01*
X128000681Y-98451569D01*
X127904159Y-98680028D01*
X128651000Y-99426869D01*
X129348069Y-98729800D01*
X130054433Y-98729800D01*
X130036342Y-98751843D01*
X130008040Y-98804794D01*
X129990611Y-98862249D01*
X129984726Y-98922000D01*
X129984726Y-99156173D01*
X129792972Y-99075159D01*
X129046131Y-99822000D01*
X129792972Y-100568841D01*
X129984726Y-100487827D01*
X129984726Y-100722000D01*
X129990611Y-100781751D01*
X130008040Y-100839206D01*
X130036342Y-100892157D01*
X130074432Y-100938568D01*
X130120843Y-100976658D01*
X130173794Y-101004960D01*
X130231249Y-101022389D01*
X130291000Y-101028274D01*
X132091000Y-101028274D01*
X132150751Y-101022389D01*
X132208206Y-101004960D01*
X132261157Y-100976658D01*
X132307568Y-100938568D01*
X132345658Y-100892157D01*
X132373960Y-100839206D01*
X132391389Y-100781751D01*
X132397274Y-100722000D01*
X132397274Y-99077141D01*
X133904887Y-100584755D01*
X133963726Y-100633043D01*
X133963726Y-101295200D01*
X128982314Y-101295200D01*
X129160197Y-101250885D01*
X129301319Y-101192431D01*
X129397841Y-100963972D01*
X128651000Y-100217131D01*
X127904159Y-100963972D01*
X128000681Y-101192431D01*
X128280535Y-101292969D01*
X128295443Y-101295200D01*
X118775545Y-101295200D01*
X118908499Y-101096221D01*
X119030437Y-100801837D01*
X119092600Y-100489320D01*
X119092600Y-100170680D01*
X119030437Y-99858163D01*
X118983823Y-99745625D01*
X127136021Y-99745625D01*
X127150231Y-100042651D01*
X127222115Y-100331197D01*
X127280569Y-100472319D01*
X127509028Y-100568841D01*
X128255869Y-99822000D01*
X127509028Y-99075159D01*
X127280569Y-99171681D01*
X127180031Y-99451535D01*
X127136021Y-99745625D01*
X118983823Y-99745625D01*
X118908499Y-99563779D01*
X118731472Y-99298840D01*
X118506160Y-99073528D01*
X118241221Y-98896501D01*
X117946837Y-98774563D01*
X117634320Y-98712400D01*
X117315680Y-98712400D01*
X117003163Y-98774563D01*
X116708779Y-98896501D01*
X116443840Y-99073528D01*
X116218528Y-99298840D01*
X116041501Y-99563779D01*
X116001800Y-99659626D01*
X116001800Y-94652885D01*
X120380200Y-94652885D01*
X120380200Y-94831115D01*
X120414971Y-95005920D01*
X120483177Y-95170584D01*
X120582196Y-95318776D01*
X120708224Y-95444804D01*
X120856416Y-95543823D01*
X121021080Y-95612029D01*
X121195885Y-95646800D01*
X121374115Y-95646800D01*
X121548920Y-95612029D01*
X121713584Y-95543823D01*
X121861776Y-95444804D01*
X121987804Y-95318776D01*
X122086823Y-95170584D01*
X122155029Y-95005920D01*
X122189800Y-94831115D01*
X122189800Y-94652885D01*
X122155029Y-94478080D01*
X122086823Y-94313416D01*
X121987804Y-94165224D01*
X121861776Y-94039196D01*
X121713584Y-93940177D01*
X121548920Y-93871971D01*
X121374115Y-93837200D01*
X121195885Y-93837200D01*
X121021080Y-93871971D01*
X120856416Y-93940177D01*
X120708224Y-94039196D01*
X120582196Y-94165224D01*
X120483177Y-94313416D01*
X120414971Y-94478080D01*
X120380200Y-94652885D01*
X116001800Y-94652885D01*
X116001800Y-44485374D01*
X116041501Y-44581221D01*
X116218528Y-44846160D01*
X116443840Y-45071472D01*
X116708779Y-45248499D01*
X117003163Y-45370437D01*
X117315680Y-45432600D01*
X117634320Y-45432600D01*
X117946837Y-45370437D01*
X118241221Y-45248499D01*
X118506160Y-45071472D01*
X118731472Y-44846160D01*
X118908499Y-44581221D01*
X119030437Y-44286837D01*
X119092600Y-43974320D01*
X119092600Y-43655680D01*
X119030437Y-43343163D01*
X118908499Y-43048779D01*
X118731472Y-42783840D01*
X118506160Y-42558528D01*
X118371873Y-42468800D01*
X126568201Y-42468800D01*
X126568200Y-48111790D01*
X126568200Y-48111790D01*
G37*
X126568200Y-48111790D02*
X126566111Y-48133000D01*
X126574448Y-48217648D01*
X126599139Y-48299042D01*
X126639234Y-48374056D01*
X126679376Y-48422969D01*
X126675400Y-48442960D01*
X126675400Y-48971200D01*
X126827800Y-49123600D01*
X127460000Y-49123600D01*
X127460000Y-49103600D01*
X127810000Y-49103600D01*
X127810000Y-49123600D01*
X127914400Y-49123600D01*
X127914400Y-49657000D01*
X127916352Y-49676821D01*
X127918044Y-49682400D01*
X127810000Y-49682400D01*
X127810000Y-49702400D01*
X127460000Y-49702400D01*
X127460000Y-49682400D01*
X126827800Y-49682400D01*
X126675400Y-49834800D01*
X126675400Y-50363040D01*
X126698827Y-50480813D01*
X126712189Y-50513074D01*
X124059746Y-53165518D01*
X124044242Y-53178242D01*
X123993456Y-53240125D01*
X123955720Y-53310725D01*
X123955719Y-53310726D01*
X123941544Y-53357457D01*
X123932481Y-53387333D01*
X123926600Y-53447041D01*
X123926600Y-53447047D01*
X123924635Y-53467000D01*
X123926600Y-53486953D01*
X123926601Y-59775663D01*
X122070772Y-61631492D01*
X122072400Y-61614960D01*
X122072400Y-61614954D01*
X122074365Y-61595001D01*
X122072400Y-61575048D01*
X122072400Y-50934973D01*
X122083410Y-50927616D01*
X122174616Y-50836410D01*
X122246276Y-50729164D01*
X122295636Y-50609998D01*
X122320800Y-50483492D01*
X122320800Y-50354508D01*
X122295636Y-50228002D01*
X122246276Y-50108836D01*
X122174616Y-50001590D01*
X122083410Y-49910384D01*
X121976164Y-49838724D01*
X121856998Y-49789364D01*
X121786224Y-49775286D01*
X121861776Y-49724804D01*
X121987804Y-49598776D01*
X122086823Y-49450584D01*
X122155029Y-49285920D01*
X122189800Y-49111115D01*
X122189800Y-48932885D01*
X122155029Y-48758080D01*
X122086823Y-48593416D01*
X121987804Y-48445224D01*
X121861776Y-48319196D01*
X121713584Y-48220177D01*
X121548920Y-48151971D01*
X121374115Y-48117200D01*
X121195885Y-48117200D01*
X121021080Y-48151971D01*
X120856416Y-48220177D01*
X120708224Y-48319196D01*
X120582196Y-48445224D01*
X120483177Y-48593416D01*
X120414971Y-48758080D01*
X120380200Y-48932885D01*
X120380200Y-49111115D01*
X120414971Y-49285920D01*
X120483177Y-49450584D01*
X120582196Y-49598776D01*
X120708224Y-49724804D01*
X120856416Y-49823823D01*
X121021080Y-49892029D01*
X121195885Y-49926800D01*
X121232174Y-49926800D01*
X121157384Y-50001590D01*
X121085724Y-50108836D01*
X121036364Y-50228002D01*
X121011200Y-50354508D01*
X121011200Y-50483492D01*
X121036364Y-50609998D01*
X121085724Y-50729164D01*
X121157384Y-50836410D01*
X121248590Y-50927616D01*
X121259600Y-50934973D01*
X121259601Y-61426663D01*
X119868746Y-62817518D01*
X119853242Y-62830242D01*
X119802456Y-62892125D01*
X119786400Y-62922164D01*
X119786400Y-54502800D01*
X119825492Y-54502800D01*
X119951998Y-54477636D01*
X120071164Y-54428276D01*
X120178410Y-54356616D01*
X120269616Y-54265410D01*
X120341276Y-54158164D01*
X120390636Y-54038998D01*
X120415800Y-53912492D01*
X120415800Y-53783508D01*
X120390636Y-53657002D01*
X120341276Y-53537836D01*
X120269616Y-53430590D01*
X120178410Y-53339384D01*
X120071164Y-53267724D01*
X119951998Y-53218364D01*
X119825492Y-53193200D01*
X119696508Y-53193200D01*
X119570002Y-53218364D01*
X119450836Y-53267724D01*
X119343590Y-53339384D01*
X119252384Y-53430590D01*
X119180724Y-53537836D01*
X119131364Y-53657002D01*
X119106200Y-53783508D01*
X119106200Y-53912492D01*
X119108784Y-53925480D01*
X119106746Y-53927518D01*
X119091242Y-53940242D01*
X119040456Y-54002125D01*
X119032124Y-54017714D01*
X119024400Y-54032165D01*
X119024400Y-49063336D01*
X120945336Y-47142400D01*
X121404027Y-47142400D01*
X121411384Y-47153410D01*
X121502590Y-47244616D01*
X121609836Y-47316276D01*
X121729002Y-47365636D01*
X121855508Y-47390800D01*
X121984492Y-47390800D01*
X122110998Y-47365636D01*
X122230164Y-47316276D01*
X122337410Y-47244616D01*
X122428616Y-47153410D01*
X122500276Y-47046164D01*
X122549636Y-46926998D01*
X122574800Y-46800492D01*
X122574800Y-46671508D01*
X122549636Y-46545002D01*
X122500276Y-46425836D01*
X122428616Y-46318590D01*
X122337410Y-46227384D01*
X122230164Y-46155724D01*
X122110998Y-46106364D01*
X121984492Y-46081200D01*
X121855508Y-46081200D01*
X121729002Y-46106364D01*
X121609836Y-46155724D01*
X121502590Y-46227384D01*
X121411384Y-46318590D01*
X121404027Y-46329600D01*
X120796952Y-46329600D01*
X120776999Y-46327635D01*
X120757046Y-46329600D01*
X120757040Y-46329600D01*
X120705335Y-46334693D01*
X120697331Y-46335481D01*
X120620725Y-46358719D01*
X120550124Y-46396456D01*
X120488242Y-46447242D01*
X120475518Y-46462746D01*
X118344741Y-48593523D01*
X118329243Y-48606242D01*
X118316524Y-48621740D01*
X118316518Y-48621746D01*
X118295549Y-48647298D01*
X118278457Y-48668124D01*
X118275245Y-48674134D01*
X118240719Y-48738726D01*
X118217481Y-48815332D01*
X118209635Y-48895000D01*
X118211601Y-48914963D01*
X118211600Y-71481047D01*
X118209635Y-71501000D01*
X118211600Y-71520953D01*
X118211600Y-71520959D01*
X118214296Y-71548332D01*
X118217481Y-71580668D01*
X118240067Y-71655123D01*
X118240719Y-71657274D01*
X118278456Y-71727875D01*
X118329242Y-71789758D01*
X118344746Y-71802482D01*
X120370601Y-73828337D01*
X120370600Y-85578047D01*
X120368635Y-85598000D01*
X120370600Y-85617953D01*
X120370600Y-85617959D01*
X120372058Y-85632758D01*
X120376481Y-85677668D01*
X120379794Y-85688590D01*
X120399719Y-85754274D01*
X120437456Y-85824875D01*
X120488242Y-85886758D01*
X120503745Y-85899481D01*
X120632784Y-86028520D01*
X120630200Y-86041508D01*
X120630200Y-86170492D01*
X120655364Y-86296998D01*
X120704724Y-86416164D01*
X120776384Y-86523410D01*
X120867590Y-86614616D01*
X120974836Y-86686276D01*
X121094002Y-86735636D01*
X121220508Y-86760800D01*
X121349492Y-86760800D01*
X121475998Y-86735636D01*
X121595164Y-86686276D01*
X121702410Y-86614616D01*
X121793616Y-86523410D01*
X121865276Y-86416164D01*
X121914636Y-86296998D01*
X121939800Y-86170492D01*
X121939800Y-86041508D01*
X121914636Y-85915002D01*
X121865276Y-85795836D01*
X121793616Y-85688590D01*
X121702410Y-85597384D01*
X121595164Y-85525724D01*
X121475998Y-85476364D01*
X121349492Y-85451200D01*
X121220508Y-85451200D01*
X121207520Y-85453784D01*
X121183400Y-85429664D01*
X121183400Y-74661369D01*
X121212724Y-74732164D01*
X121284384Y-74839410D01*
X121375590Y-74930616D01*
X121482836Y-75002276D01*
X121602002Y-75051636D01*
X121728508Y-75076800D01*
X121857492Y-75076800D01*
X121983998Y-75051636D01*
X122103164Y-75002276D01*
X122210410Y-74930616D01*
X122301616Y-74839410D01*
X122373276Y-74732164D01*
X122422636Y-74612998D01*
X122447800Y-74486492D01*
X122447800Y-74357508D01*
X122445216Y-74344520D01*
X122447254Y-74342482D01*
X122462758Y-74329758D01*
X122513544Y-74267876D01*
X122551281Y-74197275D01*
X122574519Y-74120668D01*
X122580400Y-74060960D01*
X122580400Y-74060954D01*
X122582365Y-74041001D01*
X122580400Y-74021048D01*
X122580400Y-72282953D01*
X122582365Y-72263000D01*
X122580400Y-72243047D01*
X122580400Y-72243040D01*
X122574519Y-72183332D01*
X122566860Y-72158081D01*
X122551281Y-72106725D01*
X122544770Y-72094544D01*
X122513544Y-72036124D01*
X122490778Y-72008384D01*
X122475482Y-71989745D01*
X122475477Y-71989740D01*
X122462758Y-71974242D01*
X122447261Y-71961524D01*
X121752537Y-71266800D01*
X121857492Y-71266800D01*
X121983998Y-71241636D01*
X122103164Y-71192276D01*
X122210410Y-71120616D01*
X122301616Y-71029410D01*
X122373276Y-70922164D01*
X122422636Y-70802998D01*
X122447800Y-70676492D01*
X122447800Y-70547508D01*
X122422636Y-70421002D01*
X122373276Y-70301836D01*
X122301616Y-70194590D01*
X122210410Y-70103384D01*
X122103164Y-70031724D01*
X121983998Y-69982364D01*
X121857492Y-69957200D01*
X121728508Y-69957200D01*
X121715520Y-69959783D01*
X121310400Y-69554664D01*
X121310400Y-68515426D01*
X121375590Y-68580616D01*
X121482836Y-68652276D01*
X121602002Y-68701636D01*
X121728508Y-68726800D01*
X121857492Y-68726800D01*
X121983998Y-68701636D01*
X122103164Y-68652276D01*
X122210410Y-68580616D01*
X122301616Y-68489410D01*
X122373276Y-68382164D01*
X122422636Y-68262998D01*
X122447800Y-68136492D01*
X122447800Y-68007508D01*
X122422636Y-67881002D01*
X122373276Y-67761836D01*
X122301616Y-67654590D01*
X122210410Y-67563384D01*
X122199400Y-67556027D01*
X122199400Y-63668336D01*
X125368254Y-60499482D01*
X125383758Y-60486758D01*
X125434544Y-60424876D01*
X125472281Y-60354275D01*
X125495519Y-60277668D01*
X125501400Y-60217960D01*
X125501400Y-60217954D01*
X125503365Y-60198001D01*
X125501400Y-60178048D01*
X125501400Y-54016336D01*
X126914337Y-52603400D01*
X126978726Y-52603400D01*
X126978726Y-54367000D01*
X126984611Y-54426751D01*
X127002040Y-54484206D01*
X127030342Y-54537157D01*
X127045278Y-54555356D01*
X126955913Y-54664248D01*
X126880439Y-54805450D01*
X126833962Y-54958663D01*
X126822201Y-55078077D01*
X126822200Y-60242327D01*
X122897495Y-64167033D01*
X122866484Y-64192483D01*
X122841034Y-64223494D01*
X122764912Y-64316249D01*
X122689438Y-64457451D01*
X122663377Y-64543365D01*
X122642962Y-64610663D01*
X122642660Y-64613726D01*
X122627268Y-64770000D01*
X122631201Y-64809930D01*
X122631200Y-89361310D01*
X122627276Y-89351836D01*
X122555616Y-89244590D01*
X122464410Y-89153384D01*
X122357164Y-89081724D01*
X122237998Y-89032364D01*
X122111492Y-89007200D01*
X121982508Y-89007200D01*
X121856002Y-89032364D01*
X121736836Y-89081724D01*
X121629590Y-89153384D01*
X121538384Y-89244590D01*
X121466724Y-89351836D01*
X121453981Y-89382600D01*
X120141318Y-89382600D01*
X120071164Y-89335724D01*
X119951998Y-89286364D01*
X119825492Y-89261200D01*
X119696508Y-89261200D01*
X119570002Y-89286364D01*
X119450836Y-89335724D01*
X119343590Y-89407384D01*
X119252384Y-89498590D01*
X119180724Y-89605836D01*
X119131364Y-89725002D01*
X119106200Y-89851508D01*
X119106200Y-89980492D01*
X119131364Y-90106998D01*
X119180724Y-90226164D01*
X119252384Y-90333410D01*
X119343590Y-90424616D01*
X119450836Y-90496276D01*
X119570002Y-90545636D01*
X119696508Y-90570800D01*
X119825492Y-90570800D01*
X119951998Y-90545636D01*
X120071164Y-90496276D01*
X120178410Y-90424616D01*
X120269616Y-90333410D01*
X120341276Y-90226164D01*
X120354019Y-90195400D01*
X121666682Y-90195400D01*
X121736836Y-90242276D01*
X121856002Y-90291636D01*
X121982508Y-90316800D01*
X122111492Y-90316800D01*
X122237998Y-90291636D01*
X122357164Y-90242276D01*
X122464410Y-90170616D01*
X122555616Y-90079410D01*
X122627276Y-89972164D01*
X122631200Y-89962690D01*
X122631200Y-95591080D01*
X122627268Y-95631000D01*
X122631200Y-95670920D01*
X122631200Y-95670922D01*
X122642961Y-95790336D01*
X122689438Y-95943549D01*
X122764912Y-96084751D01*
X122866483Y-96208517D01*
X122897500Y-96233972D01*
X124365028Y-97701500D01*
X124390483Y-97732517D01*
X124455805Y-97786125D01*
X124514247Y-97834088D01*
X124589721Y-97874429D01*
X124655450Y-97909562D01*
X124808663Y-97956039D01*
X124928077Y-97967800D01*
X124928079Y-97967800D01*
X124967999Y-97971732D01*
X125007920Y-97967800D01*
X127595077Y-97967800D01*
X127606009Y-97968877D01*
X128062921Y-98425789D01*
X128000681Y-98451569D01*
X127904159Y-98680028D01*
X128651000Y-99426869D01*
X129348069Y-98729800D01*
X130054433Y-98729800D01*
X130036342Y-98751843D01*
X130008040Y-98804794D01*
X129990611Y-98862249D01*
X129984726Y-98922000D01*
X129984726Y-99156173D01*
X129792972Y-99075159D01*
X129046131Y-99822000D01*
X129792972Y-100568841D01*
X129984726Y-100487827D01*
X129984726Y-100722000D01*
X129990611Y-100781751D01*
X130008040Y-100839206D01*
X130036342Y-100892157D01*
X130074432Y-100938568D01*
X130120843Y-100976658D01*
X130173794Y-101004960D01*
X130231249Y-101022389D01*
X130291000Y-101028274D01*
X132091000Y-101028274D01*
X132150751Y-101022389D01*
X132208206Y-101004960D01*
X132261157Y-100976658D01*
X132307568Y-100938568D01*
X132345658Y-100892157D01*
X132373960Y-100839206D01*
X132391389Y-100781751D01*
X132397274Y-100722000D01*
X132397274Y-99077141D01*
X133904887Y-100584755D01*
X133963726Y-100633043D01*
X133963726Y-101295200D01*
X128982314Y-101295200D01*
X129160197Y-101250885D01*
X129301319Y-101192431D01*
X129397841Y-100963972D01*
X128651000Y-100217131D01*
X127904159Y-100963972D01*
X128000681Y-101192431D01*
X128280535Y-101292969D01*
X128295443Y-101295200D01*
X118775545Y-101295200D01*
X118908499Y-101096221D01*
X119030437Y-100801837D01*
X119092600Y-100489320D01*
X119092600Y-100170680D01*
X119030437Y-99858163D01*
X118983823Y-99745625D01*
X127136021Y-99745625D01*
X127150231Y-100042651D01*
X127222115Y-100331197D01*
X127280569Y-100472319D01*
X127509028Y-100568841D01*
X128255869Y-99822000D01*
X127509028Y-99075159D01*
X127280569Y-99171681D01*
X127180031Y-99451535D01*
X127136021Y-99745625D01*
X118983823Y-99745625D01*
X118908499Y-99563779D01*
X118731472Y-99298840D01*
X118506160Y-99073528D01*
X118241221Y-98896501D01*
X117946837Y-98774563D01*
X117634320Y-98712400D01*
X117315680Y-98712400D01*
X117003163Y-98774563D01*
X116708779Y-98896501D01*
X116443840Y-99073528D01*
X116218528Y-99298840D01*
X116041501Y-99563779D01*
X116001800Y-99659626D01*
X116001800Y-94652885D01*
X120380200Y-94652885D01*
X120380200Y-94831115D01*
X120414971Y-95005920D01*
X120483177Y-95170584D01*
X120582196Y-95318776D01*
X120708224Y-95444804D01*
X120856416Y-95543823D01*
X121021080Y-95612029D01*
X121195885Y-95646800D01*
X121374115Y-95646800D01*
X121548920Y-95612029D01*
X121713584Y-95543823D01*
X121861776Y-95444804D01*
X121987804Y-95318776D01*
X122086823Y-95170584D01*
X122155029Y-95005920D01*
X122189800Y-94831115D01*
X122189800Y-94652885D01*
X122155029Y-94478080D01*
X122086823Y-94313416D01*
X121987804Y-94165224D01*
X121861776Y-94039196D01*
X121713584Y-93940177D01*
X121548920Y-93871971D01*
X121374115Y-93837200D01*
X121195885Y-93837200D01*
X121021080Y-93871971D01*
X120856416Y-93940177D01*
X120708224Y-94039196D01*
X120582196Y-94165224D01*
X120483177Y-94313416D01*
X120414971Y-94478080D01*
X120380200Y-94652885D01*
X116001800Y-94652885D01*
X116001800Y-44485374D01*
X116041501Y-44581221D01*
X116218528Y-44846160D01*
X116443840Y-45071472D01*
X116708779Y-45248499D01*
X117003163Y-45370437D01*
X117315680Y-45432600D01*
X117634320Y-45432600D01*
X117946837Y-45370437D01*
X118241221Y-45248499D01*
X118506160Y-45071472D01*
X118731472Y-44846160D01*
X118908499Y-44581221D01*
X119030437Y-44286837D01*
X119092600Y-43974320D01*
X119092600Y-43655680D01*
X119030437Y-43343163D01*
X118908499Y-43048779D01*
X118731472Y-42783840D01*
X118506160Y-42558528D01*
X118371873Y-42468800D01*
X126568201Y-42468800D01*
X126568200Y-48111790D01*
G36*
X133352040Y-95124206D02*
G01*
X133380342Y-95177157D01*
X133418432Y-95223568D01*
X133464843Y-95261658D01*
X133517794Y-95289960D01*
X133575249Y-95307389D01*
X133635000Y-95313274D01*
X133684619Y-95313274D01*
X133683827Y-95315187D01*
X133660400Y-95432960D01*
X133660400Y-95961200D01*
X133812800Y-96113600D01*
X134445000Y-96113600D01*
X134445000Y-96093600D01*
X134795000Y-96093600D01*
X134795000Y-96113600D01*
X134919400Y-96113600D01*
X134919400Y-96672400D01*
X134795000Y-96672400D01*
X134795000Y-96692400D01*
X134445000Y-96692400D01*
X134445000Y-96672400D01*
X133812800Y-96672400D01*
X133754468Y-96730732D01*
X132635482Y-95611746D01*
X132622758Y-95596242D01*
X132560876Y-95545456D01*
X132490275Y-95507719D01*
X132413668Y-95484481D01*
X132353960Y-95478600D01*
X132353953Y-95478600D01*
X132334000Y-95476635D01*
X132314047Y-95478600D01*
X130817973Y-95478600D01*
X130810616Y-95467590D01*
X130719410Y-95376384D01*
X130612164Y-95304724D01*
X130604289Y-95301462D01*
X130642206Y-95289960D01*
X130695157Y-95261658D01*
X130741568Y-95223568D01*
X130779658Y-95177157D01*
X130807960Y-95124206D01*
X130810000Y-95117481D01*
X130812040Y-95124206D01*
X130840342Y-95177157D01*
X130878432Y-95223568D01*
X130924843Y-95261658D01*
X130977794Y-95289960D01*
X131035249Y-95307389D01*
X131095000Y-95313274D01*
X131795000Y-95313274D01*
X131854751Y-95307389D01*
X131912206Y-95289960D01*
X131965157Y-95261658D01*
X132011568Y-95223568D01*
X132049658Y-95177157D01*
X132077960Y-95124206D01*
X132080000Y-95117481D01*
X132082040Y-95124206D01*
X132110342Y-95177157D01*
X132148432Y-95223568D01*
X132194843Y-95261658D01*
X132247794Y-95289960D01*
X132305249Y-95307389D01*
X132365000Y-95313274D01*
X133065000Y-95313274D01*
X133124751Y-95307389D01*
X133182206Y-95289960D01*
X133235157Y-95261658D01*
X133281568Y-95223568D01*
X133319658Y-95177157D01*
X133347960Y-95124206D01*
X133350000Y-95117481D01*
X133352040Y-95124206D01*
X133352040Y-95124206D01*
G37*
X133352040Y-95124206D02*
X133380342Y-95177157D01*
X133418432Y-95223568D01*
X133464843Y-95261658D01*
X133517794Y-95289960D01*
X133575249Y-95307389D01*
X133635000Y-95313274D01*
X133684619Y-95313274D01*
X133683827Y-95315187D01*
X133660400Y-95432960D01*
X133660400Y-95961200D01*
X133812800Y-96113600D01*
X134445000Y-96113600D01*
X134445000Y-96093600D01*
X134795000Y-96093600D01*
X134795000Y-96113600D01*
X134919400Y-96113600D01*
X134919400Y-96672400D01*
X134795000Y-96672400D01*
X134795000Y-96692400D01*
X134445000Y-96692400D01*
X134445000Y-96672400D01*
X133812800Y-96672400D01*
X133754468Y-96730732D01*
X132635482Y-95611746D01*
X132622758Y-95596242D01*
X132560876Y-95545456D01*
X132490275Y-95507719D01*
X132413668Y-95484481D01*
X132353960Y-95478600D01*
X132353953Y-95478600D01*
X132334000Y-95476635D01*
X132314047Y-95478600D01*
X130817973Y-95478600D01*
X130810616Y-95467590D01*
X130719410Y-95376384D01*
X130612164Y-95304724D01*
X130604289Y-95301462D01*
X130642206Y-95289960D01*
X130695157Y-95261658D01*
X130741568Y-95223568D01*
X130779658Y-95177157D01*
X130807960Y-95124206D01*
X130810000Y-95117481D01*
X130812040Y-95124206D01*
X130840342Y-95177157D01*
X130878432Y-95223568D01*
X130924843Y-95261658D01*
X130977794Y-95289960D01*
X131035249Y-95307389D01*
X131095000Y-95313274D01*
X131795000Y-95313274D01*
X131854751Y-95307389D01*
X131912206Y-95289960D01*
X131965157Y-95261658D01*
X132011568Y-95223568D01*
X132049658Y-95177157D01*
X132077960Y-95124206D01*
X132080000Y-95117481D01*
X132082040Y-95124206D01*
X132110342Y-95177157D01*
X132148432Y-95223568D01*
X132194843Y-95261658D01*
X132247794Y-95289960D01*
X132305249Y-95307389D01*
X132365000Y-95313274D01*
X133065000Y-95313274D01*
X133124751Y-95307389D01*
X133182206Y-95289960D01*
X133235157Y-95261658D01*
X133281568Y-95223568D01*
X133319658Y-95177157D01*
X133347960Y-95124206D01*
X133350000Y-95117481D01*
X133352040Y-95124206D01*
G36*
X156604528Y-48752840D02*
G01*
X156427501Y-49017779D01*
X156305563Y-49312163D01*
X156243400Y-49624680D01*
X156243400Y-49943320D01*
X156305563Y-50255837D01*
X156427501Y-50550221D01*
X156604528Y-50815160D01*
X156829840Y-51040472D01*
X157094779Y-51217499D01*
X157389163Y-51339437D01*
X157701680Y-51401600D01*
X158020320Y-51401600D01*
X158332837Y-51339437D01*
X158627221Y-51217499D01*
X158892160Y-51040472D01*
X159080201Y-50852431D01*
X159080200Y-95186726D01*
X158400000Y-95186726D01*
X158340249Y-95192611D01*
X158282794Y-95210040D01*
X158229843Y-95238342D01*
X158183432Y-95276432D01*
X158145342Y-95322843D01*
X158117040Y-95375794D01*
X158115000Y-95382519D01*
X158112960Y-95375794D01*
X158084658Y-95322843D01*
X158046568Y-95276432D01*
X158000157Y-95238342D01*
X157947206Y-95210040D01*
X157889751Y-95192611D01*
X157830000Y-95186726D01*
X157130000Y-95186726D01*
X157070249Y-95192611D01*
X157012794Y-95210040D01*
X156959843Y-95238342D01*
X156913432Y-95276432D01*
X156875342Y-95322843D01*
X156847040Y-95375794D01*
X156845000Y-95382519D01*
X156842960Y-95375794D01*
X156814658Y-95322843D01*
X156776568Y-95276432D01*
X156730157Y-95238342D01*
X156677206Y-95210040D01*
X156619751Y-95192611D01*
X156560000Y-95186726D01*
X155860000Y-95186726D01*
X155800249Y-95192611D01*
X155742794Y-95210040D01*
X155689843Y-95238342D01*
X155643432Y-95276432D01*
X155605342Y-95322843D01*
X155577040Y-95375794D01*
X155575000Y-95382519D01*
X155572960Y-95375794D01*
X155544658Y-95322843D01*
X155506568Y-95276432D01*
X155460157Y-95238342D01*
X155407206Y-95210040D01*
X155349751Y-95192611D01*
X155290000Y-95186726D01*
X154590000Y-95186726D01*
X154530249Y-95192611D01*
X154472794Y-95210040D01*
X154419843Y-95238342D01*
X154373432Y-95276432D01*
X154335342Y-95322843D01*
X154307040Y-95375794D01*
X154305000Y-95382519D01*
X154302960Y-95375794D01*
X154274658Y-95322843D01*
X154236568Y-95276432D01*
X154190157Y-95238342D01*
X154137206Y-95210040D01*
X154079751Y-95192611D01*
X154020000Y-95186726D01*
X153320000Y-95186726D01*
X153260249Y-95192611D01*
X153202794Y-95210040D01*
X153149843Y-95238342D01*
X153103432Y-95276432D01*
X153065342Y-95322843D01*
X153037040Y-95375794D01*
X153035000Y-95382519D01*
X153032960Y-95375794D01*
X153004658Y-95322843D01*
X152966568Y-95276432D01*
X152920157Y-95238342D01*
X152867206Y-95210040D01*
X152809751Y-95192611D01*
X152750000Y-95186726D01*
X152361805Y-95186726D01*
X152369658Y-95177157D01*
X152397960Y-95124206D01*
X152415389Y-95066751D01*
X152421274Y-95007000D01*
X152421274Y-94781159D01*
X152470836Y-94814276D01*
X152590002Y-94863636D01*
X152716508Y-94888800D01*
X152845492Y-94888800D01*
X152971998Y-94863636D01*
X153091164Y-94814276D01*
X153198410Y-94742616D01*
X153289616Y-94651410D01*
X153339800Y-94576305D01*
X153389984Y-94651410D01*
X153481190Y-94742616D01*
X153588436Y-94814276D01*
X153707602Y-94863636D01*
X153834108Y-94888800D01*
X153963092Y-94888800D01*
X154089598Y-94863636D01*
X154208764Y-94814276D01*
X154316010Y-94742616D01*
X154407216Y-94651410D01*
X154478876Y-94544164D01*
X154528236Y-94424998D01*
X154553400Y-94298492D01*
X154553400Y-94169508D01*
X154533960Y-94071776D01*
X158896261Y-89709476D01*
X158911758Y-89696758D01*
X158924477Y-89681260D01*
X158924482Y-89681255D01*
X158941717Y-89660254D01*
X158962544Y-89634876D01*
X159000281Y-89564275D01*
X159023519Y-89487668D01*
X159029400Y-89427960D01*
X159029400Y-89427953D01*
X159031365Y-89408000D01*
X159029400Y-89388047D01*
X159029400Y-84982952D01*
X159031365Y-84962999D01*
X159029400Y-84943046D01*
X159029400Y-84943040D01*
X159023519Y-84883332D01*
X159018971Y-84868337D01*
X159000933Y-84808875D01*
X159000281Y-84806725D01*
X158962544Y-84736124D01*
X158911758Y-84674242D01*
X158896254Y-84661518D01*
X156511482Y-82276746D01*
X156498758Y-82261242D01*
X156436876Y-82210456D01*
X156366275Y-82172719D01*
X156289668Y-82149481D01*
X156229960Y-82143600D01*
X156229953Y-82143600D01*
X156210000Y-82141635D01*
X156190047Y-82143600D01*
X154143136Y-82143600D01*
X156102255Y-80184481D01*
X156117758Y-80171758D01*
X156168544Y-80109876D01*
X156206281Y-80039275D01*
X156229519Y-79962668D01*
X156235400Y-79902960D01*
X156235400Y-79902954D01*
X156237365Y-79883001D01*
X156235400Y-79863048D01*
X156235400Y-65932953D01*
X156237365Y-65913000D01*
X156235400Y-65893047D01*
X156235400Y-65893040D01*
X156229519Y-65833332D01*
X156223390Y-65813125D01*
X156206281Y-65756725D01*
X156199770Y-65744544D01*
X156168544Y-65686124D01*
X156147717Y-65660746D01*
X156130482Y-65639745D01*
X156130477Y-65639740D01*
X156117758Y-65624242D01*
X156102260Y-65611523D01*
X153082481Y-62591745D01*
X153069758Y-62576242D01*
X153007876Y-62525456D01*
X152937275Y-62487719D01*
X152860668Y-62464481D01*
X152800960Y-62458600D01*
X152800953Y-62458600D01*
X152781000Y-62456635D01*
X152761047Y-62458600D01*
X136693336Y-62458600D01*
X135407400Y-61172664D01*
X135407400Y-56175336D01*
X136539679Y-55043057D01*
X136634544Y-55033714D01*
X136739878Y-55001761D01*
X136836954Y-54949873D01*
X136922043Y-54880043D01*
X136991873Y-54794954D01*
X137043761Y-54697878D01*
X137074084Y-54597917D01*
X137091568Y-54583568D01*
X137129658Y-54537157D01*
X137157960Y-54484206D01*
X137160000Y-54477481D01*
X137162040Y-54484206D01*
X137190342Y-54537157D01*
X137228432Y-54583568D01*
X137245917Y-54597918D01*
X137276240Y-54697878D01*
X137328128Y-54794954D01*
X137397958Y-54880043D01*
X137483047Y-54949873D01*
X137580123Y-55001761D01*
X137685457Y-55033714D01*
X137780321Y-55043057D01*
X138636518Y-55899254D01*
X138649242Y-55914758D01*
X138711124Y-55965544D01*
X138781725Y-56003281D01*
X138840502Y-56021110D01*
X138858331Y-56026519D01*
X138866335Y-56027307D01*
X138918040Y-56032400D01*
X138918046Y-56032400D01*
X138937999Y-56034365D01*
X138957952Y-56032400D01*
X140801664Y-56032400D01*
X141325601Y-56556338D01*
X141325600Y-57505560D01*
X141263823Y-57356416D01*
X141164804Y-57208224D01*
X141038776Y-57082196D01*
X140890584Y-56983177D01*
X140725920Y-56914971D01*
X140551115Y-56880200D01*
X140372885Y-56880200D01*
X140198080Y-56914971D01*
X140033416Y-56983177D01*
X139885224Y-57082196D01*
X139759196Y-57208224D01*
X139660177Y-57356416D01*
X139591971Y-57521080D01*
X139557200Y-57695885D01*
X139557200Y-57874115D01*
X139591971Y-58048920D01*
X139660177Y-58213584D01*
X139759196Y-58361776D01*
X139885224Y-58487804D01*
X140033416Y-58586823D01*
X140198080Y-58655029D01*
X140372885Y-58689800D01*
X140551115Y-58689800D01*
X140725920Y-58655029D01*
X140890584Y-58586823D01*
X141038776Y-58487804D01*
X141092445Y-58434135D01*
X141102364Y-58483998D01*
X141151724Y-58603164D01*
X141223384Y-58710410D01*
X141314590Y-58801616D01*
X141421836Y-58873276D01*
X141541002Y-58922636D01*
X141667508Y-58947800D01*
X141796492Y-58947800D01*
X141922998Y-58922636D01*
X142042164Y-58873276D01*
X142149410Y-58801616D01*
X142240616Y-58710410D01*
X142312276Y-58603164D01*
X142361636Y-58483998D01*
X142386800Y-58357492D01*
X142386800Y-58228508D01*
X142361636Y-58102002D01*
X142312276Y-57982836D01*
X142240616Y-57875590D01*
X142149410Y-57784384D01*
X142138400Y-57777027D01*
X142138400Y-57720426D01*
X142203590Y-57785616D01*
X142310836Y-57857276D01*
X142430002Y-57906636D01*
X142556508Y-57931800D01*
X142685492Y-57931800D01*
X142811998Y-57906636D01*
X142931164Y-57857276D01*
X143038410Y-57785616D01*
X143103600Y-57720426D01*
X143103600Y-57997663D01*
X141309664Y-59791600D01*
X138310973Y-59791600D01*
X138303616Y-59780590D01*
X138212410Y-59689384D01*
X138105164Y-59617724D01*
X137985998Y-59568364D01*
X137859492Y-59543200D01*
X137730508Y-59543200D01*
X137604002Y-59568364D01*
X137484836Y-59617724D01*
X137377590Y-59689384D01*
X137286384Y-59780590D01*
X137214724Y-59887836D01*
X137165364Y-60007002D01*
X137140200Y-60133508D01*
X137140200Y-60262492D01*
X137165364Y-60388998D01*
X137214724Y-60508164D01*
X137286384Y-60615410D01*
X137377590Y-60706616D01*
X137471702Y-60769500D01*
X137377590Y-60832384D01*
X137286384Y-60923590D01*
X137214724Y-61030836D01*
X137165364Y-61150002D01*
X137140200Y-61276508D01*
X137140200Y-61405492D01*
X137165364Y-61531998D01*
X137214724Y-61651164D01*
X137286384Y-61758410D01*
X137377590Y-61849616D01*
X137484836Y-61921276D01*
X137604002Y-61970636D01*
X137730508Y-61995800D01*
X137859492Y-61995800D01*
X137985998Y-61970636D01*
X138105164Y-61921276D01*
X138212410Y-61849616D01*
X138303616Y-61758410D01*
X138375276Y-61651164D01*
X138424636Y-61531998D01*
X138449800Y-61405492D01*
X138449800Y-61366400D01*
X141712047Y-61366400D01*
X141732000Y-61368365D01*
X141751953Y-61366400D01*
X141751960Y-61366400D01*
X141811668Y-61360519D01*
X141888275Y-61337281D01*
X141958876Y-61299544D01*
X142020758Y-61248758D01*
X142033482Y-61233254D01*
X144418255Y-58848481D01*
X144433758Y-58835758D01*
X144484544Y-58773876D01*
X144522281Y-58703275D01*
X144545519Y-58626668D01*
X144551400Y-58566960D01*
X144551400Y-58566954D01*
X144553365Y-58547001D01*
X144551400Y-58527048D01*
X144551400Y-54995641D01*
X144611873Y-54921954D01*
X144663761Y-54824878D01*
X144695714Y-54719544D01*
X144703800Y-54637444D01*
X144703800Y-54589943D01*
X144711568Y-54583568D01*
X144749658Y-54537157D01*
X144777960Y-54484206D01*
X144780000Y-54477481D01*
X144782040Y-54484206D01*
X144810342Y-54537157D01*
X144848432Y-54583568D01*
X144894843Y-54621658D01*
X144947794Y-54649960D01*
X145005249Y-54667389D01*
X145065000Y-54673274D01*
X145765000Y-54673274D01*
X145824751Y-54667389D01*
X145882206Y-54649960D01*
X145935157Y-54621658D01*
X145981568Y-54583568D01*
X146019658Y-54537157D01*
X146047960Y-54484206D01*
X146050000Y-54477481D01*
X146052040Y-54484206D01*
X146080342Y-54537157D01*
X146118432Y-54583568D01*
X146126201Y-54589944D01*
X146126201Y-54594062D01*
X145781145Y-54939119D01*
X145705410Y-54863384D01*
X145598164Y-54791724D01*
X145478998Y-54742364D01*
X145352492Y-54717200D01*
X145223508Y-54717200D01*
X145097002Y-54742364D01*
X144977836Y-54791724D01*
X144870590Y-54863384D01*
X144779384Y-54954590D01*
X144707724Y-55061836D01*
X144658364Y-55181002D01*
X144633200Y-55307508D01*
X144633200Y-55436492D01*
X144658364Y-55562998D01*
X144707724Y-55682164D01*
X144779384Y-55789410D01*
X144870590Y-55880616D01*
X144977836Y-55952276D01*
X145097002Y-56001636D01*
X145223508Y-56026800D01*
X145352492Y-56026800D01*
X145478998Y-56001636D01*
X145598164Y-55952276D01*
X145705410Y-55880616D01*
X145796616Y-55789410D01*
X145803973Y-55778400D01*
X145903047Y-55778400D01*
X145923000Y-55780365D01*
X145942953Y-55778400D01*
X145942960Y-55778400D01*
X146002668Y-55772519D01*
X146079275Y-55749281D01*
X146149876Y-55711544D01*
X146211758Y-55660758D01*
X146224482Y-55645254D01*
X146699679Y-55170057D01*
X146794544Y-55160714D01*
X146899878Y-55128761D01*
X146996954Y-55076873D01*
X147082043Y-55007043D01*
X147151873Y-54921954D01*
X147203761Y-54824878D01*
X147235714Y-54719544D01*
X147243800Y-54637444D01*
X147243800Y-54589943D01*
X147251568Y-54583568D01*
X147289658Y-54537157D01*
X147317960Y-54484206D01*
X147320000Y-54477481D01*
X147322040Y-54484206D01*
X147350342Y-54537157D01*
X147388432Y-54583568D01*
X147395527Y-54589391D01*
X147393497Y-54610000D01*
X147396200Y-54637442D01*
X147396200Y-54637443D01*
X147404286Y-54719543D01*
X147436239Y-54824877D01*
X147488127Y-54921954D01*
X147557957Y-55007043D01*
X147572140Y-55018683D01*
X147579364Y-55054998D01*
X147628724Y-55174164D01*
X147700384Y-55281410D01*
X147791590Y-55372616D01*
X147898836Y-55444276D01*
X148018002Y-55493636D01*
X148144508Y-55518800D01*
X148273492Y-55518800D01*
X148399998Y-55493636D01*
X148519164Y-55444276D01*
X148626410Y-55372616D01*
X148717616Y-55281410D01*
X148789276Y-55174164D01*
X148838636Y-55054998D01*
X148845338Y-55021306D01*
X148913047Y-55076873D01*
X149010123Y-55128761D01*
X149115457Y-55160714D01*
X149210321Y-55170057D01*
X149969784Y-55929520D01*
X149967200Y-55942508D01*
X149967200Y-56071492D01*
X149992364Y-56197998D01*
X150041724Y-56317164D01*
X150072084Y-56362600D01*
X147212952Y-56362600D01*
X147192999Y-56360635D01*
X147173046Y-56362600D01*
X147173040Y-56362600D01*
X147121335Y-56367693D01*
X147113331Y-56368481D01*
X147090093Y-56375530D01*
X147036725Y-56391719D01*
X146966124Y-56429456D01*
X146904242Y-56480242D01*
X146891518Y-56495746D01*
X146762480Y-56624784D01*
X146749492Y-56622200D01*
X146620508Y-56622200D01*
X146494002Y-56647364D01*
X146374836Y-56696724D01*
X146267590Y-56768384D01*
X146176384Y-56859590D01*
X146104724Y-56966836D01*
X146055364Y-57086002D01*
X146030200Y-57212508D01*
X146030200Y-57341492D01*
X146055364Y-57467998D01*
X146104724Y-57587164D01*
X146176384Y-57694410D01*
X146267590Y-57785616D01*
X146374836Y-57857276D01*
X146494002Y-57906636D01*
X146620508Y-57931800D01*
X146749492Y-57931800D01*
X146875998Y-57906636D01*
X146995164Y-57857276D01*
X147102410Y-57785616D01*
X147177200Y-57710826D01*
X147177200Y-57874115D01*
X147211971Y-58048920D01*
X147280177Y-58213584D01*
X147379196Y-58361776D01*
X147505224Y-58487804D01*
X147653416Y-58586823D01*
X147818080Y-58655029D01*
X147992885Y-58689800D01*
X148171115Y-58689800D01*
X148345920Y-58655029D01*
X148510584Y-58586823D01*
X148658776Y-58487804D01*
X148784804Y-58361776D01*
X148883823Y-58213584D01*
X148952029Y-58048920D01*
X148986800Y-57874115D01*
X148986800Y-57695885D01*
X148952029Y-57521080D01*
X148883823Y-57356416D01*
X148784804Y-57208224D01*
X148751980Y-57175400D01*
X151237047Y-57175400D01*
X151257000Y-57177365D01*
X151276953Y-57175400D01*
X151276960Y-57175400D01*
X151336668Y-57169519D01*
X151413275Y-57146281D01*
X151483876Y-57108544D01*
X151494155Y-57100108D01*
X148929664Y-59664600D01*
X148470973Y-59664600D01*
X148463616Y-59653590D01*
X148372410Y-59562384D01*
X148265164Y-59490724D01*
X148145998Y-59441364D01*
X148019492Y-59416200D01*
X147890508Y-59416200D01*
X147764002Y-59441364D01*
X147644836Y-59490724D01*
X147537590Y-59562384D01*
X147446384Y-59653590D01*
X147374724Y-59760836D01*
X147325364Y-59880002D01*
X147300200Y-60006508D01*
X147300200Y-60135492D01*
X147325364Y-60261998D01*
X147374724Y-60381164D01*
X147446384Y-60488410D01*
X147537590Y-60579616D01*
X147644836Y-60651276D01*
X147715631Y-60680600D01*
X145930973Y-60680600D01*
X145923616Y-60669590D01*
X145832410Y-60578384D01*
X145725164Y-60506724D01*
X145605998Y-60457364D01*
X145479492Y-60432200D01*
X145350508Y-60432200D01*
X145224002Y-60457364D01*
X145104836Y-60506724D01*
X144997590Y-60578384D01*
X144906384Y-60669590D01*
X144834724Y-60776836D01*
X144785364Y-60896002D01*
X144760200Y-61022508D01*
X144760200Y-61151492D01*
X144785364Y-61277998D01*
X144834724Y-61397164D01*
X144906384Y-61504410D01*
X144997590Y-61595616D01*
X145104836Y-61667276D01*
X145224002Y-61716636D01*
X145350508Y-61741800D01*
X145479492Y-61741800D01*
X145605998Y-61716636D01*
X145725164Y-61667276D01*
X145832410Y-61595616D01*
X145923616Y-61504410D01*
X145930973Y-61493400D01*
X149205047Y-61493400D01*
X149225000Y-61495365D01*
X149244953Y-61493400D01*
X149244960Y-61493400D01*
X149304668Y-61487519D01*
X149381275Y-61464281D01*
X149451876Y-61426544D01*
X149513758Y-61375758D01*
X149526482Y-61360254D01*
X150917336Y-59969400D01*
X152380047Y-59969400D01*
X152400000Y-59971365D01*
X152419953Y-59969400D01*
X152419960Y-59969400D01*
X152479668Y-59963519D01*
X152556275Y-59940281D01*
X152626876Y-59902544D01*
X152688758Y-59851758D01*
X152701482Y-59836254D01*
X153816255Y-58721481D01*
X153831758Y-58708758D01*
X153882544Y-58646876D01*
X153920281Y-58576275D01*
X153943519Y-58499668D01*
X153949400Y-58439960D01*
X153949400Y-58439954D01*
X153951365Y-58420001D01*
X153949400Y-58400048D01*
X153949400Y-52089952D01*
X153951365Y-52069999D01*
X153949400Y-52050046D01*
X153949400Y-52050040D01*
X153943519Y-51990332D01*
X153920281Y-51913725D01*
X153882544Y-51843124D01*
X153831758Y-51781242D01*
X153816254Y-51768518D01*
X152447482Y-50399746D01*
X152434758Y-50384242D01*
X152414030Y-50367231D01*
X152415389Y-50362751D01*
X152421274Y-50303000D01*
X152421274Y-50269352D01*
X152463002Y-50286636D01*
X152589508Y-50311800D01*
X152718492Y-50311800D01*
X152844998Y-50286636D01*
X152964164Y-50237276D01*
X153071410Y-50165616D01*
X153162616Y-50074410D01*
X153234276Y-49967164D01*
X153283636Y-49847998D01*
X153308800Y-49721492D01*
X153308800Y-49592508D01*
X153283636Y-49466002D01*
X153234276Y-49346836D01*
X153162616Y-49239590D01*
X153071410Y-49148384D01*
X152964164Y-49076724D01*
X152844998Y-49027364D01*
X152718492Y-49002200D01*
X152589508Y-49002200D01*
X152463002Y-49027364D01*
X152421274Y-49044648D01*
X152421274Y-48564800D01*
X156792568Y-48564800D01*
X156604528Y-48752840D01*
X156604528Y-48752840D01*
G37*
X156604528Y-48752840D02*
X156427501Y-49017779D01*
X156305563Y-49312163D01*
X156243400Y-49624680D01*
X156243400Y-49943320D01*
X156305563Y-50255837D01*
X156427501Y-50550221D01*
X156604528Y-50815160D01*
X156829840Y-51040472D01*
X157094779Y-51217499D01*
X157389163Y-51339437D01*
X157701680Y-51401600D01*
X158020320Y-51401600D01*
X158332837Y-51339437D01*
X158627221Y-51217499D01*
X158892160Y-51040472D01*
X159080201Y-50852431D01*
X159080200Y-95186726D01*
X158400000Y-95186726D01*
X158340249Y-95192611D01*
X158282794Y-95210040D01*
X158229843Y-95238342D01*
X158183432Y-95276432D01*
X158145342Y-95322843D01*
X158117040Y-95375794D01*
X158115000Y-95382519D01*
X158112960Y-95375794D01*
X158084658Y-95322843D01*
X158046568Y-95276432D01*
X158000157Y-95238342D01*
X157947206Y-95210040D01*
X157889751Y-95192611D01*
X157830000Y-95186726D01*
X157130000Y-95186726D01*
X157070249Y-95192611D01*
X157012794Y-95210040D01*
X156959843Y-95238342D01*
X156913432Y-95276432D01*
X156875342Y-95322843D01*
X156847040Y-95375794D01*
X156845000Y-95382519D01*
X156842960Y-95375794D01*
X156814658Y-95322843D01*
X156776568Y-95276432D01*
X156730157Y-95238342D01*
X156677206Y-95210040D01*
X156619751Y-95192611D01*
X156560000Y-95186726D01*
X155860000Y-95186726D01*
X155800249Y-95192611D01*
X155742794Y-95210040D01*
X155689843Y-95238342D01*
X155643432Y-95276432D01*
X155605342Y-95322843D01*
X155577040Y-95375794D01*
X155575000Y-95382519D01*
X155572960Y-95375794D01*
X155544658Y-95322843D01*
X155506568Y-95276432D01*
X155460157Y-95238342D01*
X155407206Y-95210040D01*
X155349751Y-95192611D01*
X155290000Y-95186726D01*
X154590000Y-95186726D01*
X154530249Y-95192611D01*
X154472794Y-95210040D01*
X154419843Y-95238342D01*
X154373432Y-95276432D01*
X154335342Y-95322843D01*
X154307040Y-95375794D01*
X154305000Y-95382519D01*
X154302960Y-95375794D01*
X154274658Y-95322843D01*
X154236568Y-95276432D01*
X154190157Y-95238342D01*
X154137206Y-95210040D01*
X154079751Y-95192611D01*
X154020000Y-95186726D01*
X153320000Y-95186726D01*
X153260249Y-95192611D01*
X153202794Y-95210040D01*
X153149843Y-95238342D01*
X153103432Y-95276432D01*
X153065342Y-95322843D01*
X153037040Y-95375794D01*
X153035000Y-95382519D01*
X153032960Y-95375794D01*
X153004658Y-95322843D01*
X152966568Y-95276432D01*
X152920157Y-95238342D01*
X152867206Y-95210040D01*
X152809751Y-95192611D01*
X152750000Y-95186726D01*
X152361805Y-95186726D01*
X152369658Y-95177157D01*
X152397960Y-95124206D01*
X152415389Y-95066751D01*
X152421274Y-95007000D01*
X152421274Y-94781159D01*
X152470836Y-94814276D01*
X152590002Y-94863636D01*
X152716508Y-94888800D01*
X152845492Y-94888800D01*
X152971998Y-94863636D01*
X153091164Y-94814276D01*
X153198410Y-94742616D01*
X153289616Y-94651410D01*
X153339800Y-94576305D01*
X153389984Y-94651410D01*
X153481190Y-94742616D01*
X153588436Y-94814276D01*
X153707602Y-94863636D01*
X153834108Y-94888800D01*
X153963092Y-94888800D01*
X154089598Y-94863636D01*
X154208764Y-94814276D01*
X154316010Y-94742616D01*
X154407216Y-94651410D01*
X154478876Y-94544164D01*
X154528236Y-94424998D01*
X154553400Y-94298492D01*
X154553400Y-94169508D01*
X154533960Y-94071776D01*
X158896261Y-89709476D01*
X158911758Y-89696758D01*
X158924477Y-89681260D01*
X158924482Y-89681255D01*
X158941717Y-89660254D01*
X158962544Y-89634876D01*
X159000281Y-89564275D01*
X159023519Y-89487668D01*
X159029400Y-89427960D01*
X159029400Y-89427953D01*
X159031365Y-89408000D01*
X159029400Y-89388047D01*
X159029400Y-84982952D01*
X159031365Y-84962999D01*
X159029400Y-84943046D01*
X159029400Y-84943040D01*
X159023519Y-84883332D01*
X159018971Y-84868337D01*
X159000933Y-84808875D01*
X159000281Y-84806725D01*
X158962544Y-84736124D01*
X158911758Y-84674242D01*
X158896254Y-84661518D01*
X156511482Y-82276746D01*
X156498758Y-82261242D01*
X156436876Y-82210456D01*
X156366275Y-82172719D01*
X156289668Y-82149481D01*
X156229960Y-82143600D01*
X156229953Y-82143600D01*
X156210000Y-82141635D01*
X156190047Y-82143600D01*
X154143136Y-82143600D01*
X156102255Y-80184481D01*
X156117758Y-80171758D01*
X156168544Y-80109876D01*
X156206281Y-80039275D01*
X156229519Y-79962668D01*
X156235400Y-79902960D01*
X156235400Y-79902954D01*
X156237365Y-79883001D01*
X156235400Y-79863048D01*
X156235400Y-65932953D01*
X156237365Y-65913000D01*
X156235400Y-65893047D01*
X156235400Y-65893040D01*
X156229519Y-65833332D01*
X156223390Y-65813125D01*
X156206281Y-65756725D01*
X156199770Y-65744544D01*
X156168544Y-65686124D01*
X156147717Y-65660746D01*
X156130482Y-65639745D01*
X156130477Y-65639740D01*
X156117758Y-65624242D01*
X156102260Y-65611523D01*
X153082481Y-62591745D01*
X153069758Y-62576242D01*
X153007876Y-62525456D01*
X152937275Y-62487719D01*
X152860668Y-62464481D01*
X152800960Y-62458600D01*
X152800953Y-62458600D01*
X152781000Y-62456635D01*
X152761047Y-62458600D01*
X136693336Y-62458600D01*
X135407400Y-61172664D01*
X135407400Y-56175336D01*
X136539679Y-55043057D01*
X136634544Y-55033714D01*
X136739878Y-55001761D01*
X136836954Y-54949873D01*
X136922043Y-54880043D01*
X136991873Y-54794954D01*
X137043761Y-54697878D01*
X137074084Y-54597917D01*
X137091568Y-54583568D01*
X137129658Y-54537157D01*
X137157960Y-54484206D01*
X137160000Y-54477481D01*
X137162040Y-54484206D01*
X137190342Y-54537157D01*
X137228432Y-54583568D01*
X137245917Y-54597918D01*
X137276240Y-54697878D01*
X137328128Y-54794954D01*
X137397958Y-54880043D01*
X137483047Y-54949873D01*
X137580123Y-55001761D01*
X137685457Y-55033714D01*
X137780321Y-55043057D01*
X138636518Y-55899254D01*
X138649242Y-55914758D01*
X138711124Y-55965544D01*
X138781725Y-56003281D01*
X138840502Y-56021110D01*
X138858331Y-56026519D01*
X138866335Y-56027307D01*
X138918040Y-56032400D01*
X138918046Y-56032400D01*
X138937999Y-56034365D01*
X138957952Y-56032400D01*
X140801664Y-56032400D01*
X141325601Y-56556338D01*
X141325600Y-57505560D01*
X141263823Y-57356416D01*
X141164804Y-57208224D01*
X141038776Y-57082196D01*
X140890584Y-56983177D01*
X140725920Y-56914971D01*
X140551115Y-56880200D01*
X140372885Y-56880200D01*
X140198080Y-56914971D01*
X140033416Y-56983177D01*
X139885224Y-57082196D01*
X139759196Y-57208224D01*
X139660177Y-57356416D01*
X139591971Y-57521080D01*
X139557200Y-57695885D01*
X139557200Y-57874115D01*
X139591971Y-58048920D01*
X139660177Y-58213584D01*
X139759196Y-58361776D01*
X139885224Y-58487804D01*
X140033416Y-58586823D01*
X140198080Y-58655029D01*
X140372885Y-58689800D01*
X140551115Y-58689800D01*
X140725920Y-58655029D01*
X140890584Y-58586823D01*
X141038776Y-58487804D01*
X141092445Y-58434135D01*
X141102364Y-58483998D01*
X141151724Y-58603164D01*
X141223384Y-58710410D01*
X141314590Y-58801616D01*
X141421836Y-58873276D01*
X141541002Y-58922636D01*
X141667508Y-58947800D01*
X141796492Y-58947800D01*
X141922998Y-58922636D01*
X142042164Y-58873276D01*
X142149410Y-58801616D01*
X142240616Y-58710410D01*
X142312276Y-58603164D01*
X142361636Y-58483998D01*
X142386800Y-58357492D01*
X142386800Y-58228508D01*
X142361636Y-58102002D01*
X142312276Y-57982836D01*
X142240616Y-57875590D01*
X142149410Y-57784384D01*
X142138400Y-57777027D01*
X142138400Y-57720426D01*
X142203590Y-57785616D01*
X142310836Y-57857276D01*
X142430002Y-57906636D01*
X142556508Y-57931800D01*
X142685492Y-57931800D01*
X142811998Y-57906636D01*
X142931164Y-57857276D01*
X143038410Y-57785616D01*
X143103600Y-57720426D01*
X143103600Y-57997663D01*
X141309664Y-59791600D01*
X138310973Y-59791600D01*
X138303616Y-59780590D01*
X138212410Y-59689384D01*
X138105164Y-59617724D01*
X137985998Y-59568364D01*
X137859492Y-59543200D01*
X137730508Y-59543200D01*
X137604002Y-59568364D01*
X137484836Y-59617724D01*
X137377590Y-59689384D01*
X137286384Y-59780590D01*
X137214724Y-59887836D01*
X137165364Y-60007002D01*
X137140200Y-60133508D01*
X137140200Y-60262492D01*
X137165364Y-60388998D01*
X137214724Y-60508164D01*
X137286384Y-60615410D01*
X137377590Y-60706616D01*
X137471702Y-60769500D01*
X137377590Y-60832384D01*
X137286384Y-60923590D01*
X137214724Y-61030836D01*
X137165364Y-61150002D01*
X137140200Y-61276508D01*
X137140200Y-61405492D01*
X137165364Y-61531998D01*
X137214724Y-61651164D01*
X137286384Y-61758410D01*
X137377590Y-61849616D01*
X137484836Y-61921276D01*
X137604002Y-61970636D01*
X137730508Y-61995800D01*
X137859492Y-61995800D01*
X137985998Y-61970636D01*
X138105164Y-61921276D01*
X138212410Y-61849616D01*
X138303616Y-61758410D01*
X138375276Y-61651164D01*
X138424636Y-61531998D01*
X138449800Y-61405492D01*
X138449800Y-61366400D01*
X141712047Y-61366400D01*
X141732000Y-61368365D01*
X141751953Y-61366400D01*
X141751960Y-61366400D01*
X141811668Y-61360519D01*
X141888275Y-61337281D01*
X141958876Y-61299544D01*
X142020758Y-61248758D01*
X142033482Y-61233254D01*
X144418255Y-58848481D01*
X144433758Y-58835758D01*
X144484544Y-58773876D01*
X144522281Y-58703275D01*
X144545519Y-58626668D01*
X144551400Y-58566960D01*
X144551400Y-58566954D01*
X144553365Y-58547001D01*
X144551400Y-58527048D01*
X144551400Y-54995641D01*
X144611873Y-54921954D01*
X144663761Y-54824878D01*
X144695714Y-54719544D01*
X144703800Y-54637444D01*
X144703800Y-54589943D01*
X144711568Y-54583568D01*
X144749658Y-54537157D01*
X144777960Y-54484206D01*
X144780000Y-54477481D01*
X144782040Y-54484206D01*
X144810342Y-54537157D01*
X144848432Y-54583568D01*
X144894843Y-54621658D01*
X144947794Y-54649960D01*
X145005249Y-54667389D01*
X145065000Y-54673274D01*
X145765000Y-54673274D01*
X145824751Y-54667389D01*
X145882206Y-54649960D01*
X145935157Y-54621658D01*
X145981568Y-54583568D01*
X146019658Y-54537157D01*
X146047960Y-54484206D01*
X146050000Y-54477481D01*
X146052040Y-54484206D01*
X146080342Y-54537157D01*
X146118432Y-54583568D01*
X146126201Y-54589944D01*
X146126201Y-54594062D01*
X145781145Y-54939119D01*
X145705410Y-54863384D01*
X145598164Y-54791724D01*
X145478998Y-54742364D01*
X145352492Y-54717200D01*
X145223508Y-54717200D01*
X145097002Y-54742364D01*
X144977836Y-54791724D01*
X144870590Y-54863384D01*
X144779384Y-54954590D01*
X144707724Y-55061836D01*
X144658364Y-55181002D01*
X144633200Y-55307508D01*
X144633200Y-55436492D01*
X144658364Y-55562998D01*
X144707724Y-55682164D01*
X144779384Y-55789410D01*
X144870590Y-55880616D01*
X144977836Y-55952276D01*
X145097002Y-56001636D01*
X145223508Y-56026800D01*
X145352492Y-56026800D01*
X145478998Y-56001636D01*
X145598164Y-55952276D01*
X145705410Y-55880616D01*
X145796616Y-55789410D01*
X145803973Y-55778400D01*
X145903047Y-55778400D01*
X145923000Y-55780365D01*
X145942953Y-55778400D01*
X145942960Y-55778400D01*
X146002668Y-55772519D01*
X146079275Y-55749281D01*
X146149876Y-55711544D01*
X146211758Y-55660758D01*
X146224482Y-55645254D01*
X146699679Y-55170057D01*
X146794544Y-55160714D01*
X146899878Y-55128761D01*
X146996954Y-55076873D01*
X147082043Y-55007043D01*
X147151873Y-54921954D01*
X147203761Y-54824878D01*
X147235714Y-54719544D01*
X147243800Y-54637444D01*
X147243800Y-54589943D01*
X147251568Y-54583568D01*
X147289658Y-54537157D01*
X147317960Y-54484206D01*
X147320000Y-54477481D01*
X147322040Y-54484206D01*
X147350342Y-54537157D01*
X147388432Y-54583568D01*
X147395527Y-54589391D01*
X147393497Y-54610000D01*
X147396200Y-54637442D01*
X147396200Y-54637443D01*
X147404286Y-54719543D01*
X147436239Y-54824877D01*
X147488127Y-54921954D01*
X147557957Y-55007043D01*
X147572140Y-55018683D01*
X147579364Y-55054998D01*
X147628724Y-55174164D01*
X147700384Y-55281410D01*
X147791590Y-55372616D01*
X147898836Y-55444276D01*
X148018002Y-55493636D01*
X148144508Y-55518800D01*
X148273492Y-55518800D01*
X148399998Y-55493636D01*
X148519164Y-55444276D01*
X148626410Y-55372616D01*
X148717616Y-55281410D01*
X148789276Y-55174164D01*
X148838636Y-55054998D01*
X148845338Y-55021306D01*
X148913047Y-55076873D01*
X149010123Y-55128761D01*
X149115457Y-55160714D01*
X149210321Y-55170057D01*
X149969784Y-55929520D01*
X149967200Y-55942508D01*
X149967200Y-56071492D01*
X149992364Y-56197998D01*
X150041724Y-56317164D01*
X150072084Y-56362600D01*
X147212952Y-56362600D01*
X147192999Y-56360635D01*
X147173046Y-56362600D01*
X147173040Y-56362600D01*
X147121335Y-56367693D01*
X147113331Y-56368481D01*
X147090093Y-56375530D01*
X147036725Y-56391719D01*
X146966124Y-56429456D01*
X146904242Y-56480242D01*
X146891518Y-56495746D01*
X146762480Y-56624784D01*
X146749492Y-56622200D01*
X146620508Y-56622200D01*
X146494002Y-56647364D01*
X146374836Y-56696724D01*
X146267590Y-56768384D01*
X146176384Y-56859590D01*
X146104724Y-56966836D01*
X146055364Y-57086002D01*
X146030200Y-57212508D01*
X146030200Y-57341492D01*
X146055364Y-57467998D01*
X146104724Y-57587164D01*
X146176384Y-57694410D01*
X146267590Y-57785616D01*
X146374836Y-57857276D01*
X146494002Y-57906636D01*
X146620508Y-57931800D01*
X146749492Y-57931800D01*
X146875998Y-57906636D01*
X146995164Y-57857276D01*
X147102410Y-57785616D01*
X147177200Y-57710826D01*
X147177200Y-57874115D01*
X147211971Y-58048920D01*
X147280177Y-58213584D01*
X147379196Y-58361776D01*
X147505224Y-58487804D01*
X147653416Y-58586823D01*
X147818080Y-58655029D01*
X147992885Y-58689800D01*
X148171115Y-58689800D01*
X148345920Y-58655029D01*
X148510584Y-58586823D01*
X148658776Y-58487804D01*
X148784804Y-58361776D01*
X148883823Y-58213584D01*
X148952029Y-58048920D01*
X148986800Y-57874115D01*
X148986800Y-57695885D01*
X148952029Y-57521080D01*
X148883823Y-57356416D01*
X148784804Y-57208224D01*
X148751980Y-57175400D01*
X151237047Y-57175400D01*
X151257000Y-57177365D01*
X151276953Y-57175400D01*
X151276960Y-57175400D01*
X151336668Y-57169519D01*
X151413275Y-57146281D01*
X151483876Y-57108544D01*
X151494155Y-57100108D01*
X148929664Y-59664600D01*
X148470973Y-59664600D01*
X148463616Y-59653590D01*
X148372410Y-59562384D01*
X148265164Y-59490724D01*
X148145998Y-59441364D01*
X148019492Y-59416200D01*
X147890508Y-59416200D01*
X147764002Y-59441364D01*
X147644836Y-59490724D01*
X147537590Y-59562384D01*
X147446384Y-59653590D01*
X147374724Y-59760836D01*
X147325364Y-59880002D01*
X147300200Y-60006508D01*
X147300200Y-60135492D01*
X147325364Y-60261998D01*
X147374724Y-60381164D01*
X147446384Y-60488410D01*
X147537590Y-60579616D01*
X147644836Y-60651276D01*
X147715631Y-60680600D01*
X145930973Y-60680600D01*
X145923616Y-60669590D01*
X145832410Y-60578384D01*
X145725164Y-60506724D01*
X145605998Y-60457364D01*
X145479492Y-60432200D01*
X145350508Y-60432200D01*
X145224002Y-60457364D01*
X145104836Y-60506724D01*
X144997590Y-60578384D01*
X144906384Y-60669590D01*
X144834724Y-60776836D01*
X144785364Y-60896002D01*
X144760200Y-61022508D01*
X144760200Y-61151492D01*
X144785364Y-61277998D01*
X144834724Y-61397164D01*
X144906384Y-61504410D01*
X144997590Y-61595616D01*
X145104836Y-61667276D01*
X145224002Y-61716636D01*
X145350508Y-61741800D01*
X145479492Y-61741800D01*
X145605998Y-61716636D01*
X145725164Y-61667276D01*
X145832410Y-61595616D01*
X145923616Y-61504410D01*
X145930973Y-61493400D01*
X149205047Y-61493400D01*
X149225000Y-61495365D01*
X149244953Y-61493400D01*
X149244960Y-61493400D01*
X149304668Y-61487519D01*
X149381275Y-61464281D01*
X149451876Y-61426544D01*
X149513758Y-61375758D01*
X149526482Y-61360254D01*
X150917336Y-59969400D01*
X152380047Y-59969400D01*
X152400000Y-59971365D01*
X152419953Y-59969400D01*
X152419960Y-59969400D01*
X152479668Y-59963519D01*
X152556275Y-59940281D01*
X152626876Y-59902544D01*
X152688758Y-59851758D01*
X152701482Y-59836254D01*
X153816255Y-58721481D01*
X153831758Y-58708758D01*
X153882544Y-58646876D01*
X153920281Y-58576275D01*
X153943519Y-58499668D01*
X153949400Y-58439960D01*
X153949400Y-58439954D01*
X153951365Y-58420001D01*
X153949400Y-58400048D01*
X153949400Y-52089952D01*
X153951365Y-52069999D01*
X153949400Y-52050046D01*
X153949400Y-52050040D01*
X153943519Y-51990332D01*
X153920281Y-51913725D01*
X153882544Y-51843124D01*
X153831758Y-51781242D01*
X153816254Y-51768518D01*
X152447482Y-50399746D01*
X152434758Y-50384242D01*
X152414030Y-50367231D01*
X152415389Y-50362751D01*
X152421274Y-50303000D01*
X152421274Y-50269352D01*
X152463002Y-50286636D01*
X152589508Y-50311800D01*
X152718492Y-50311800D01*
X152844998Y-50286636D01*
X152964164Y-50237276D01*
X153071410Y-50165616D01*
X153162616Y-50074410D01*
X153234276Y-49967164D01*
X153283636Y-49847998D01*
X153308800Y-49721492D01*
X153308800Y-49592508D01*
X153283636Y-49466002D01*
X153234276Y-49346836D01*
X153162616Y-49239590D01*
X153071410Y-49148384D01*
X152964164Y-49076724D01*
X152844998Y-49027364D01*
X152718492Y-49002200D01*
X152589508Y-49002200D01*
X152463002Y-49027364D01*
X152421274Y-49044648D01*
X152421274Y-48564800D01*
X156792568Y-48564800D01*
X156604528Y-48752840D01*
G36*
X126444522Y-87903259D02*
G01*
X126457242Y-87918758D01*
X126472740Y-87931477D01*
X126472745Y-87931482D01*
X126493746Y-87948717D01*
X126519124Y-87969544D01*
X126589723Y-88007280D01*
X126589725Y-88007281D01*
X126666331Y-88030519D01*
X126673604Y-88031235D01*
X126726040Y-88036400D01*
X126726047Y-88036400D01*
X126746000Y-88038365D01*
X126765953Y-88036400D01*
X128101664Y-88036400D01*
X128857522Y-88792259D01*
X128870242Y-88807758D01*
X128885740Y-88820477D01*
X128885745Y-88820482D01*
X128905539Y-88836726D01*
X128555000Y-88836726D01*
X128516076Y-88840560D01*
X128458507Y-88754403D01*
X128373598Y-88669493D01*
X128273754Y-88602780D01*
X128162814Y-88556827D01*
X128045041Y-88533400D01*
X127962400Y-88533400D01*
X127810000Y-88685800D01*
X127810000Y-89763600D01*
X127934400Y-89763600D01*
X127934400Y-90322400D01*
X127810000Y-90322400D01*
X127810000Y-91400200D01*
X127926679Y-91516879D01*
X127852590Y-91566384D01*
X127761384Y-91657590D01*
X127689724Y-91764836D01*
X127640364Y-91884002D01*
X127615200Y-92010508D01*
X127615200Y-92139492D01*
X127640364Y-92265998D01*
X127689724Y-92385164D01*
X127761384Y-92492410D01*
X127852590Y-92583616D01*
X127959836Y-92655276D01*
X128079002Y-92704636D01*
X128205508Y-92729800D01*
X128334492Y-92729800D01*
X128460998Y-92704636D01*
X128580164Y-92655276D01*
X128687410Y-92583616D01*
X128778616Y-92492410D01*
X128850276Y-92385164D01*
X128889817Y-92289703D01*
X128910364Y-92392998D01*
X128959724Y-92512164D01*
X129031384Y-92619410D01*
X129122590Y-92710616D01*
X129229836Y-92782276D01*
X129349002Y-92831636D01*
X129475508Y-92856800D01*
X129604492Y-92856800D01*
X129730998Y-92831636D01*
X129850164Y-92782276D01*
X129957410Y-92710616D01*
X130048616Y-92619410D01*
X130120276Y-92512164D01*
X130169636Y-92392998D01*
X130194800Y-92266492D01*
X130194800Y-92137508D01*
X130192217Y-92124520D01*
X130343337Y-91973400D01*
X134430574Y-91973400D01*
X134365384Y-92038590D01*
X134293724Y-92145836D01*
X134244364Y-92265002D01*
X134219200Y-92391508D01*
X134219200Y-92520492D01*
X134244364Y-92646998D01*
X134293724Y-92766164D01*
X134365384Y-92873410D01*
X134400254Y-92908280D01*
X134394751Y-92906611D01*
X134335000Y-92900726D01*
X133635000Y-92900726D01*
X133575249Y-92906611D01*
X133517794Y-92924040D01*
X133464843Y-92952342D01*
X133418432Y-92990432D01*
X133380342Y-93036843D01*
X133352040Y-93089794D01*
X133350000Y-93096519D01*
X133347960Y-93089794D01*
X133319658Y-93036843D01*
X133281568Y-92990432D01*
X133235157Y-92952342D01*
X133182206Y-92924040D01*
X133124751Y-92906611D01*
X133065000Y-92900726D01*
X132365000Y-92900726D01*
X132305249Y-92906611D01*
X132247794Y-92924040D01*
X132194843Y-92952342D01*
X132148432Y-92990432D01*
X132110342Y-93036843D01*
X132082040Y-93089794D01*
X132080000Y-93096519D01*
X132077960Y-93089794D01*
X132049658Y-93036843D01*
X132011568Y-92990432D01*
X131965157Y-92952342D01*
X131912206Y-92924040D01*
X131854751Y-92906611D01*
X131795000Y-92900726D01*
X131095000Y-92900726D01*
X131035249Y-92906611D01*
X130977794Y-92924040D01*
X130924843Y-92952342D01*
X130878432Y-92990432D01*
X130840342Y-93036843D01*
X130812040Y-93089794D01*
X130810000Y-93096519D01*
X130807960Y-93089794D01*
X130779658Y-93036843D01*
X130741568Y-92990432D01*
X130695157Y-92952342D01*
X130642206Y-92924040D01*
X130584751Y-92906611D01*
X130525000Y-92900726D01*
X129825000Y-92900726D01*
X129765249Y-92906611D01*
X129707794Y-92924040D01*
X129654843Y-92952342D01*
X129608432Y-92990432D01*
X129570342Y-93036843D01*
X129542040Y-93089794D01*
X129540000Y-93096519D01*
X129537960Y-93089794D01*
X129509658Y-93036843D01*
X129471568Y-92990432D01*
X129425157Y-92952342D01*
X129372206Y-92924040D01*
X129314751Y-92906611D01*
X129255000Y-92900726D01*
X128555000Y-92900726D01*
X128495249Y-92906611D01*
X128437794Y-92924040D01*
X128384843Y-92952342D01*
X128338432Y-92990432D01*
X128300342Y-93036843D01*
X128272040Y-93089794D01*
X128270000Y-93096519D01*
X128267960Y-93089794D01*
X128239658Y-93036843D01*
X128201568Y-92990432D01*
X128155157Y-92952342D01*
X128102206Y-92924040D01*
X128044751Y-92906611D01*
X127985000Y-92900726D01*
X127285000Y-92900726D01*
X127225249Y-92906611D01*
X127167794Y-92924040D01*
X127114843Y-92952342D01*
X127068432Y-92990432D01*
X127030342Y-93036843D01*
X127002040Y-93089794D01*
X126984611Y-93147249D01*
X126978726Y-93207000D01*
X126978726Y-94276565D01*
X126917088Y-94161248D01*
X126815517Y-94037483D01*
X126691752Y-93935912D01*
X126550550Y-93860438D01*
X126397337Y-93813961D01*
X126277923Y-93802200D01*
X125653800Y-93802200D01*
X125653800Y-90474800D01*
X126675400Y-90474800D01*
X126675400Y-91003040D01*
X126698827Y-91120813D01*
X126744779Y-91231754D01*
X126811493Y-91331597D01*
X126896402Y-91416507D01*
X126996246Y-91483220D01*
X127107186Y-91529173D01*
X127224959Y-91552600D01*
X127307600Y-91552600D01*
X127460000Y-91400200D01*
X127460000Y-90322400D01*
X126827800Y-90322400D01*
X126675400Y-90474800D01*
X125653800Y-90474800D01*
X125653800Y-89082960D01*
X126675400Y-89082960D01*
X126675400Y-89611200D01*
X126827800Y-89763600D01*
X127460000Y-89763600D01*
X127460000Y-88685800D01*
X127307600Y-88533400D01*
X127224959Y-88533400D01*
X127107186Y-88556827D01*
X126996246Y-88602780D01*
X126896402Y-88669493D01*
X126811493Y-88754403D01*
X126744779Y-88854246D01*
X126698827Y-88965187D01*
X126675400Y-89082960D01*
X125653800Y-89082960D01*
X125653800Y-87112536D01*
X126444522Y-87903259D01*
X126444522Y-87903259D01*
G37*
X126444522Y-87903259D02*
X126457242Y-87918758D01*
X126472740Y-87931477D01*
X126472745Y-87931482D01*
X126493746Y-87948717D01*
X126519124Y-87969544D01*
X126589723Y-88007280D01*
X126589725Y-88007281D01*
X126666331Y-88030519D01*
X126673604Y-88031235D01*
X126726040Y-88036400D01*
X126726047Y-88036400D01*
X126746000Y-88038365D01*
X126765953Y-88036400D01*
X128101664Y-88036400D01*
X128857522Y-88792259D01*
X128870242Y-88807758D01*
X128885740Y-88820477D01*
X128885745Y-88820482D01*
X128905539Y-88836726D01*
X128555000Y-88836726D01*
X128516076Y-88840560D01*
X128458507Y-88754403D01*
X128373598Y-88669493D01*
X128273754Y-88602780D01*
X128162814Y-88556827D01*
X128045041Y-88533400D01*
X127962400Y-88533400D01*
X127810000Y-88685800D01*
X127810000Y-89763600D01*
X127934400Y-89763600D01*
X127934400Y-90322400D01*
X127810000Y-90322400D01*
X127810000Y-91400200D01*
X127926679Y-91516879D01*
X127852590Y-91566384D01*
X127761384Y-91657590D01*
X127689724Y-91764836D01*
X127640364Y-91884002D01*
X127615200Y-92010508D01*
X127615200Y-92139492D01*
X127640364Y-92265998D01*
X127689724Y-92385164D01*
X127761384Y-92492410D01*
X127852590Y-92583616D01*
X127959836Y-92655276D01*
X128079002Y-92704636D01*
X128205508Y-92729800D01*
X128334492Y-92729800D01*
X128460998Y-92704636D01*
X128580164Y-92655276D01*
X128687410Y-92583616D01*
X128778616Y-92492410D01*
X128850276Y-92385164D01*
X128889817Y-92289703D01*
X128910364Y-92392998D01*
X128959724Y-92512164D01*
X129031384Y-92619410D01*
X129122590Y-92710616D01*
X129229836Y-92782276D01*
X129349002Y-92831636D01*
X129475508Y-92856800D01*
X129604492Y-92856800D01*
X129730998Y-92831636D01*
X129850164Y-92782276D01*
X129957410Y-92710616D01*
X130048616Y-92619410D01*
X130120276Y-92512164D01*
X130169636Y-92392998D01*
X130194800Y-92266492D01*
X130194800Y-92137508D01*
X130192217Y-92124520D01*
X130343337Y-91973400D01*
X134430574Y-91973400D01*
X134365384Y-92038590D01*
X134293724Y-92145836D01*
X134244364Y-92265002D01*
X134219200Y-92391508D01*
X134219200Y-92520492D01*
X134244364Y-92646998D01*
X134293724Y-92766164D01*
X134365384Y-92873410D01*
X134400254Y-92908280D01*
X134394751Y-92906611D01*
X134335000Y-92900726D01*
X133635000Y-92900726D01*
X133575249Y-92906611D01*
X133517794Y-92924040D01*
X133464843Y-92952342D01*
X133418432Y-92990432D01*
X133380342Y-93036843D01*
X133352040Y-93089794D01*
X133350000Y-93096519D01*
X133347960Y-93089794D01*
X133319658Y-93036843D01*
X133281568Y-92990432D01*
X133235157Y-92952342D01*
X133182206Y-92924040D01*
X133124751Y-92906611D01*
X133065000Y-92900726D01*
X132365000Y-92900726D01*
X132305249Y-92906611D01*
X132247794Y-92924040D01*
X132194843Y-92952342D01*
X132148432Y-92990432D01*
X132110342Y-93036843D01*
X132082040Y-93089794D01*
X132080000Y-93096519D01*
X132077960Y-93089794D01*
X132049658Y-93036843D01*
X132011568Y-92990432D01*
X131965157Y-92952342D01*
X131912206Y-92924040D01*
X131854751Y-92906611D01*
X131795000Y-92900726D01*
X131095000Y-92900726D01*
X131035249Y-92906611D01*
X130977794Y-92924040D01*
X130924843Y-92952342D01*
X130878432Y-92990432D01*
X130840342Y-93036843D01*
X130812040Y-93089794D01*
X130810000Y-93096519D01*
X130807960Y-93089794D01*
X130779658Y-93036843D01*
X130741568Y-92990432D01*
X130695157Y-92952342D01*
X130642206Y-92924040D01*
X130584751Y-92906611D01*
X130525000Y-92900726D01*
X129825000Y-92900726D01*
X129765249Y-92906611D01*
X129707794Y-92924040D01*
X129654843Y-92952342D01*
X129608432Y-92990432D01*
X129570342Y-93036843D01*
X129542040Y-93089794D01*
X129540000Y-93096519D01*
X129537960Y-93089794D01*
X129509658Y-93036843D01*
X129471568Y-92990432D01*
X129425157Y-92952342D01*
X129372206Y-92924040D01*
X129314751Y-92906611D01*
X129255000Y-92900726D01*
X128555000Y-92900726D01*
X128495249Y-92906611D01*
X128437794Y-92924040D01*
X128384843Y-92952342D01*
X128338432Y-92990432D01*
X128300342Y-93036843D01*
X128272040Y-93089794D01*
X128270000Y-93096519D01*
X128267960Y-93089794D01*
X128239658Y-93036843D01*
X128201568Y-92990432D01*
X128155157Y-92952342D01*
X128102206Y-92924040D01*
X128044751Y-92906611D01*
X127985000Y-92900726D01*
X127285000Y-92900726D01*
X127225249Y-92906611D01*
X127167794Y-92924040D01*
X127114843Y-92952342D01*
X127068432Y-92990432D01*
X127030342Y-93036843D01*
X127002040Y-93089794D01*
X126984611Y-93147249D01*
X126978726Y-93207000D01*
X126978726Y-94276565D01*
X126917088Y-94161248D01*
X126815517Y-94037483D01*
X126691752Y-93935912D01*
X126550550Y-93860438D01*
X126397337Y-93813961D01*
X126277923Y-93802200D01*
X125653800Y-93802200D01*
X125653800Y-90474800D01*
X126675400Y-90474800D01*
X126675400Y-91003040D01*
X126698827Y-91120813D01*
X126744779Y-91231754D01*
X126811493Y-91331597D01*
X126896402Y-91416507D01*
X126996246Y-91483220D01*
X127107186Y-91529173D01*
X127224959Y-91552600D01*
X127307600Y-91552600D01*
X127460000Y-91400200D01*
X127460000Y-90322400D01*
X126827800Y-90322400D01*
X126675400Y-90474800D01*
X125653800Y-90474800D01*
X125653800Y-89082960D01*
X126675400Y-89082960D01*
X126675400Y-89611200D01*
X126827800Y-89763600D01*
X127460000Y-89763600D01*
X127460000Y-88685800D01*
X127307600Y-88533400D01*
X127224959Y-88533400D01*
X127107186Y-88556827D01*
X126996246Y-88602780D01*
X126896402Y-88669493D01*
X126811493Y-88754403D01*
X126744779Y-88854246D01*
X126698827Y-88965187D01*
X126675400Y-89082960D01*
X125653800Y-89082960D01*
X125653800Y-87112536D01*
X126444522Y-87903259D01*
G36*
X149862040Y-91060206D02*
G01*
X149890342Y-91113157D01*
X149928432Y-91159568D01*
X149974843Y-91197658D01*
X150027794Y-91225960D01*
X150085249Y-91243389D01*
X150114039Y-91246225D01*
X149628164Y-91732100D01*
X148800452Y-91732100D01*
X148780499Y-91730135D01*
X148760546Y-91732100D01*
X148760540Y-91732100D01*
X148708835Y-91737193D01*
X148700831Y-91737981D01*
X148677593Y-91745030D01*
X148624225Y-91761219D01*
X148553624Y-91798956D01*
X148491742Y-91849742D01*
X148479018Y-91865246D01*
X147940321Y-92403943D01*
X147845457Y-92413286D01*
X147740123Y-92445239D01*
X147643047Y-92497127D01*
X147557958Y-92566957D01*
X147488128Y-92652046D01*
X147436240Y-92749122D01*
X147404287Y-92854456D01*
X147396201Y-92936556D01*
X147396201Y-92984056D01*
X147388432Y-92990432D01*
X147350342Y-93036843D01*
X147322040Y-93089794D01*
X147320000Y-93096519D01*
X147317960Y-93089794D01*
X147289658Y-93036843D01*
X147251568Y-92990432D01*
X147243800Y-92984057D01*
X147243800Y-92936556D01*
X147235714Y-92854456D01*
X147203761Y-92749122D01*
X147151873Y-92652046D01*
X147082043Y-92566957D01*
X146996954Y-92497127D01*
X146899878Y-92445239D01*
X146794544Y-92413286D01*
X146699679Y-92403943D01*
X145589482Y-91293746D01*
X145576758Y-91278242D01*
X145541461Y-91249274D01*
X145765000Y-91249274D01*
X145824751Y-91243389D01*
X145882206Y-91225960D01*
X145935157Y-91197658D01*
X145981568Y-91159568D01*
X146019658Y-91113157D01*
X146047960Y-91060206D01*
X146050000Y-91053481D01*
X146052040Y-91060206D01*
X146080342Y-91113157D01*
X146118432Y-91159568D01*
X146164843Y-91197658D01*
X146217794Y-91225960D01*
X146275249Y-91243389D01*
X146335000Y-91249274D01*
X147035000Y-91249274D01*
X147094751Y-91243389D01*
X147152206Y-91225960D01*
X147205157Y-91197658D01*
X147251568Y-91159568D01*
X147289658Y-91113157D01*
X147317960Y-91060206D01*
X147320000Y-91053481D01*
X147322040Y-91060206D01*
X147350342Y-91113157D01*
X147388432Y-91159568D01*
X147434843Y-91197658D01*
X147487794Y-91225960D01*
X147545249Y-91243389D01*
X147605000Y-91249274D01*
X148305000Y-91249274D01*
X148364751Y-91243389D01*
X148422206Y-91225960D01*
X148475157Y-91197658D01*
X148521568Y-91159568D01*
X148559658Y-91113157D01*
X148587960Y-91060206D01*
X148590000Y-91053481D01*
X148592040Y-91060206D01*
X148620342Y-91113157D01*
X148658432Y-91159568D01*
X148704843Y-91197658D01*
X148757794Y-91225960D01*
X148815249Y-91243389D01*
X148875000Y-91249274D01*
X149575000Y-91249274D01*
X149634751Y-91243389D01*
X149692206Y-91225960D01*
X149745157Y-91197658D01*
X149791568Y-91159568D01*
X149829658Y-91113157D01*
X149857960Y-91060206D01*
X149860000Y-91053481D01*
X149862040Y-91060206D01*
X149862040Y-91060206D01*
G37*
X149862040Y-91060206D02*
X149890342Y-91113157D01*
X149928432Y-91159568D01*
X149974843Y-91197658D01*
X150027794Y-91225960D01*
X150085249Y-91243389D01*
X150114039Y-91246225D01*
X149628164Y-91732100D01*
X148800452Y-91732100D01*
X148780499Y-91730135D01*
X148760546Y-91732100D01*
X148760540Y-91732100D01*
X148708835Y-91737193D01*
X148700831Y-91737981D01*
X148677593Y-91745030D01*
X148624225Y-91761219D01*
X148553624Y-91798956D01*
X148491742Y-91849742D01*
X148479018Y-91865246D01*
X147940321Y-92403943D01*
X147845457Y-92413286D01*
X147740123Y-92445239D01*
X147643047Y-92497127D01*
X147557958Y-92566957D01*
X147488128Y-92652046D01*
X147436240Y-92749122D01*
X147404287Y-92854456D01*
X147396201Y-92936556D01*
X147396201Y-92984056D01*
X147388432Y-92990432D01*
X147350342Y-93036843D01*
X147322040Y-93089794D01*
X147320000Y-93096519D01*
X147317960Y-93089794D01*
X147289658Y-93036843D01*
X147251568Y-92990432D01*
X147243800Y-92984057D01*
X147243800Y-92936556D01*
X147235714Y-92854456D01*
X147203761Y-92749122D01*
X147151873Y-92652046D01*
X147082043Y-92566957D01*
X146996954Y-92497127D01*
X146899878Y-92445239D01*
X146794544Y-92413286D01*
X146699679Y-92403943D01*
X145589482Y-91293746D01*
X145576758Y-91278242D01*
X145541461Y-91249274D01*
X145765000Y-91249274D01*
X145824751Y-91243389D01*
X145882206Y-91225960D01*
X145935157Y-91197658D01*
X145981568Y-91159568D01*
X146019658Y-91113157D01*
X146047960Y-91060206D01*
X146050000Y-91053481D01*
X146052040Y-91060206D01*
X146080342Y-91113157D01*
X146118432Y-91159568D01*
X146164843Y-91197658D01*
X146217794Y-91225960D01*
X146275249Y-91243389D01*
X146335000Y-91249274D01*
X147035000Y-91249274D01*
X147094751Y-91243389D01*
X147152206Y-91225960D01*
X147205157Y-91197658D01*
X147251568Y-91159568D01*
X147289658Y-91113157D01*
X147317960Y-91060206D01*
X147320000Y-91053481D01*
X147322040Y-91060206D01*
X147350342Y-91113157D01*
X147388432Y-91159568D01*
X147434843Y-91197658D01*
X147487794Y-91225960D01*
X147545249Y-91243389D01*
X147605000Y-91249274D01*
X148305000Y-91249274D01*
X148364751Y-91243389D01*
X148422206Y-91225960D01*
X148475157Y-91197658D01*
X148521568Y-91159568D01*
X148559658Y-91113157D01*
X148587960Y-91060206D01*
X148590000Y-91053481D01*
X148592040Y-91060206D01*
X148620342Y-91113157D01*
X148658432Y-91159568D01*
X148704843Y-91197658D01*
X148757794Y-91225960D01*
X148815249Y-91243389D01*
X148875000Y-91249274D01*
X149575000Y-91249274D01*
X149634751Y-91243389D01*
X149692206Y-91225960D01*
X149745157Y-91197658D01*
X149791568Y-91159568D01*
X149829658Y-91113157D01*
X149857960Y-91060206D01*
X149860000Y-91053481D01*
X149862040Y-91060206D01*
G36*
X140972040Y-91060206D02*
G01*
X141000342Y-91113157D01*
X141038432Y-91159568D01*
X141084843Y-91197658D01*
X141137794Y-91225960D01*
X141195249Y-91243389D01*
X141255000Y-91249274D01*
X141664777Y-91249274D01*
X141659724Y-91256836D01*
X141610364Y-91376002D01*
X141585200Y-91502508D01*
X141585200Y-91631492D01*
X141586611Y-91638585D01*
X141514410Y-91566384D01*
X141407164Y-91494724D01*
X141287998Y-91445364D01*
X141161492Y-91420200D01*
X141032508Y-91420200D01*
X140906002Y-91445364D01*
X140786836Y-91494724D01*
X140679590Y-91566384D01*
X140588384Y-91657590D01*
X140516724Y-91764836D01*
X140467364Y-91884002D01*
X140442200Y-92010508D01*
X140442200Y-92139492D01*
X140467364Y-92265998D01*
X140503981Y-92354400D01*
X140474419Y-92354400D01*
X140456636Y-92265002D01*
X140407276Y-92145836D01*
X140335616Y-92038590D01*
X140244410Y-91947384D01*
X140137164Y-91875724D01*
X140017998Y-91826364D01*
X139891492Y-91801200D01*
X139762508Y-91801200D01*
X139636002Y-91826364D01*
X139516836Y-91875724D01*
X139409590Y-91947384D01*
X139318384Y-92038590D01*
X139246724Y-92145836D01*
X139197364Y-92265002D01*
X139172200Y-92391508D01*
X139172200Y-92520492D01*
X139197364Y-92646998D01*
X139246724Y-92766164D01*
X139318384Y-92873410D01*
X139345700Y-92900726D01*
X138715000Y-92900726D01*
X138655249Y-92906611D01*
X138597794Y-92924040D01*
X138544843Y-92952342D01*
X138498432Y-92990432D01*
X138460342Y-93036843D01*
X138432040Y-93089794D01*
X138430000Y-93096519D01*
X138427960Y-93089794D01*
X138399658Y-93036843D01*
X138361568Y-92990432D01*
X138315157Y-92952342D01*
X138262206Y-92924040D01*
X138204751Y-92906611D01*
X138145000Y-92900726D01*
X137445000Y-92900726D01*
X137385249Y-92906611D01*
X137327794Y-92924040D01*
X137274843Y-92952342D01*
X137228432Y-92990432D01*
X137190342Y-93036843D01*
X137162040Y-93089794D01*
X137160000Y-93096519D01*
X137157960Y-93089794D01*
X137129658Y-93036843D01*
X137091568Y-92990432D01*
X137045157Y-92952342D01*
X136992206Y-92924040D01*
X136934751Y-92906611D01*
X136875000Y-92900726D01*
X136175000Y-92900726D01*
X136115249Y-92906611D01*
X136057794Y-92924040D01*
X136004843Y-92952342D01*
X135958432Y-92990432D01*
X135920342Y-93036843D01*
X135892040Y-93089794D01*
X135890000Y-93096519D01*
X135887960Y-93089794D01*
X135859658Y-93036843D01*
X135821568Y-92990432D01*
X135813800Y-92984057D01*
X135813800Y-92864441D01*
X135816503Y-92836999D01*
X135813620Y-92807725D01*
X135805714Y-92727456D01*
X135773761Y-92622122D01*
X135721873Y-92525046D01*
X135652043Y-92439957D01*
X135630719Y-92422457D01*
X135511178Y-92302916D01*
X135503636Y-92265002D01*
X135454276Y-92145836D01*
X135382616Y-92038590D01*
X135317426Y-91973400D01*
X137394047Y-91973400D01*
X137414000Y-91975365D01*
X137433953Y-91973400D01*
X137433960Y-91973400D01*
X137493668Y-91967519D01*
X137570275Y-91944281D01*
X137640876Y-91906544D01*
X137702758Y-91855758D01*
X137715482Y-91840254D01*
X137809679Y-91746057D01*
X137904544Y-91736714D01*
X138009878Y-91704761D01*
X138106954Y-91652873D01*
X138192043Y-91583043D01*
X138261873Y-91497954D01*
X138313761Y-91400878D01*
X138345714Y-91295544D01*
X138353800Y-91213444D01*
X138353800Y-91165943D01*
X138361568Y-91159568D01*
X138399658Y-91113157D01*
X138427960Y-91060206D01*
X138430000Y-91053481D01*
X138432040Y-91060206D01*
X138460342Y-91113157D01*
X138498432Y-91159568D01*
X138544843Y-91197658D01*
X138597794Y-91225960D01*
X138655249Y-91243389D01*
X138715000Y-91249274D01*
X139415000Y-91249274D01*
X139474751Y-91243389D01*
X139532206Y-91225960D01*
X139585157Y-91197658D01*
X139631568Y-91159568D01*
X139669658Y-91113157D01*
X139697960Y-91060206D01*
X139700000Y-91053481D01*
X139702040Y-91060206D01*
X139730342Y-91113157D01*
X139768432Y-91159568D01*
X139814843Y-91197658D01*
X139867794Y-91225960D01*
X139925249Y-91243389D01*
X139985000Y-91249274D01*
X140685000Y-91249274D01*
X140744751Y-91243389D01*
X140802206Y-91225960D01*
X140855157Y-91197658D01*
X140901568Y-91159568D01*
X140939658Y-91113157D01*
X140967960Y-91060206D01*
X140970000Y-91053481D01*
X140972040Y-91060206D01*
X140972040Y-91060206D01*
G37*
X140972040Y-91060206D02*
X141000342Y-91113157D01*
X141038432Y-91159568D01*
X141084843Y-91197658D01*
X141137794Y-91225960D01*
X141195249Y-91243389D01*
X141255000Y-91249274D01*
X141664777Y-91249274D01*
X141659724Y-91256836D01*
X141610364Y-91376002D01*
X141585200Y-91502508D01*
X141585200Y-91631492D01*
X141586611Y-91638585D01*
X141514410Y-91566384D01*
X141407164Y-91494724D01*
X141287998Y-91445364D01*
X141161492Y-91420200D01*
X141032508Y-91420200D01*
X140906002Y-91445364D01*
X140786836Y-91494724D01*
X140679590Y-91566384D01*
X140588384Y-91657590D01*
X140516724Y-91764836D01*
X140467364Y-91884002D01*
X140442200Y-92010508D01*
X140442200Y-92139492D01*
X140467364Y-92265998D01*
X140503981Y-92354400D01*
X140474419Y-92354400D01*
X140456636Y-92265002D01*
X140407276Y-92145836D01*
X140335616Y-92038590D01*
X140244410Y-91947384D01*
X140137164Y-91875724D01*
X140017998Y-91826364D01*
X139891492Y-91801200D01*
X139762508Y-91801200D01*
X139636002Y-91826364D01*
X139516836Y-91875724D01*
X139409590Y-91947384D01*
X139318384Y-92038590D01*
X139246724Y-92145836D01*
X139197364Y-92265002D01*
X139172200Y-92391508D01*
X139172200Y-92520492D01*
X139197364Y-92646998D01*
X139246724Y-92766164D01*
X139318384Y-92873410D01*
X139345700Y-92900726D01*
X138715000Y-92900726D01*
X138655249Y-92906611D01*
X138597794Y-92924040D01*
X138544843Y-92952342D01*
X138498432Y-92990432D01*
X138460342Y-93036843D01*
X138432040Y-93089794D01*
X138430000Y-93096519D01*
X138427960Y-93089794D01*
X138399658Y-93036843D01*
X138361568Y-92990432D01*
X138315157Y-92952342D01*
X138262206Y-92924040D01*
X138204751Y-92906611D01*
X138145000Y-92900726D01*
X137445000Y-92900726D01*
X137385249Y-92906611D01*
X137327794Y-92924040D01*
X137274843Y-92952342D01*
X137228432Y-92990432D01*
X137190342Y-93036843D01*
X137162040Y-93089794D01*
X137160000Y-93096519D01*
X137157960Y-93089794D01*
X137129658Y-93036843D01*
X137091568Y-92990432D01*
X137045157Y-92952342D01*
X136992206Y-92924040D01*
X136934751Y-92906611D01*
X136875000Y-92900726D01*
X136175000Y-92900726D01*
X136115249Y-92906611D01*
X136057794Y-92924040D01*
X136004843Y-92952342D01*
X135958432Y-92990432D01*
X135920342Y-93036843D01*
X135892040Y-93089794D01*
X135890000Y-93096519D01*
X135887960Y-93089794D01*
X135859658Y-93036843D01*
X135821568Y-92990432D01*
X135813800Y-92984057D01*
X135813800Y-92864441D01*
X135816503Y-92836999D01*
X135813620Y-92807725D01*
X135805714Y-92727456D01*
X135773761Y-92622122D01*
X135721873Y-92525046D01*
X135652043Y-92439957D01*
X135630719Y-92422457D01*
X135511178Y-92302916D01*
X135503636Y-92265002D01*
X135454276Y-92145836D01*
X135382616Y-92038590D01*
X135317426Y-91973400D01*
X137394047Y-91973400D01*
X137414000Y-91975365D01*
X137433953Y-91973400D01*
X137433960Y-91973400D01*
X137493668Y-91967519D01*
X137570275Y-91944281D01*
X137640876Y-91906544D01*
X137702758Y-91855758D01*
X137715482Y-91840254D01*
X137809679Y-91746057D01*
X137904544Y-91736714D01*
X138009878Y-91704761D01*
X138106954Y-91652873D01*
X138192043Y-91583043D01*
X138261873Y-91497954D01*
X138313761Y-91400878D01*
X138345714Y-91295544D01*
X138353800Y-91213444D01*
X138353800Y-91165943D01*
X138361568Y-91159568D01*
X138399658Y-91113157D01*
X138427960Y-91060206D01*
X138430000Y-91053481D01*
X138432040Y-91060206D01*
X138460342Y-91113157D01*
X138498432Y-91159568D01*
X138544843Y-91197658D01*
X138597794Y-91225960D01*
X138655249Y-91243389D01*
X138715000Y-91249274D01*
X139415000Y-91249274D01*
X139474751Y-91243389D01*
X139532206Y-91225960D01*
X139585157Y-91197658D01*
X139631568Y-91159568D01*
X139669658Y-91113157D01*
X139697960Y-91060206D01*
X139700000Y-91053481D01*
X139702040Y-91060206D01*
X139730342Y-91113157D01*
X139768432Y-91159568D01*
X139814843Y-91197658D01*
X139867794Y-91225960D01*
X139925249Y-91243389D01*
X139985000Y-91249274D01*
X140685000Y-91249274D01*
X140744751Y-91243389D01*
X140802206Y-91225960D01*
X140855157Y-91197658D01*
X140901568Y-91159568D01*
X140939658Y-91113157D01*
X140967960Y-91060206D01*
X140970000Y-91053481D01*
X140972040Y-91060206D01*
G36*
X127206522Y-82188259D02*
G01*
X127219242Y-82203758D01*
X127234740Y-82216477D01*
X127234745Y-82216482D01*
X127255746Y-82233717D01*
X127281124Y-82254544D01*
X127351725Y-82292281D01*
X127428331Y-82315519D01*
X127435604Y-82316235D01*
X127488040Y-82321400D01*
X127488047Y-82321400D01*
X127508000Y-82323365D01*
X127527953Y-82321400D01*
X127847664Y-82321400D01*
X129111518Y-83585254D01*
X129124242Y-83600758D01*
X129186124Y-83651544D01*
X129256725Y-83689281D01*
X129310093Y-83705470D01*
X129333331Y-83712519D01*
X129341335Y-83713307D01*
X129393040Y-83718400D01*
X129393046Y-83718400D01*
X129412999Y-83720365D01*
X129432952Y-83718400D01*
X138769664Y-83718400D01*
X141430523Y-86379260D01*
X141443242Y-86394758D01*
X141458740Y-86407477D01*
X141458745Y-86407482D01*
X141479472Y-86424492D01*
X141505124Y-86445544D01*
X141575723Y-86483280D01*
X141575725Y-86483281D01*
X141652331Y-86506519D01*
X141659604Y-86507235D01*
X141712040Y-86512400D01*
X141712047Y-86512400D01*
X141732000Y-86514365D01*
X141751953Y-86512400D01*
X144357664Y-86512400D01*
X145240522Y-87395259D01*
X145253242Y-87410758D01*
X145268740Y-87423477D01*
X145268745Y-87423482D01*
X145279612Y-87432400D01*
X145315124Y-87461544D01*
X145385723Y-87499280D01*
X145385725Y-87499281D01*
X145462331Y-87522519D01*
X145469604Y-87523235D01*
X145522040Y-87528400D01*
X145522047Y-87528400D01*
X145542000Y-87530365D01*
X145561953Y-87528400D01*
X153958864Y-87528400D01*
X154440183Y-88009720D01*
X154437600Y-88022708D01*
X154437600Y-88151692D01*
X154462764Y-88278198D01*
X154512124Y-88397364D01*
X154583784Y-88504610D01*
X154674990Y-88595816D01*
X154782236Y-88667476D01*
X154901402Y-88716836D01*
X155027908Y-88742000D01*
X155156892Y-88742000D01*
X155158605Y-88741659D01*
X153438164Y-90462100D01*
X152737453Y-90462100D01*
X152717500Y-90460135D01*
X152697547Y-90462100D01*
X152697540Y-90462100D01*
X152645104Y-90467265D01*
X152637831Y-90467981D01*
X152615352Y-90474800D01*
X152561225Y-90491219D01*
X152490624Y-90528956D01*
X152470300Y-90545636D01*
X152444245Y-90567018D01*
X152444240Y-90567023D01*
X152428742Y-90579742D01*
X152421274Y-90588842D01*
X152421274Y-89143000D01*
X152415389Y-89083249D01*
X152397960Y-89025794D01*
X152369658Y-88972843D01*
X152331568Y-88926432D01*
X152285157Y-88888342D01*
X152232206Y-88860040D01*
X152174751Y-88842611D01*
X152115000Y-88836726D01*
X151415000Y-88836726D01*
X151355249Y-88842611D01*
X151297794Y-88860040D01*
X151244843Y-88888342D01*
X151198432Y-88926432D01*
X151160342Y-88972843D01*
X151132040Y-89025794D01*
X151130000Y-89032519D01*
X151127960Y-89025794D01*
X151099658Y-88972843D01*
X151061568Y-88926432D01*
X151015157Y-88888342D01*
X150962206Y-88860040D01*
X150904751Y-88842611D01*
X150845000Y-88836726D01*
X150145000Y-88836726D01*
X150085249Y-88842611D01*
X150027794Y-88860040D01*
X149974843Y-88888342D01*
X149928432Y-88926432D01*
X149890342Y-88972843D01*
X149862040Y-89025794D01*
X149860000Y-89032519D01*
X149857960Y-89025794D01*
X149829658Y-88972843D01*
X149791568Y-88926432D01*
X149745157Y-88888342D01*
X149692206Y-88860040D01*
X149634751Y-88842611D01*
X149575000Y-88836726D01*
X148875000Y-88836726D01*
X148815249Y-88842611D01*
X148757794Y-88860040D01*
X148704843Y-88888342D01*
X148658432Y-88926432D01*
X148620342Y-88972843D01*
X148592040Y-89025794D01*
X148590000Y-89032519D01*
X148587960Y-89025794D01*
X148559658Y-88972843D01*
X148521568Y-88926432D01*
X148475157Y-88888342D01*
X148422206Y-88860040D01*
X148364751Y-88842611D01*
X148305000Y-88836726D01*
X147605000Y-88836726D01*
X147545249Y-88842611D01*
X147487794Y-88860040D01*
X147434843Y-88888342D01*
X147388432Y-88926432D01*
X147350342Y-88972843D01*
X147322040Y-89025794D01*
X147320000Y-89032519D01*
X147317960Y-89025794D01*
X147289658Y-88972843D01*
X147251568Y-88926432D01*
X147205157Y-88888342D01*
X147152206Y-88860040D01*
X147094751Y-88842611D01*
X147035000Y-88836726D01*
X146335000Y-88836726D01*
X146275249Y-88842611D01*
X146217794Y-88860040D01*
X146164843Y-88888342D01*
X146118432Y-88926432D01*
X146080342Y-88972843D01*
X146052040Y-89025794D01*
X146050000Y-89032519D01*
X146047960Y-89025794D01*
X146019658Y-88972843D01*
X145981568Y-88926432D01*
X145935157Y-88888342D01*
X145882206Y-88860040D01*
X145824751Y-88842611D01*
X145765000Y-88836726D01*
X145065000Y-88836726D01*
X145005249Y-88842611D01*
X144947794Y-88860040D01*
X144894843Y-88888342D01*
X144848432Y-88926432D01*
X144810342Y-88972843D01*
X144782040Y-89025794D01*
X144780000Y-89032519D01*
X144777960Y-89025794D01*
X144749658Y-88972843D01*
X144711568Y-88926432D01*
X144665157Y-88888342D01*
X144612206Y-88860040D01*
X144554751Y-88842611D01*
X144495000Y-88836726D01*
X143795000Y-88836726D01*
X143735249Y-88842611D01*
X143677794Y-88860040D01*
X143624843Y-88888342D01*
X143578432Y-88926432D01*
X143540342Y-88972843D01*
X143512040Y-89025794D01*
X143510000Y-89032519D01*
X143507960Y-89025794D01*
X143479658Y-88972843D01*
X143441568Y-88926432D01*
X143395157Y-88888342D01*
X143355205Y-88866988D01*
X143341873Y-88842046D01*
X143272043Y-88756957D01*
X143250714Y-88739453D01*
X142996725Y-88485463D01*
X142932954Y-88433128D01*
X142835877Y-88381239D01*
X142730544Y-88349287D01*
X142634543Y-88339831D01*
X142593876Y-88306456D01*
X142523275Y-88268719D01*
X142446668Y-88245481D01*
X142386960Y-88239600D01*
X142386953Y-88239600D01*
X142367000Y-88237635D01*
X142347047Y-88239600D01*
X139995337Y-88239600D01*
X139366481Y-87610745D01*
X139353758Y-87595242D01*
X139291876Y-87544456D01*
X139221275Y-87506719D01*
X139144668Y-87483481D01*
X139084960Y-87477600D01*
X139084953Y-87477600D01*
X139065000Y-87475635D01*
X139045047Y-87477600D01*
X135423337Y-87477600D01*
X134540481Y-86594745D01*
X134527758Y-86579242D01*
X134465876Y-86528456D01*
X134395275Y-86490719D01*
X134318668Y-86467481D01*
X134258960Y-86461600D01*
X134258953Y-86461600D01*
X134239000Y-86459635D01*
X134219047Y-86461600D01*
X133645336Y-86461600D01*
X132508481Y-85324745D01*
X132495758Y-85309242D01*
X132433876Y-85258456D01*
X132363275Y-85220719D01*
X132286668Y-85197481D01*
X132226960Y-85191600D01*
X132226953Y-85191600D01*
X132207000Y-85189635D01*
X132187047Y-85191600D01*
X129454336Y-85191600D01*
X127758145Y-83495409D01*
X127781800Y-83376492D01*
X127781800Y-83247508D01*
X127756636Y-83121002D01*
X127707276Y-83001836D01*
X127635616Y-82894590D01*
X127544410Y-82803384D01*
X127437164Y-82731724D01*
X127317998Y-82682364D01*
X127191492Y-82657200D01*
X127062508Y-82657200D01*
X126936002Y-82682364D01*
X126816836Y-82731724D01*
X126709590Y-82803384D01*
X126618384Y-82894590D01*
X126546724Y-83001836D01*
X126497364Y-83121002D01*
X126472200Y-83247508D01*
X126472200Y-83376492D01*
X126497364Y-83502998D01*
X126546724Y-83622164D01*
X126618384Y-83729410D01*
X126709590Y-83820616D01*
X126816836Y-83892276D01*
X126936002Y-83941636D01*
X127062508Y-83966800D01*
X127080064Y-83966800D01*
X128310464Y-85197200D01*
X128205508Y-85197200D01*
X128079002Y-85222364D01*
X127959836Y-85271724D01*
X127852590Y-85343384D01*
X127761384Y-85434590D01*
X127689724Y-85541836D01*
X127640364Y-85661002D01*
X127615200Y-85787508D01*
X127615200Y-85916492D01*
X127640364Y-86042998D01*
X127688706Y-86159706D01*
X127571998Y-86111364D01*
X127445492Y-86086200D01*
X127316508Y-86086200D01*
X127190002Y-86111364D01*
X127070836Y-86160724D01*
X126963590Y-86232384D01*
X126872384Y-86323590D01*
X126800724Y-86430836D01*
X126751364Y-86550002D01*
X126726200Y-86676508D01*
X126726200Y-86805492D01*
X126751364Y-86931998D01*
X126800724Y-87051164D01*
X126872384Y-87158410D01*
X126937574Y-87223600D01*
X126914337Y-87223600D01*
X126263400Y-86572664D01*
X126263400Y-81245136D01*
X127206522Y-82188259D01*
X127206522Y-82188259D01*
G37*
X127206522Y-82188259D02*
X127219242Y-82203758D01*
X127234740Y-82216477D01*
X127234745Y-82216482D01*
X127255746Y-82233717D01*
X127281124Y-82254544D01*
X127351725Y-82292281D01*
X127428331Y-82315519D01*
X127435604Y-82316235D01*
X127488040Y-82321400D01*
X127488047Y-82321400D01*
X127508000Y-82323365D01*
X127527953Y-82321400D01*
X127847664Y-82321400D01*
X129111518Y-83585254D01*
X129124242Y-83600758D01*
X129186124Y-83651544D01*
X129256725Y-83689281D01*
X129310093Y-83705470D01*
X129333331Y-83712519D01*
X129341335Y-83713307D01*
X129393040Y-83718400D01*
X129393046Y-83718400D01*
X129412999Y-83720365D01*
X129432952Y-83718400D01*
X138769664Y-83718400D01*
X141430523Y-86379260D01*
X141443242Y-86394758D01*
X141458740Y-86407477D01*
X141458745Y-86407482D01*
X141479472Y-86424492D01*
X141505124Y-86445544D01*
X141575723Y-86483280D01*
X141575725Y-86483281D01*
X141652331Y-86506519D01*
X141659604Y-86507235D01*
X141712040Y-86512400D01*
X141712047Y-86512400D01*
X141732000Y-86514365D01*
X141751953Y-86512400D01*
X144357664Y-86512400D01*
X145240522Y-87395259D01*
X145253242Y-87410758D01*
X145268740Y-87423477D01*
X145268745Y-87423482D01*
X145279612Y-87432400D01*
X145315124Y-87461544D01*
X145385723Y-87499280D01*
X145385725Y-87499281D01*
X145462331Y-87522519D01*
X145469604Y-87523235D01*
X145522040Y-87528400D01*
X145522047Y-87528400D01*
X145542000Y-87530365D01*
X145561953Y-87528400D01*
X153958864Y-87528400D01*
X154440183Y-88009720D01*
X154437600Y-88022708D01*
X154437600Y-88151692D01*
X154462764Y-88278198D01*
X154512124Y-88397364D01*
X154583784Y-88504610D01*
X154674990Y-88595816D01*
X154782236Y-88667476D01*
X154901402Y-88716836D01*
X155027908Y-88742000D01*
X155156892Y-88742000D01*
X155158605Y-88741659D01*
X153438164Y-90462100D01*
X152737453Y-90462100D01*
X152717500Y-90460135D01*
X152697547Y-90462100D01*
X152697540Y-90462100D01*
X152645104Y-90467265D01*
X152637831Y-90467981D01*
X152615352Y-90474800D01*
X152561225Y-90491219D01*
X152490624Y-90528956D01*
X152470300Y-90545636D01*
X152444245Y-90567018D01*
X152444240Y-90567023D01*
X152428742Y-90579742D01*
X152421274Y-90588842D01*
X152421274Y-89143000D01*
X152415389Y-89083249D01*
X152397960Y-89025794D01*
X152369658Y-88972843D01*
X152331568Y-88926432D01*
X152285157Y-88888342D01*
X152232206Y-88860040D01*
X152174751Y-88842611D01*
X152115000Y-88836726D01*
X151415000Y-88836726D01*
X151355249Y-88842611D01*
X151297794Y-88860040D01*
X151244843Y-88888342D01*
X151198432Y-88926432D01*
X151160342Y-88972843D01*
X151132040Y-89025794D01*
X151130000Y-89032519D01*
X151127960Y-89025794D01*
X151099658Y-88972843D01*
X151061568Y-88926432D01*
X151015157Y-88888342D01*
X150962206Y-88860040D01*
X150904751Y-88842611D01*
X150845000Y-88836726D01*
X150145000Y-88836726D01*
X150085249Y-88842611D01*
X150027794Y-88860040D01*
X149974843Y-88888342D01*
X149928432Y-88926432D01*
X149890342Y-88972843D01*
X149862040Y-89025794D01*
X149860000Y-89032519D01*
X149857960Y-89025794D01*
X149829658Y-88972843D01*
X149791568Y-88926432D01*
X149745157Y-88888342D01*
X149692206Y-88860040D01*
X149634751Y-88842611D01*
X149575000Y-88836726D01*
X148875000Y-88836726D01*
X148815249Y-88842611D01*
X148757794Y-88860040D01*
X148704843Y-88888342D01*
X148658432Y-88926432D01*
X148620342Y-88972843D01*
X148592040Y-89025794D01*
X148590000Y-89032519D01*
X148587960Y-89025794D01*
X148559658Y-88972843D01*
X148521568Y-88926432D01*
X148475157Y-88888342D01*
X148422206Y-88860040D01*
X148364751Y-88842611D01*
X148305000Y-88836726D01*
X147605000Y-88836726D01*
X147545249Y-88842611D01*
X147487794Y-88860040D01*
X147434843Y-88888342D01*
X147388432Y-88926432D01*
X147350342Y-88972843D01*
X147322040Y-89025794D01*
X147320000Y-89032519D01*
X147317960Y-89025794D01*
X147289658Y-88972843D01*
X147251568Y-88926432D01*
X147205157Y-88888342D01*
X147152206Y-88860040D01*
X147094751Y-88842611D01*
X147035000Y-88836726D01*
X146335000Y-88836726D01*
X146275249Y-88842611D01*
X146217794Y-88860040D01*
X146164843Y-88888342D01*
X146118432Y-88926432D01*
X146080342Y-88972843D01*
X146052040Y-89025794D01*
X146050000Y-89032519D01*
X146047960Y-89025794D01*
X146019658Y-88972843D01*
X145981568Y-88926432D01*
X145935157Y-88888342D01*
X145882206Y-88860040D01*
X145824751Y-88842611D01*
X145765000Y-88836726D01*
X145065000Y-88836726D01*
X145005249Y-88842611D01*
X144947794Y-88860040D01*
X144894843Y-88888342D01*
X144848432Y-88926432D01*
X144810342Y-88972843D01*
X144782040Y-89025794D01*
X144780000Y-89032519D01*
X144777960Y-89025794D01*
X144749658Y-88972843D01*
X144711568Y-88926432D01*
X144665157Y-88888342D01*
X144612206Y-88860040D01*
X144554751Y-88842611D01*
X144495000Y-88836726D01*
X143795000Y-88836726D01*
X143735249Y-88842611D01*
X143677794Y-88860040D01*
X143624843Y-88888342D01*
X143578432Y-88926432D01*
X143540342Y-88972843D01*
X143512040Y-89025794D01*
X143510000Y-89032519D01*
X143507960Y-89025794D01*
X143479658Y-88972843D01*
X143441568Y-88926432D01*
X143395157Y-88888342D01*
X143355205Y-88866988D01*
X143341873Y-88842046D01*
X143272043Y-88756957D01*
X143250714Y-88739453D01*
X142996725Y-88485463D01*
X142932954Y-88433128D01*
X142835877Y-88381239D01*
X142730544Y-88349287D01*
X142634543Y-88339831D01*
X142593876Y-88306456D01*
X142523275Y-88268719D01*
X142446668Y-88245481D01*
X142386960Y-88239600D01*
X142386953Y-88239600D01*
X142367000Y-88237635D01*
X142347047Y-88239600D01*
X139995337Y-88239600D01*
X139366481Y-87610745D01*
X139353758Y-87595242D01*
X139291876Y-87544456D01*
X139221275Y-87506719D01*
X139144668Y-87483481D01*
X139084960Y-87477600D01*
X139084953Y-87477600D01*
X139065000Y-87475635D01*
X139045047Y-87477600D01*
X135423337Y-87477600D01*
X134540481Y-86594745D01*
X134527758Y-86579242D01*
X134465876Y-86528456D01*
X134395275Y-86490719D01*
X134318668Y-86467481D01*
X134258960Y-86461600D01*
X134258953Y-86461600D01*
X134239000Y-86459635D01*
X134219047Y-86461600D01*
X133645336Y-86461600D01*
X132508481Y-85324745D01*
X132495758Y-85309242D01*
X132433876Y-85258456D01*
X132363275Y-85220719D01*
X132286668Y-85197481D01*
X132226960Y-85191600D01*
X132226953Y-85191600D01*
X132207000Y-85189635D01*
X132187047Y-85191600D01*
X129454336Y-85191600D01*
X127758145Y-83495409D01*
X127781800Y-83376492D01*
X127781800Y-83247508D01*
X127756636Y-83121002D01*
X127707276Y-83001836D01*
X127635616Y-82894590D01*
X127544410Y-82803384D01*
X127437164Y-82731724D01*
X127317998Y-82682364D01*
X127191492Y-82657200D01*
X127062508Y-82657200D01*
X126936002Y-82682364D01*
X126816836Y-82731724D01*
X126709590Y-82803384D01*
X126618384Y-82894590D01*
X126546724Y-83001836D01*
X126497364Y-83121002D01*
X126472200Y-83247508D01*
X126472200Y-83376492D01*
X126497364Y-83502998D01*
X126546724Y-83622164D01*
X126618384Y-83729410D01*
X126709590Y-83820616D01*
X126816836Y-83892276D01*
X126936002Y-83941636D01*
X127062508Y-83966800D01*
X127080064Y-83966800D01*
X128310464Y-85197200D01*
X128205508Y-85197200D01*
X128079002Y-85222364D01*
X127959836Y-85271724D01*
X127852590Y-85343384D01*
X127761384Y-85434590D01*
X127689724Y-85541836D01*
X127640364Y-85661002D01*
X127615200Y-85787508D01*
X127615200Y-85916492D01*
X127640364Y-86042998D01*
X127688706Y-86159706D01*
X127571998Y-86111364D01*
X127445492Y-86086200D01*
X127316508Y-86086200D01*
X127190002Y-86111364D01*
X127070836Y-86160724D01*
X126963590Y-86232384D01*
X126872384Y-86323590D01*
X126800724Y-86430836D01*
X126751364Y-86550002D01*
X126726200Y-86676508D01*
X126726200Y-86805492D01*
X126751364Y-86931998D01*
X126800724Y-87051164D01*
X126872384Y-87158410D01*
X126937574Y-87223600D01*
X126914337Y-87223600D01*
X126263400Y-86572664D01*
X126263400Y-81245136D01*
X127206522Y-82188259D01*
G36*
X151319508Y-78505800D02*
G01*
X151424464Y-78505800D01*
X151110741Y-78819523D01*
X151095243Y-78832242D01*
X151082524Y-78847740D01*
X151082518Y-78847746D01*
X151061549Y-78873298D01*
X151044457Y-78894124D01*
X151028935Y-78923164D01*
X151006719Y-78964726D01*
X150983481Y-79041332D01*
X150975635Y-79121000D01*
X150977601Y-79140963D01*
X150977600Y-81111664D01*
X150953480Y-81135784D01*
X150940492Y-81133200D01*
X150811508Y-81133200D01*
X150685002Y-81158364D01*
X150565836Y-81207724D01*
X150458590Y-81279384D01*
X150367384Y-81370590D01*
X150295724Y-81477836D01*
X150246364Y-81597002D01*
X150221200Y-81723508D01*
X150221200Y-81852492D01*
X150246364Y-81978998D01*
X150295724Y-82098164D01*
X150367384Y-82205410D01*
X150458590Y-82296616D01*
X150565836Y-82368276D01*
X150685002Y-82417636D01*
X150811508Y-82442800D01*
X150940492Y-82442800D01*
X150953480Y-82440216D01*
X151418863Y-82905600D01*
X150917337Y-82905600D01*
X147875482Y-79863746D01*
X147862758Y-79848242D01*
X147800876Y-79797456D01*
X147730275Y-79759719D01*
X147653668Y-79736481D01*
X147593960Y-79730600D01*
X147593953Y-79730600D01*
X147574000Y-79728635D01*
X147554047Y-79730600D01*
X147327973Y-79730600D01*
X147320616Y-79719590D01*
X147229410Y-79628384D01*
X147122164Y-79556724D01*
X147002998Y-79507364D01*
X146876492Y-79482200D01*
X146747508Y-79482200D01*
X146621002Y-79507364D01*
X146501836Y-79556724D01*
X146394590Y-79628384D01*
X146303384Y-79719590D01*
X146231724Y-79826836D01*
X146182364Y-79946002D01*
X146157200Y-80072508D01*
X146157200Y-80201492D01*
X146182364Y-80327998D01*
X146231724Y-80447164D01*
X146262084Y-80492600D01*
X146196800Y-80492600D01*
X146196800Y-80453508D01*
X146171636Y-80327002D01*
X146122276Y-80207836D01*
X146050616Y-80100590D01*
X145959410Y-80009384D01*
X145852164Y-79937724D01*
X145732998Y-79888364D01*
X145606492Y-79863200D01*
X145477508Y-79863200D01*
X145351002Y-79888364D01*
X145231836Y-79937724D01*
X145124590Y-80009384D01*
X145033384Y-80100590D01*
X144961724Y-80207836D01*
X144912364Y-80327002D01*
X144887200Y-80453508D01*
X144887200Y-80582492D01*
X144912364Y-80708998D01*
X144961724Y-80828164D01*
X145033384Y-80935410D01*
X145124590Y-81026616D01*
X145231836Y-81098276D01*
X145241309Y-81102200D01*
X144232077Y-81102200D01*
X144112663Y-81113961D01*
X143959450Y-81160438D01*
X143818248Y-81235912D01*
X143694483Y-81337483D01*
X143592912Y-81461248D01*
X143517438Y-81602450D01*
X143470961Y-81755663D01*
X143455268Y-81915000D01*
X143470961Y-82074337D01*
X143517438Y-82227550D01*
X143592912Y-82368752D01*
X143694483Y-82492517D01*
X143818248Y-82594088D01*
X143959450Y-82669562D01*
X144112663Y-82716039D01*
X144232077Y-82727800D01*
X146602328Y-82727800D01*
X149066127Y-85191600D01*
X146472337Y-85191600D01*
X145589481Y-84308745D01*
X145576758Y-84293242D01*
X145514876Y-84242456D01*
X145444275Y-84204719D01*
X145367668Y-84181481D01*
X145307960Y-84175600D01*
X145307953Y-84175600D01*
X145288000Y-84173635D01*
X145268047Y-84175600D01*
X143043337Y-84175600D01*
X140382481Y-81514745D01*
X140369758Y-81499242D01*
X140307876Y-81448456D01*
X140237275Y-81410719D01*
X140160668Y-81387481D01*
X140100960Y-81381600D01*
X140100953Y-81381600D01*
X140081000Y-81379635D01*
X140061047Y-81381600D01*
X132248336Y-81381600D01*
X131873482Y-81006746D01*
X131860758Y-80991242D01*
X131798876Y-80940456D01*
X131728275Y-80902719D01*
X131651668Y-80879481D01*
X131591960Y-80873600D01*
X131591953Y-80873600D01*
X131572000Y-80871635D01*
X131552047Y-80873600D01*
X130436973Y-80873600D01*
X130429616Y-80862590D01*
X130338410Y-80771384D01*
X130231164Y-80699724D01*
X130111998Y-80650364D01*
X129985492Y-80625200D01*
X129856508Y-80625200D01*
X129730002Y-80650364D01*
X129610836Y-80699724D01*
X129503590Y-80771384D01*
X129412384Y-80862590D01*
X129340724Y-80969836D01*
X129291364Y-81089002D01*
X129266200Y-81215508D01*
X129266200Y-81344492D01*
X129291364Y-81470998D01*
X129340724Y-81590164D01*
X129412384Y-81697410D01*
X129503590Y-81788616D01*
X129610836Y-81860276D01*
X129730002Y-81909636D01*
X129856508Y-81934800D01*
X129985492Y-81934800D01*
X130111998Y-81909636D01*
X130173792Y-81884040D01*
X130155200Y-81977508D01*
X130155200Y-82106492D01*
X130180364Y-82232998D01*
X130229724Y-82352164D01*
X130260084Y-82397600D01*
X130089337Y-82397600D01*
X128634981Y-80943245D01*
X128622258Y-80927742D01*
X128560376Y-80876956D01*
X128489775Y-80839219D01*
X128413168Y-80815981D01*
X128353460Y-80810100D01*
X128353453Y-80810100D01*
X128333500Y-80808135D01*
X128313547Y-80810100D01*
X127866836Y-80810100D01*
X127695219Y-80638483D01*
X127698002Y-80639636D01*
X127824508Y-80664800D01*
X127953492Y-80664800D01*
X128079998Y-80639636D01*
X128199164Y-80590276D01*
X128306410Y-80518616D01*
X128397616Y-80427410D01*
X128404973Y-80416400D01*
X130514664Y-80416400D01*
X130762518Y-80664254D01*
X130775242Y-80679758D01*
X130837124Y-80730544D01*
X130907725Y-80768281D01*
X130961093Y-80784470D01*
X130984331Y-80791519D01*
X130992335Y-80792307D01*
X131044040Y-80797400D01*
X131044046Y-80797400D01*
X131063999Y-80799365D01*
X131083952Y-80797400D01*
X140696047Y-80797400D01*
X140716000Y-80799365D01*
X140735953Y-80797400D01*
X140735960Y-80797400D01*
X140795668Y-80791519D01*
X140872275Y-80768281D01*
X140942876Y-80730544D01*
X141004758Y-80679758D01*
X141017482Y-80664254D01*
X142408336Y-79273400D01*
X150348047Y-79273400D01*
X150368000Y-79275365D01*
X150387953Y-79273400D01*
X150387960Y-79273400D01*
X150447668Y-79267519D01*
X150524275Y-79244281D01*
X150594876Y-79206544D01*
X150656758Y-79155758D01*
X150669482Y-79140254D01*
X151306520Y-78503217D01*
X151319508Y-78505800D01*
X151319508Y-78505800D01*
G37*
X151319508Y-78505800D02*
X151424464Y-78505800D01*
X151110741Y-78819523D01*
X151095243Y-78832242D01*
X151082524Y-78847740D01*
X151082518Y-78847746D01*
X151061549Y-78873298D01*
X151044457Y-78894124D01*
X151028935Y-78923164D01*
X151006719Y-78964726D01*
X150983481Y-79041332D01*
X150975635Y-79121000D01*
X150977601Y-79140963D01*
X150977600Y-81111664D01*
X150953480Y-81135784D01*
X150940492Y-81133200D01*
X150811508Y-81133200D01*
X150685002Y-81158364D01*
X150565836Y-81207724D01*
X150458590Y-81279384D01*
X150367384Y-81370590D01*
X150295724Y-81477836D01*
X150246364Y-81597002D01*
X150221200Y-81723508D01*
X150221200Y-81852492D01*
X150246364Y-81978998D01*
X150295724Y-82098164D01*
X150367384Y-82205410D01*
X150458590Y-82296616D01*
X150565836Y-82368276D01*
X150685002Y-82417636D01*
X150811508Y-82442800D01*
X150940492Y-82442800D01*
X150953480Y-82440216D01*
X151418863Y-82905600D01*
X150917337Y-82905600D01*
X147875482Y-79863746D01*
X147862758Y-79848242D01*
X147800876Y-79797456D01*
X147730275Y-79759719D01*
X147653668Y-79736481D01*
X147593960Y-79730600D01*
X147593953Y-79730600D01*
X147574000Y-79728635D01*
X147554047Y-79730600D01*
X147327973Y-79730600D01*
X147320616Y-79719590D01*
X147229410Y-79628384D01*
X147122164Y-79556724D01*
X147002998Y-79507364D01*
X146876492Y-79482200D01*
X146747508Y-79482200D01*
X146621002Y-79507364D01*
X146501836Y-79556724D01*
X146394590Y-79628384D01*
X146303384Y-79719590D01*
X146231724Y-79826836D01*
X146182364Y-79946002D01*
X146157200Y-80072508D01*
X146157200Y-80201492D01*
X146182364Y-80327998D01*
X146231724Y-80447164D01*
X146262084Y-80492600D01*
X146196800Y-80492600D01*
X146196800Y-80453508D01*
X146171636Y-80327002D01*
X146122276Y-80207836D01*
X146050616Y-80100590D01*
X145959410Y-80009384D01*
X145852164Y-79937724D01*
X145732998Y-79888364D01*
X145606492Y-79863200D01*
X145477508Y-79863200D01*
X145351002Y-79888364D01*
X145231836Y-79937724D01*
X145124590Y-80009384D01*
X145033384Y-80100590D01*
X144961724Y-80207836D01*
X144912364Y-80327002D01*
X144887200Y-80453508D01*
X144887200Y-80582492D01*
X144912364Y-80708998D01*
X144961724Y-80828164D01*
X145033384Y-80935410D01*
X145124590Y-81026616D01*
X145231836Y-81098276D01*
X145241309Y-81102200D01*
X144232077Y-81102200D01*
X144112663Y-81113961D01*
X143959450Y-81160438D01*
X143818248Y-81235912D01*
X143694483Y-81337483D01*
X143592912Y-81461248D01*
X143517438Y-81602450D01*
X143470961Y-81755663D01*
X143455268Y-81915000D01*
X143470961Y-82074337D01*
X143517438Y-82227550D01*
X143592912Y-82368752D01*
X143694483Y-82492517D01*
X143818248Y-82594088D01*
X143959450Y-82669562D01*
X144112663Y-82716039D01*
X144232077Y-82727800D01*
X146602328Y-82727800D01*
X149066127Y-85191600D01*
X146472337Y-85191600D01*
X145589481Y-84308745D01*
X145576758Y-84293242D01*
X145514876Y-84242456D01*
X145444275Y-84204719D01*
X145367668Y-84181481D01*
X145307960Y-84175600D01*
X145307953Y-84175600D01*
X145288000Y-84173635D01*
X145268047Y-84175600D01*
X143043337Y-84175600D01*
X140382481Y-81514745D01*
X140369758Y-81499242D01*
X140307876Y-81448456D01*
X140237275Y-81410719D01*
X140160668Y-81387481D01*
X140100960Y-81381600D01*
X140100953Y-81381600D01*
X140081000Y-81379635D01*
X140061047Y-81381600D01*
X132248336Y-81381600D01*
X131873482Y-81006746D01*
X131860758Y-80991242D01*
X131798876Y-80940456D01*
X131728275Y-80902719D01*
X131651668Y-80879481D01*
X131591960Y-80873600D01*
X131591953Y-80873600D01*
X131572000Y-80871635D01*
X131552047Y-80873600D01*
X130436973Y-80873600D01*
X130429616Y-80862590D01*
X130338410Y-80771384D01*
X130231164Y-80699724D01*
X130111998Y-80650364D01*
X129985492Y-80625200D01*
X129856508Y-80625200D01*
X129730002Y-80650364D01*
X129610836Y-80699724D01*
X129503590Y-80771384D01*
X129412384Y-80862590D01*
X129340724Y-80969836D01*
X129291364Y-81089002D01*
X129266200Y-81215508D01*
X129266200Y-81344492D01*
X129291364Y-81470998D01*
X129340724Y-81590164D01*
X129412384Y-81697410D01*
X129503590Y-81788616D01*
X129610836Y-81860276D01*
X129730002Y-81909636D01*
X129856508Y-81934800D01*
X129985492Y-81934800D01*
X130111998Y-81909636D01*
X130173792Y-81884040D01*
X130155200Y-81977508D01*
X130155200Y-82106492D01*
X130180364Y-82232998D01*
X130229724Y-82352164D01*
X130260084Y-82397600D01*
X130089337Y-82397600D01*
X128634981Y-80943245D01*
X128622258Y-80927742D01*
X128560376Y-80876956D01*
X128489775Y-80839219D01*
X128413168Y-80815981D01*
X128353460Y-80810100D01*
X128353453Y-80810100D01*
X128333500Y-80808135D01*
X128313547Y-80810100D01*
X127866836Y-80810100D01*
X127695219Y-80638483D01*
X127698002Y-80639636D01*
X127824508Y-80664800D01*
X127953492Y-80664800D01*
X128079998Y-80639636D01*
X128199164Y-80590276D01*
X128306410Y-80518616D01*
X128397616Y-80427410D01*
X128404973Y-80416400D01*
X130514664Y-80416400D01*
X130762518Y-80664254D01*
X130775242Y-80679758D01*
X130837124Y-80730544D01*
X130907725Y-80768281D01*
X130961093Y-80784470D01*
X130984331Y-80791519D01*
X130992335Y-80792307D01*
X131044040Y-80797400D01*
X131044046Y-80797400D01*
X131063999Y-80799365D01*
X131083952Y-80797400D01*
X140696047Y-80797400D01*
X140716000Y-80799365D01*
X140735953Y-80797400D01*
X140735960Y-80797400D01*
X140795668Y-80791519D01*
X140872275Y-80768281D01*
X140942876Y-80730544D01*
X141004758Y-80679758D01*
X141017482Y-80664254D01*
X142408336Y-79273400D01*
X150348047Y-79273400D01*
X150368000Y-79275365D01*
X150387953Y-79273400D01*
X150387960Y-79273400D01*
X150447668Y-79267519D01*
X150524275Y-79244281D01*
X150594876Y-79206544D01*
X150656758Y-79155758D01*
X150669482Y-79140254D01*
X151306520Y-78503217D01*
X151319508Y-78505800D01*
G36*
X129542040Y-54484206D02*
G01*
X129570342Y-54537157D01*
X129608432Y-54583568D01*
X129625917Y-54597918D01*
X129656240Y-54697878D01*
X129708128Y-54794954D01*
X129777958Y-54880043D01*
X129863047Y-54949873D01*
X129960123Y-55001761D01*
X130065457Y-55033714D01*
X130160321Y-55043057D01*
X130784601Y-55667338D01*
X130784600Y-61956047D01*
X130782635Y-61976000D01*
X130784600Y-61995953D01*
X130784600Y-61995959D01*
X130785518Y-62005275D01*
X130790481Y-62055668D01*
X130810760Y-62122519D01*
X130813719Y-62132274D01*
X130851456Y-62202875D01*
X130902242Y-62264758D01*
X130917746Y-62277482D01*
X134953523Y-66313260D01*
X134966242Y-66328758D01*
X134981740Y-66341477D01*
X134981745Y-66341482D01*
X135000657Y-66357002D01*
X135028124Y-66379544D01*
X135098725Y-66417281D01*
X135175331Y-66440519D01*
X135182604Y-66441235D01*
X135235040Y-66446400D01*
X135235047Y-66446400D01*
X135255000Y-66448365D01*
X135274953Y-66446400D01*
X151215664Y-66446400D01*
X152120601Y-67351337D01*
X152120600Y-77809664D01*
X152038800Y-77891464D01*
X152038800Y-77786508D01*
X152013636Y-77660002D01*
X151964276Y-77540836D01*
X151892616Y-77433590D01*
X151801410Y-77342384D01*
X151707298Y-77279500D01*
X151801410Y-77216616D01*
X151892616Y-77125410D01*
X151964276Y-77018164D01*
X152013636Y-76898998D01*
X152038800Y-76772492D01*
X152038800Y-76643508D01*
X152013636Y-76517002D01*
X151964276Y-76397836D01*
X151892616Y-76290590D01*
X151801410Y-76199384D01*
X151707298Y-76136500D01*
X151801410Y-76073616D01*
X151892616Y-75982410D01*
X151964276Y-75875164D01*
X152013636Y-75755998D01*
X152038800Y-75629492D01*
X152038800Y-75500508D01*
X152013636Y-75374002D01*
X151964276Y-75254836D01*
X151892616Y-75147590D01*
X151801410Y-75056384D01*
X151694164Y-74984724D01*
X151574998Y-74935364D01*
X151448492Y-74910200D01*
X151319508Y-74910200D01*
X151193002Y-74935364D01*
X151073836Y-74984724D01*
X150966590Y-75056384D01*
X150875384Y-75147590D01*
X150803724Y-75254836D01*
X150754364Y-75374002D01*
X150729200Y-75500508D01*
X150729200Y-75629492D01*
X150731783Y-75642480D01*
X149183664Y-77190600D01*
X141751953Y-77190600D01*
X141732000Y-77188635D01*
X141712047Y-77190600D01*
X141712040Y-77190600D01*
X141659604Y-77195765D01*
X141652331Y-77196481D01*
X141585954Y-77216616D01*
X141575725Y-77219719D01*
X141505124Y-77257456D01*
X141479746Y-77278283D01*
X141458745Y-77295518D01*
X141458740Y-77295523D01*
X141443242Y-77308242D01*
X141430523Y-77323740D01*
X139785664Y-78968600D01*
X138118837Y-78968600D01*
X138148876Y-78952544D01*
X138210758Y-78901758D01*
X138223482Y-78886254D01*
X142132261Y-74977476D01*
X142147758Y-74964758D01*
X142160477Y-74949260D01*
X142160482Y-74949255D01*
X142179336Y-74926281D01*
X142198544Y-74902876D01*
X142236281Y-74832275D01*
X142239240Y-74822519D01*
X142259519Y-74755669D01*
X142263942Y-74710758D01*
X142265400Y-74695960D01*
X142265400Y-74695953D01*
X142267365Y-74676000D01*
X142265400Y-74656047D01*
X142265400Y-74429973D01*
X142276410Y-74422616D01*
X142367616Y-74331410D01*
X142439276Y-74224164D01*
X142446847Y-74205885D01*
X147177200Y-74205885D01*
X147177200Y-74384115D01*
X147211971Y-74558920D01*
X147280177Y-74723584D01*
X147379196Y-74871776D01*
X147505224Y-74997804D01*
X147653416Y-75096823D01*
X147818080Y-75165029D01*
X147992885Y-75199800D01*
X148171115Y-75199800D01*
X148345920Y-75165029D01*
X148510584Y-75096823D01*
X148658776Y-74997804D01*
X148784804Y-74871776D01*
X148883823Y-74723584D01*
X148952029Y-74558920D01*
X148986800Y-74384115D01*
X148986800Y-74205885D01*
X148952029Y-74031080D01*
X148883823Y-73866416D01*
X148784804Y-73718224D01*
X148658776Y-73592196D01*
X148510584Y-73493177D01*
X148345920Y-73424971D01*
X148171115Y-73390200D01*
X147992885Y-73390200D01*
X147818080Y-73424971D01*
X147653416Y-73493177D01*
X147505224Y-73592196D01*
X147379196Y-73718224D01*
X147280177Y-73866416D01*
X147211971Y-74031080D01*
X147177200Y-74205885D01*
X142446847Y-74205885D01*
X142488636Y-74104998D01*
X142513800Y-73978492D01*
X142513800Y-73849508D01*
X142488636Y-73723002D01*
X142439276Y-73603836D01*
X142367616Y-73496590D01*
X142276410Y-73405384D01*
X142169164Y-73333724D01*
X142049998Y-73284364D01*
X141923492Y-73259200D01*
X141794508Y-73259200D01*
X141668002Y-73284364D01*
X141548836Y-73333724D01*
X141441590Y-73405384D01*
X141350384Y-73496590D01*
X141278724Y-73603836D01*
X141229364Y-73723002D01*
X141215286Y-73793776D01*
X141164804Y-73718224D01*
X141038776Y-73592196D01*
X140890584Y-73493177D01*
X140725920Y-73424971D01*
X140551115Y-73390200D01*
X140372885Y-73390200D01*
X140198080Y-73424971D01*
X140033416Y-73493177D01*
X139885224Y-73592196D01*
X139759196Y-73718224D01*
X139660177Y-73866416D01*
X139591971Y-74031080D01*
X139557200Y-74205885D01*
X139557200Y-74384115D01*
X139591971Y-74558920D01*
X139660177Y-74723584D01*
X139759196Y-74871776D01*
X139885224Y-74997804D01*
X140033416Y-75096823D01*
X140198080Y-75165029D01*
X140372885Y-75199800D01*
X140551115Y-75199800D01*
X140725920Y-75165029D01*
X140844247Y-75116017D01*
X137753664Y-78206600D01*
X136312916Y-78206600D01*
X136343276Y-78161164D01*
X136392636Y-78041998D01*
X136417800Y-77915492D01*
X136417800Y-77786508D01*
X136392636Y-77660002D01*
X136343276Y-77540836D01*
X136271616Y-77433590D01*
X136180410Y-77342384D01*
X136073164Y-77270724D01*
X135953998Y-77221364D01*
X135827492Y-77196200D01*
X135698508Y-77196200D01*
X135572002Y-77221364D01*
X135452836Y-77270724D01*
X135345590Y-77342384D01*
X135254384Y-77433590D01*
X135247027Y-77444600D01*
X130597916Y-77444600D01*
X130628276Y-77399164D01*
X130677636Y-77279998D01*
X130702800Y-77153492D01*
X130702800Y-77024508D01*
X130677636Y-76898002D01*
X130628276Y-76778836D01*
X130556616Y-76671590D01*
X130480881Y-76595855D01*
X131359336Y-75717400D01*
X134346047Y-75717400D01*
X134366000Y-75719365D01*
X134385953Y-75717400D01*
X134385960Y-75717400D01*
X134445668Y-75711519D01*
X134522275Y-75688281D01*
X134592876Y-75650544D01*
X134654758Y-75599758D01*
X134667482Y-75584254D01*
X136036254Y-74215482D01*
X136051758Y-74202758D01*
X136102544Y-74140876D01*
X136140281Y-74070275D01*
X136163519Y-73993668D01*
X136169400Y-73933960D01*
X136169400Y-73933954D01*
X136171365Y-73914001D01*
X136169400Y-73894048D01*
X136169400Y-73044952D01*
X136171365Y-73024999D01*
X136169400Y-73005046D01*
X136169400Y-73005040D01*
X136163519Y-72945332D01*
X136140281Y-72868725D01*
X136102544Y-72798124D01*
X136051758Y-72736242D01*
X136036255Y-72723519D01*
X135601136Y-72288400D01*
X149818664Y-72288400D01*
X150731784Y-73201520D01*
X150729200Y-73214508D01*
X150729200Y-73343492D01*
X150754364Y-73469998D01*
X150803724Y-73589164D01*
X150875384Y-73696410D01*
X150966590Y-73787616D01*
X151073836Y-73859276D01*
X151193002Y-73908636D01*
X151319508Y-73933800D01*
X151448492Y-73933800D01*
X151574998Y-73908636D01*
X151694164Y-73859276D01*
X151801410Y-73787616D01*
X151892616Y-73696410D01*
X151964276Y-73589164D01*
X152013636Y-73469998D01*
X152038800Y-73343492D01*
X152038800Y-73214508D01*
X152013636Y-73088002D01*
X151964276Y-72968836D01*
X151892616Y-72861590D01*
X151801410Y-72770384D01*
X151694164Y-72698724D01*
X151574998Y-72649364D01*
X151548032Y-72644000D01*
X151574998Y-72638636D01*
X151694164Y-72589276D01*
X151801410Y-72517616D01*
X151892616Y-72426410D01*
X151964276Y-72319164D01*
X152013636Y-72199998D01*
X152038800Y-72073492D01*
X152038800Y-71944508D01*
X152013636Y-71818002D01*
X151964276Y-71698836D01*
X151892616Y-71591590D01*
X151801410Y-71500384D01*
X151694164Y-71428724D01*
X151574998Y-71379364D01*
X151448492Y-71354200D01*
X151319508Y-71354200D01*
X151306520Y-71356784D01*
X151050481Y-71100745D01*
X151037758Y-71085242D01*
X150975876Y-71034456D01*
X150905275Y-70996719D01*
X150828668Y-70973481D01*
X150768960Y-70967600D01*
X150768953Y-70967600D01*
X150749000Y-70965635D01*
X150729047Y-70967600D01*
X136185336Y-70967600D01*
X132590244Y-67372508D01*
X141966200Y-67372508D01*
X141966200Y-67501492D01*
X141991364Y-67627998D01*
X142040724Y-67747164D01*
X142112384Y-67854410D01*
X142203590Y-67945616D01*
X142310836Y-68017276D01*
X142430002Y-68066636D01*
X142556508Y-68091800D01*
X142685492Y-68091800D01*
X142811998Y-68066636D01*
X142931164Y-68017276D01*
X143031213Y-67950425D01*
X143007364Y-68008002D01*
X142982200Y-68134508D01*
X142982200Y-68263492D01*
X143007364Y-68389998D01*
X143056724Y-68509164D01*
X143128384Y-68616410D01*
X143219590Y-68707616D01*
X143326836Y-68779276D01*
X143446002Y-68828636D01*
X143572508Y-68853800D01*
X143701492Y-68853800D01*
X143714480Y-68851216D01*
X144224522Y-69361259D01*
X144237242Y-69376758D01*
X144252740Y-69389477D01*
X144252745Y-69389482D01*
X144273746Y-69406717D01*
X144299124Y-69427544D01*
X144369725Y-69465281D01*
X144446331Y-69488519D01*
X144453604Y-69489235D01*
X144506040Y-69494400D01*
X144506047Y-69494400D01*
X144526000Y-69496365D01*
X144545953Y-69494400D01*
X150487027Y-69494400D01*
X150494384Y-69505410D01*
X150585590Y-69596616D01*
X150692836Y-69668276D01*
X150812002Y-69717636D01*
X150938508Y-69742800D01*
X151067492Y-69742800D01*
X151193998Y-69717636D01*
X151313164Y-69668276D01*
X151420410Y-69596616D01*
X151511616Y-69505410D01*
X151583276Y-69398164D01*
X151632636Y-69278998D01*
X151657800Y-69152492D01*
X151657800Y-69023508D01*
X151632636Y-68897002D01*
X151583276Y-68777836D01*
X151511616Y-68670590D01*
X151420410Y-68579384D01*
X151313164Y-68507724D01*
X151193998Y-68458364D01*
X151067492Y-68433200D01*
X150938508Y-68433200D01*
X150845040Y-68451792D01*
X150870636Y-68389998D01*
X150895800Y-68263492D01*
X150895800Y-68134508D01*
X150870636Y-68008002D01*
X150821276Y-67888836D01*
X150783445Y-67832218D01*
X150811508Y-67837800D01*
X150940492Y-67837800D01*
X151066998Y-67812636D01*
X151186164Y-67763276D01*
X151293410Y-67691616D01*
X151384616Y-67600410D01*
X151456276Y-67493164D01*
X151505636Y-67373998D01*
X151530800Y-67247492D01*
X151530800Y-67118508D01*
X151505636Y-66992002D01*
X151456276Y-66872836D01*
X151384616Y-66765590D01*
X151293410Y-66674384D01*
X151186164Y-66602724D01*
X151066998Y-66553364D01*
X150940492Y-66528200D01*
X150811508Y-66528200D01*
X150685002Y-66553364D01*
X150565836Y-66602724D01*
X150458590Y-66674384D01*
X150367384Y-66765590D01*
X150295724Y-66872836D01*
X150282981Y-66903600D01*
X146438973Y-66903600D01*
X146431616Y-66892590D01*
X146340410Y-66801384D01*
X146233164Y-66729724D01*
X146113998Y-66680364D01*
X145987492Y-66655200D01*
X145858508Y-66655200D01*
X145732002Y-66680364D01*
X145612836Y-66729724D01*
X145505590Y-66801384D01*
X145414384Y-66892590D01*
X145342724Y-66999836D01*
X145293364Y-67119002D01*
X145268200Y-67245508D01*
X145268200Y-67374492D01*
X145293364Y-67500998D01*
X145342724Y-67620164D01*
X145414384Y-67727410D01*
X145479574Y-67792600D01*
X145202337Y-67792600D01*
X144446482Y-67036746D01*
X144433758Y-67021242D01*
X144371876Y-66970456D01*
X144301275Y-66932719D01*
X144224668Y-66909481D01*
X144164960Y-66903600D01*
X144164953Y-66903600D01*
X144145000Y-66901635D01*
X144125047Y-66903600D01*
X143001318Y-66903600D01*
X142931164Y-66856724D01*
X142811998Y-66807364D01*
X142685492Y-66782200D01*
X142556508Y-66782200D01*
X142430002Y-66807364D01*
X142310836Y-66856724D01*
X142203590Y-66928384D01*
X142112384Y-67019590D01*
X142040724Y-67126836D01*
X141991364Y-67246002D01*
X141966200Y-67372508D01*
X132590244Y-67372508D01*
X131873482Y-66655746D01*
X131860758Y-66640242D01*
X131798876Y-66589456D01*
X131728275Y-66551719D01*
X131651668Y-66528481D01*
X131591960Y-66522600D01*
X131591953Y-66522600D01*
X131572000Y-66520635D01*
X131552047Y-66522600D01*
X130690973Y-66522600D01*
X130683616Y-66511590D01*
X130592410Y-66420384D01*
X130485164Y-66348724D01*
X130365998Y-66299364D01*
X130239492Y-66274200D01*
X130110508Y-66274200D01*
X129984002Y-66299364D01*
X129864836Y-66348724D01*
X129757590Y-66420384D01*
X129666384Y-66511590D01*
X129594724Y-66618836D01*
X129545364Y-66738002D01*
X129520200Y-66864508D01*
X129520200Y-66993492D01*
X129545364Y-67119998D01*
X129594724Y-67239164D01*
X129666384Y-67346410D01*
X129757590Y-67437616D01*
X129864836Y-67509276D01*
X129984002Y-67558636D01*
X130110508Y-67583800D01*
X130239492Y-67583800D01*
X130365998Y-67558636D01*
X130485164Y-67509276D01*
X130592410Y-67437616D01*
X130683616Y-67346410D01*
X130690973Y-67335400D01*
X131403664Y-67335400D01*
X132243492Y-68175228D01*
X132226960Y-68173600D01*
X132226953Y-68173600D01*
X132207000Y-68171635D01*
X132187047Y-68173600D01*
X131706973Y-68173600D01*
X131699616Y-68162590D01*
X131608410Y-68071384D01*
X131501164Y-67999724D01*
X131381998Y-67950364D01*
X131255492Y-67925200D01*
X131126508Y-67925200D01*
X131000002Y-67950364D01*
X130880836Y-67999724D01*
X130773590Y-68071384D01*
X130682384Y-68162590D01*
X130610724Y-68269836D01*
X130561364Y-68389002D01*
X130536200Y-68515508D01*
X130536200Y-68644492D01*
X130561364Y-68770998D01*
X130610724Y-68890164D01*
X130682384Y-68997410D01*
X130747574Y-69062600D01*
X129581337Y-69062600D01*
X128168400Y-67649664D01*
X128168400Y-67063973D01*
X128179410Y-67056616D01*
X128270616Y-66965410D01*
X128342276Y-66858164D01*
X128391636Y-66738998D01*
X128416800Y-66612492D01*
X128416800Y-66483508D01*
X128391636Y-66357002D01*
X128342276Y-66237836D01*
X128270616Y-66130590D01*
X128179410Y-66039384D01*
X128072164Y-65967724D01*
X127952998Y-65918364D01*
X127826492Y-65893200D01*
X127697508Y-65893200D01*
X127669445Y-65898782D01*
X127707276Y-65842164D01*
X127756636Y-65722998D01*
X127781800Y-65596492D01*
X127781800Y-65467508D01*
X127756636Y-65341002D01*
X127707276Y-65221836D01*
X127635616Y-65114590D01*
X127544410Y-65023384D01*
X127437164Y-64951724D01*
X127317998Y-64902364D01*
X127191492Y-64877200D01*
X127062508Y-64877200D01*
X126936002Y-64902364D01*
X126816836Y-64951724D01*
X126709590Y-65023384D01*
X126618384Y-65114590D01*
X126546724Y-65221836D01*
X126497364Y-65341002D01*
X126472200Y-65467508D01*
X126472200Y-65596492D01*
X126474784Y-65609480D01*
X126472746Y-65611518D01*
X126457242Y-65624242D01*
X126406456Y-65686125D01*
X126371650Y-65751242D01*
X126368719Y-65756726D01*
X126345482Y-65833331D01*
X126345481Y-65833333D01*
X126339600Y-65893041D01*
X126339600Y-65893047D01*
X126337635Y-65913000D01*
X126339600Y-65932953D01*
X126339601Y-71713662D01*
X125653800Y-72399464D01*
X125653800Y-65868672D01*
X129578500Y-61943972D01*
X129609517Y-61918517D01*
X129634972Y-61887500D01*
X130015965Y-61506507D01*
X130092088Y-61413753D01*
X130167561Y-61272550D01*
X130214038Y-61119337D01*
X130229732Y-60960001D01*
X130214038Y-60800664D01*
X130167561Y-60647451D01*
X130092088Y-60506249D01*
X129990516Y-60382484D01*
X129866751Y-60280912D01*
X129725549Y-60205439D01*
X129717800Y-60203088D01*
X129717800Y-55078077D01*
X129706039Y-54958663D01*
X129659562Y-54805450D01*
X129584088Y-54664248D01*
X129494722Y-54555355D01*
X129509658Y-54537157D01*
X129537960Y-54484206D01*
X129540000Y-54477481D01*
X129542040Y-54484206D01*
X129542040Y-54484206D01*
G37*
X129542040Y-54484206D02*
X129570342Y-54537157D01*
X129608432Y-54583568D01*
X129625917Y-54597918D01*
X129656240Y-54697878D01*
X129708128Y-54794954D01*
X129777958Y-54880043D01*
X129863047Y-54949873D01*
X129960123Y-55001761D01*
X130065457Y-55033714D01*
X130160321Y-55043057D01*
X130784601Y-55667338D01*
X130784600Y-61956047D01*
X130782635Y-61976000D01*
X130784600Y-61995953D01*
X130784600Y-61995959D01*
X130785518Y-62005275D01*
X130790481Y-62055668D01*
X130810760Y-62122519D01*
X130813719Y-62132274D01*
X130851456Y-62202875D01*
X130902242Y-62264758D01*
X130917746Y-62277482D01*
X134953523Y-66313260D01*
X134966242Y-66328758D01*
X134981740Y-66341477D01*
X134981745Y-66341482D01*
X135000657Y-66357002D01*
X135028124Y-66379544D01*
X135098725Y-66417281D01*
X135175331Y-66440519D01*
X135182604Y-66441235D01*
X135235040Y-66446400D01*
X135235047Y-66446400D01*
X135255000Y-66448365D01*
X135274953Y-66446400D01*
X151215664Y-66446400D01*
X152120601Y-67351337D01*
X152120600Y-77809664D01*
X152038800Y-77891464D01*
X152038800Y-77786508D01*
X152013636Y-77660002D01*
X151964276Y-77540836D01*
X151892616Y-77433590D01*
X151801410Y-77342384D01*
X151707298Y-77279500D01*
X151801410Y-77216616D01*
X151892616Y-77125410D01*
X151964276Y-77018164D01*
X152013636Y-76898998D01*
X152038800Y-76772492D01*
X152038800Y-76643508D01*
X152013636Y-76517002D01*
X151964276Y-76397836D01*
X151892616Y-76290590D01*
X151801410Y-76199384D01*
X151707298Y-76136500D01*
X151801410Y-76073616D01*
X151892616Y-75982410D01*
X151964276Y-75875164D01*
X152013636Y-75755998D01*
X152038800Y-75629492D01*
X152038800Y-75500508D01*
X152013636Y-75374002D01*
X151964276Y-75254836D01*
X151892616Y-75147590D01*
X151801410Y-75056384D01*
X151694164Y-74984724D01*
X151574998Y-74935364D01*
X151448492Y-74910200D01*
X151319508Y-74910200D01*
X151193002Y-74935364D01*
X151073836Y-74984724D01*
X150966590Y-75056384D01*
X150875384Y-75147590D01*
X150803724Y-75254836D01*
X150754364Y-75374002D01*
X150729200Y-75500508D01*
X150729200Y-75629492D01*
X150731783Y-75642480D01*
X149183664Y-77190600D01*
X141751953Y-77190600D01*
X141732000Y-77188635D01*
X141712047Y-77190600D01*
X141712040Y-77190600D01*
X141659604Y-77195765D01*
X141652331Y-77196481D01*
X141585954Y-77216616D01*
X141575725Y-77219719D01*
X141505124Y-77257456D01*
X141479746Y-77278283D01*
X141458745Y-77295518D01*
X141458740Y-77295523D01*
X141443242Y-77308242D01*
X141430523Y-77323740D01*
X139785664Y-78968600D01*
X138118837Y-78968600D01*
X138148876Y-78952544D01*
X138210758Y-78901758D01*
X138223482Y-78886254D01*
X142132261Y-74977476D01*
X142147758Y-74964758D01*
X142160477Y-74949260D01*
X142160482Y-74949255D01*
X142179336Y-74926281D01*
X142198544Y-74902876D01*
X142236281Y-74832275D01*
X142239240Y-74822519D01*
X142259519Y-74755669D01*
X142263942Y-74710758D01*
X142265400Y-74695960D01*
X142265400Y-74695953D01*
X142267365Y-74676000D01*
X142265400Y-74656047D01*
X142265400Y-74429973D01*
X142276410Y-74422616D01*
X142367616Y-74331410D01*
X142439276Y-74224164D01*
X142446847Y-74205885D01*
X147177200Y-74205885D01*
X147177200Y-74384115D01*
X147211971Y-74558920D01*
X147280177Y-74723584D01*
X147379196Y-74871776D01*
X147505224Y-74997804D01*
X147653416Y-75096823D01*
X147818080Y-75165029D01*
X147992885Y-75199800D01*
X148171115Y-75199800D01*
X148345920Y-75165029D01*
X148510584Y-75096823D01*
X148658776Y-74997804D01*
X148784804Y-74871776D01*
X148883823Y-74723584D01*
X148952029Y-74558920D01*
X148986800Y-74384115D01*
X148986800Y-74205885D01*
X148952029Y-74031080D01*
X148883823Y-73866416D01*
X148784804Y-73718224D01*
X148658776Y-73592196D01*
X148510584Y-73493177D01*
X148345920Y-73424971D01*
X148171115Y-73390200D01*
X147992885Y-73390200D01*
X147818080Y-73424971D01*
X147653416Y-73493177D01*
X147505224Y-73592196D01*
X147379196Y-73718224D01*
X147280177Y-73866416D01*
X147211971Y-74031080D01*
X147177200Y-74205885D01*
X142446847Y-74205885D01*
X142488636Y-74104998D01*
X142513800Y-73978492D01*
X142513800Y-73849508D01*
X142488636Y-73723002D01*
X142439276Y-73603836D01*
X142367616Y-73496590D01*
X142276410Y-73405384D01*
X142169164Y-73333724D01*
X142049998Y-73284364D01*
X141923492Y-73259200D01*
X141794508Y-73259200D01*
X141668002Y-73284364D01*
X141548836Y-73333724D01*
X141441590Y-73405384D01*
X141350384Y-73496590D01*
X141278724Y-73603836D01*
X141229364Y-73723002D01*
X141215286Y-73793776D01*
X141164804Y-73718224D01*
X141038776Y-73592196D01*
X140890584Y-73493177D01*
X140725920Y-73424971D01*
X140551115Y-73390200D01*
X140372885Y-73390200D01*
X140198080Y-73424971D01*
X140033416Y-73493177D01*
X139885224Y-73592196D01*
X139759196Y-73718224D01*
X139660177Y-73866416D01*
X139591971Y-74031080D01*
X139557200Y-74205885D01*
X139557200Y-74384115D01*
X139591971Y-74558920D01*
X139660177Y-74723584D01*
X139759196Y-74871776D01*
X139885224Y-74997804D01*
X140033416Y-75096823D01*
X140198080Y-75165029D01*
X140372885Y-75199800D01*
X140551115Y-75199800D01*
X140725920Y-75165029D01*
X140844247Y-75116017D01*
X137753664Y-78206600D01*
X136312916Y-78206600D01*
X136343276Y-78161164D01*
X136392636Y-78041998D01*
X136417800Y-77915492D01*
X136417800Y-77786508D01*
X136392636Y-77660002D01*
X136343276Y-77540836D01*
X136271616Y-77433590D01*
X136180410Y-77342384D01*
X136073164Y-77270724D01*
X135953998Y-77221364D01*
X135827492Y-77196200D01*
X135698508Y-77196200D01*
X135572002Y-77221364D01*
X135452836Y-77270724D01*
X135345590Y-77342384D01*
X135254384Y-77433590D01*
X135247027Y-77444600D01*
X130597916Y-77444600D01*
X130628276Y-77399164D01*
X130677636Y-77279998D01*
X130702800Y-77153492D01*
X130702800Y-77024508D01*
X130677636Y-76898002D01*
X130628276Y-76778836D01*
X130556616Y-76671590D01*
X130480881Y-76595855D01*
X131359336Y-75717400D01*
X134346047Y-75717400D01*
X134366000Y-75719365D01*
X134385953Y-75717400D01*
X134385960Y-75717400D01*
X134445668Y-75711519D01*
X134522275Y-75688281D01*
X134592876Y-75650544D01*
X134654758Y-75599758D01*
X134667482Y-75584254D01*
X136036254Y-74215482D01*
X136051758Y-74202758D01*
X136102544Y-74140876D01*
X136140281Y-74070275D01*
X136163519Y-73993668D01*
X136169400Y-73933960D01*
X136169400Y-73933954D01*
X136171365Y-73914001D01*
X136169400Y-73894048D01*
X136169400Y-73044952D01*
X136171365Y-73024999D01*
X136169400Y-73005046D01*
X136169400Y-73005040D01*
X136163519Y-72945332D01*
X136140281Y-72868725D01*
X136102544Y-72798124D01*
X136051758Y-72736242D01*
X136036255Y-72723519D01*
X135601136Y-72288400D01*
X149818664Y-72288400D01*
X150731784Y-73201520D01*
X150729200Y-73214508D01*
X150729200Y-73343492D01*
X150754364Y-73469998D01*
X150803724Y-73589164D01*
X150875384Y-73696410D01*
X150966590Y-73787616D01*
X151073836Y-73859276D01*
X151193002Y-73908636D01*
X151319508Y-73933800D01*
X151448492Y-73933800D01*
X151574998Y-73908636D01*
X151694164Y-73859276D01*
X151801410Y-73787616D01*
X151892616Y-73696410D01*
X151964276Y-73589164D01*
X152013636Y-73469998D01*
X152038800Y-73343492D01*
X152038800Y-73214508D01*
X152013636Y-73088002D01*
X151964276Y-72968836D01*
X151892616Y-72861590D01*
X151801410Y-72770384D01*
X151694164Y-72698724D01*
X151574998Y-72649364D01*
X151548032Y-72644000D01*
X151574998Y-72638636D01*
X151694164Y-72589276D01*
X151801410Y-72517616D01*
X151892616Y-72426410D01*
X151964276Y-72319164D01*
X152013636Y-72199998D01*
X152038800Y-72073492D01*
X152038800Y-71944508D01*
X152013636Y-71818002D01*
X151964276Y-71698836D01*
X151892616Y-71591590D01*
X151801410Y-71500384D01*
X151694164Y-71428724D01*
X151574998Y-71379364D01*
X151448492Y-71354200D01*
X151319508Y-71354200D01*
X151306520Y-71356784D01*
X151050481Y-71100745D01*
X151037758Y-71085242D01*
X150975876Y-71034456D01*
X150905275Y-70996719D01*
X150828668Y-70973481D01*
X150768960Y-70967600D01*
X150768953Y-70967600D01*
X150749000Y-70965635D01*
X150729047Y-70967600D01*
X136185336Y-70967600D01*
X132590244Y-67372508D01*
X141966200Y-67372508D01*
X141966200Y-67501492D01*
X141991364Y-67627998D01*
X142040724Y-67747164D01*
X142112384Y-67854410D01*
X142203590Y-67945616D01*
X142310836Y-68017276D01*
X142430002Y-68066636D01*
X142556508Y-68091800D01*
X142685492Y-68091800D01*
X142811998Y-68066636D01*
X142931164Y-68017276D01*
X143031213Y-67950425D01*
X143007364Y-68008002D01*
X142982200Y-68134508D01*
X142982200Y-68263492D01*
X143007364Y-68389998D01*
X143056724Y-68509164D01*
X143128384Y-68616410D01*
X143219590Y-68707616D01*
X143326836Y-68779276D01*
X143446002Y-68828636D01*
X143572508Y-68853800D01*
X143701492Y-68853800D01*
X143714480Y-68851216D01*
X144224522Y-69361259D01*
X144237242Y-69376758D01*
X144252740Y-69389477D01*
X144252745Y-69389482D01*
X144273746Y-69406717D01*
X144299124Y-69427544D01*
X144369725Y-69465281D01*
X144446331Y-69488519D01*
X144453604Y-69489235D01*
X144506040Y-69494400D01*
X144506047Y-69494400D01*
X144526000Y-69496365D01*
X144545953Y-69494400D01*
X150487027Y-69494400D01*
X150494384Y-69505410D01*
X150585590Y-69596616D01*
X150692836Y-69668276D01*
X150812002Y-69717636D01*
X150938508Y-69742800D01*
X151067492Y-69742800D01*
X151193998Y-69717636D01*
X151313164Y-69668276D01*
X151420410Y-69596616D01*
X151511616Y-69505410D01*
X151583276Y-69398164D01*
X151632636Y-69278998D01*
X151657800Y-69152492D01*
X151657800Y-69023508D01*
X151632636Y-68897002D01*
X151583276Y-68777836D01*
X151511616Y-68670590D01*
X151420410Y-68579384D01*
X151313164Y-68507724D01*
X151193998Y-68458364D01*
X151067492Y-68433200D01*
X150938508Y-68433200D01*
X150845040Y-68451792D01*
X150870636Y-68389998D01*
X150895800Y-68263492D01*
X150895800Y-68134508D01*
X150870636Y-68008002D01*
X150821276Y-67888836D01*
X150783445Y-67832218D01*
X150811508Y-67837800D01*
X150940492Y-67837800D01*
X151066998Y-67812636D01*
X151186164Y-67763276D01*
X151293410Y-67691616D01*
X151384616Y-67600410D01*
X151456276Y-67493164D01*
X151505636Y-67373998D01*
X151530800Y-67247492D01*
X151530800Y-67118508D01*
X151505636Y-66992002D01*
X151456276Y-66872836D01*
X151384616Y-66765590D01*
X151293410Y-66674384D01*
X151186164Y-66602724D01*
X151066998Y-66553364D01*
X150940492Y-66528200D01*
X150811508Y-66528200D01*
X150685002Y-66553364D01*
X150565836Y-66602724D01*
X150458590Y-66674384D01*
X150367384Y-66765590D01*
X150295724Y-66872836D01*
X150282981Y-66903600D01*
X146438973Y-66903600D01*
X146431616Y-66892590D01*
X146340410Y-66801384D01*
X146233164Y-66729724D01*
X146113998Y-66680364D01*
X145987492Y-66655200D01*
X145858508Y-66655200D01*
X145732002Y-66680364D01*
X145612836Y-66729724D01*
X145505590Y-66801384D01*
X145414384Y-66892590D01*
X145342724Y-66999836D01*
X145293364Y-67119002D01*
X145268200Y-67245508D01*
X145268200Y-67374492D01*
X145293364Y-67500998D01*
X145342724Y-67620164D01*
X145414384Y-67727410D01*
X145479574Y-67792600D01*
X145202337Y-67792600D01*
X144446482Y-67036746D01*
X144433758Y-67021242D01*
X144371876Y-66970456D01*
X144301275Y-66932719D01*
X144224668Y-66909481D01*
X144164960Y-66903600D01*
X144164953Y-66903600D01*
X144145000Y-66901635D01*
X144125047Y-66903600D01*
X143001318Y-66903600D01*
X142931164Y-66856724D01*
X142811998Y-66807364D01*
X142685492Y-66782200D01*
X142556508Y-66782200D01*
X142430002Y-66807364D01*
X142310836Y-66856724D01*
X142203590Y-66928384D01*
X142112384Y-67019590D01*
X142040724Y-67126836D01*
X141991364Y-67246002D01*
X141966200Y-67372508D01*
X132590244Y-67372508D01*
X131873482Y-66655746D01*
X131860758Y-66640242D01*
X131798876Y-66589456D01*
X131728275Y-66551719D01*
X131651668Y-66528481D01*
X131591960Y-66522600D01*
X131591953Y-66522600D01*
X131572000Y-66520635D01*
X131552047Y-66522600D01*
X130690973Y-66522600D01*
X130683616Y-66511590D01*
X130592410Y-66420384D01*
X130485164Y-66348724D01*
X130365998Y-66299364D01*
X130239492Y-66274200D01*
X130110508Y-66274200D01*
X129984002Y-66299364D01*
X129864836Y-66348724D01*
X129757590Y-66420384D01*
X129666384Y-66511590D01*
X129594724Y-66618836D01*
X129545364Y-66738002D01*
X129520200Y-66864508D01*
X129520200Y-66993492D01*
X129545364Y-67119998D01*
X129594724Y-67239164D01*
X129666384Y-67346410D01*
X129757590Y-67437616D01*
X129864836Y-67509276D01*
X129984002Y-67558636D01*
X130110508Y-67583800D01*
X130239492Y-67583800D01*
X130365998Y-67558636D01*
X130485164Y-67509276D01*
X130592410Y-67437616D01*
X130683616Y-67346410D01*
X130690973Y-67335400D01*
X131403664Y-67335400D01*
X132243492Y-68175228D01*
X132226960Y-68173600D01*
X132226953Y-68173600D01*
X132207000Y-68171635D01*
X132187047Y-68173600D01*
X131706973Y-68173600D01*
X131699616Y-68162590D01*
X131608410Y-68071384D01*
X131501164Y-67999724D01*
X131381998Y-67950364D01*
X131255492Y-67925200D01*
X131126508Y-67925200D01*
X131000002Y-67950364D01*
X130880836Y-67999724D01*
X130773590Y-68071384D01*
X130682384Y-68162590D01*
X130610724Y-68269836D01*
X130561364Y-68389002D01*
X130536200Y-68515508D01*
X130536200Y-68644492D01*
X130561364Y-68770998D01*
X130610724Y-68890164D01*
X130682384Y-68997410D01*
X130747574Y-69062600D01*
X129581337Y-69062600D01*
X128168400Y-67649664D01*
X128168400Y-67063973D01*
X128179410Y-67056616D01*
X128270616Y-66965410D01*
X128342276Y-66858164D01*
X128391636Y-66738998D01*
X128416800Y-66612492D01*
X128416800Y-66483508D01*
X128391636Y-66357002D01*
X128342276Y-66237836D01*
X128270616Y-66130590D01*
X128179410Y-66039384D01*
X128072164Y-65967724D01*
X127952998Y-65918364D01*
X127826492Y-65893200D01*
X127697508Y-65893200D01*
X127669445Y-65898782D01*
X127707276Y-65842164D01*
X127756636Y-65722998D01*
X127781800Y-65596492D01*
X127781800Y-65467508D01*
X127756636Y-65341002D01*
X127707276Y-65221836D01*
X127635616Y-65114590D01*
X127544410Y-65023384D01*
X127437164Y-64951724D01*
X127317998Y-64902364D01*
X127191492Y-64877200D01*
X127062508Y-64877200D01*
X126936002Y-64902364D01*
X126816836Y-64951724D01*
X126709590Y-65023384D01*
X126618384Y-65114590D01*
X126546724Y-65221836D01*
X126497364Y-65341002D01*
X126472200Y-65467508D01*
X126472200Y-65596492D01*
X126474784Y-65609480D01*
X126472746Y-65611518D01*
X126457242Y-65624242D01*
X126406456Y-65686125D01*
X126371650Y-65751242D01*
X126368719Y-65756726D01*
X126345482Y-65833331D01*
X126345481Y-65833333D01*
X126339600Y-65893041D01*
X126339600Y-65893047D01*
X126337635Y-65913000D01*
X126339600Y-65932953D01*
X126339601Y-71713662D01*
X125653800Y-72399464D01*
X125653800Y-65868672D01*
X129578500Y-61943972D01*
X129609517Y-61918517D01*
X129634972Y-61887500D01*
X130015965Y-61506507D01*
X130092088Y-61413753D01*
X130167561Y-61272550D01*
X130214038Y-61119337D01*
X130229732Y-60960001D01*
X130214038Y-60800664D01*
X130167561Y-60647451D01*
X130092088Y-60506249D01*
X129990516Y-60382484D01*
X129866751Y-60280912D01*
X129725549Y-60205439D01*
X129717800Y-60203088D01*
X129717800Y-55078077D01*
X129706039Y-54958663D01*
X129659562Y-54805450D01*
X129584088Y-54664248D01*
X129494722Y-54555355D01*
X129509658Y-54537157D01*
X129537960Y-54484206D01*
X129540000Y-54477481D01*
X129542040Y-54484206D01*
G36*
X129080000Y-49123600D02*
G01*
X129204400Y-49123600D01*
X129204400Y-49682400D01*
X129080000Y-49682400D01*
X129080000Y-49702400D01*
X128730000Y-49702400D01*
X128730000Y-49682400D01*
X128621956Y-49682400D01*
X128623648Y-49676821D01*
X128625600Y-49657000D01*
X128625600Y-49123600D01*
X128730000Y-49123600D01*
X128730000Y-49103600D01*
X129080000Y-49103600D01*
X129080000Y-49123600D01*
X129080000Y-49123600D01*
G37*
X129080000Y-49123600D02*
X129204400Y-49123600D01*
X129204400Y-49682400D01*
X129080000Y-49682400D01*
X129080000Y-49702400D01*
X128730000Y-49702400D01*
X128730000Y-49682400D01*
X128621956Y-49682400D01*
X128623648Y-49676821D01*
X128625600Y-49657000D01*
X128625600Y-49123600D01*
X128730000Y-49123600D01*
X128730000Y-49103600D01*
X129080000Y-49103600D01*
X129080000Y-49123600D01*
%TD*%
M02*
