M48
; DRILL file {KiCad 5.1.0-rc2-unknown-036be7d~80~ubuntu16.04.1} date  4.02.2022 (пт) 13:28:55 EET
; FORMAT={-:-/ absolute / inch / decimal}
; #@! TF.CreationDate,2022-02-04T13:28:55+02:00*
; #@! TF.GenerationSoftware,Kicad,Pcbnew,5.1.0-rc2-unknown-036be7d~80~ubuntu16.04.1
; #@! TF.FileFunction,Plated,1,2,PTH
FMAT,2
INCH
T1C0.0157
T2C0.0236
T3C0.0394
%
G90
G05
T1
X4.715Y-2.12
X4.715Y-3.54
X4.755Y-2.23
X4.775Y-2.86
X4.775Y-3.39
X4.79Y-1.985
X4.795Y-2.68
X4.795Y-2.78
X4.795Y-2.93
X4.8Y-1.84
X4.805Y-3.53
X4.845Y-2.23
X4.865Y-2.13
X4.96Y-2.33
X5.005Y-2.58
X5.005Y-2.88
X5.005Y-2.98
X5.005Y-3.28
X5.015Y-3.415
X5.03Y-2.62
X5.03Y-2.72
X5.03Y-2.77
X5.035Y-2.82
X5.035Y-3.05
X5.035Y-3.15
X5.05Y-3.38
X5.055Y-2.885
X5.055Y-2.93
X5.06Y-3.11
X5.085Y-3.0
X5.1Y-3.63
X5.115Y-3.2
X5.12Y-3.035
X5.12Y-3.4
X5.125Y-2.045
X5.125Y-2.635
X5.13Y-3.775
X5.15Y-3.23
X5.165Y-2.7
X5.18Y-2.87
X5.185Y-2.775
X5.185Y-2.825
X5.225Y-3.095
X5.24Y-2.855
X5.265Y-2.895
X5.28Y-2.825
X5.31Y-2.885
X5.31Y-3.64
X5.315Y-2.015
X5.345Y-3.065
X5.38Y-3.856
X5.405Y-3.891
X5.425Y-2.37
X5.425Y-2.415
X5.47Y-3.61
X5.495Y-3.9
X5.505Y-3.64
X5.55Y-3.9
X5.555Y-3.625
X5.58Y-2.02
X5.58Y-2.295
X5.585Y-2.91
X5.6Y-3.605
X5.6Y-3.9
X5.615Y-2.255
X5.615Y-2.655
X5.635Y-2.02
X5.65Y-3.855
X5.65Y-3.9
X5.655Y-2.685
X5.695Y-2.925
X5.7Y-3.855
X5.7Y-3.9
X5.72Y-2.18
X5.725Y-2.005
X5.725Y-2.405
X5.73Y-2.285
X5.73Y-3.17
X5.745Y-2.65
X5.75Y-3.855
X5.75Y-3.9
X5.775Y-2.255
X5.78Y-3.155
X5.8Y-3.88
X5.805Y-3.615
X5.825Y-2.365
X5.83Y-2.44
X5.83Y-2.76
X5.835Y-2.16
X5.835Y-3.275
X5.84Y-3.9
X5.85Y-2.005
X5.9Y-3.9
X5.915Y-2.685
X5.93Y-2.205
X5.94Y-2.645
X5.94Y-3.22
X5.945Y-2.72
X5.95Y-3.9
X5.96Y-2.835
X5.96Y-2.885
X5.96Y-2.975
X5.96Y-3.02
X5.96Y-3.065
X5.99Y-2.31
X6.0Y-3.9
X6.01Y-1.955
X6.015Y-3.71
X6.025Y-3.2
X6.034Y-3.643
X6.04Y-3.16
X6.04Y-3.24
X6.05Y-3.9
X6.059Y-3.71
X6.08Y-3.125
X6.1Y-3.9
X6.106Y-3.468
X6.11Y-3.36
X6.115Y-3.43
X6.135Y-3.395
X6.135Y-3.875
X6.185Y-3.855
T2
X4.62Y-3.33
X4.635Y-3.84
X4.67Y-3.33
X4.685Y-3.84
X4.73Y-1.725
X4.735Y-3.945
X4.915Y-1.725
X4.915Y-3.725
X4.915Y-3.945
X4.92Y-3.825
X4.97Y-3.725
X4.98Y-3.825
X5.035Y-3.485
X5.075Y-3.775
X5.095Y-2.4
X5.105Y-3.33
X5.11Y-2.49
X5.15Y-2.53
X5.16Y-3.33
X5.265Y-3.315
X5.265Y-3.37
X5.265Y-3.78
X5.36Y-2.695
X5.36Y-2.75
X5.365Y-2.24
X5.365Y-2.37
X5.4Y-2.18
X5.415Y-2.985
X5.48Y-2.685
X5.53Y-2.685
X5.54Y-3.455
X5.59Y-3.455
X5.64Y-3.17
X5.64Y-3.28
X5.68Y-3.225
X5.785Y-3.47
X5.95Y-2.775
X5.955Y-3.335
X5.965Y-2.385
X5.975Y-3.465
X6.095Y-2.385
X6.1Y-2.105
X6.175Y-2.73
X6.175Y-2.99
X6.23Y-2.07
X6.23Y-2.35
X6.23Y-2.575
X6.235Y-2.875
T3
X5.065Y-3.93
X5.165Y-3.93
T0
M30
